<svg width="233" height="224" viewBox="0 0 233 224" fill="none" xmlns="http://www.w3.org/2000/svg">
<path opacity="0.04" d="M161.341 95.502C248.155 127.501 116.962 223.633 103.846 160.26C97.3195 128.728 36.1714 148.235 38.0104 115.701C39.8288 83.176 67.3881 85.9779 94.7194 70.039C128.762 50.0066 138.353 87.028 161.341 95.502Z" stroke="#B9C1BE" stroke-width="0.3" stroke-miterlimit="10"/>
<path opacity="0.07" d="M162.002 93.8727C243.447 127.445 121.263 221.951 103.862 161.681C95.2849 131.974 35.1235 144.689 38.8014 113.24C42.4406 81.8131 69.2296 82.0956 95.9754 68.9358C129.329 52.5231 139.819 84.7266 162.004 93.8727H162.002Z" stroke="#B9C1BE" stroke-width="0.3" stroke-miterlimit="10"/>
<path opacity="0.11" d="M162.682 92.2421C238.74 127.227 125.652 220.334 103.897 163.098C93.3098 135.245 34.0941 141.139 39.6087 110.776C45.0663 80.4446 71.0464 78.1598 97.2452 67.8292C129.861 54.9724 141.275 82.3945 162.682 92.2398V92.2421Z" stroke="#B9C1BE" stroke-width="0.3" stroke-miterlimit="10"/>
<path opacity="0.15" d="M163.35 90.6132C234.015 126.831 130.126 218.774 103.921 164.517C91.3738 138.539 33.0537 137.592 40.4072 108.313C47.6832 79.0799 72.8384 74.2233 98.5063 66.7242C130.366 57.4188 142.703 80.0275 163.35 90.6109V90.6132Z" stroke="#B9C1BE" stroke-width="0.3" stroke-miterlimit="10"/>
<path opacity="0.19" d="M164.018 88.9822C229.302 126.234 134.709 217.24 103.943 165.936C89.4938 141.842 32.0123 134.043 41.2048 105.853C50.2993 77.7154 74.6181 70.2824 99.7665 65.6239C130.851 59.8653 144.116 77.6288 164.018 88.9844V88.9822Z" stroke="#B9C1BE" stroke-width="0.3" stroke-miterlimit="10"/>
<path opacity="0.23" d="M164.694 87.3532C224.632 125.434 139.418 215.7 103.972 167.355C87.6809 145.136 30.9764 130.495 42.0056 103.39C52.9208 76.3483 76.3851 66.3299 101.032 64.5189C131.326 62.291 145.527 75.1775 164.691 87.3555L164.694 87.3532Z" stroke="#B9C1BE" stroke-width="0.3" stroke-miterlimit="10"/>
<path opacity="0.26" d="M165.371 85.7228C220.022 124.416 144.249 214.118 104.004 168.773C85.929 148.408 29.9423 126.945 42.8127 100.926C55.5464 74.9822 78.1493 62.36 102.302 63.4125C131.791 64.6949 146.943 72.6769 165.369 85.7228H165.371Z" stroke="#B9C1BE" stroke-width="0.3" stroke-miterlimit="10"/>
<path opacity="0.3" d="M166.044 84.0939C215.492 123.186 149.178 212.462 104.032 170.192C84.2203 151.645 28.9059 123.398 43.6152 98.4632C58.1673 73.6152 79.9021 58.3711 103.567 62.3074C132.247 67.0752 148.367 70.1186 166.041 84.0916L166.044 84.0939Z" stroke="#B9C1BE" stroke-width="0.3" stroke-miterlimit="10"/>
<path opacity="0.34" d="M166.71 82.4627C211.071 121.748 154.184 210.698 104.054 171.611C82.5401 154.836 27.8637 119.849 44.4098 96.0006C60.7803 72.2506 81.6514 54.3617 104.826 61.2024C132.7 69.4304 149.816 67.501 166.71 82.4627Z" stroke="#B9C1BE" stroke-width="0.3" stroke-miterlimit="10"/>
<path opacity="0.38" d="M167.378 80.8342C206.792 120.127 159.241 208.819 104.077 173.03C80.8815 157.982 26.8226 116.302 45.2076 93.5407C63.3989 70.8863 83.4132 50.3346 106.087 60.1002C133.167 71.7633 151.313 64.8178 167.378 80.8342Z" stroke="#B9C1BE" stroke-width="0.3" stroke-miterlimit="10"/>
<path opacity="0.41" d="M168.059 79.2031C202.694 118.343 164.329 206.817 104.113 174.447C79.2382 161.075 25.7946 112.751 46.0185 91.0758C66.0283 69.5195 85.204 46.2888 107.36 58.993C133.666 74.0777 152.894 62.066 168.059 79.2031Z" stroke="#B9C1BE" stroke-width="0.3" stroke-miterlimit="10"/>
<path opacity="0.45" d="M168.725 77.5743C198.775 116.445 169.395 204.705 104.134 175.868C77.5727 164.132 24.7512 109.206 46.8141 88.6156C68.6423 68.1549 86.9977 42.2386 108.621 57.8904C134.172 76.3875 154.563 59.2504 168.727 77.5743H168.725Z" stroke="#B9C1BE" stroke-width="0.3" stroke-miterlimit="10"/>
<path opacity="0.49" d="M169.408 75.9452C195.087 114.486 174.451 202.495 104.172 177.287C75.9108 167.15 23.7251 105.657 47.6246 86.1528C71.2712 66.7901 88.8245 38.1857 109.894 56.7853C134.712 78.6925 156.371 56.3775 169.408 75.943V75.9452Z" stroke="#B9C1BE" stroke-width="0.3" stroke-miterlimit="10"/>
<path opacity="0.53" d="M170.066 74.3144C191.602 112.525 179.438 200.204 104.185 178.704C74.201 170.139 22.6716 102.108 48.4124 83.6882C73.8797 65.4212 90.6422 34.1357 111.144 55.6784C135.244 81.0025 158.312 53.4597 170.066 74.3121V74.3144Z" stroke="#B9C1BE" stroke-width="0.3" stroke-miterlimit="10"/>
<path opacity="0.56" d="M170.741 72.686C188.365 110.641 184.396 197.855 104.216 180.126C72.4862 173.11 21.6381 98.5614 49.2178 81.2306C76.5036 64.0594 92.4868 30.095 112.414 54.5808C135.81 83.3264 160.455 50.5306 170.744 72.6883L170.741 72.686Z" stroke="#B9C1BE" stroke-width="0.3" stroke-miterlimit="10"/>
<path opacity="0.6" d="M171.415 71.0547C185.345 108.905 189.299 195.463 104.245 181.543C70.7469 176.06 20.6029 95.0097 50.0193 78.7656C79.1236 62.6923 94.3365 26.0558 113.679 53.4734C136.38 85.6496 162.786 47.6053 171.415 71.057V71.0547Z" stroke="#B9C1BE" stroke-width="0.3" stroke-miterlimit="10"/>
<g opacity="0.7">
<path d="M125.919 184.707C63.802 310.956 -14.202 85.554 67.979 88.1577C109.131 89.463 95.1212 -6.5394 135.38 1.26717C175.639 9.07375 161.173 48.8606 175.898 93.5314C194.288 149.319 141.97 152.084 125.919 184.707Z" stroke="#FF914D" stroke-width="0.3" stroke-miterlimit="10"/>
<g style="mix-blend-mode:hard-light" opacity="0.94">
<path d="M127.671 186.057C64.9007 304.361 -13.3608 92.128 66.2634 87.8682C105.823 85.752 99.6517 -7.21619 138.094 2.99819C176.53 13.1807 165.442 52.389 176.856 95.6178C191.289 149.503 144.242 154.829 127.671 186.06V186.057Z" stroke="#FF914D" stroke-width="0.3" stroke-miterlimit="10"/>
</g>
<g style="mix-blend-mode:hard-light" opacity="0.88">
<path d="M129.426 187.409C66.1566 297.758 -12.6609 98.7709 64.5478 87.5793C102.453 82.0849 104.182 -7.89005 140.809 4.72986C177.419 17.2883 169.557 55.9453 177.815 97.7048C188.102 149.727 146.546 157.551 129.426 187.411V187.409Z" stroke="#FF914D" stroke-width="0.3" stroke-miterlimit="10"/>
</g>
<g style="mix-blend-mode:hard-light" opacity="0.81">
<path d="M131.197 188.759C67.6111 291.153 -12.07 105.525 62.8486 87.2873C99.0443 78.4785 108.731 -8.56928 143.539 6.45843C178.327 21.3927 173.769 59.4689 178.789 99.7865C185.028 149.904 148.899 160.248 131.195 188.759H131.197Z" stroke="#FF914D" stroke-width="0.3" stroke-miterlimit="10"/>
</g>
<g style="mix-blend-mode:hard-light" opacity="0.75">
<path d="M132.956 190.11C69.2578 284.57 -11.581 112.425 61.1386 86.9981C95.5888 74.9522 113.267 -9.24579 146.259 8.18973C179.224 25.5 177.977 62.9793 179.752 101.873C181.954 150.073 151.282 162.934 132.954 190.11H132.956Z" stroke="#FF914D" stroke-width="0.3" stroke-miterlimit="10"/>
</g>
<g style="mix-blend-mode:hard-light" opacity="0.69">
<path d="M134.731 191.461C71.1376 278.023 -11.1209 119.5 59.443 86.7087C92.1317 71.517 117.818 -9.92015 148.996 9.91861C180.135 29.6048 182.213 66.4781 180.734 103.957C178.909 150.221 153.726 165.604 134.731 191.461Z" stroke="#FF914D" stroke-width="0.3" stroke-miterlimit="10"/>
</g>
<g style="mix-blend-mode:hard-light" opacity="0.62">
<path d="M136.501 192.812C73.2565 271.541 -10.6495 126.756 57.745 86.4177C88.6836 68.1712 122.368 -10.5961 151.728 11.6504C181.044 33.7148 186.456 69.9662 181.709 106.045C175.878 150.36 156.219 168.269 136.501 192.812Z" stroke="#FF914D" stroke-width="0.3" stroke-miterlimit="10"/>
</g>
<g style="mix-blend-mode:hard-light" opacity="0.56">
<path d="M138.253 194.163C75.6055 265.151 -10.1326 134.18 56.0264 86.1284C85.2469 64.9046 126.896 -11.2727 154.439 13.3817C181.932 37.8219 190.701 73.4492 182.666 108.129C172.854 150.488 158.753 170.935 138.253 194.163Z" stroke="#FF914D" stroke-width="0.3" stroke-miterlimit="10"/>
</g>
<g style="mix-blend-mode:hard-light" opacity="0.5">
<path d="M140.015 195.513C78.2271 258.886 -9.4935 141.747 54.3207 85.8386C81.8708 61.7013 131.436 -11.9497 157.163 15.1125C182.831 41.9286 194.977 76.9295 183.633 110.215C169.865 150.617 161.361 173.62 140.015 195.513Z" stroke="#FF914D" stroke-width="0.3" stroke-miterlimit="10"/>
</g>
<g style="mix-blend-mode:hard-light" opacity="0.44">
<path d="M141.771 196.864C81.0987 252.788 -8.72287 149.414 52.6052 85.5493C78.542 58.5372 135.967 -12.6263 159.877 16.8437C183.722 46.0357 199.268 80.4147 184.593 112.302C166.896 150.754 164.036 176.342 141.771 196.866V196.864Z" stroke="#FF914D" stroke-width="0.3" stroke-miterlimit="10"/>
</g>
<g style="mix-blend-mode:hard-light" opacity="0.38">
<path d="M143.542 198.215C84.2307 246.891 -7.78767 157.143 50.9085 85.2578C75.2911 55.3938 140.516 -13.3027 162.611 18.5728C184.633 50.1408 203.596 83.9116 185.569 114.386C163.967 150.902 166.806 179.124 143.542 198.215Z" stroke="#FF914D" stroke-width="0.3" stroke-miterlimit="10"/>
</g>
<g style="mix-blend-mode:hard-light" opacity="0.31">
<path d="M145.307 199.566C87.5675 241.239 -6.71822 164.898 49.2024 84.9685C72.0879 52.257 145.056 -13.9793 165.337 20.304C185.536 54.2479 207.933 87.4287 186.538 116.47C161.05 151.073 169.648 181.998 145.307 199.566Z" stroke="#FF914D" stroke-width="0.3" stroke-miterlimit="10"/>
</g>
<g style="mix-blend-mode:hard-light" opacity="0.25">
<path d="M147.064 200.915C91.0596 235.865 -5.52765 172.648 47.4921 84.6772C68.9283 49.1114 149.592 -14.6556 168.054 22.0333C186.428 58.3531 212.271 90.9621 187.501 118.555C158.135 151.267 172.564 185.003 147.064 200.915Z" stroke="#FF914D" stroke-width="0.3" stroke-miterlimit="10"/>
</g>
<g style="mix-blend-mode:hard-light" opacity="0.19">
<path d="M148.824 202.265C94.644 230.811 -4.22881 180.372 45.7807 84.3878C65.8064 45.9518 154.126 -15.3322 170.775 23.7644C187.325 62.4624 216.614 94.5202 188.465 120.642C155.225 151.485 175.547 188.188 148.824 202.268V202.265Z" stroke="#FF914D" stroke-width="0.3" stroke-miterlimit="10"/>
</g>
<g style="mix-blend-mode:hard-light" opacity="0.12">
<path d="M150.592 203.616C98.2351 226.095 -2.83444 188.06 44.0805 84.0985C62.7298 42.7694 158.674 -16.0088 173.505 25.4933C188.232 66.5673 220.964 98.0942 189.44 122.726C152.324 151.727 178.588 191.6 150.594 203.616H150.592Z" stroke="#FF914D" stroke-width="0.3" stroke-miterlimit="10"/>
</g>
<g style="mix-blend-mode:hard-light" opacity="0.06">
<path d="M152.354 204.967C101.691 221.722 -1.37702 195.703 42.3728 83.807C59.6708 39.5667 163.213 -16.6853 176.227 27.2247C189.129 70.6745 225.3 101.687 190.405 124.81C149.401 151.984 181.627 195.286 152.354 204.967Z" stroke="#FF914D" stroke-width="0.3" stroke-miterlimit="10"/>
</g>
</g>
<path opacity="0.03" d="M56.3337 153.961C-80.4394 137.726 82.1793 -37.3877 120.681 45.9583C139.829 87.4127 223.312 40.7577 230.537 86.3033C237.788 131.826 196.634 136.84 161.521 167.668C117.842 206.318 92.5157 158.257 56.3359 153.961H56.3337Z" stroke="white" stroke-width="0.3" stroke-miterlimit="10"/>
<path opacity="0.05" d="M55.8523 156.428C-73.6196 136.271 76.3771 -33.6994 120.213 44.0042C141.795 82.2625 225.913 45.3254 230.12 89.9597C234.377 134.553 195.118 142.793 160.012 169.597C116.244 203.017 91.0454 161.905 55.8523 156.426V156.428Z" stroke="white" stroke-width="0.3" stroke-miterlimit="10"/>
<path opacity="0.07" d="M55.3714 158.897C-66.7219 135.027 70.4408 -30.0868 119.746 42.0539C143.691 77.089 228.516 49.8947 229.703 93.6224C230.965 137.286 193.678 148.813 158.503 171.533C114.738 199.803 89.612 165.592 55.3692 158.897H55.3714Z" stroke="white" stroke-width="0.3" stroke-miterlimit="10"/>
<path opacity="0.1" d="M54.8843 161.364C-59.762 134.022 64.3389 -26.5178 119.275 40.1012C145.501 71.9038 231.116 54.4615 229.282 97.2803C227.55 140.015 192.252 154.828 156.991 173.464C113.248 196.583 88.2156 169.312 54.8843 161.364Z" stroke="white" stroke-width="0.3" stroke-miterlimit="10"/>
<path opacity="0.12" d="M54.394 163.834C-52.7575 133.289 58.0583 -22.9409 118.798 38.1495C147.214 66.7311 233.709 59.0293 228.858 100.942C224.132 142.749 190.841 160.852 155.475 175.399C111.782 193.372 86.848 173.085 54.394 163.834Z" stroke="white" stroke-width="0.3" stroke-miterlimit="10"/>
<path opacity="0.15" d="M53.9067 166.303C-45.7249 132.849 51.6074 -19.3076 118.325 36.1994C148.846 61.5919 236.307 63.5988 228.434 104.602C220.714 145.48 189.454 166.884 153.96 177.333C110.342 190.174 85.5062 176.911 53.9067 166.301V166.303Z" stroke="white" stroke-width="0.3" stroke-miterlimit="10"/>
<path opacity="0.18" d="M53.4124 168.77C-38.7039 132.723 44.9969 -15.5652 117.846 34.247C150.401 56.5072 238.898 68.1658 228.006 108.262C217.291 148.211 188.08 172.934 152.44 179.267C108.921 187 84.1801 180.811 53.4124 168.77Z" stroke="white" stroke-width="0.3" stroke-miterlimit="10"/>
<path opacity="0.2" d="M52.9404 171.24C-31.7039 132.927 38.2926 -11.667 117.386 32.2953C151.92 51.4917 241.507 72.7337 227.598 111.921C213.889 150.941 186.74 179.01 150.94 181.199C107.535 183.855 82.8741 184.787 52.9381 171.237L52.9404 171.24Z" stroke="white" stroke-width="0.3" stroke-miterlimit="10"/>
<path opacity="0.23" d="M52.4504 173.706C-24.8016 133.457 31.5041 -7.59422 116.912 30.3452C153.399 46.5529 244.105 77.3031 227.174 115.584C210.471 153.676 185.386 185.117 149.427 183.135C106.14 180.75 81.5387 188.864 52.4527 173.709L52.4504 173.706Z" stroke="white" stroke-width="0.3" stroke-miterlimit="10"/>
<path opacity="0.25" d="M51.9619 176.176C-18.03 134.309 24.6898 -3.33906 116.437 28.3929C154.868 41.6849 246.7 81.8704 226.749 119.243C207.052 156.405 184.022 191.249 147.911 185.067C104.731 177.675 80.1592 193.042 51.9619 176.176Z" stroke="white" stroke-width="0.3" stroke-miterlimit="10"/>
<path opacity="0.28" d="M51.481 178.645C-11.4263 135.45 17.9035 1.08715 115.972 26.4409C156.361 36.883 249.304 86.4378 226.334 122.903C203.642 159.137 182.655 197.409 146.405 187.001C103.316 174.631 78.7166 197.343 51.481 178.643V178.645Z" stroke="white" stroke-width="0.3" stroke-miterlimit="10"/>
<path opacity="0.3" d="M50.9861 181.112C-5.07347 136.838 11.1535 5.6613 115.491 24.4886C157.862 32.1358 251.895 91.0051 225.905 126.564C200.219 161.868 181.253 203.584 144.884 188.935C101.862 171.606 77.1439 201.771 50.9884 181.112H50.9861Z" stroke="white" stroke-width="0.3" stroke-miterlimit="10"/>
<path opacity="0.33" d="M50.5016 183.581C1.00705 138.4 4.48898 10.3534 115.02 22.5382C159.405 27.4313 254.493 95.5742 225.485 130.224C196.804 164.599 179.837 209.768 143.372 190.868C100.388 168.59 75.422 206.329 50.5016 183.581Z" stroke="white" stroke-width="0.3" stroke-miterlimit="10"/>
<path opacity="0.35" d="M50.0203 186.048C6.76049 140.054 -2.09247 15.1375 114.552 20.5863C160.991 22.755 257.097 100.142 225.067 133.885C193.39 167.333 178.403 215.956 141.863 192.803C98.8928 165.576 73.4915 211.006 50.0181 186.051L50.0203 186.048Z" stroke="white" stroke-width="0.3" stroke-miterlimit="10"/>
<path opacity="0.38" d="M49.5258 188.518C12.136 141.69 -8.60292 19.9827 114.074 18.6342C162.604 18.1011 259.688 104.709 224.639 137.544C189.968 170.062 176.94 222.136 140.343 194.734C97.3659 162.556 71.2902 215.778 49.5258 188.518Z" stroke="white" stroke-width="0.3" stroke-miterlimit="10"/>
<path opacity="0.4" d="M49.05 190.987C17.1429 143.182 -15.0148 24.8666 113.612 16.6841C164.271 13.4608 262.296 109.279 224.229 141.207C186.564 172.795 175.482 228.316 138.842 196.67C95.8397 159.531 68.8159 220.605 49.05 190.987Z" stroke="white" stroke-width="0.3" stroke-miterlimit="10"/>
</svg>
