<svg width="81" height="81" viewBox="0 0 81 81" fill="none" xmlns="http://www.w3.org/2000/svg">
<path d="M47.9832 65.5203H40.2627V78.8314H47.9832V65.5203Z" fill="#FF914D" fill-opacity="0.3"/>
<path d="M79.1319 20.5286V78.8314H71.2783V63.7898V20.5286H79.1319Z" fill="#FF914D" fill-opacity="0.3"/>
<path d="M63.5584 63.7898V78.8314H55.8379V55.5369H63.5584V63.7898Z" fill="#FF914D" fill-opacity="0.3"/>
<path d="M12.5758 38.7649C15.3712 38.7649 17.634 41.0278 17.634 43.8231C17.634 46.6185 15.3712 48.8814 12.5758 48.8814C9.78047 48.8814 7.51758 46.6185 7.51758 43.8231C7.51758 41.0278 9.78047 38.7649 12.5758 38.7649Z" fill="#FF914D" fill-opacity="0.3"/>
<path d="M22.5598 66.8514H17.5015C16.5698 66.8514 15.7711 66.0528 15.7711 65.121C15.7711 64.1892 16.5698 63.3905 17.5015 63.3905H20.8293V56.8681C20.8293 55.1376 20.0307 53.5403 18.5664 52.3423C16.9691 51.0112 14.8393 50.3456 12.5764 50.3456C8.05062 50.3456 4.19039 53.2741 4.19039 56.8681V63.3905H7.51818C8.44996 63.3905 9.24863 64.1892 9.24863 65.121C9.24863 66.0528 8.44996 66.8514 7.51818 66.8514H2.45994C1.52816 66.8514 0.729492 66.0528 0.729492 65.121V56.8681C0.729492 51.4105 5.92084 47.0178 12.4433 47.0178C15.5049 47.0178 18.4333 47.9496 20.5631 49.8132C22.826 51.6767 24.1571 54.2058 24.1571 56.8681V65.121C24.1571 66.0528 23.3584 66.8514 22.5598 66.8514Z" fill="#FF914D"/>
<path d="M7.51951 80.1624C6.58773 80.1624 5.78906 79.3637 5.78906 78.432V62.1924C5.78906 61.2606 6.58773 60.4619 7.51951 60.4619C8.45129 60.4619 9.24996 61.2606 9.24996 62.1924V78.5651C9.24996 79.3637 8.45129 80.1624 7.51951 80.1624Z" fill="#FF914D"/>
<path d="M17.5029 80.1624C16.5711 80.1624 15.7725 79.3637 15.7725 78.432V62.1924C15.7725 61.2606 16.5711 60.4619 17.5029 60.4619C18.4347 60.4619 19.2334 61.2606 19.2334 62.1924V78.5651C19.2334 79.3637 18.4347 80.1624 17.5029 80.1624Z" fill="#FF914D"/>
<path d="M12.5762 80.1625C11.6444 80.1625 10.8457 79.3639 10.8457 78.4321V70.1792C10.8457 69.2474 11.6444 68.4487 12.5762 68.4487C13.5079 68.4487 14.3066 69.2474 14.3066 70.1792V78.4321C14.1735 79.3639 13.3748 80.1625 12.5762 80.1625Z" fill="#FF914D"/>
<path d="M12.5765 50.4786C8.84935 50.4786 5.9209 47.5502 5.9209 43.8231C5.9209 40.0959 8.84935 37.1675 12.5765 37.1675C16.3036 37.1675 19.232 40.0959 19.232 43.8231C19.232 47.5502 16.1705 50.4786 12.5765 50.4786ZM12.5765 40.4953C10.7129 40.4953 9.24869 41.9595 9.24869 43.8231C9.24869 45.6866 10.7129 47.1508 12.5765 47.1508C14.44 47.1508 15.9043 45.6866 15.9043 43.8231C15.9043 41.9595 14.3069 40.4953 12.5765 40.4953Z" fill="#FF914D"/>
<path d="M40.2634 80.4287H32.5429C31.6112 80.4287 30.8125 79.63 30.8125 78.6982V55.5368C30.8125 54.6051 31.6112 53.8064 32.5429 53.8064H40.2634C41.1952 53.8064 41.9939 54.6051 41.9939 55.5368V65.5202C41.9939 66.452 41.1952 67.2507 40.2634 67.2507C39.3316 67.2507 38.533 66.452 38.533 65.5202V57.1342H34.1403V77.1009H40.2634C41.1952 77.1009 41.9939 77.8996 41.9939 78.8314C41.8608 79.63 41.1952 80.4287 40.2634 80.4287Z" fill="#FF914D"/>
<path d="M47.9841 80.4288H40.2637C39.3319 80.4288 38.5332 79.6301 38.5332 78.6983V65.3872C38.5332 64.4554 39.3319 63.6567 40.2637 63.6567H47.9841C48.9159 63.6567 49.7146 64.4554 49.7146 65.3872C49.7146 66.319 48.9159 67.1176 47.9841 67.1176H41.861V77.101H47.9841C48.9159 77.101 49.7146 77.8997 49.7146 78.8315C49.7146 79.6301 48.9159 80.4288 47.9841 80.4288Z" fill="#FF914D"/>
<path d="M55.8386 80.4288H48.1181C47.1864 80.4288 46.3877 79.6301 46.3877 78.6984V42.2258C46.3877 41.294 47.1864 40.4954 48.1181 40.4954H55.8386C56.7704 40.4954 57.5691 41.294 57.5691 42.2258V55.537C57.5691 56.4687 56.7704 57.2674 55.8386 57.2674C54.9068 57.2674 54.1082 56.4687 54.1082 55.537V43.8231H49.7155V77.101H55.8386C56.7704 77.101 57.5691 77.8997 57.5691 78.8315C57.4359 79.6301 56.6373 80.4288 55.8386 80.4288Z" fill="#FF914D"/>
<path d="M63.5574 80.4287H55.8369C54.9051 80.4287 54.1064 79.63 54.1064 78.6982V55.5368C54.1064 54.6051 54.9051 53.8064 55.8369 53.8064H63.5574C64.4891 53.8064 65.2878 54.6051 65.2878 55.5368V63.7898C65.2878 64.7215 64.4891 65.5202 63.5574 65.5202C62.6256 65.5202 61.8269 64.7215 61.8269 63.7898V57.1342H57.4342V77.1009H63.5574C64.4891 77.1009 65.2878 77.8996 65.2878 78.8314C65.1547 79.63 64.4891 80.4287 63.5574 80.4287Z" fill="#FF914D"/>
<path d="M71.279 80.4287H63.5586C62.6268 80.4287 61.8281 79.63 61.8281 78.6983V63.7898C61.8281 62.858 62.6268 62.0593 63.5586 62.0593H71.279C72.2108 62.0593 73.0095 62.858 73.0095 63.7898C73.0095 64.7216 72.2108 65.5202 71.279 65.5202H65.1559V77.1009H71.279C72.2108 77.1009 73.0095 77.8996 73.0095 78.8314C73.0095 79.63 72.2108 80.4287 71.279 80.4287Z" fill="#FF914D"/>
<path d="M79.1335 80.4287H71.4131C70.4813 80.4287 69.6826 79.63 69.6826 78.6983V20.5285C69.6826 19.5968 70.4813 18.7981 71.4131 18.7981H79.1335C80.0653 18.7981 80.864 19.5968 80.864 20.5285V78.8314C80.7309 79.63 79.9322 80.4287 79.1335 80.4287ZM73.0104 77.1009H77.4031V22.259H73.0104V77.1009Z" fill="#FF914D"/>
<path d="M19.2311 23.8562C16.4357 23.8562 14.1729 21.5933 14.1729 18.798C14.1729 16.0026 16.4357 13.7397 19.2311 13.7397C22.0264 13.7397 24.2893 16.0026 24.2893 18.798C24.2893 21.5933 21.8933 23.8562 19.2311 23.8562ZM19.2311 17.2006C18.2993 17.2006 17.5006 17.9993 17.5006 18.9311C17.5006 19.8629 18.2993 20.6615 19.2311 20.6615C20.1629 20.6615 20.9615 19.8629 20.9615 18.9311C20.9615 17.9993 20.0298 17.2006 19.2311 17.2006Z" fill="#FF914D"/>
<path d="M37.4694 33.8398C34.674 33.8398 32.4111 31.5769 32.4111 28.7816C32.4111 25.9862 34.674 23.8564 37.4694 23.8564C40.2647 23.8564 42.5276 26.1193 42.5276 28.9147C42.5276 31.71 40.2647 33.8398 37.4694 33.8398ZM37.4694 27.1842C36.5376 27.1842 35.7389 27.9829 35.7389 28.9147C35.7389 29.8465 36.5376 30.512 37.4694 30.512C38.4011 30.512 39.1998 29.7134 39.1998 28.7816C39.1998 27.8498 38.4011 27.1842 37.4694 27.1842Z" fill="#FF914D"/>
<path d="M50.7809 20.5285C47.9856 20.5285 45.7227 18.2656 45.7227 15.4703C45.7227 12.675 47.9856 10.5452 50.7809 10.5452C53.5762 10.5452 55.8391 12.8081 55.8391 15.6034C55.8391 18.3987 53.5762 20.5285 50.7809 20.5285ZM50.7809 13.873C49.8491 13.873 49.0504 14.6716 49.0504 15.6034C49.0504 16.5352 49.8491 17.3338 50.7809 17.3338C51.7127 17.3338 52.5113 16.5352 52.5113 15.6034C52.5113 14.6716 51.7127 13.873 50.7809 13.873Z" fill="#FF914D"/>
<path d="M60.7643 35.5701C57.9689 35.5701 55.7061 33.3072 55.7061 30.5118C55.7061 27.7165 57.9689 25.4536 60.7643 25.4536C63.5596 25.4536 65.8225 27.7165 65.8225 30.5118C65.8225 33.3072 63.5596 35.5701 60.7643 35.5701ZM60.7643 28.9145C59.8325 28.9145 59.0338 29.7132 59.0338 30.645C59.0338 31.5767 59.8325 32.3754 60.7643 32.3754C61.6961 32.3754 62.4947 31.5767 62.4947 30.645C62.4947 29.7132 61.6961 28.9145 60.7643 28.9145Z" fill="#FF914D"/>
<path d="M34.1408 28.9146C33.8746 28.9146 33.6084 28.7815 33.3421 28.6483L21.6283 21.9928C20.8297 21.5934 20.5634 20.5286 20.9628 19.7299C21.3621 18.9312 22.427 18.665 23.2257 19.0643L34.9395 25.7199C35.7381 26.1192 36.0044 27.1841 35.605 27.9828C35.3388 28.5152 34.6732 28.9146 34.1408 28.9146Z" fill="#FF914D"/>
<path d="M40.7948 28.9145C40.3955 28.9145 39.9962 28.7814 39.5968 28.382C38.9313 27.7165 38.9313 26.6516 39.5968 25.986L47.9829 17.6C48.6484 16.9344 49.7133 16.9344 50.3789 17.6C51.0444 18.2656 51.0444 19.3304 50.3789 19.996L41.9928 28.382C41.5935 28.6483 41.1942 28.9145 40.7948 28.9145Z" fill="#FF914D"/>
<path d="M59.1639 28.9146C58.6314 28.9146 58.2321 28.6483 57.8327 28.249L51.1772 19.863C50.6447 19.1974 50.7778 18.1325 51.4434 17.467C52.109 16.9345 53.1738 17.0676 53.8394 17.7332L60.495 26.1192C61.0274 26.7848 60.8943 27.8497 60.2288 28.5152C59.8294 28.7814 59.4301 28.9146 59.1639 28.9146Z" fill="#FF914D"/>
<path d="M24.1568 3.88961H2.59275C1.66097 3.88961 0.862305 3.09094 0.862305 2.15916C0.862305 1.22738 1.66097 0.428711 2.59275 0.428711H24.1568C25.0886 0.428711 25.8873 1.22738 25.8873 2.15916C25.8873 3.09094 25.0886 3.88961 24.1568 3.88961Z" fill="#FF914D"/>
<path d="M24.1578 10.5451H10.8467C9.91488 10.5451 9.11621 9.74646 9.11621 8.81468C9.11621 7.8829 9.91488 7.08423 10.8467 7.08423H24.1578C25.0896 7.08423 25.8883 7.8829 25.8883 8.81468C25.8883 9.74646 25.0896 10.5451 24.1578 10.5451Z" fill="#FF914D"/>
</svg>
