<svg width="81" height="81" viewBox="0 0 81 81" fill="none" xmlns="http://www.w3.org/2000/svg">
<g clip-path="url(#clip0_328_30485)">
<path d="M72.4114 27.1842C76.0872 27.1842 79.067 24.2044 79.067 20.5286C79.067 16.8528 76.0872 13.873 72.4114 13.873C68.7357 13.873 65.7559 16.8528 65.7559 20.5286C65.7559 24.2044 68.7357 27.1842 72.4114 27.1842Z" fill="#FF914D" fill-opacity="0.3"/>
<path d="M32.4765 28.915L44.0572 43.8235H40.7294H22.4931L10.7793 27.1846L32.4765 28.915Z" fill="#FF914D" fill-opacity="0.3"/>
<path d="M47.6525 75.5033C47.2532 75.5033 46.987 75.3702 46.7208 75.2371C45.9221 74.7046 45.789 73.6397 46.3214 72.9742L58.7008 55.6697C58.7008 55.5366 58.8339 55.5366 58.8339 55.4035C59.7657 54.4717 61.0968 53.9392 62.4279 53.9392H67.4861V45.1539C66.9537 45.287 66.4213 45.4201 65.7557 45.4201H57.3697C56.4379 45.4201 55.6392 44.6214 55.6392 43.6896C55.6392 42.7579 56.4379 41.9592 57.3697 41.9592H65.7557C66.0219 41.9592 66.2881 41.8261 66.5544 41.693L68.1517 40.7612C68.6841 40.495 69.3497 40.495 69.8822 40.7612C70.4146 41.0274 70.6808 41.5599 70.6808 42.2254V55.2703C70.6808 56.2021 69.8822 57.0008 68.9504 57.0008H62.2948C61.8955 57.0008 61.4961 57.1339 61.2299 57.4001L48.9837 74.5715C48.7174 75.2371 48.185 75.5033 47.6525 75.5033Z" fill="#FF914D"/>
<path d="M52.3107 80.162C52.0445 80.162 51.6452 80.0289 51.379 79.8958C50.5803 79.3633 50.4472 78.2984 50.9796 77.6329L62.4272 61.1271C62.6934 60.7277 63.2259 60.4615 63.7583 60.4615H74.0079C75.8715 60.4615 77.3357 58.9973 77.3357 57.1337V37.167C77.3357 35.4365 75.8715 33.9723 74.141 33.8392H73.8748C72.943 33.8392 72.1443 34.2385 71.4788 34.9041C71.3457 35.0372 71.2126 35.1703 71.0795 35.1703L65.6219 38.4981C65.3557 38.6312 65.0894 38.7643 64.8232 38.7643H55.7716C54.8399 38.7643 54.0412 39.563 54.0412 40.4948C54.0412 41.4266 54.8399 42.2252 55.7716 42.2252C56.7034 42.2252 57.5021 43.0239 57.5021 43.9557C57.5021 44.8875 56.7034 45.6861 55.7716 45.6861C52.9763 45.6861 50.7134 43.4232 50.7134 40.6279C50.7134 37.8326 52.9763 35.5697 55.7716 35.5697H64.4239L69.349 32.6412C70.547 31.4432 72.1444 30.6445 73.8748 30.6445H74.2741C77.8681 30.7776 80.6635 33.7061 80.6635 37.3001V57.2668C80.6635 60.9939 77.735 63.9224 74.0079 63.9224H64.557L53.6419 79.4964C53.3756 79.8958 52.8432 80.162 52.3107 80.162Z" fill="#FF914D"/>
<path d="M72.4114 28.9146C67.8856 28.9146 64.0254 25.1875 64.0254 20.5286C64.0254 15.8697 67.7525 12.1426 72.4114 12.1426C77.0703 12.1426 80.7974 15.8697 80.7974 20.5286C80.7974 25.1875 76.9372 28.9146 72.4114 28.9146ZM72.4114 15.6035C69.6161 15.6035 67.3532 17.8664 67.3532 20.6617C67.3532 23.4571 69.6161 25.7199 72.4114 25.7199C75.2068 25.7199 77.4696 23.4571 77.4696 20.6617C77.4696 17.8664 75.0736 15.6035 72.4114 15.6035Z" fill="#FF914D"/>
<path d="M57.3693 45.5534H2.52732C1.59554 45.5534 0.796875 44.7548 0.796875 43.823C0.796875 42.8912 1.59554 42.0925 2.52732 42.0925H57.3693C58.301 42.0925 59.0997 42.8912 59.0997 43.823C59.0997 44.7548 58.301 45.5534 57.3693 45.5534Z" fill="#FF914D"/>
<path d="M10.7793 80.4286C9.8475 80.4286 9.04883 79.63 9.04883 78.6982V43.823C9.04883 42.8912 9.8475 42.0925 10.7793 42.0925C11.7111 42.0925 12.5097 42.8912 12.5097 43.823V78.8313C12.5097 79.63 11.7111 80.4286 10.7793 80.4286Z" fill="#FF914D"/>
<path d="M40.7304 80.4286C39.7987 80.4286 39 79.63 39 78.6982V43.823C39 42.8912 39.7987 42.0925 40.7304 42.0925C41.6622 42.0925 42.4609 42.8912 42.4609 43.823V78.8313C42.4609 79.63 41.6622 80.4286 40.7304 80.4286Z" fill="#FF914D"/>
<path d="M22.4944 45.5531C21.962 45.5531 21.4295 45.2868 21.1633 44.8875L9.44951 28.1155C9.05018 27.583 9.05018 26.9175 9.3164 26.385C9.58262 25.8526 10.2482 25.4532 10.9137 25.5863L32.6109 27.3168C33.1434 27.3168 33.5427 27.583 33.8089 27.9824L45.3896 42.7577C45.9221 43.4233 45.7889 44.4882 45.1234 45.1537C44.4578 45.6862 43.3929 45.5531 42.7274 44.8875L31.546 30.5115L14.1084 29.1804L23.6924 42.8908C24.2249 43.6895 24.0918 44.6213 23.2931 45.1537C23.0269 45.42 22.7607 45.5531 22.4944 45.5531Z" fill="#FF914D"/>
<path d="M44.0576 23.8563C37.6682 23.8563 32.3438 18.665 32.3438 12.1425C32.3438 5.62006 37.5351 0.428711 44.0576 0.428711C50.58 0.428711 55.7714 5.62006 55.7714 12.1425C55.7714 18.665 50.4469 23.8563 44.0576 23.8563ZM44.0576 3.88961C39.5318 3.88961 35.6715 7.61673 35.6715 12.2756C35.6715 16.9345 39.3987 20.6617 44.0576 20.6617C48.7165 20.6617 52.4436 16.9345 52.4436 12.2756C52.4436 7.61673 48.5834 3.88961 44.0576 3.88961Z" fill="#FF914D"/>
<path d="M47.3864 17.2004C46.987 17.2004 46.5877 17.0673 46.1884 16.668L42.8606 13.3402C42.5943 13.074 42.3281 12.5415 42.3281 12.1422V7.08396C42.3281 6.15218 43.1268 5.35352 44.0586 5.35352C44.9904 5.35352 45.789 6.15218 45.789 7.08396V11.3435L48.5844 14.1389C49.2499 14.8044 49.2499 15.8693 48.5844 16.5349C48.185 17.0673 47.7857 17.2004 47.3864 17.2004Z" fill="#FF914D"/>
</g>
<defs>
<clipPath id="clip0_328_30485">
<rect width="80" height="80" fill="white" transform="translate(0.796875 0.428711)"/>
</clipPath>
</defs>
</svg>
