<svg width="57" height="81" viewBox="0 0 57 81" fill="none" xmlns="http://www.w3.org/2000/svg">
<g clip-path="url(#clip0_328_30504)">
<path d="M55.584 18.5889H38.6837V13.9797H9.49219V66.2171H38.6837V33.9528H41.7564V30.8801H55.584V18.5889Z" fill="#FF914D" fill-opacity="0.3"/>
<path d="M47.057 29.3744L46.8419 29.2668H46.6115C46.1813 29.2668 45.5821 29.2668 45.1365 29.7124L45.8433 30.4191L45.536 32.4318H44.5373V72.7467C44.5373 75.1435 42.6629 77.0179 40.2662 77.0179H8.30918C5.91241 77.0179 4.03801 75.1435 4.03801 72.7467V8.09531C4.03801 5.69854 5.91241 3.82414 8.30918 3.82414H40.4044C42.8012 3.82414 44.6756 5.69854 44.6756 8.09531V18.7886C44.6756 19.649 45.4284 20.4018 46.2888 20.4018C47.1492 20.4018 47.902 19.649 47.902 18.7886V8.09531C47.902 3.79341 44.5373 0.428711 40.2354 0.428711H8.30918C4.00728 0.428711 0.642578 3.79341 0.642578 8.09531V72.7621C0.642578 77.064 4.00728 80.4287 8.30918 80.4287H40.4044C44.6295 80.4287 48.071 76.9257 48.071 72.6085V30.8954C48.071 30.2347 47.733 29.7124 47.057 29.3897V29.3744Z" fill="#FF914D"/>
<path d="M39.4519 33.1547C39.5748 33.001 39.836 33.001 40.0972 33.001C40.3584 33.1547 40.4813 33.3083 40.4813 33.6156V66.986C40.3584 67.447 40.0972 67.7542 39.6978 67.7542H8.7548C8.49361 67.7542 8.23242 67.4469 8.23242 67.1397V13.0433C8.23242 12.736 8.49361 12.4287 8.7548 12.4287H39.7131C39.9743 12.4287 40.2355 12.736 40.2355 13.0433V18.6818C40.2355 18.9891 39.9743 19.2964 39.7131 19.2964C39.4519 19.2964 39.1907 18.9891 39.1907 18.6818V13.8115H9.27717V66.3868H39.0525V35.152" fill="#FF914D"/>
<path d="M40.4973 32.34L40.3129 32.2325H40.0978C39.7445 32.2325 39.2221 32.2325 38.8534 32.6473L39.8059 33.4616L39.7137 33.5999V35.1209H38.2849V65.5876H10.046V14.5793H38.4232V18.6815C38.4232 19.4189 39.0224 20.0642 39.7137 20.0642C40.4051 20.0642 41.0043 19.4189 41.0043 18.6815V13.0429C41.0043 12.3054 40.4051 11.6602 39.7137 11.6602H8.75541C8.06404 11.6602 7.46484 12.3054 7.46484 13.0429V67.1393C7.46484 67.8768 8.06404 68.5221 8.75541 68.5221H39.7137C40.4358 68.5221 41.0043 68.0304 41.2348 67.2008L41.2655 33.6152C41.2655 32.8009 40.6817 32.4476 40.4973 32.34Z" fill="#FF914D"/>
<path d="M24.333 72.9315H22.4739C22.1667 72.9315 21.8594 72.6242 21.8594 72.317C21.8594 72.0097 22.1667 71.7024 22.4739 71.7024H24.333C24.6402 71.7024 24.9475 72.0097 24.9475 72.317C24.9475 72.6242 24.7939 72.9315 24.333 72.9315Z" fill="#FF914D"/>
<path d="M24.3336 73.9298H22.4745C21.6142 73.9298 20.8613 73.177 20.8613 72.3166C20.8613 71.4562 21.6142 70.7034 22.4745 70.7034H24.3336C25.194 70.7034 25.9468 71.4562 25.9468 72.3166C25.9468 73.2538 25.2708 73.9298 24.3336 73.9298Z" fill="#FF914D"/>
<path d="M56.9523 19.0341C56.9523 18.7422 56.9523 18.1584 56.5068 17.6974C56.0305 17.1904 55.3545 17.1904 55.0779 17.1904H33.3226C32.8463 17.1904 32.4315 17.298 32.0935 17.4977C31.7247 17.7282 31.4943 18.0662 31.4328 18.4349L31.3867 18.6346C31.3867 18.7268 31.3867 18.819 31.3867 18.9419V30.7261C31.3867 31.018 31.3867 31.9244 32.1242 32.4161C32.5236 32.6773 32.9538 32.6773 33.1843 32.6773H34.9051L33.7528 36.4261C33.6452 36.8102 33.4455 37.4401 33.6759 38.0854C33.9064 38.7307 34.5517 39.1609 35.197 39.1609C35.3352 39.1609 35.4582 39.1455 35.5811 39.0994C35.7654 39.0379 35.9498 38.9458 36.0727 38.8382C38.5156 36.8563 40.9584 34.8743 43.4167 32.9077C43.5242 32.8155 43.6471 32.7234 43.7086 32.6926C43.8161 32.6465 44.0466 32.6465 44.231 32.6465H55.0318C55.3391 32.6465 55.9844 32.6465 56.4607 32.1703C56.9216 31.694 56.9216 31.0794 56.9216 30.7721V19.0187L56.9523 19.0341ZM38.6692 29.881C38.3619 29.5891 37.8242 29.2818 37.3479 29.2818H34.9358V20.4169H53.8795V29.2818H43.4013C43.1862 29.2818 42.6792 29.2818 42.3105 29.6506L38.746 32.4929L39.0687 31.5096L39.1148 31.187C39.1148 30.9258 39.1148 30.3112 38.6692 29.8503V29.881Z" fill="#FF914D"/>
<path d="M24.0882 50.0846C19.8478 50.0846 16.4062 46.6431 16.4062 42.4027C16.4062 38.1622 19.8478 34.7207 24.0882 34.7207C28.3287 34.7207 31.7702 38.1622 31.7702 42.4027C31.7702 46.6431 28.3287 50.0846 24.0882 50.0846ZM24.0882 37.7935C21.5532 37.7935 19.479 39.8676 19.479 42.4027C19.479 44.9377 21.5532 47.0119 24.0882 47.0119C26.6233 47.0119 28.6974 44.9377 28.6974 42.4027C28.6974 39.8676 26.6233 37.7935 24.0882 37.7935Z" fill="#FF914D"/>
</g>
<defs>
<clipPath id="clip0_328_30504">
<rect width="56.3088" height="80" fill="white" transform="translate(0.642578 0.428711)"/>
</clipPath>
</defs>
</svg>
