<svg width="81" height="81" viewBox="0 0 81 81" fill="none" xmlns="http://www.w3.org/2000/svg">
<g clip-path="url(#clip0_328_30521)">
<path d="M40.7978 27.006H34.12V23.2664C31.0483 21.1295 29.0449 17.6571 29.0449 13.6504C29.0449 7.2397 34.2536 1.89746 40.7978 1.89746C47.3421 1.89746 52.5508 7.10614 52.5508 13.6504C52.5508 17.6571 50.5474 21.1295 47.4756 23.2664V27.006H40.7978Z" fill="#FF914D" fill-opacity="0.3"/>
<path d="M15.8222 13.6504C20.4967 13.6504 24.2362 17.39 24.2362 22.0644C24.2362 26.7389 20.4967 30.4784 15.8222 30.4784C11.1478 30.4784 7.4082 26.7389 7.4082 22.0644C7.4082 17.39 11.1478 13.6504 15.8222 13.6504Z" fill="#FF914D" fill-opacity="0.3"/>
<path d="M65.9062 13.6504C70.5807 13.6504 74.3202 17.39 74.3202 22.0644C74.3202 26.7389 70.5807 30.4784 65.9062 30.4784C61.2318 30.4784 57.4922 26.6053 57.4922 22.0644C57.4922 17.5235 61.2318 13.6504 65.9062 13.6504Z" fill="#FF914D" fill-opacity="0.3"/>
<path d="M67.5088 42.0986H64.1699V45.4375H67.5088V42.0986Z" fill="#FF914D"/>
<path d="M17.4248 42.0986H14.0859V45.4375H17.4248V42.0986Z" fill="#FF914D"/>
<path d="M29.1779 58.793H22.5001C21.5652 58.793 20.7639 57.9917 20.7639 57.0568C20.7639 56.1219 21.5652 55.3206 22.5001 55.3206H27.5752V43.7012C27.5752 40.6294 26.3732 37.6912 24.1028 35.4207C21.8323 33.1503 18.8941 31.9483 15.8223 31.9483C9.4116 31.9483 4.06937 37.157 4.06937 43.7012V55.4541H9.14449C10.0794 55.4541 10.8807 56.2555 10.8807 57.1903C10.8807 58.1252 10.0794 58.9266 9.14449 58.9266H2.4667C1.5318 58.9266 0.730469 58.1252 0.730469 57.1903V43.7012C0.730469 35.4207 7.40827 28.6094 15.8223 28.6094C19.829 28.6094 23.5685 30.212 26.5068 33.0167C29.3114 35.8214 30.9141 39.6945 30.9141 43.7012V57.0568C30.7806 57.9917 29.9792 58.793 29.1779 58.793Z" fill="#FF914D"/>
<path d="M9.14443 80.4288C8.20954 80.4288 7.4082 79.6274 7.4082 78.6925V51.9813C7.4082 51.0465 8.20954 50.2451 9.14443 50.2451C10.0793 50.2451 10.8807 51.0465 10.8807 51.9813V78.6925C10.7471 79.6274 9.94577 80.4288 9.14443 80.4288Z" fill="#FF914D"/>
<path d="M22.4999 80.4288C21.565 80.4288 20.7637 79.6274 20.7637 78.6925V51.9813C20.7637 51.0465 21.565 50.2451 22.4999 50.2451C23.4348 50.2451 24.2361 51.0465 24.2361 51.9813V78.6925C24.1026 79.6274 23.3012 80.4288 22.4999 80.4288Z" fill="#FF914D"/>
<path d="M15.8222 80.4286C14.8873 80.4286 14.0859 79.6273 14.0859 78.6924V65.3368C14.0859 64.4019 14.8873 63.6006 15.8222 63.6006C16.7571 63.6006 17.5584 64.4019 17.5584 65.3368V78.6924C17.4248 79.6273 16.6235 80.4286 15.8222 80.4286Z" fill="#FF914D"/>
<path d="M15.8214 32.0815C10.3456 32.0815 5.80469 27.5406 5.80469 22.0648C5.80469 16.589 10.3456 12.0481 15.8214 12.0481C21.2972 12.0481 25.8381 16.589 25.8381 22.0648C25.8381 27.5406 21.2972 32.0815 15.8214 32.0815ZM15.8214 15.387C12.0818 15.387 9.14359 18.3252 9.14359 22.0648C9.14359 25.8044 12.0818 28.7426 15.8214 28.7426C19.5609 28.7426 22.4992 25.8044 22.4992 22.0648C22.4992 18.3252 19.4274 15.387 15.8214 15.387Z" fill="#FF914D"/>
<path d="M79.2607 58.793H72.5829C71.648 58.793 70.8466 57.9917 70.8466 57.0568C70.8466 56.1219 71.648 55.3206 72.5829 55.3206H77.5244V43.7012C77.5244 40.6294 76.3224 37.6912 74.052 35.4207C71.7815 33.1503 68.8433 31.9483 65.7715 31.9483C59.3608 31.9483 54.0186 37.157 54.0186 43.7012V55.4541H59.0937C60.0286 55.4541 60.8299 56.2555 60.8299 57.1903C60.8299 58.1252 60.0286 58.9266 59.0937 58.9266H52.4159C51.481 58.9266 50.6797 58.1252 50.6797 57.1903V43.7012C50.6797 35.4207 57.3575 28.6094 65.7715 28.6094C69.7782 28.6094 73.5177 30.212 76.456 33.0167C79.2607 35.8214 80.8633 39.6945 80.8633 43.7012V57.0568C80.8633 57.9917 80.062 58.793 79.2607 58.793Z" fill="#FF914D"/>
<path d="M59.2284 80.4288C58.2935 80.4288 57.4922 79.6274 57.4922 78.6925V51.9813C57.4922 51.0465 58.2935 50.2451 59.2284 50.2451C60.1633 50.2451 60.9646 51.0465 60.9646 51.9813V78.6925C60.8311 79.6274 60.0297 80.4288 59.2284 80.4288Z" fill="#FF914D"/>
<path d="M72.5839 80.4288C71.649 80.4288 70.8477 79.6274 70.8477 78.6925V51.9813C70.8477 51.0465 71.649 50.2451 72.5839 50.2451C73.5188 50.2451 74.3201 51.0465 74.3201 51.9813V78.6925C74.1866 79.6274 73.3852 80.4288 72.5839 80.4288Z" fill="#FF914D"/>
<path d="M65.9061 80.4286C64.9713 80.4286 64.1699 79.6273 64.1699 78.6924V65.3368C64.1699 64.4019 64.9713 63.6006 65.9061 63.6006C66.841 63.6006 67.6424 64.4019 67.6424 65.3368V78.6924C67.5088 79.6273 66.7075 80.4286 65.9061 80.4286Z" fill="#FF914D"/>
<path d="M65.9054 32.0815C60.4296 32.0815 55.8887 27.5406 55.8887 22.0648C55.8887 16.589 60.4296 12.0481 65.9054 12.0481C71.3812 12.0481 75.9221 16.589 75.9221 22.0648C75.9221 27.5406 71.3812 32.0815 65.9054 32.0815ZM65.9054 15.387C62.1658 15.387 59.2276 18.3252 59.2276 22.0648C59.2276 25.8044 62.1658 28.7426 65.9054 28.7426C69.6449 28.7426 72.5832 25.8044 72.5832 22.0648C72.5832 18.3252 69.5114 15.387 65.9054 15.387Z" fill="#FF914D"/>
<path d="M47.4755 33.6841H44.1366C43.2017 33.6841 42.4004 32.8828 42.4004 31.9479C42.4004 31.013 43.2017 30.2117 44.1366 30.2117H45.8729V23.1332C45.8729 22.599 46.14 22.0648 46.5406 21.7977C49.2118 19.9279 50.8144 16.8561 50.8144 13.5172C50.8144 8.0414 46.2735 3.5005 40.7977 3.5005C35.3219 3.5005 30.781 8.17495 30.781 13.6507C30.781 16.8561 32.3837 19.9279 35.0548 21.9312C35.4555 22.1983 35.7226 22.7326 35.7226 23.2668V30.3452H37.4588C38.3937 30.3452 39.1951 31.1466 39.1951 32.0815C39.1951 33.0164 38.3937 33.8177 37.4588 33.8177H34.1199C33.1851 33.8177 32.3837 33.0164 32.3837 32.0815V24.2017C29.1784 21.6641 27.3086 17.791 27.3086 13.7843C27.3086 6.43873 33.3186 0.428711 40.6642 0.428711C48.0098 0.428711 54.0198 6.43873 54.0198 13.7843C54.0198 17.791 52.15 21.6641 48.9447 24.2017V32.0815C49.2118 32.8828 48.4104 33.6841 47.4755 33.6841Z" fill="#FF914D"/>
<path d="M50.8145 28.743H30.7811C29.8463 28.743 29.0449 27.9416 29.0449 27.0067C29.0449 26.0718 29.8463 25.2705 30.7811 25.2705H50.8145C51.7494 25.2705 52.5508 26.0718 52.5508 27.0067C52.5508 27.9416 51.7494 28.743 50.8145 28.743Z" fill="#FF914D"/>
<path d="M44.1367 40.3617H37.4589C36.524 40.3617 35.7227 39.5603 35.7227 38.6255V31.9477C35.7227 31.0128 36.524 30.2114 37.4589 30.2114H44.1367C45.0716 30.2114 45.8729 31.0128 45.8729 31.9477V38.6255C45.8729 39.5603 45.0716 40.3617 44.1367 40.3617ZM39.1951 37.0228H42.534V33.6839H39.1951V37.0228Z" fill="#FF914D"/>
<path d="M40.7968 28.743C39.8619 28.743 39.0605 27.9416 39.0605 27.0067V15.2538C39.0605 14.3189 39.8619 13.5176 40.7968 13.5176C41.7317 13.5176 42.533 14.3189 42.533 15.2538V27.0067C42.533 27.9416 41.7317 28.743 40.7968 28.743Z" fill="#FF914D"/>
</g>
<defs>
<clipPath id="clip0_328_30521">
<rect width="80.1336" height="80" fill="white" transform="translate(0.730469 0.428711)"/>
</clipPath>
</defs>
</svg>
