<svg width="80" height="81" viewBox="0 0 80 81" fill="none" xmlns="http://www.w3.org/2000/svg">
<g clip-path="url(#clip0_328_30548)">
<path d="M61.5278 25.1464C61.6607 36.8408 38.272 78.3026 38.272 78.3026C38.272 78.3026 14.8833 38.0368 15.0162 25.1464C15.1491 12.2561 25.3816 1.89062 38.272 1.89062C51.1624 1.89062 61.3949 12.389 61.5278 25.1464ZM53.2886 25.1464C53.2886 16.9072 46.6441 10.1298 38.272 10.1298C29.8999 10.1298 23.3883 16.9072 23.3883 25.1464C23.3883 30.9936 26.7105 36.0434 31.6275 38.5684C33.6208 39.6315 35.88 40.163 38.272 40.163C40.664 40.163 42.9232 39.6315 44.9165 38.5684C49.9664 36.1763 53.2886 31.1265 53.2886 25.1464Z" fill="#FF914D" fill-opacity="0.3"/>
<path d="M71.4941 56.7742H68.1719V60.0964H71.4941V56.7742Z" fill="#FF914D"/>
<path d="M40 61.6912H36.6777V65.0134H40V61.6912Z" fill="#FF914D"/>
<path d="M40 55.0466H36.6777V58.3689H40V55.0466Z" fill="#FF914D"/>
<path d="M40 48.4021H36.6777V51.7244H40V48.4021Z" fill="#FF914D"/>
<path d="M11.6934 55.0466H8.37109V58.3689H11.6934V55.0466Z" fill="#FF914D"/>
<path d="M38.2717 80.03C37.7401 80.03 37.0757 79.7643 36.8099 79.2327C36.8099 79.0998 30.8298 69.0001 25.1155 57.4387C17.275 41.7576 13.2883 30.8606 13.4212 25.2792C13.5541 18.6347 16.079 12.3888 20.7302 7.73768C25.3813 3.08652 31.6272 0.428711 38.2717 0.428711C44.9162 0.428711 51.162 3.08652 55.8132 7.73768C60.4644 12.3888 63.1222 18.6347 63.1222 25.2792C63.388 30.329 59.4012 40.9603 51.5607 56.9071C45.7135 68.6015 39.8664 79.0998 39.8664 79.2327C39.4677 79.7643 38.9361 80.03 38.2717 80.03C38.3603 80.03 38.3603 80.03 38.2717 80.03ZM38.2717 3.61808C26.5773 3.61808 16.8763 13.3191 16.6106 25.2792C16.6106 28.7344 18.471 36.9736 28.0391 55.9769C32.0258 64.0832 36.1454 71.3922 38.2717 75.1131C40.3979 71.2593 44.5175 63.6845 48.5042 55.5782C57.9395 36.3091 59.9328 28.6015 59.9328 25.4121C59.7999 13.0533 50.2318 3.61808 38.2717 3.61808Z" fill="#FF914D"/>
<path d="M38.2715 41.7577C35.6136 41.7577 33.2216 41.2262 30.8296 40.0302C25.2482 37.2395 21.6602 31.5252 21.6602 25.1465C21.6602 15.977 29.102 8.53516 38.2715 8.53516C47.4409 8.53516 54.8827 15.977 54.8827 25.1465C54.8827 31.3923 51.4276 37.1066 45.7133 40.0302C43.4542 41.2262 40.9293 41.7577 38.2715 41.7577ZM32.4243 37.1066C34.2847 38.0368 36.2781 38.4355 38.2715 38.4355C40.3977 38.4355 42.2582 38.0368 44.1186 37.1066C48.6369 34.8474 51.4276 30.3292 51.4276 25.2793C51.4276 17.9704 45.4475 11.9903 38.1386 11.9903C30.8296 11.9903 24.8495 17.9704 24.8495 25.2793C24.9824 30.3292 27.906 34.8474 32.4243 37.1066Z" fill="#FF914D"/>
<path d="M58.6046 80.2958H39.867C20.9966 80.1629 1.99328 80.03 1.7275 80.03C0.797264 80.03 0.132812 79.2327 0.132812 78.3024C0.132812 77.3722 0.930155 76.7078 1.7275 76.7078C30.4318 76.9735 73.887 77.1064 77.6079 76.8407C78.1395 76.7078 78.8039 76.8407 79.3355 77.2393C79.867 77.7709 79.9999 78.4353 79.7341 79.0998C79.3355 80.1629 78.4052 80.1629 77.3421 80.1629C76.8105 80.1629 75.8803 80.1629 74.8172 80.2958C72.8238 80.2958 69.9002 80.2958 66.0464 80.4287C63.9202 80.2958 61.3953 80.2958 58.6046 80.2958Z" fill="#FF914D"/>
<path d="M44.9169 40.1629C43.9867 40.1629 43.1894 39.3655 43.1894 38.4353V31.7908C43.1894 30.4619 42.6578 29.2659 41.7276 28.2028C40.7973 27.2725 39.6013 26.741 38.1395 26.741C35.3488 26.741 33.0897 29.0001 33.0897 31.7908V38.4353C33.0897 39.3655 32.2923 40.1629 31.3621 40.1629C30.4319 40.1629 30.0332 39.3655 30.0332 38.4353V31.7908C30.0332 27.2725 33.7541 23.4187 38.4053 23.4187C40.6644 23.4187 42.6578 24.3489 44.2525 25.8107C45.8472 27.4054 46.6445 29.5317 46.6445 31.6579V38.3024C46.6445 39.3655 45.8472 40.1629 44.9169 40.1629Z" fill="#FF914D"/>
<path d="M38.2725 26.8738C35.4818 26.8738 33.2227 24.6147 33.2227 21.824C33.2227 19.0333 35.4818 16.7742 38.2725 16.7742C41.0632 16.7742 43.3223 19.0333 43.3223 21.824C43.3223 24.6147 41.0632 26.8738 38.2725 26.8738ZM38.2725 20.2293C37.3423 20.2293 36.5449 21.0267 36.5449 21.9569C36.5449 22.8871 37.3423 23.6845 38.2725 23.6845C39.2027 23.6845 40.0001 22.8871 40.0001 21.9569C40.0001 21.0267 39.2027 20.2293 38.2725 20.2293Z" fill="#FF914D"/>
</g>
<defs>
<clipPath id="clip0_328_30548">
<rect width="79.7342" height="80" fill="white" transform="translate(0.132812 0.428711)"/>
</clipPath>
</defs>
</svg>
