<svg width="55" height="73" viewBox="0 0 55 73" fill="none" xmlns="http://www.w3.org/2000/svg">
<path d="M46.9594 63.9024C47.478 63.9024 47.9686 63.6751 48.2951 63.2827C48.6217 62.8906 48.7491 62.3762 48.6419 61.8825L47.559 56.8944C48.1757 56.3137 48.5634 55.503 48.5634 54.6015C48.5634 53.6525 48.1292 52.8107 47.4551 52.2259V34.904L43.1141 37.5187V52.2259C42.4401 52.8107 42.0057 53.6525 42.0057 54.6015C42.0057 55.5031 42.3935 56.3139 43.0102 56.8944L41.9272 61.8825C41.82 62.3763 41.9475 62.8907 42.2739 63.2827C42.6005 63.6748 43.0911 63.9024 43.6097 63.9024H46.9594ZM48.4308 24.796L20.1899 7.78021C19.3628 7.28433 18.4304 7.0354 17.4981 7.0354C16.5657 7.0354 15.6327 7.28412 14.8106 7.78021L-13.4307 24.796C-14.1848 25.2502 -14.6428 26.0523 -14.6428 26.9156C-14.6428 27.7791 -14.1848 28.5816 -13.4307 29.0365L14.8105 46.0524C15.6325 46.5488 16.5656 46.7972 17.4979 46.7972C18.4303 46.7972 19.3628 46.5485 20.1897 46.0524L48.4308 29.0365C49.1849 28.5818 49.6429 27.7791 49.6429 26.9156C49.6429 26.0523 49.1849 25.2499 48.4308 24.796ZM17.4979 51.0222C15.7388 51.0222 14.0218 50.5467 12.5252 49.6451L-3.94802 39.7188V56.811C-3.94802 61.8697 5.65818 65.9646 17.4979 65.9646C29.3419 65.9646 38.9473 61.8696 38.9473 56.811V39.7188L22.4747 49.6451C20.9782 50.5467 19.2571 51.0222 17.4979 51.0222Z" fill="white" fill-opacity="0.25"/>
</svg>
