<svg width="61" height="86" viewBox="0 0 61 86" fill="none" xmlns="http://www.w3.org/2000/svg">
<path fill-rule="evenodd" clip-rule="evenodd" d="M18 2.04761C20.2134 2.04761 28.5268 27.264 30.6973 28.9247C32.8677 30.5853 58.2603 31.0808 58.936 33.3004C59.6322 35.5262 39.3587 51.602 38.5396 54.2926C37.7022 56.9688 45.0961 82.4863 43.3126 83.8643C41.5128 85.2424 20.6864 69.961 18.002 69.961C15.3176 69.961 -5.5067 85.2424 -7.30656 83.8643C-9.09003 82.4842 -1.69813 56.9668 -2.53765 54.2926C-3.35465 51.6041 -23.6281 35.5262 -22.9319 33.3004C-22.2562 31.0808 3.1363 30.5853 5.30678 28.9247C7.47725 27.264 15.7681 2.04761 18 2.04761Z" fill="white" fill-opacity="0.25"/>
</svg>
