<svg width="48" height="64" viewBox="0 0 48 64" fill="none" xmlns="http://www.w3.org/2000/svg">
<g clip-path="url(#clip0_812_145)">
<path d="M11.0772 4.02604C15.6198 4.02644 20.0604 5.37386 23.8373 7.89792C27.6142 10.422 30.5578 14.0093 32.296 18.2063C34.0341 22.4033 34.4886 27.0215 33.6021 31.4768C32.7157 35.9321 30.5279 40.0246 27.3156 43.2366C24.1033 46.4486 20.0108 48.6359 15.5554 49.522C11.0999 50.4081 6.48179 49.9531 2.28494 48.2146C-1.9119 46.4761 -5.49897 43.5322 -8.0227 39.7551C-10.5464 35.9779 -11.8934 31.5373 -11.8934 26.9946C-11.886 20.9049 -9.46338 15.0668 -5.15712 10.7609C-0.850854 6.45501 4.98746 4.03297 11.0772 4.02604ZM11.0772 0C5.73814 0 0.519009 1.58321 -3.92023 4.54942C-8.35948 7.51562 -11.8194 11.7316 -13.8626 16.6642C-15.9058 21.5968 -16.4404 27.0246 -15.3988 32.261C-14.3572 37.4974 -11.7862 42.3074 -8.0109 46.0827C-4.23564 49.858 0.574362 52.429 5.8108 53.4706C11.0472 54.5121 16.4749 53.9776 21.4075 51.9344C26.3402 49.8912 30.5562 46.4313 33.5224 41.992C36.4886 37.5528 38.0717 32.3337 38.0717 26.9946C38.0717 19.8352 35.2277 12.969 30.1652 7.90652C25.1028 2.84405 18.2366 0 11.0772 0Z" fill="white" fill-opacity="0.25"/>
<path d="M45.8903 64C45.3568 64.0004 44.8448 63.789 44.4671 63.4122L28.6428 47.5898C28.4505 47.4042 28.2971 47.182 28.1916 46.9364C28.0861 46.6909 28.0307 46.4267 28.0283 46.1594C28.026 45.8921 28.0769 45.627 28.1781 45.3797C28.2793 45.1323 28.4288 44.9075 28.6178 44.7185C28.8069 44.5295 29.0316 44.38 29.279 44.2788C29.5264 44.1776 29.7914 44.1267 30.0587 44.129C30.326 44.1313 30.5902 44.1868 30.8358 44.2923C31.0814 44.3978 31.3035 44.5512 31.4892 44.7434L47.3135 60.5658C47.5949 60.8473 47.7867 61.206 47.8643 61.5964C47.9419 61.9868 47.902 62.3915 47.7497 62.7593C47.5973 63.1271 47.3395 63.4414 47.0085 63.6626C46.6776 63.8838 46.2884 63.9999 45.8903 64Z" fill="white" fill-opacity="0.25"/>
</g>
<defs>
<clipPath id="clip0_812_145">
<rect width="64" height="64" fill="white" transform="translate(-16)"/>
</clipPath>
</defs>
</svg>
