<svg width="31" height="31" viewBox="0 0 31 31" fill="none" xmlns="http://www.w3.org/2000/svg">
<path d="M15.1055 0.348877C1.31972 0.348877 0.240234 1.42836 0.240234 15.2141V15.4836C0.240234 29.2694 1.31972 30.3489 15.1055 30.3489H15.375C29.1608 30.3489 30.2402 29.2694 30.2402 15.4836V15.3489C30.2402 1.43788 29.1512 0.348877 15.2402 0.348877H15.1055ZM12.2402 3.34888H18.2402C26.587 3.34888 27.2402 4.00213 27.2402 12.3489V18.3489C27.2402 26.6956 26.587 27.3489 18.2402 27.3489H12.2402C3.89348 27.3489 3.24023 26.6956 3.24023 18.3489V12.3489C3.24023 4.00213 3.89348 3.34888 12.2402 3.34888ZM22.7358 6.34888C21.9071 6.35113 21.238 7.02452 21.2402 7.85327C21.2425 8.68202 21.9159 9.35113 22.7446 9.34888C23.5734 9.34663 24.2425 8.67323 24.2402 7.84448C24.238 7.01573 23.5646 6.34663 22.7358 6.34888ZM15.2227 7.84888C11.0812 7.85863 7.73048 11.225 7.74023 15.3665C7.74998 19.508 11.1163 22.8586 15.2578 22.8489C19.3993 22.8391 22.75 19.4728 22.7402 15.3313C22.7305 11.1898 19.3642 7.83913 15.2227 7.84888ZM15.23 10.8489C17.7147 10.8429 19.7342 12.8539 19.7402 15.3386C19.7455 17.8234 17.7352 19.8429 15.2505 19.8489C12.7657 19.8549 10.7462 17.8446 10.7402 15.3591C10.7342 12.8744 12.7452 10.8549 15.23 10.8489Z" fill="#FF914D"/>
</svg>
