<svg width="31" height="31" viewBox="0 0 31 31" fill="none" xmlns="http://www.w3.org/2000/svg">
<path d="M9.07031 0.348877C0.881812 0.348877 0.240234 0.989705 0.240234 9.17896V21.5188C0.240234 29.7073 0.881812 30.3489 9.07031 30.3489H21.4102C29.5987 30.3489 30.2402 29.708 30.2402 21.5188V9.17896C30.2402 0.989705 29.5994 0.348877 21.4102 0.348877H9.07031ZM7.11621 3.34888H23.3643C26.959 3.34888 27.2402 3.6301 27.2402 7.22485V23.4729C27.2402 27.0676 26.9583 27.3489 23.3643 27.3489H7.11621C3.52146 27.3489 3.24023 27.0669 3.24023 23.4729V7.22485C3.24023 3.6301 3.52146 3.34888 7.11621 3.34888ZM8.1167 5.22681C6.89495 5.22681 5.90479 6.21701 5.90479 7.43726C5.90479 8.65751 6.8942 9.64917 8.1167 9.64917C9.33545 9.64917 10.3257 8.65826 10.3257 7.43726C10.3257 6.21851 9.33545 5.22681 8.1167 5.22681ZM19.6904 11.0906C17.8454 11.0906 16.6078 12.103 16.1016 13.0623H16.0488V11.3953H12.4116V23.5989H16.2012V17.5608C16.2012 15.9685 16.5058 14.4275 18.479 14.4275C20.4245 14.4275 20.4492 16.2495 20.4492 17.6648V23.5989H24.2402V16.9045C24.2402 13.618 23.5312 11.0906 19.6904 11.0906ZM6.21973 11.3953V23.5989H10.0122V11.3953H6.21973Z" fill="#FF914D"/>
</svg>
