<svg width="25" height="25" viewBox="0 0 25 25" fill="none" xmlns="http://www.w3.org/2000/svg">
<rect width="24" height="24" transform="translate(0.0996094 0.387207)" fill="#151F27"/>
<path d="M12.1018 12.1372C12.5837 12.1372 12.9954 11.9656 13.3371 11.6225C13.6788 11.2793 13.8496 10.8668 13.8496 10.385C13.8496 9.90313 13.678 9.49137 13.3349 9.14971C12.9918 8.80804 12.5793 8.63721 12.0974 8.63721C11.6155 8.63721 11.2038 8.80878 10.8621 9.15193C10.5204 9.49507 10.3496 9.90757 10.3496 10.3894C10.3496 10.8713 10.5212 11.283 10.8643 11.6247C11.2075 11.9664 11.62 12.1372 12.1018 12.1372ZM12.0996 20.4122C14.3163 18.3955 15.9538 16.5664 17.0121 14.9247C18.0704 13.283 18.5996 11.8372 18.5996 10.5872C18.5996 8.62404 17.9722 7.01658 16.7173 5.76483C15.4625 4.51308 13.9232 3.88721 12.0996 3.88721C10.276 3.88721 8.73676 4.51308 7.48191 5.76483C6.22704 7.01658 5.59961 8.62404 5.59961 10.5872C5.59961 11.8372 6.14128 13.283 7.22461 14.9247C8.30794 16.5664 9.93294 18.3955 12.0996 20.4122ZM12.0996 22.3872C9.41628 20.1039 7.41211 17.983 6.08711 16.0247C4.76211 14.0664 4.09961 12.2539 4.09961 10.5872C4.09961 8.08721 4.90378 6.09554 6.51211 4.61221C8.12044 3.12887 9.98294 2.38721 12.0996 2.38721C14.2163 2.38721 16.0788 3.12887 17.6871 4.61221C19.2954 6.09554 20.0996 8.08721 20.0996 10.5872C20.0996 12.2539 19.4371 14.0664 18.1121 16.0247C16.7871 17.983 14.7829 20.1039 12.0996 22.3872Z" fill="#FF914D"/>
</svg>
