<svg width="50" height="75" viewBox="0 0 50 75" fill="none" xmlns="http://www.w3.org/2000/svg">
<g clip-path="url(#clip0_812_157)">
<path d="M-2.60203 65.625H3.78941C4.69956 65.625 5.43738 64.7323 5.43738 63.6315V46.1563C5.43738 45.0554 4.69943 44.1628 3.78941 44.1628H-2.60203C-3.51218 44.1628 -4.25 45.0555 -4.25 46.1563V63.6315C-4.25 64.7323 -3.51205 65.625 -2.60203 65.625Z" fill="white" fill-opacity="0.25"/>
<path d="M11.9292 65.625H18.3207C19.2308 65.625 19.9686 64.7323 19.9686 63.6315V34.4376C19.9686 33.3366 19.2307 32.4441 18.3207 32.4441H11.9292C11.0191 32.4441 10.2812 33.3368 10.2812 34.4376V63.6315C10.2812 64.7323 11.0192 65.625 11.9292 65.625Z" fill="white" fill-opacity="0.25"/>
<path d="M26.4605 65.625H32.8519C33.7621 65.625 34.4999 64.7323 34.4999 63.6315V20.3751C34.4999 19.2741 33.7619 18.3816 32.8519 18.3816H26.4605C25.5503 18.3816 24.8125 19.2743 24.8125 20.3751V63.6315C24.8125 64.7323 25.5504 65.625 26.4605 65.625Z" fill="white" fill-opacity="0.25"/>
<path d="M40.9917 65.625H47.3832C48.2933 65.625 49.0311 64.7323 49.0311 63.6315V6.3126C49.0311 5.21162 48.2932 4.31909 47.3832 4.31909H40.9917C40.0816 4.31909 39.3438 5.21177 39.3438 6.3126V63.6315C39.3438 64.7323 40.0817 65.625 40.9917 65.625Z" fill="white" fill-opacity="0.25"/>
<path d="M48.352 70.6055H-6.47704C-7.38705 70.6055 -8.125 69.7128 -8.125 68.612V1.99351C-8.125 0.892676 -8.86295 0 -9.77296 0H-10.3519C-11.2621 0 -12 0.892676 -12 1.99351V73.0063C-12 74.1073 -11.2621 75 -10.352 75H48.3519C49.2621 75 49.9999 74.1073 49.9999 73.0065V72.5991C50 71.4981 49.2621 70.6055 48.352 70.6055Z" fill="white" fill-opacity="0.25"/>
</g>
<defs>
<clipPath id="clip0_812_157">
<rect width="62" height="75" fill="white" transform="translate(-12)"/>
</clipPath>
</defs>
</svg>
