<svg width="1191" height="281" viewBox="0 0 1191 281" fill="none" xmlns="http://www.w3.org/2000/svg">
<path d="M339.79 67.69H391.33C400.78 67.69 410.29 68.92 419.87 71.39C429.45 73.85 438.07 77.93 445.74 83.61C453.41 89.29 459.63 96.75 464.43 105.99C469.22 115.23 471.62 126.7 471.62 140.38C471.62 153.11 469.22 164.06 464.43 173.23C459.64 182.4 453.41 189.93 445.74 195.82C438.07 201.71 429.45 206.05 419.87 208.86C410.29 211.67 400.77 213.07 391.33 213.07H339.79V67.69ZM387.22 190.48C393.92 190.48 400.63 189.69 407.34 188.12C414.05 186.55 420.1 183.88 425.51 180.11C430.92 176.35 435.33 171.25 438.75 164.81C442.17 158.38 443.88 150.23 443.88 140.38C443.88 129.98 442.17 121.49 438.75 114.92C435.33 108.35 430.91 103.22 425.51 99.52C420.1 95.82 414.04 93.29 407.34 91.92C400.63 90.55 393.92 89.87 387.22 89.87H365.66V190.48H387.22Z" fill="#151F27"/>
<path d="M580.14 165.02V168.31C580.14 169.41 580.07 170.5 579.93 171.59H504.98C505.25 175.15 506.18 178.4 507.75 181.34C509.32 184.29 511.41 186.82 514.01 188.94C516.61 191.06 519.55 192.74 522.84 193.97C526.13 195.2 529.55 195.82 533.11 195.82C539.27 195.82 544.47 194.69 548.72 192.43C552.96 190.17 556.45 187.06 559.19 183.09L575.62 196.23C565.9 209.37 551.8 215.94 533.32 215.94C525.65 215.94 518.6 214.74 512.17 212.35C505.73 209.96 500.16 206.57 495.43 202.19C490.71 197.81 487.01 192.44 484.34 186.07C481.67 179.7 480.34 172.49 480.34 164.41C480.34 156.33 481.68 149.25 484.34 142.75C487.01 136.25 490.67 130.71 495.33 126.12C499.98 121.54 505.49 117.98 511.86 115.44C518.22 112.91 525.1 111.64 532.5 111.64C539.34 111.64 545.67 112.77 551.49 115.03C557.31 117.29 562.34 120.64 566.58 125.09C570.82 129.54 574.14 135.08 576.54 141.72C578.93 148.36 580.13 156.13 580.13 165.03L580.14 165.02ZM555.5 153.93C555.5 150.78 555.05 147.77 554.16 144.9C553.27 142.03 551.87 139.49 549.95 137.3C548.03 135.11 545.6 133.37 542.66 132.06C539.71 130.76 536.26 130.11 532.29 130.11C524.9 130.11 518.64 132.34 513.5 136.78C508.37 141.23 505.52 146.94 504.98 153.93H555.49H555.5Z" fill="#151F27"/>
<path d="M688.66 165.02V168.31C688.66 169.41 688.59 170.5 688.45 171.59H613.5C613.77 175.15 614.7 178.4 616.27 181.34C617.84 184.29 619.93 186.82 622.53 188.94C625.13 191.06 628.07 192.74 631.36 193.97C634.65 195.2 638.07 195.82 641.63 195.82C647.79 195.82 652.99 194.69 657.24 192.43C661.48 190.17 664.97 187.06 667.71 183.09L684.14 196.23C674.42 209.37 660.32 215.94 641.84 215.94C634.17 215.94 627.12 214.74 620.69 212.35C614.25 209.96 608.68 206.57 603.95 202.19C599.23 197.81 595.53 192.44 592.86 186.07C590.19 179.7 588.86 172.49 588.86 164.41C588.86 156.33 590.2 149.25 592.86 142.75C595.53 136.25 599.19 130.71 603.85 126.12C608.5 121.54 614.01 117.98 620.38 115.44C626.74 112.91 633.62 111.64 641.02 111.64C647.86 111.64 654.19 112.77 660.01 115.03C665.83 117.29 670.86 120.64 675.1 125.09C679.34 129.54 682.66 135.08 685.06 141.72C687.45 148.36 688.65 156.13 688.65 165.03L688.66 165.02ZM664.02 153.93C664.02 150.78 663.57 147.77 662.68 144.9C661.79 142.03 660.39 139.49 658.47 137.3C656.55 135.11 654.12 133.37 651.18 132.06C648.23 130.76 644.78 130.11 640.81 130.11C633.42 130.11 627.16 132.34 622.02 136.78C616.89 141.23 614.04 146.94 613.5 153.93H664.01H664.02Z" fill="#151F27"/>
<path d="M726.76 114.51V128.27H727.38C728.61 126.36 730.22 124.4 732.21 122.42C734.19 120.44 736.63 118.66 739.5 117.08C742.37 115.51 745.62 114.21 749.25 113.18C752.87 112.15 756.95 111.64 761.47 111.64C768.45 111.64 774.88 112.97 780.77 115.64C786.65 118.31 791.72 121.97 795.96 126.62C800.2 131.28 803.49 136.75 805.82 143.05C808.15 149.35 809.31 156.12 809.31 163.38C809.31 170.64 808.18 177.45 805.92 183.81C803.66 190.17 800.44 195.72 796.27 200.44C792.09 205.16 787.03 208.93 781.08 211.73C775.13 214.53 768.38 215.94 760.85 215.94C753.87 215.94 747.47 214.5 741.65 211.63C735.83 208.76 731.35 204.85 728.2 199.93H727.79V259.89H703.15V114.51H726.76ZM784.25 163.38C784.25 159.55 783.67 155.75 782.5 151.98C781.34 148.22 779.59 144.83 777.26 141.82C774.93 138.81 771.99 136.38 768.43 134.53C764.87 132.68 760.69 131.76 755.9 131.76C751.38 131.76 747.34 132.72 743.79 134.63C740.23 136.55 737.18 139.01 734.65 142.02C732.12 145.03 730.2 148.46 728.9 152.29C727.6 156.12 726.95 159.96 726.95 163.79C726.95 167.62 727.6 171.42 728.9 175.19C730.2 178.96 732.11 182.34 734.65 185.35C737.18 188.36 740.23 190.79 743.79 192.64C747.35 194.49 751.39 195.41 755.9 195.41C760.69 195.41 764.86 194.45 768.43 192.54C771.99 190.63 774.93 188.16 777.26 185.15C779.59 182.14 781.33 178.72 782.5 174.88C783.66 171.05 784.25 167.22 784.25 163.38Z" fill="#151F27"/>
<path d="M923.99 213.07H900.58V198.29H900.17C896.75 204.04 891.99 208.42 885.9 211.43C879.81 214.44 873.27 215.95 866.29 215.95C858.76 215.95 852.02 214.54 846.06 211.74C840.11 208.94 835.04 205.17 830.87 200.45C826.69 195.73 823.48 190.18 821.22 183.82C818.96 177.45 817.83 170.65 817.83 163.39C817.83 156.13 818.99 149.36 821.32 143.06C823.65 136.76 826.93 131.29 831.18 126.63C835.42 121.98 840.49 118.31 846.37 115.65C852.25 112.98 858.69 111.65 865.67 111.65C870.19 111.65 874.22 112.16 877.79 113.19C881.35 114.22 884.46 115.48 887.13 116.99C889.8 118.5 892.09 120.14 894.01 121.92C895.92 123.7 897.5 125.41 898.73 127.05H899.35V67.71H923.99V213.09V213.07ZM842.88 163.38C842.88 167.21 843.46 171.05 844.63 174.88C845.79 178.71 847.54 182.14 849.87 185.15C852.2 188.16 855.14 190.63 858.7 192.54C862.26 194.46 866.43 195.41 871.23 195.41C875.75 195.41 879.78 194.49 883.34 192.64C886.9 190.79 889.94 188.36 892.48 185.35C895.01 182.34 896.93 178.95 898.23 175.19C899.53 171.43 900.18 167.63 900.18 163.79C900.18 159.95 899.53 156.13 898.23 152.29C896.93 148.46 895.01 145.04 892.48 142.02C889.95 139.01 886.9 136.55 883.34 134.63C879.78 132.72 875.74 131.76 871.23 131.76C866.44 131.76 862.26 132.68 858.7 134.53C855.14 136.38 852.2 138.81 849.87 141.82C847.54 144.83 845.79 148.22 844.63 151.98C843.47 155.75 842.88 159.55 842.88 163.38Z" fill="#151F27"/>
<path d="M941.55 82.48C941.55 78.51 943.02 75.06 945.96 72.11C948.9 69.17 952.63 67.7 957.15 67.7C961.67 67.7 965.47 69.11 968.55 71.91C971.63 74.72 973.17 78.24 973.17 82.48C973.17 86.72 971.63 90.25 968.55 93.05C965.47 95.86 961.67 97.26 957.15 97.26C952.63 97.26 948.9 95.79 945.96 92.85C943.02 89.91 941.55 86.45 941.55 82.48ZM945.04 114.51H969.68V213.07H945.04V114.51Z" fill="#151F27"/>
<path d="M984.88 114.51H1011.78L1037.65 186.38H1038.06L1064.14 114.51H1090.22L1051 213.07H1024.72L984.89 114.51H984.88Z" fill="#151F27"/>
<path d="M1190.01 165.02V168.31C1190.01 169.41 1189.94 170.5 1189.8 171.59H1114.85C1115.12 175.15 1116.05 178.4 1117.62 181.34C1119.19 184.29 1121.28 186.82 1123.88 188.94C1126.48 191.06 1129.42 192.74 1132.71 193.97C1136 195.2 1139.42 195.82 1142.98 195.82C1149.14 195.82 1154.34 194.69 1158.59 192.43C1162.83 190.17 1166.32 187.06 1169.06 183.09L1185.49 196.23C1175.77 209.37 1161.67 215.94 1143.19 215.94C1135.52 215.94 1128.47 214.74 1122.04 212.35C1115.6 209.96 1110.03 206.57 1105.3 202.19C1100.58 197.81 1096.88 192.44 1094.21 186.07C1091.54 179.7 1090.21 172.49 1090.21 164.41C1090.21 156.33 1091.55 149.25 1094.21 142.75C1096.88 136.25 1100.54 130.71 1105.2 126.12C1109.85 121.54 1115.36 117.98 1121.73 115.44C1128.09 112.91 1134.97 111.64 1142.37 111.64C1149.21 111.64 1155.54 112.77 1161.36 115.03C1167.18 117.29 1172.21 120.64 1176.45 125.09C1180.69 129.54 1184.01 135.08 1186.41 141.72C1188.8 148.36 1190 156.13 1190 165.03L1190.01 165.02ZM1165.37 153.93C1165.37 150.78 1164.92 147.77 1164.03 144.9C1163.14 142.03 1161.74 139.49 1159.82 137.3C1157.9 135.11 1155.47 133.37 1152.53 132.06C1149.58 130.76 1146.13 130.11 1142.16 130.11C1134.77 130.11 1128.51 132.34 1123.37 136.78C1118.24 141.23 1115.39 146.94 1114.85 153.93H1165.36H1165.37Z" fill="#151F27"/>
<path d="M140.45 0.380005H0.449997C30.81 36.82 71.72 62.94 117.55 75.16L142.02 81.69C168.61 88.78 187.11 112.86 187.11 140.38V141.23C187.11 168.35 169.13 192.18 143.06 199.63L113.59 208.05C76.11 218.76 41.98 238.84 14.42 266.4L0.449997 280.37H140.45C217.77 280.37 280.45 217.69 280.45 140.37C280.45 63.05 217.77 0.369995 140.45 0.369995V0.380005Z" fill="url(#paint0_linear_101_19)"/>
<path d="M113.6 208.05L143.07 199.63C169.15 192.18 187.12 168.35 187.12 141.23V140.38C187.12 112.86 168.62 88.78 142.03 81.69L117.56 75.16C71.73 62.94 30.82 36.81 0.460007 0.380005V23.81C0.460007 44.92 7.50001 65.43 20.46 82.1C47.13 116.38 47.13 164.39 20.46 198.67C7.50001 215.34 0.460007 235.85 0.460007 256.96V280.39L14.43 266.42C41.99 238.86 76.12 218.78 113.6 208.07V208.05Z" fill="url(#paint1_linear_101_19)"/>
<defs>
<linearGradient id="paint0_linear_101_19" x1="-31.53" y1="9.39999" x2="269.02" y2="309.95" gradientUnits="userSpaceOnUse">
<stop stop-color="#FFB37F"/>
<stop offset="0.28" stop-color="#FF914D"/>
<stop offset="1" stop-color="#FF5F4D"/>
</linearGradient>
<linearGradient id="paint1_linear_101_19" x1="100.68" y1="60.78" x2="25.46" y2="237.77" gradientUnits="userSpaceOnUse">
<stop stop-color="#FFB37F"/>
<stop offset="0.28" stop-color="#FF914D"/>
<stop offset="1" stop-color="#FF5F4D"/>
</linearGradient>
</defs>
</svg>
