<svg width="1190" height="281" viewBox="0 0 1190 281" fill="none" xmlns="http://www.w3.org/2000/svg">
<path d="M339.34 67.46H390.88C400.33 67.46 409.84 68.69 419.42 71.16C429 73.62 437.62 77.7 445.29 83.38C452.96 89.06 459.18 96.52 463.98 105.76C468.77 115 471.17 126.47 471.17 140.15C471.17 152.88 468.77 163.83 463.98 173C459.19 182.17 452.96 189.7 445.29 195.59C437.62 201.48 429 205.82 419.42 208.63C409.84 211.44 400.32 212.84 390.88 212.84H339.34V67.46ZM386.77 190.25C393.47 190.25 400.18 189.46 406.89 187.89C413.6 186.32 419.65 183.65 425.06 179.88C430.47 176.12 434.88 171.02 438.3 164.58C441.72 158.15 443.43 150 443.43 140.15C443.43 129.75 441.72 121.26 438.3 114.69C434.88 108.12 430.46 102.99 425.06 99.29C419.65 95.59 413.59 93.0599 406.89 91.6899C400.18 90.3199 393.47 89.64 386.77 89.64H365.21V190.25H386.77Z" fill="white"/>
<path d="M579.69 164.79V168.08C579.69 169.18 579.62 170.27 579.48 171.36H504.53C504.8 174.92 505.73 178.17 507.3 181.11C508.87 184.06 510.96 186.59 513.56 188.71C516.16 190.83 519.1 192.51 522.39 193.74C525.68 194.97 529.1 195.59 532.66 195.59C538.82 195.59 544.02 194.46 548.27 192.2C552.51 189.94 556 186.83 558.74 182.86L575.17 196C565.45 209.14 551.35 215.71 532.87 215.71C525.2 215.71 518.15 214.51 511.72 212.12C505.28 209.73 499.71 206.34 494.98 201.96C490.26 197.58 486.56 192.21 483.89 185.84C481.22 179.47 479.89 172.26 479.89 164.18C479.89 156.1 481.23 149.02 483.89 142.52C486.56 136.02 490.22 130.48 494.88 125.89C499.53 121.31 505.04 117.75 511.41 115.21C517.77 112.68 524.65 111.41 532.05 111.41C538.89 111.41 545.22 112.54 551.04 114.8C556.86 117.06 561.89 120.41 566.13 124.86C570.37 129.31 573.69 134.85 576.09 141.49C578.48 148.13 579.68 155.9 579.68 164.8L579.69 164.79ZM555.05 153.7C555.05 150.55 554.6 147.54 553.71 144.67C552.82 141.8 551.42 139.26 549.5 137.07C547.58 134.88 545.15 133.14 542.21 131.83C539.26 130.53 535.81 129.88 531.84 129.88C524.45 129.88 518.19 132.11 513.05 136.55C507.92 141 505.07 146.71 504.53 153.7H555.04H555.05Z" fill="white"/>
<path d="M688.22 164.79V168.08C688.22 169.18 688.15 170.27 688.01 171.36H613.06C613.33 174.92 614.26 178.17 615.83 181.11C617.4 184.06 619.49 186.59 622.09 188.71C624.69 190.83 627.63 192.51 630.92 193.74C634.21 194.97 637.63 195.59 641.19 195.59C647.35 195.59 652.55 194.46 656.8 192.2C661.04 189.94 664.53 186.83 667.27 182.86L683.7 196C673.98 209.14 659.88 215.71 641.4 215.71C633.73 215.71 626.68 214.51 620.25 212.12C613.81 209.73 608.24 206.34 603.51 201.96C598.79 197.58 595.09 192.21 592.42 185.84C589.75 179.47 588.42 172.26 588.42 164.18C588.42 156.1 589.76 149.02 592.42 142.52C595.09 136.02 598.75 130.48 603.41 125.89C608.06 121.31 613.57 117.75 619.94 115.21C626.3 112.68 633.18 111.41 640.58 111.41C647.42 111.41 653.75 112.54 659.57 114.8C665.39 117.06 670.42 120.41 674.66 124.86C678.9 129.31 682.22 134.85 684.62 141.49C687.01 148.13 688.21 155.9 688.21 164.8L688.22 164.79ZM663.58 153.7C663.58 150.55 663.13 147.54 662.24 144.67C661.35 141.8 659.95 139.26 658.03 137.07C656.11 134.88 653.68 133.14 650.74 131.83C647.79 130.53 644.34 129.88 640.37 129.88C632.98 129.88 626.72 132.11 621.58 136.55C616.45 141 613.6 146.71 613.06 153.7H663.57H663.58Z" fill="white"/>
<path d="M726.32 114.27V128.03H726.94C728.17 126.12 729.78 124.16 731.77 122.18C733.75 120.2 736.19 118.42 739.06 116.84C741.93 115.27 745.18 113.97 748.81 112.94C752.43 111.91 756.51 111.4 761.03 111.4C768.01 111.4 774.44 112.73 780.33 115.4C786.21 118.07 791.28 121.73 795.52 126.38C799.76 131.04 803.05 136.51 805.38 142.81C807.71 149.11 808.87 155.88 808.87 163.14C808.87 170.4 807.74 177.21 805.48 183.57C803.22 189.93 800 195.48 795.83 200.2C791.65 204.92 786.59 208.69 780.64 211.49C774.69 214.29 767.94 215.7 760.41 215.7C753.43 215.7 747.03 214.26 741.21 211.39C735.39 208.52 730.91 204.61 727.76 199.69H727.35V259.65H702.71V114.27H726.32ZM783.81 163.14C783.81 159.31 783.23 155.51 782.06 151.74C780.9 147.98 779.15 144.59 776.82 141.58C774.49 138.57 771.55 136.14 767.99 134.29C764.43 132.44 760.25 131.52 755.46 131.52C750.94 131.52 746.9 132.48 743.35 134.39C739.79 136.31 736.74 138.77 734.21 141.78C731.68 144.79 729.76 148.22 728.46 152.05C727.16 155.88 726.51 159.72 726.51 163.55C726.51 167.38 727.16 171.18 728.46 174.95C729.76 178.72 731.67 182.1 734.21 185.11C736.74 188.12 739.79 190.55 743.35 192.4C746.91 194.25 750.95 195.17 755.46 195.17C760.25 195.17 764.42 194.21 767.99 192.3C771.55 190.39 774.49 187.92 776.82 184.91C779.15 181.9 780.89 178.48 782.06 174.64C783.22 170.81 783.81 166.98 783.81 163.14Z" fill="white"/>
<path d="M923.55 212.83H900.14V198.05H899.73C896.31 203.8 891.55 208.18 885.46 211.19C879.37 214.2 872.83 215.71 865.85 215.71C858.32 215.71 851.58 214.3 845.62 211.5C839.67 208.7 834.6 204.93 830.43 200.21C826.25 195.49 823.04 189.94 820.78 183.58C818.52 177.21 817.39 170.41 817.39 163.15C817.39 155.89 818.55 149.12 820.88 142.82C823.21 136.52 826.49 131.05 830.74 126.39C834.98 121.74 840.05 118.07 845.93 115.41C851.81 112.74 858.25 111.41 865.23 111.41C869.75 111.41 873.78 111.92 877.35 112.95C880.91 113.98 884.02 115.24 886.69 116.75C889.36 118.26 891.65 119.9 893.57 121.68C895.48 123.46 897.06 125.17 898.29 126.81H898.91V67.47H923.55V212.85V212.83ZM842.44 163.14C842.44 166.97 843.02 170.81 844.19 174.64C845.35 178.47 847.1 181.9 849.43 184.91C851.76 187.92 854.7 190.39 858.26 192.3C861.82 194.22 865.99 195.17 870.79 195.17C875.31 195.17 879.34 194.25 882.9 192.4C886.46 190.55 889.5 188.12 892.04 185.11C894.57 182.1 896.49 178.71 897.79 174.95C899.09 171.19 899.74 167.39 899.74 163.55C899.74 159.71 899.09 155.89 897.79 152.05C896.49 148.22 894.57 144.8 892.04 141.78C889.51 138.77 886.46 136.31 882.9 134.39C879.34 132.48 875.3 131.52 870.79 131.52C866 131.52 861.82 132.44 858.26 134.29C854.7 136.14 851.76 138.57 849.43 141.58C847.1 144.59 845.35 147.98 844.19 151.74C843.03 155.51 842.44 159.31 842.44 163.14Z" fill="white"/>
<path d="M941.11 82.24C941.11 78.27 942.58 74.82 945.52 71.87C948.46 68.93 952.19 67.46 956.71 67.46C961.23 67.46 965.03 68.87 968.11 71.67C971.19 74.48 972.73 78 972.73 82.24C972.73 86.48 971.19 90.0101 968.11 92.8101C965.03 95.6201 961.23 97.02 956.71 97.02C952.19 97.02 948.46 95.55 945.52 92.61C942.58 89.67 941.11 86.21 941.11 82.24ZM944.6 114.27H969.24V212.83H944.6V114.27Z" fill="white"/>
<path d="M984.43 114.27H1011.33L1037.2 186.14H1037.61L1063.69 114.27H1089.77L1050.55 212.83H1024.27L984.44 114.27H984.43Z" fill="white"/>
<path d="M1189.56 164.79V168.08C1189.56 169.18 1189.49 170.27 1189.35 171.36H1114.4C1114.67 174.92 1115.6 178.17 1117.17 181.11C1118.74 184.06 1120.83 186.59 1123.43 188.71C1126.03 190.83 1128.97 192.51 1132.26 193.74C1135.55 194.97 1138.97 195.59 1142.53 195.59C1148.69 195.59 1153.89 194.46 1158.14 192.2C1162.38 189.94 1165.87 186.83 1168.61 182.86L1185.04 196C1175.32 209.14 1161.22 215.71 1142.74 215.71C1135.07 215.71 1128.02 214.51 1121.59 212.12C1115.15 209.73 1109.58 206.34 1104.85 201.96C1100.13 197.58 1096.43 192.21 1093.76 185.84C1091.09 179.47 1089.76 172.26 1089.76 164.18C1089.76 156.1 1091.1 149.02 1093.76 142.52C1096.43 136.02 1100.09 130.48 1104.75 125.89C1109.4 121.31 1114.91 117.75 1121.28 115.21C1127.64 112.68 1134.52 111.41 1141.92 111.41C1148.76 111.41 1155.09 112.54 1160.91 114.8C1166.73 117.06 1171.76 120.41 1176 124.86C1180.24 129.31 1183.56 134.85 1185.96 141.49C1188.35 148.13 1189.55 155.9 1189.55 164.8L1189.56 164.79ZM1164.92 153.7C1164.92 150.55 1164.47 147.54 1163.58 144.67C1162.69 141.8 1161.29 139.26 1159.37 137.07C1157.45 134.88 1155.02 133.14 1152.08 131.83C1149.13 130.53 1145.68 129.88 1141.71 129.88C1134.32 129.88 1128.06 132.11 1122.92 136.55C1117.79 141 1114.94 146.71 1114.4 153.7H1164.91H1164.92Z" fill="white"/>
<path d="M140.01 0.150024H0.00999451C30.37 36.59 71.28 62.7101 117.11 74.9301L141.58 81.46C168.17 88.55 186.67 112.63 186.67 140.15V141C186.67 168.12 168.69 191.95 142.62 199.4L113.15 207.82C75.67 218.53 41.54 238.61 13.98 266.17L0.00999451 280.14H140.01C217.33 280.14 280.01 217.46 280.01 140.14C280.01 62.82 217.33 0.140015 140.01 0.140015V0.150024Z" fill="url(#paint0_linear_101_6)"/>
<path d="M113.16 207.82L142.63 199.4C168.71 191.95 186.68 168.12 186.68 141V140.15C186.68 112.63 168.18 88.55 141.59 81.46L117.12 74.9301C71.29 62.7101 30.38 36.58 0.0200043 0.150024V23.58C0.0200043 44.69 7.06 65.2 20.02 81.87C46.69 116.15 46.69 164.16 20.02 198.44C7.06 215.11 0.0200043 235.62 0.0200043 256.73V280.16L13.99 266.19C41.55 238.63 75.68 218.55 113.16 207.84V207.82Z" fill="url(#paint1_linear_101_6)"/>
<defs>
<linearGradient id="paint0_linear_101_6" x1="-31.98" y1="9.16001" x2="268.57" y2="309.71" gradientUnits="userSpaceOnUse">
<stop stop-color="#FFB37F"/>
<stop offset="0.28" stop-color="#FF914D"/>
<stop offset="1" stop-color="#FF5F4D"/>
</linearGradient>
<linearGradient id="paint1_linear_101_6" x1="100.24" y1="60.54" x2="25.02" y2="237.53" gradientUnits="userSpaceOnUse">
<stop stop-color="#FFB37F"/>
<stop offset="0.28" stop-color="#FF914D"/>
<stop offset="1" stop-color="#FF5F4D"/>
</linearGradient>
</defs>
</svg>
