<svg width="319" height="323" viewBox="0 0 319 323" fill="none" xmlns="http://www.w3.org/2000/svg">
<g opacity="0.3">
<path d="M264.471 158.748C264.471 221.974 217.634 273.041 160.077 273.041C102.521 273.041 55.6833 221.974 55.6833 158.748C55.6833 95.5218 102.521 44.4543 160.077 44.4543C217.634 44.4543 264.471 95.5218 264.471 158.748Z" stroke="white" stroke-width="2.39793"/>
<path d="M277.671 159.297C277.671 215.916 226.141 262.042 162.278 262.042C98.4147 262.042 46.8845 215.916 46.8845 159.297C46.8845 102.679 98.4147 56.5532 162.278 56.5532C226.141 56.5532 277.671 102.679 277.671 159.297Z" stroke="white" stroke-width="2.39793"/>
<path d="M252.974 225.237C220.712 278.199 154.449 292.535 104.985 257.332C55.5206 222.13 41.5202 150.67 73.7819 97.7092C106.044 44.748 172.307 30.4113 221.771 65.614C271.235 100.817 285.236 172.276 252.974 225.237Z" stroke="white" stroke-width="2.39793"/>
<g filter="url(#filter0_f_191_19857)">
<path d="M265.571 158.748C265.571 221.974 218.733 273.041 161.177 273.041C103.621 273.041 56.7829 221.974 56.7829 158.748C56.7829 95.5218 103.621 44.4543 161.177 44.4543C218.733 44.4543 265.571 95.5218 265.571 158.748Z" stroke="white" stroke-width="2.39793"/>
</g>
<g filter="url(#filter1_f_191_19857)">
<path d="M278.771 159.297C278.771 215.916 227.241 262.042 163.377 262.042C99.5143 262.042 47.9841 215.916 47.9841 159.297C47.9841 102.679 99.5143 56.5532 163.377 56.5532C227.241 56.5532 278.771 102.679 278.771 159.297Z" stroke="white" stroke-width="2.39793"/>
</g>
<g filter="url(#filter2_f_191_19857)">
<path d="M254.074 225.237C221.812 278.199 155.548 292.535 106.084 257.332C56.6202 222.13 42.6198 150.67 74.8815 97.7092C107.143 44.748 173.407 30.4113 222.871 65.614C272.335 100.817 286.335 172.276 254.074 225.237Z" stroke="white" stroke-width="2.39793"/>
</g>
<path d="M252.273 108.324C284.713 165.785 268.349 236.227 216.041 265.759C163.733 295.291 94.9642 272.912 62.5236 215.452C30.0829 157.991 46.4472 87.5484 98.7551 58.0167C151.063 28.4851 219.832 50.8638 252.273 108.324Z" stroke="#F5F5F5" stroke-opacity="0.04" stroke-width="2.50259"/>
<path d="M264.55 102.052C293.601 153.507 270.436 221.867 212.397 254.634C154.357 287.402 83.859 271.922 54.8087 220.466C25.7583 169.011 48.9228 100.652 106.962 67.8841C165.002 35.1165 235.5 50.5965 264.55 102.052Z" stroke="#F5F5F5" stroke-opacity="0.04" stroke-width="2.50259"/>
<path d="M275.938 174.651C273.792 239.336 220.927 286.364 157.912 279.751C94.8959 273.138 45.5069 215.379 47.6529 150.694C49.7988 86.0085 102.664 38.9798 165.68 45.5929C228.695 52.206 278.084 109.966 275.938 174.651Z" stroke="#F5F5F5" stroke-opacity="0.04" stroke-width="2.50259"/>
<path opacity="0.0344828" d="M74.3949 98.3169C75.4128 97.1039 76.9519 96.3457 78.9911 96.0399C81.0328 95.7337 83.5567 95.8845 86.5076 96.4743C92.4092 97.6539 99.9554 100.576 108.638 104.993C125.998 113.825 147.84 128.601 170.043 147.232C192.246 165.862 210.591 184.806 222.303 200.369C228.161 208.153 232.349 215.077 234.535 220.684C235.629 223.488 236.215 225.947 236.268 228.011C236.321 230.072 235.842 231.72 234.824 232.933C233.806 234.146 232.267 234.904 230.228 235.21C228.186 235.516 225.662 235.365 222.711 234.776C216.81 233.596 209.264 230.674 200.581 226.257C183.221 217.425 161.378 202.649 139.176 184.018C116.973 165.388 98.628 146.444 86.9158 130.88C81.0582 123.097 76.8701 116.173 74.6836 110.566C73.5904 107.762 73.0036 105.303 72.9506 103.239C72.8977 101.177 73.3771 99.53 74.3949 98.3169Z" stroke="white" stroke-opacity="0.06" stroke-width="0.609304"/>
<path opacity="0.0689655" d="M80.566 90.7438C81.6857 89.6241 83.285 89.0029 85.3431 88.876C87.4037 88.7489 89.9048 89.1191 92.7931 89.9638C98.5694 91.6533 105.832 95.222 114.097 100.379C130.621 110.69 151.093 127.314 171.587 147.809C192.082 168.303 208.706 188.774 219.017 205.299C224.174 213.563 227.742 220.826 229.432 226.603C230.277 229.491 230.647 231.992 230.52 234.053C230.393 236.111 229.772 237.71 228.652 238.83C227.532 239.949 225.933 240.571 223.875 240.698C221.814 240.825 219.313 240.454 216.425 239.61C210.649 237.92 203.386 234.352 195.121 229.195C178.596 218.883 158.125 202.259 137.631 181.765C117.136 161.27 100.512 140.799 90.2011 124.275C85.0442 116.01 81.4755 108.747 79.786 102.971C78.9413 100.083 78.5711 97.5815 78.6982 95.5209C78.8251 93.4628 79.4463 91.8635 80.566 90.7438Z" stroke="white" stroke-opacity="0.06" stroke-width="0.609304"/>
<path opacity="0.103448" d="M87.3012 83.7338C88.5142 82.716 90.1616 82.2366 92.2229 82.2895C94.2868 82.3425 96.7461 82.9293 99.5498 84.0225C105.157 86.209 112.081 90.3971 119.865 96.2547C135.428 107.967 154.372 126.312 173.002 148.515C191.633 170.717 206.409 192.559 215.241 209.92C219.658 218.602 222.58 226.149 223.76 232.05C224.35 235.001 224.5 237.525 224.194 239.567C223.888 241.606 223.13 243.145 221.917 244.163C220.704 245.181 219.057 245.66 216.995 245.607C214.932 245.554 212.472 244.967 209.669 243.874C204.061 241.688 197.137 237.5 189.354 231.642C173.791 219.93 154.846 201.585 136.216 179.382C117.586 157.179 102.809 135.337 93.9773 117.977C89.5603 109.294 86.6381 101.748 85.4586 95.8465C84.8688 92.8956 84.7179 90.3717 85.0242 88.33C85.33 86.2908 86.0882 84.7517 87.3012 83.7338Z" stroke="white" stroke-opacity="0.06" stroke-width="0.609304"/>
<path opacity="0.137931" d="M94.5496 77.3341C95.8467 76.4259 97.5296 76.0919 99.5785 76.3243C101.63 76.5569 104.029 77.3558 106.726 78.6893C112.122 81.3561 118.654 86.1318 125.898 92.6455C140.381 105.67 157.654 125.596 174.279 149.338C190.903 173.08 203.72 196.127 211.005 214.191C214.648 223.225 216.902 230.997 217.562 236.979C217.893 239.97 217.823 242.498 217.34 244.505C216.858 246.51 215.968 247.977 214.671 248.885C213.374 249.794 211.691 250.127 209.642 249.895C207.591 249.662 205.192 248.864 202.494 247.53C197.099 244.863 190.566 240.088 183.323 233.574C168.84 220.55 151.566 200.624 134.942 176.882C118.318 153.14 105.501 130.093 98.2158 112.029C94.5723 102.994 92.319 95.222 91.6583 89.2401C91.3279 86.249 91.3976 83.7216 91.8807 81.7143C92.3631 79.7096 93.2525 78.2424 94.5496 77.3341Z" stroke="white" stroke-opacity="0.06" stroke-width="0.609304"/>
<path opacity="0.172414" d="M102.253 71.5874C103.625 70.7956 105.33 70.6096 107.351 71.0196C109.374 71.4302 111.695 72.4351 114.266 73.9986C119.408 77.1255 125.5 82.4524 132.148 89.5726C145.441 103.809 160.912 125.165 175.404 150.266C189.895 175.366 200.655 199.443 206.338 218.073C209.18 227.391 210.747 235.33 210.884 241.346C210.952 244.355 210.663 246.866 210.007 248.824C209.351 250.779 208.337 252.163 206.966 252.955C205.595 253.747 203.889 253.933 201.868 253.523C199.845 253.112 197.525 252.107 194.954 250.544C189.811 247.417 183.72 242.09 177.071 234.97C163.779 220.733 148.308 199.377 133.816 174.277C119.324 149.176 108.565 125.1 102.882 106.469C100.04 97.1518 98.4722 89.2128 98.3354 83.196C98.2669 80.1875 98.5567 77.6758 99.2128 75.7183C99.8681 73.7632 100.882 72.3791 102.253 71.5874Z" stroke="white" stroke-opacity="0.06" stroke-width="0.609304"/>
<path opacity="0.206897" d="M110.357 66.531C111.792 65.8618 113.507 65.8251 115.484 66.4097C117.464 66.9951 119.688 68.1984 122.113 69.98C126.963 73.5432 132.568 79.3807 138.57 87.0533C150.571 102.394 164.122 125.017 176.371 151.285C188.62 177.554 197.24 202.476 201.278 221.531C203.297 231.061 204.166 239.106 203.778 245.112C203.584 248.115 203.077 250.592 202.253 252.485C201.429 254.375 200.299 255.666 198.864 256.335C197.428 257.004 195.713 257.041 193.736 256.456C191.756 255.871 189.532 254.667 187.107 252.886C182.257 249.323 176.653 243.485 170.65 235.812C158.649 220.471 145.098 197.848 132.849 171.58C120.6 145.312 111.98 120.39 107.942 101.335C105.923 91.8052 105.054 83.7598 105.442 77.754C105.636 74.751 106.143 72.2741 106.968 70.3812C107.791 68.4906 108.921 67.2002 110.357 66.531Z" stroke="white" stroke-opacity="0.06" stroke-width="0.609304"/>
<path opacity="0.241379" d="M118.795 62.1963C120.283 61.6547 121.995 61.7676 123.914 62.5224C125.835 63.278 127.945 64.6706 130.206 66.6568C134.727 70.6291 139.801 76.9329 145.112 85.0994C155.731 101.428 167.258 125.146 177.171 152.382C187.084 179.618 193.499 205.196 195.861 224.53C197.042 234.2 197.207 242.291 196.297 248.24C195.842 251.214 195.12 253.638 194.134 255.451C193.149 257.263 191.911 258.45 190.423 258.992C188.935 259.533 187.223 259.42 185.304 258.666C183.382 257.91 181.272 256.517 179.011 254.531C174.49 250.559 169.416 244.255 164.105 236.088C153.487 219.76 141.959 196.042 132.046 168.806C122.133 141.57 115.718 115.992 113.357 96.6575C112.176 86.9879 112.011 78.8973 112.921 72.9482C113.376 69.9735 114.097 67.5503 115.083 65.7364C116.068 63.9248 117.307 62.7378 118.795 62.1963Z" stroke="white" stroke-opacity="0.06" stroke-width="0.609304"/>
<path opacity="0.275862" d="M127.507 58.6112C129.037 58.2014 130.733 58.4631 132.578 59.3822C134.427 60.3025 136.408 61.8736 138.487 64.0494C142.644 68.4006 147.15 75.1226 151.728 83.7209C160.884 100.913 170.3 125.545 177.802 153.541C185.303 181.537 189.464 207.578 190.132 227.044C190.466 236.78 189.925 244.854 188.5 250.701C187.787 253.625 186.857 255.976 185.717 257.697C184.578 259.416 183.24 260.491 181.711 260.9C180.181 261.31 178.486 261.049 176.64 260.129C174.792 259.209 172.811 257.638 170.732 255.462C166.574 251.111 162.069 244.389 157.49 235.791C148.335 218.599 138.918 193.966 131.417 165.97C123.915 137.974 119.754 111.934 119.086 92.4673C118.753 82.7316 119.293 74.6574 120.718 68.8103C121.431 65.8866 122.361 63.5354 123.501 61.8144C124.64 60.0955 125.978 59.0211 127.507 58.6112Z" stroke="white" stroke-opacity="0.06" stroke-width="0.609304"/>
<path opacity="0.310345" d="M136.425 55.7961C137.985 55.5211 139.651 55.9296 141.41 57.0061C143.171 58.0839 145.007 59.8217 146.888 62.1704C150.651 66.8674 154.554 73.9565 158.366 82.9212C165.988 100.846 173.221 126.205 178.254 154.748C183.287 183.292 185.163 209.596 184.131 229.046C183.615 238.774 182.373 246.77 180.444 252.471C179.479 255.322 178.348 257.583 177.062 259.198C175.777 260.811 174.351 261.765 172.792 262.04C171.232 262.315 169.566 261.906 167.807 260.83C166.046 259.752 164.21 258.014 162.328 255.665C158.566 250.968 154.663 243.879 150.851 234.915C143.229 216.99 135.995 191.631 130.962 163.087C125.929 134.544 124.054 108.24 125.085 88.7894C125.601 79.0616 126.844 71.0653 128.773 65.3646C129.738 62.5141 130.869 60.253 132.155 58.6379C133.44 57.0248 134.866 56.071 136.425 55.7961Z" stroke="white" stroke-opacity="0.06" stroke-width="0.609304"/>
<path opacity="0.344828" d="M145.483 53.7651C147.06 53.6271 148.685 54.1793 150.343 55.405C152.003 56.6322 153.681 58.5234 155.351 61.0271C158.69 66.0342 161.959 73.4365 164.975 82.6992C171.006 101.22 176.002 127.113 178.528 155.987C181.055 184.86 180.631 211.227 177.908 230.514C176.546 240.16 174.611 248.017 172.192 253.528C170.983 256.284 169.659 258.438 168.237 259.935C166.817 261.43 165.313 262.255 163.735 262.393C162.158 262.531 160.533 261.979 158.875 260.754C157.215 259.526 155.537 257.635 153.867 255.131C150.529 250.124 147.259 242.722 144.243 233.459C138.212 214.939 133.216 189.045 130.69 160.172C128.164 131.299 128.587 104.931 131.311 85.6445C132.672 75.9988 134.607 68.1412 137.026 62.6303C138.235 59.8748 139.559 57.7208 140.981 56.224C142.401 54.729 143.905 53.9031 145.483 53.7651Z" stroke="white" stroke-opacity="0.06" stroke-width="0.609304"/>
<path opacity="0.37931" d="M154.608 52.5274C156.192 52.5274 157.762 53.2191 159.307 54.5846C160.854 55.9518 162.361 57.9822 163.806 60.6218C166.696 65.9009 169.308 73.56 171.505 83.0504C175.899 102.026 178.619 128.256 178.619 157.24C178.619 186.224 175.899 212.454 171.505 231.43C169.308 240.92 166.696 248.579 163.806 253.858C162.361 256.498 160.854 258.528 159.307 259.895C157.762 261.261 156.192 261.953 154.608 261.953C153.025 261.953 151.455 261.261 149.91 259.895C148.363 258.528 146.856 256.498 145.411 253.858C142.521 248.579 139.909 240.92 137.712 231.43C133.318 212.454 130.598 186.224 130.598 157.24C130.598 128.256 133.318 102.026 137.712 83.0504C139.909 73.56 142.521 65.9009 145.411 60.6218C146.856 57.9822 148.363 55.9518 149.91 54.5846C151.455 53.2191 153.025 52.5274 154.608 52.5274Z" stroke="white" stroke-opacity="0.06" stroke-width="0.609304"/>
<path opacity="0.413793" d="M163.736 52.0876C165.314 52.2256 166.818 53.0515 168.238 54.5465C169.66 56.0433 170.984 58.1972 172.193 60.9528C174.612 66.4636 176.547 74.3212 177.909 83.967C180.632 103.254 181.056 129.621 178.529 158.494C176.003 187.368 171.007 213.261 164.977 231.782C161.96 241.045 158.691 248.447 155.352 253.454C153.682 255.958 152.004 257.849 150.344 259.076C148.686 260.302 147.061 260.854 145.484 260.716C143.906 260.578 142.402 259.752 140.982 258.257C139.56 256.76 138.236 254.606 137.027 251.851C134.608 246.34 132.673 238.482 131.312 228.836C128.589 209.55 128.165 183.182 130.691 154.309C133.217 125.436 138.213 99.5424 144.244 81.0217C147.26 71.7589 150.53 64.3567 153.869 59.3496C155.538 56.8459 157.216 54.9546 158.876 53.7274C160.535 52.5018 162.159 51.9496 163.736 52.0876Z" stroke="white" stroke-opacity="0.06" stroke-width="0.609304"/>
<path opacity="0.448276" d="M172.793 52.4414C174.352 52.7164 175.778 53.6702 177.063 55.2833C178.349 56.8983 179.48 59.1595 180.445 62.0099C182.374 67.7106 183.617 75.7069 184.133 85.4347C185.164 104.885 183.289 131.189 178.256 159.733C173.223 188.276 165.989 213.635 158.367 231.56C154.555 240.525 150.653 247.614 146.89 252.311C145.008 254.659 143.172 256.397 141.411 257.475C139.652 258.551 137.986 258.96 136.427 258.685C134.867 258.41 133.441 257.456 132.157 255.843C130.871 254.228 129.739 251.967 128.775 249.116C126.845 243.416 125.603 235.419 125.087 225.692C124.055 206.241 125.931 179.937 130.964 151.394C135.997 122.85 143.231 97.4912 150.853 79.5665C154.665 70.6019 158.567 63.5128 162.33 58.8157C164.211 56.4671 166.048 54.7292 167.808 53.6514C169.567 52.5749 171.233 52.1664 172.793 52.4414Z" stroke="white" stroke-opacity="0.06" stroke-width="0.609304"/>
<path opacity="0.482759" d="M181.71 53.5806C183.24 53.9904 184.577 55.0649 185.716 56.7838C186.857 58.5048 187.787 60.856 188.499 63.7797C189.924 69.6268 190.465 77.701 190.131 87.4367C189.464 106.903 185.303 132.944 177.801 160.94C170.3 188.936 160.883 213.568 151.728 230.76C147.149 239.358 142.644 246.08 138.486 250.432C136.407 252.607 134.426 254.179 132.578 255.099C130.732 256.018 129.037 256.28 127.507 255.87C125.978 255.46 124.64 254.386 123.501 252.667C122.361 250.946 121.431 248.595 120.718 245.671C119.293 239.824 118.752 231.75 119.086 222.014C119.753 202.547 123.915 176.507 131.416 148.511C138.918 120.515 148.334 95.8824 157.489 78.6903C162.068 70.092 166.574 63.37 170.731 59.0187C172.81 56.843 174.791 55.2718 176.639 54.3516C178.485 53.4325 180.181 53.1708 181.71 53.5806Z" stroke="white" stroke-opacity="0.06" stroke-width="0.609304"/>
<path opacity="0.517241" d="M190.423 55.4886C191.911 56.0302 193.149 57.2172 194.134 59.0288C195.12 60.8427 195.842 63.2659 196.297 66.2406C197.207 72.1897 197.042 80.2802 195.861 89.9498C193.499 109.284 187.085 134.863 177.172 162.098C167.259 189.334 155.731 213.052 145.112 229.381C139.801 237.547 134.727 243.851 130.206 247.823C127.945 249.81 125.835 251.202 123.914 251.958C121.995 252.713 120.283 252.826 118.795 252.284C117.307 251.742 116.068 250.555 115.083 248.744C114.097 246.93 113.376 244.507 112.921 241.532C112.011 235.583 112.176 227.492 113.357 217.823C115.718 198.489 122.133 172.91 132.046 145.674C141.959 118.438 153.487 94.7205 164.105 78.3918C169.416 70.2253 174.49 63.9215 179.011 59.9492C181.272 57.9629 183.382 56.5704 185.304 55.8147C187.223 55.06 188.935 54.947 190.423 55.4886Z" stroke="white" stroke-opacity="0.06" stroke-width="0.609304"/>
<path opacity="0.551724" d="M198.862 58.1465C200.297 58.8157 201.428 60.1061 202.251 61.9967C203.076 63.8896 203.583 66.3665 203.777 69.3695C204.165 75.3753 203.296 83.4207 201.276 92.9505C197.239 112.005 188.619 136.928 176.37 163.196C164.121 189.464 150.57 212.087 138.569 227.428C132.566 235.1 126.962 240.938 122.112 244.501C119.687 246.283 117.463 247.486 115.483 248.071C113.506 248.656 111.791 248.619 110.355 247.95C108.92 247.281 107.79 245.991 106.966 244.1C106.142 242.207 105.635 239.73 105.441 236.727C105.053 230.721 105.922 222.676 107.941 213.146C111.979 194.091 120.599 169.169 132.848 142.901C145.097 116.633 158.648 94.0099 170.649 78.6688C176.651 70.9962 182.256 65.1587 187.106 61.5955C189.531 59.8138 191.755 58.6105 193.735 58.0252C195.712 57.4406 197.427 57.4773 198.862 58.1465Z" stroke="white" stroke-opacity="0.06" stroke-width="0.609304"/>
<path opacity="0.586207" d="M206.966 61.5258C208.337 62.3175 209.351 63.7016 210.006 65.6567C210.662 67.6142 210.952 70.1259 210.884 73.1345C210.747 79.1512 209.179 87.0902 206.337 96.4078C200.654 115.038 189.895 139.114 175.403 164.215C160.911 189.316 145.44 210.671 132.148 224.908C125.499 232.028 119.408 237.355 114.265 240.482C111.694 242.046 109.374 243.051 107.351 243.461C105.33 243.871 103.624 243.685 102.253 242.893C100.882 242.102 99.8678 240.718 99.2125 238.762C98.5564 236.805 98.2666 234.293 98.335 231.285C98.4719 225.268 100.039 217.329 102.881 208.011C108.564 189.381 119.324 165.305 133.815 140.204C148.307 115.104 163.778 93.7478 177.071 79.511C183.719 72.3908 189.811 67.0639 194.953 63.937C197.524 62.3735 199.845 61.3686 201.868 60.9581C203.889 60.548 205.594 60.734 206.966 61.5258Z" stroke="white" stroke-opacity="0.06" stroke-width="0.609304"/>
<path opacity="0.62069" d="M214.671 65.5958C215.968 66.504 216.858 67.9712 217.34 69.976C217.823 71.9832 217.893 74.5106 217.562 77.5017C216.902 83.4836 214.648 91.2558 211.005 100.29C203.72 118.354 190.903 141.401 174.279 165.143C157.655 188.885 140.381 208.812 125.898 221.836C118.655 228.349 112.122 233.125 106.727 235.792C104.029 237.125 101.63 237.924 99.5786 238.157C97.5298 238.389 95.8469 238.055 94.5498 237.147C93.2526 236.239 92.3632 234.771 91.8808 232.767C91.3978 230.759 91.3281 228.232 91.6585 225.241C92.3192 219.259 94.5725 211.487 98.216 202.452C105.501 184.388 118.318 161.341 134.942 137.599C151.566 113.857 168.84 93.9311 183.323 80.9071C190.566 74.3934 197.099 69.6177 202.494 66.9509C205.192 65.6174 207.591 64.8185 209.642 64.5859C211.691 64.3535 213.374 64.6875 214.671 65.5958Z" stroke="white" stroke-opacity="0.06" stroke-width="0.609304"/>
<path opacity="0.655172" d="M221.917 70.3183C223.13 71.3361 223.888 72.8752 224.194 74.9144C224.5 76.9561 224.349 79.48 223.76 82.4309C222.58 88.3325 219.658 95.8787 215.241 104.561C206.409 121.922 191.633 143.764 173.002 165.967C154.372 188.169 135.428 206.514 119.864 218.226C112.081 224.084 105.157 228.272 99.5496 230.459C96.7459 231.552 94.2866 232.139 92.2227 232.192C90.1614 232.245 88.514 231.765 87.301 230.747C86.088 229.729 85.3298 228.19 85.024 226.151C84.7177 224.109 84.8686 221.586 85.4584 218.635C86.6379 212.733 89.5601 205.187 93.9771 196.504C102.809 179.144 117.585 157.302 136.216 135.099C154.846 112.896 173.79 94.5514 189.354 82.8392C197.137 76.9815 204.061 72.7934 209.668 70.607C212.472 69.5137 214.931 68.9269 216.995 68.874C219.057 68.8211 220.704 69.3004 221.917 70.3183Z" stroke="white" stroke-opacity="0.06" stroke-width="0.609304"/>
<path opacity="0.689655" d="M228.651 75.6514C229.771 76.7711 230.392 78.3704 230.519 80.4285C230.646 82.4892 230.276 84.9903 229.431 87.8786C227.742 93.6549 224.173 100.918 219.016 109.182C208.705 125.707 192.081 146.178 171.586 166.673C151.092 187.167 130.621 203.791 114.096 214.102C105.832 219.259 98.5687 222.828 92.7924 224.517C89.9041 225.362 87.403 225.732 85.3424 225.605C83.2843 225.478 81.6849 224.857 80.5652 223.737C79.4455 222.618 78.8244 221.018 78.6975 218.96C78.5703 216.9 78.9405 214.399 79.7853 211.51C81.4747 205.734 85.0435 198.471 90.2004 190.207C100.512 173.682 117.136 153.211 137.63 132.716C158.125 112.222 178.596 95.5978 195.12 85.2866C203.385 80.1296 210.648 76.5609 216.424 74.8715C219.312 74.0267 221.814 73.6565 223.874 73.7836C225.932 73.9106 227.532 74.5317 228.651 75.6514Z" stroke="white" stroke-opacity="0.06" stroke-width="0.609304"/>
<path opacity="0.724138" d="M234.823 81.5473C235.841 82.7603 236.321 84.4077 236.268 86.469C236.215 88.5329 235.628 90.9922 234.535 93.7959C232.348 99.403 228.16 106.327 222.302 114.111C210.59 129.674 192.245 148.618 170.043 167.249C147.84 185.879 125.998 200.655 108.637 209.487C99.9547 213.904 92.4085 216.826 86.5069 218.006C83.556 218.596 81.0321 218.747 78.9904 218.44C76.9512 218.134 75.4121 217.376 74.3943 216.163C73.3764 214.95 72.897 213.303 72.9499 211.242C73.0029 209.178 73.5897 206.718 74.683 203.915C76.8694 198.308 81.0575 191.383 86.9151 183.6C98.6273 168.037 116.972 149.092 139.175 130.462C161.378 111.832 183.22 97.0551 200.58 88.2234C209.263 83.8064 216.809 80.8842 222.711 79.7047C225.662 79.1148 228.185 78.964 230.227 79.2703C232.266 79.5761 233.805 80.3343 234.823 81.5473Z" stroke="white" stroke-opacity="0.06" stroke-width="0.609304"/>
<path opacity="0.758621" d="M240.384 87.9563C241.292 89.2535 241.626 90.9363 241.394 92.9852C241.161 95.0366 240.362 97.4355 239.029 100.133C236.362 105.528 231.587 112.061 225.073 119.305C212.049 133.788 192.123 151.061 168.381 167.685C144.639 184.31 121.592 197.126 103.528 204.412C94.4931 208.055 86.7209 210.308 80.739 210.969C77.7479 211.299 75.2205 211.23 73.2132 210.747C71.2084 210.264 69.7413 209.375 68.833 208.078C67.9248 206.781 67.5908 205.098 67.8231 203.049C68.0558 200.997 68.8547 198.599 70.1881 195.901C72.855 190.506 77.6306 183.973 84.1443 176.729C97.1684 162.246 117.095 144.973 140.837 128.349C164.579 111.724 187.625 98.9076 205.69 91.6225C214.724 87.9791 222.496 85.7258 228.478 85.065C231.469 84.7346 233.997 84.8044 236.004 85.2874C238.009 85.7698 239.476 86.6592 240.384 87.9563Z" stroke="white" stroke-opacity="0.06" stroke-width="0.609304"/>
<path opacity="0.793103" d="M245.293 94.8227C246.085 96.194 246.271 97.8996 245.861 99.9204C245.45 101.944 244.445 104.264 242.882 106.835C239.755 111.977 234.428 118.069 227.308 124.717C213.071 138.01 191.715 153.481 166.615 167.973C141.514 182.465 117.438 193.224 98.8074 198.907C89.4898 201.749 81.5508 203.316 75.5341 203.453C72.5256 203.522 70.0139 203.232 68.0563 202.576C66.1012 201.921 64.7172 200.907 63.9254 199.535C63.1337 198.164 62.9477 196.458 63.3577 194.438C63.7682 192.414 64.7732 190.094 66.3367 187.523C69.4636 182.381 74.7904 176.289 81.9107 169.641C96.1474 156.348 117.503 140.877 142.604 126.385C167.704 111.893 191.781 101.134 210.411 95.4511C219.729 92.6089 227.668 91.0416 233.684 90.9047C236.693 90.8363 239.205 91.126 241.162 91.7821C243.117 92.4374 244.501 93.4513 245.293 94.8227Z" stroke="white" stroke-opacity="0.06" stroke-width="0.609304"/>
<path opacity="0.827586" d="M249.51 102.087C250.179 103.522 250.216 105.238 249.632 107.215C249.046 109.195 247.843 111.419 246.061 113.844C242.498 118.694 236.661 124.298 228.988 130.301C213.647 142.302 191.024 155.853 164.756 168.102C138.488 180.351 113.565 188.971 94.5106 193.008C84.9807 195.028 76.9353 195.897 70.9296 195.509C67.9265 195.315 65.4496 194.808 63.5567 193.983C61.6662 193.16 60.3757 192.029 59.7065 190.594C59.0373 189.159 59.0007 187.444 59.5853 185.466C60.1706 183.487 61.3739 181.263 63.1556 178.838C66.7187 173.988 72.5563 168.383 80.2288 162.381C95.57 150.38 118.193 136.829 144.461 124.58C170.729 112.331 195.651 103.711 214.706 99.6732C224.236 97.6539 232.281 96.7844 238.287 97.1725C241.29 97.3665 243.767 97.8741 245.66 98.6983C247.551 99.5215 248.841 100.652 249.51 102.087Z" stroke="white" stroke-opacity="0.06" stroke-width="0.609304"/>
<path opacity="0.862069" d="M253.007 109.688C253.549 111.176 253.436 112.888 252.681 114.807C251.926 116.728 250.533 118.838 248.547 121.099C244.574 125.62 238.271 130.694 230.104 136.005C213.775 146.624 190.058 158.151 162.822 168.064C135.586 177.977 110.007 184.392 90.6732 186.754C81.0036 187.935 72.913 188.1 66.964 187.19C63.9893 186.735 61.566 186.013 59.7522 185.027C57.9406 184.042 56.7536 182.804 56.212 181.316C55.6704 179.828 55.7834 178.116 56.5381 176.197C57.2938 174.275 58.6863 172.165 60.6726 169.904C64.6449 165.383 70.9486 160.309 79.1151 154.998C95.4439 144.38 119.162 132.852 146.398 122.939C173.633 113.026 199.212 106.611 218.546 104.25C228.216 103.069 236.306 102.904 242.255 103.814C245.23 104.269 247.653 104.99 249.467 105.976C251.279 106.961 252.466 108.2 253.007 109.688Z" stroke="white" stroke-opacity="0.06" stroke-width="0.609304"/>
<path opacity="0.896552" d="M255.754 117.562C256.164 119.091 255.902 120.787 254.983 122.633C254.063 124.481 252.491 126.462 250.316 128.541C245.964 132.698 239.242 137.204 230.644 141.783C213.452 150.938 188.82 160.354 160.824 167.856C132.828 175.357 106.787 179.519 87.3206 180.186C77.5849 180.52 69.5107 179.979 63.6636 178.554C60.7399 177.841 58.3887 176.911 56.6677 175.771C54.9488 174.632 53.8743 173.294 53.4645 171.765C53.0547 170.235 53.3164 168.54 54.2355 166.694C55.1557 164.846 56.7269 162.865 58.9026 160.786C63.2539 156.628 69.9759 152.123 78.5742 147.544C95.7663 138.389 120.399 128.972 148.395 121.471C176.391 113.969 202.431 109.808 221.898 109.141C231.633 108.807 239.708 109.348 245.555 110.773C248.478 111.485 250.83 112.415 252.551 113.556C254.269 114.695 255.344 116.032 255.754 117.562Z" stroke="white" stroke-opacity="0.06" stroke-width="0.609304"/>
<path opacity="0.931035" d="M257.731 125.642C258.006 127.201 257.597 128.867 256.521 130.626C255.443 132.387 253.705 134.223 251.356 136.105C246.659 139.867 239.57 143.77 230.606 147.582C212.681 155.204 187.322 162.438 158.778 167.471C130.235 172.504 103.931 174.379 84.4805 173.348C74.7527 172.832 66.7564 171.589 61.0557 169.66C58.2053 168.695 55.9441 167.564 54.3291 166.278C52.716 164.993 51.7622 163.567 51.4872 162.008C51.2122 160.448 51.6208 158.782 52.6972 157.023C53.775 155.262 55.5129 153.426 57.8615 151.545C62.5586 147.782 69.6477 143.879 78.6123 140.068C96.5369 132.446 121.896 125.212 150.44 120.179C178.983 115.146 205.287 113.27 224.737 114.302C234.465 114.818 242.462 116.06 248.162 117.989C251.013 118.954 253.274 120.085 254.889 121.371C256.502 122.656 257.456 124.082 257.731 125.642Z" stroke="white" stroke-opacity="0.06" stroke-width="0.609304"/>
<path opacity="0.965517" d="M258.924 133.86C259.062 135.438 258.51 137.062 257.284 138.72C256.057 140.381 254.166 142.059 251.662 143.728C246.655 147.067 239.253 150.337 229.99 153.353C211.469 159.384 185.576 164.38 156.703 166.906C127.829 169.432 101.462 169.008 82.1752 166.285C72.5294 164.923 64.6718 162.988 59.161 160.57C56.4054 159.36 54.2515 158.036 52.7547 156.614C51.2597 155.194 50.4338 153.69 50.2958 152.113C50.1578 150.535 50.71 148.911 51.9356 147.253C53.1628 145.592 55.0541 143.914 57.5578 142.245C62.5649 138.906 69.9671 135.636 79.2299 132.62C97.7506 126.589 123.644 121.593 152.517 119.067C181.391 116.541 207.758 116.965 227.045 119.688C236.69 121.05 244.548 122.985 250.059 125.403C252.814 126.613 254.968 127.937 256.465 129.359C257.96 130.779 258.786 132.283 258.924 133.86Z" stroke="white" stroke-opacity="0.06" stroke-width="0.609304"/>
<path d="M259.322 142.149C259.322 143.732 258.63 145.302 257.264 146.848C255.897 148.395 253.867 149.901 251.227 151.346C245.948 154.236 238.289 156.848 228.799 159.046C209.823 163.439 183.593 166.16 154.609 166.16C125.625 166.16 99.3952 163.439 80.4194 159.046C70.929 156.848 63.2699 154.236 57.9909 151.346C55.3512 149.901 53.3209 148.395 51.9537 146.848C50.5881 145.302 49.8964 143.732 49.8964 142.149C49.8964 140.565 50.5881 138.995 51.9537 137.45C53.3209 135.903 55.3512 134.396 57.9909 132.951C63.2699 130.062 70.929 127.449 80.4194 125.252C99.3952 120.858 125.625 118.138 154.609 118.138C183.593 118.138 209.823 120.858 228.799 125.252C238.289 127.449 245.948 130.062 251.227 132.951C253.867 134.396 255.897 135.903 257.264 137.45C258.63 138.995 259.322 140.565 259.322 142.149Z" stroke="white" stroke-opacity="0.06" stroke-width="0.609304"/>
</g>
<defs>
<filter id="filter0_f_191_19857" x="39.5978" y="27.2692" width="243.158" height="262.957" filterUnits="userSpaceOnUse" color-interpolation-filters="sRGB">
<feFlood flood-opacity="0" result="BackgroundImageFix"/>
<feBlend mode="normal" in="SourceGraphic" in2="BackgroundImageFix" result="shape"/>
<feGaussianBlur stdDeviation="7.99309" result="effect1_foregroundBlur_191_19857"/>
</filter>
<filter id="filter1_f_191_19857" x="30.799" y="39.3681" width="265.156" height="239.859" filterUnits="userSpaceOnUse" color-interpolation-filters="sRGB">
<feFlood flood-opacity="0" result="BackgroundImageFix"/>
<feBlend mode="normal" in="SourceGraphic" in2="BackgroundImageFix" result="shape"/>
<feGaussianBlur stdDeviation="7.99309" result="effect1_foregroundBlur_191_19857"/>
</filter>
<filter id="filter2_f_191_19857" x="40.3751" y="29.1073" width="248.205" height="264.732" filterUnits="userSpaceOnUse" color-interpolation-filters="sRGB">
<feFlood flood-opacity="0" result="BackgroundImageFix"/>
<feBlend mode="normal" in="SourceGraphic" in2="BackgroundImageFix" result="shape"/>
<feGaussianBlur stdDeviation="7.99309" result="effect1_foregroundBlur_191_19857"/>
</filter>
</defs>
</svg>
