<svg width="1281" height="1425" viewBox="0 0 1281 1425" fill="none" xmlns="http://www.w3.org/2000/svg">
<g opacity="0.4" filter="url(#filter0_f_750_392)">
<ellipse cx="1258.92" cy="485.737" rx="404.351" ry="171.263" transform="rotate(48.2551 1258.92 485.737)" fill="url(#paint0_linear_750_392)"/>
</g>
<g opacity="0.4" filter="url(#filter1_f_750_392)">
<ellipse cx="150.787" cy="86.4835" rx="404.351" ry="171.263" transform="rotate(-145.671 150.787 86.4835)" fill="url(#paint1_linear_750_392)"/>
</g>
<g opacity="0.3" clip-path="url(#clip0_750_392)">
<mask id="mask0_750_392" style="mask-type:luminance" maskUnits="userSpaceOnUse" x="0" y="198" width="1281" height="750">
<path d="M836.111 610.204L833.08 611.067L829.837 612.474L832.798 611.48L836.111 610.204ZM843.648 607.301L839.582 608.247L835.195 610.152C836.546 609.767 837.9 609.382 839.252 608.997L843.65 607.301H843.648ZM848.873 606.089L845.775 606.808L842.478 608.077L845.524 607.211L848.873 606.089ZM852.16 605.326L851.986 605.367L851.806 605.429L852.162 605.329L852.16 605.326ZM850.642 604.612C849.124 604.882 847.6 605.157 846.08 605.429C844.431 606.143 842.78 606.86 841.131 607.576C842.652 607.222 844.17 606.87 845.688 606.518L850.642 604.612ZM856.299 603.605L852.213 604.332L847.815 606.025C849.177 605.709 850.542 605.393 851.901 605.077L856.299 603.605ZM861.504 602.68L858.345 603.24L855.006 604.358L858.122 603.639L861.504 602.68ZM864.775 602.103L864.463 602.156L864.146 602.246L864.775 602.103ZM857.397 602.015C855.8 602.213 854.2 602.411 852.597 602.609C850.828 603.374 849.062 604.137 847.293 604.905C848.906 604.615 850.519 604.327 852.129 604.039L857.397 602.015ZM863.191 601.301C861.678 601.486 860.16 601.674 858.644 601.861L853.703 603.759C855.227 603.487 856.747 603.217 858.265 602.948L863.191 601.301ZM868.795 600.618L864.701 601.116L860.308 602.585C861.673 602.344 863.035 602.102 864.397 601.861L868.797 600.618H868.795ZM873.94 599.994C872.878 600.122 871.818 600.251 870.755 600.379L867.369 601.335C868.428 601.147 869.488 600.959 870.546 600.772L873.94 599.991V599.994ZM877.271 599.593L876.795 599.65L876.301 599.763L877.273 599.59L877.271 599.593ZM864.03 599.47C862.387 599.58 860.738 599.691 859.092 599.801L853.591 602.182C855.252 601.977 856.911 601.771 858.57 601.568L864.03 599.472V599.47ZM869.852 599.079C868.262 599.185 866.657 599.295 865.057 599.4L859.817 601.412C861.424 601.214 863.029 601.016 864.632 600.821L869.852 599.077V599.079ZM875.566 598.709C874.06 598.807 872.56 598.902 871.05 599L866.14 600.638C867.66 600.453 869.179 600.269 870.697 600.084L875.566 598.709ZM881.083 598.36L877.002 598.619C875.553 599.028 874.102 599.439 872.65 599.85L876.738 599.357C878.187 599.023 879.634 598.694 881.08 598.363L881.083 598.36ZM886.185 598.036C885.112 598.103 884.037 598.173 882.959 598.242L879.605 599.01C880.676 598.882 881.74 598.756 882.808 598.627L886.182 598.039L886.185 598.036ZM889.546 597.823L888.944 597.862L888.353 597.965L889.546 597.823ZM870.635 596.937C868.961 596.952 867.284 596.968 865.602 596.986C863.71 597.803 861.816 598.625 859.924 599.444C861.614 599.331 863.306 599.215 864.99 599.102L870.635 596.937ZM876.405 596.893C874.77 596.906 873.136 596.917 871.498 596.929C869.67 597.631 867.842 598.332 866.014 599.033C867.676 598.92 869.34 598.807 870.991 598.699L876.405 596.893ZM882.153 596.852C880.568 596.863 878.976 596.875 877.386 596.888L872.189 598.622C873.781 598.519 875.361 598.422 876.951 598.319C878.686 597.828 880.419 597.343 882.153 596.852ZM887.792 596.824C886.295 596.832 884.802 596.837 883.299 596.845C881.661 597.307 880.028 597.767 878.389 598.227C879.9 598.131 881.408 598.034 882.913 597.939C884.541 597.566 886.167 597.194 887.792 596.821V596.824ZM893.248 596.806L889.175 596.819L884.789 597.821C886.164 597.733 887.542 597.643 888.909 597.559C890.357 597.307 891.801 597.055 893.248 596.806ZM898.304 596.791C897.223 596.791 896.135 596.798 895.05 596.801L891.666 597.389C892.723 597.325 893.772 597.263 894.83 597.199C895.989 597.063 897.147 596.924 898.304 596.791ZM901.803 596.783C901.532 596.783 901.263 596.783 900.989 596.783L900.126 596.883L901.806 596.783H901.803ZM877.168 594.433C875.479 594.348 873.794 594.261 872.102 594.176L866.317 596.675C868.029 596.657 869.732 596.644 871.437 596.629C873.346 595.897 875.259 595.162 877.166 594.43L877.168 594.433ZM882.923 594.723C881.262 594.636 879.588 594.553 877.916 594.471L872.302 596.624C873.981 596.611 875.655 596.598 877.332 596.588L882.923 594.726V594.723ZM888.622 595.031C886.999 594.944 885.383 594.851 883.758 594.764C881.945 595.368 880.128 595.974 878.315 596.577C879.964 596.565 881.618 596.549 883.256 596.542C885.045 596.038 886.837 595.532 888.622 595.031ZM894.274 595.345C892.702 595.257 891.131 595.167 889.556 595.083C887.841 595.565 886.121 596.051 884.403 596.534C885.985 596.526 887.554 596.524 889.136 596.516C890.852 596.125 892.564 595.732 894.274 595.345ZM899.881 595.655C898.386 595.568 896.875 595.488 895.37 595.404L890.519 596.511C892.021 596.506 893.522 596.5 895.022 596.495C896.642 596.215 898.263 595.933 899.881 595.653V595.655ZM905.239 595.979C903.89 595.899 902.546 595.815 901.199 595.735L896.824 596.49C898.209 596.485 899.594 596.48 900.966 596.477C902.389 596.31 903.815 596.143 905.239 595.979ZM910.228 596.282C909.143 596.215 908.055 596.148 906.967 596.084C905.833 596.215 904.696 596.349 903.562 596.48C904.632 596.48 905.705 596.482 906.78 596.482C907.929 596.416 909.084 596.346 910.231 596.28L910.228 596.282ZM913.677 596.49C913.395 596.472 913.111 596.457 912.827 596.439L911.941 596.488C912.517 596.488 913.098 596.488 913.674 596.488L913.677 596.49ZM883.694 591.931C882.002 591.743 880.32 591.548 878.625 591.361C876.661 592.208 874.701 593.053 872.734 593.901C874.447 593.986 876.157 594.073 877.87 594.16L883.694 591.931ZM889.38 592.573C887.705 592.383 886.029 592.193 884.349 592.005C882.439 592.737 880.53 593.467 878.617 594.199C880.32 594.284 882.027 594.366 883.717 594.456C885.609 593.827 887.493 593.2 889.382 592.57L889.38 592.573ZM895.058 593.223C893.412 593.03 891.755 592.843 890.099 592.655C888.248 593.269 886.402 593.883 884.549 594.499C886.213 594.589 887.864 594.684 889.523 594.777C891.371 594.258 893.212 593.739 895.058 593.223ZM900.667 593.891C899.059 593.701 897.456 593.508 895.846 593.318C894.052 593.821 892.257 594.325 890.46 594.831C892.091 594.921 893.724 595.011 895.349 595.103C897.126 594.7 898.898 594.297 900.669 593.893L900.667 593.891ZM906.265 594.556C904.706 594.368 903.134 594.181 901.565 593.996C899.858 594.384 898.153 594.772 896.443 595.16C898.027 595.25 899.612 595.337 901.186 595.429C902.881 595.137 904.576 594.844 906.265 594.553V594.556ZM911.751 595.229C910.274 595.047 908.802 594.862 907.32 594.682C905.717 594.957 904.11 595.234 902.505 595.512C903.992 595.601 905.477 595.691 906.964 595.781C908.562 595.596 910.156 595.411 911.751 595.229ZM917.104 595.899C915.745 595.727 914.383 595.558 913.019 595.388C911.58 595.553 910.136 595.72 908.695 595.887C910.077 595.969 911.46 596.051 912.834 596.138C914.263 596.056 915.681 595.979 917.104 595.899ZM922.096 596.524C920.996 596.382 919.887 596.246 918.779 596.107C917.657 596.169 916.539 596.233 915.415 596.295C916.475 596.362 917.522 596.434 918.579 596.503C919.756 596.508 920.921 596.516 922.099 596.521L922.096 596.524ZM925.401 596.952C925.109 596.914 924.82 596.875 924.531 596.839L923.589 596.834C924.193 596.875 924.8 596.914 925.401 596.952ZM890.201 589.442C888.512 589.147 886.807 588.856 885.109 588.566C883.138 589.416 881.164 590.269 879.191 591.119C880.906 591.309 882.603 591.505 884.313 591.697C886.277 590.945 888.24 590.192 890.204 589.442H890.201ZM895.826 590.431C894.151 590.133 892.472 589.837 890.788 589.542C888.85 590.282 886.909 591.027 884.969 591.769C886.671 591.959 888.373 592.152 890.068 592.344C891.988 591.707 893.911 591.065 895.826 590.431ZM901.424 591.435C899.768 591.137 898.112 590.839 896.45 590.541C894.564 591.168 892.674 591.797 890.788 592.424C892.472 592.617 894.151 592.809 895.826 593.005C897.692 592.481 899.561 591.957 901.424 591.433V591.435ZM907.033 592.442C905.403 592.144 903.749 591.851 902.105 591.556C900.277 592.07 898.442 592.586 896.612 593.1C898.263 593.295 899.904 593.49 901.552 593.688C903.38 593.272 905.211 592.856 907.033 592.442ZM912.558 593.475C910.965 593.177 909.383 592.879 907.789 592.583C906.012 592.987 904.23 593.392 902.451 593.796C904.074 593.988 905.702 594.178 907.315 594.374C909.066 594.073 910.809 593.775 912.558 593.475ZM918.064 594.505C916.521 594.212 914.967 593.924 913.413 593.634C911.731 593.922 910.052 594.209 908.367 594.499C909.924 594.692 911.467 594.89 913.021 595.083C914.703 594.89 916.382 594.697 918.062 594.507L918.064 594.505ZM923.504 595.537C922.032 595.255 920.555 594.972 919.076 594.692C917.481 594.875 915.888 595.054 914.291 595.239C915.794 595.427 917.296 595.612 918.791 595.802C920.361 595.714 921.94 595.625 923.504 595.537ZM928.742 596.554C927.401 596.292 926.059 596.033 924.715 595.771C923.305 595.848 921.881 595.93 920.466 596.01C921.833 596.182 923.195 596.357 924.554 596.534C925.949 596.539 927.347 596.547 928.74 596.554H928.742ZM933.655 597.51C932.556 597.294 931.448 597.081 930.342 596.865C929.218 596.857 928.087 596.855 926.96 596.847C928.002 596.983 929.044 597.119 930.086 597.258C931.282 597.34 932.462 597.428 933.652 597.51H933.655ZM936.87 598.147C936.599 598.093 936.333 598.036 936.061 597.985L935.119 597.918C935.703 597.995 936.289 598.07 936.87 598.147ZM896.701 586.956C895.014 586.552 893.314 586.154 891.612 585.756C889.618 586.614 887.616 587.48 885.619 588.343C887.334 588.638 889.054 588.928 890.757 589.226C892.741 588.468 894.72 587.713 896.699 586.956H896.701ZM902.238 588.299C900.564 587.893 898.898 587.485 897.218 587.081C895.26 587.829 893.301 588.576 891.341 589.326C893.04 589.624 894.732 589.925 896.425 590.225C898.365 589.581 900.298 588.941 902.236 588.296L902.238 588.299ZM907.799 589.647C906.14 589.239 904.466 588.836 902.797 588.432C900.882 589.067 898.972 589.701 897.054 590.338C898.736 590.639 900.418 590.942 902.095 591.245C904 590.711 905.899 590.182 907.801 589.647H907.799ZM913.31 591.019C911.675 590.611 910.044 590.2 908.4 589.794C906.526 590.318 904.655 590.842 902.776 591.368C904.448 591.669 906.125 591.967 907.783 592.27C909.629 591.851 911.47 591.435 913.31 591.019ZM918.807 592.401C917.194 591.993 915.581 591.587 913.961 591.181C912.153 591.589 910.346 591.998 908.533 592.409C910.167 592.712 911.787 593.017 913.418 593.323C915.215 593.015 917.012 592.707 918.807 592.401ZM924.298 593.791C922.718 593.385 921.124 592.984 919.534 592.583C917.783 592.881 916.029 593.182 914.276 593.482C915.883 593.783 917.493 594.081 919.091 594.384C920.829 594.186 922.567 593.988 924.301 593.791H924.298ZM929.692 595.196C928.164 594.797 926.643 594.399 925.112 594.004C923.443 594.191 921.771 594.381 920.099 594.574C921.651 594.869 923.192 595.167 924.738 595.465C926.392 595.375 928.043 595.285 929.692 595.198V595.196ZM935.055 596.593C933.598 596.208 932.129 595.83 930.662 595.45C929.09 595.535 927.526 595.614 925.952 595.702C927.429 595.987 928.906 596.274 930.378 596.562C931.94 596.572 933.501 596.583 935.058 596.595L935.055 596.593ZM940.231 597.972C938.905 597.618 937.589 597.261 936.258 596.909C934.83 596.896 933.409 596.883 931.975 596.873C933.355 597.143 934.732 597.41 936.102 597.682C937.479 597.78 938.859 597.875 940.231 597.975V597.972ZM945.019 599.262C943.936 598.969 942.848 598.676 941.762 598.386C940.654 598.306 939.535 598.229 938.421 598.149C939.497 598.368 940.574 598.584 941.65 598.802C942.776 598.956 943.895 599.11 945.016 599.264L945.019 599.262ZM948.239 600.13C947.94 600.048 947.637 599.968 947.335 599.886C947.021 599.842 946.703 599.801 946.391 599.757C947.008 599.881 947.627 600.004 948.242 600.13H948.239ZM903.163 584.485C901.486 583.973 899.812 583.46 898.125 582.954C896.107 583.822 894.098 584.685 892.078 585.556C893.79 585.956 895.498 586.36 897.198 586.765C899.187 586.005 901.176 585.245 903.163 584.487V584.485ZM908.643 586.172C906.974 585.658 905.308 585.142 903.634 584.628L897.715 586.889C899.41 587.297 901.089 587.708 902.776 588.117C904.732 587.467 906.69 586.819 908.641 586.172H908.643ZM914.142 587.87C912.486 587.351 910.812 586.84 909.143 586.326C907.21 586.966 905.272 587.611 903.334 588.253C905.024 588.661 906.716 589.067 908.393 589.48C910.31 588.944 912.23 588.404 914.142 587.87ZM919.575 589.601C917.936 589.082 916.311 588.556 914.667 588.037C912.78 588.563 910.884 589.095 908.994 589.624C910.658 590.035 912.304 590.454 913.963 590.87C915.835 590.446 917.708 590.022 919.575 589.601ZM925.033 591.34C923.412 590.819 921.779 590.3 920.146 589.784C918.305 590.2 916.459 590.616 914.613 591.034C916.262 591.445 917.906 591.862 919.547 592.275C921.377 591.962 923.205 591.651 925.033 591.34ZM930.439 593.097C928.847 592.578 927.26 592.057 925.66 591.54C923.868 591.846 922.071 592.152 920.274 592.457C921.899 592.868 923.522 593.282 925.135 593.696C926.904 593.495 928.673 593.295 930.439 593.097ZM935.833 594.872C934.269 594.356 932.702 593.839 931.131 593.323C929.408 593.516 927.68 593.711 925.954 593.906C927.539 594.317 929.116 594.731 930.695 595.142C932.413 595.049 934.123 594.962 935.833 594.872ZM941.207 596.649C939.691 596.141 938.158 595.637 936.629 595.134C934.976 595.221 933.325 595.306 931.666 595.396C933.214 595.799 934.768 596.2 936.307 596.606C937.945 596.619 939.576 596.637 941.209 596.652L941.207 596.649ZM946.398 598.414C944.972 597.931 943.552 597.443 942.123 596.96C940.58 596.945 939.038 596.929 937.49 596.917C938.936 597.302 940.37 597.695 941.813 598.08C943.342 598.191 944.873 598.301 946.396 598.411L946.398 598.414ZM951.511 600.153C950.197 599.701 948.871 599.254 947.548 598.807C946.148 598.702 944.752 598.599 943.347 598.496C944.701 598.858 946.055 599.223 947.399 599.588C948.766 599.775 950.146 599.963 951.511 600.153ZM956.277 601.802C955.205 601.43 954.142 601.055 953.067 600.682C951.951 600.525 950.837 600.366 949.716 600.209C950.809 600.507 951.89 600.811 952.978 601.111C954.081 601.34 955.179 601.571 956.277 601.799V601.802ZM959.426 602.906L958.469 602.57L957.465 602.362C958.118 602.544 958.773 602.724 959.426 602.906ZM909.629 582.019C907.963 581.397 906.309 580.77 904.635 580.154C902.61 581.025 900.587 581.895 898.56 582.766C900.257 583.277 901.936 583.794 903.623 584.31L909.629 582.019ZM915.046 584.053C913.387 583.426 911.726 582.802 910.059 582.178L904.097 584.454C905.784 584.97 907.463 585.489 909.143 586.008L915.046 584.053ZM920.466 586.108C918.82 585.476 917.158 584.849 915.497 584.225C913.546 584.87 911.595 585.517 909.642 586.164C911.324 586.683 913.008 587.2 914.677 587.724C916.61 587.184 918.538 586.647 920.466 586.108ZM925.834 588.194C924.201 587.559 922.578 586.922 920.937 586.29C919.024 586.822 917.117 587.354 915.202 587.891C916.864 588.414 918.507 588.944 920.161 589.47C922.055 589.041 923.945 588.617 925.834 588.194ZM931.233 590.292C929.615 589.655 927.974 589.023 926.341 588.391C924.472 588.813 922.606 589.231 920.734 589.653C922.388 590.179 924.044 590.701 925.685 591.23C927.539 590.916 929.385 590.603 931.233 590.29V590.292ZM936.565 592.416C934.968 591.779 933.386 591.14 931.783 590.505C929.961 590.814 928.141 591.122 926.313 591.433C927.938 591.959 929.546 592.491 931.164 593.02C932.969 592.817 934.766 592.617 936.565 592.416ZM941.903 594.559C940.329 593.922 938.744 593.287 937.159 592.655C935.393 592.853 933.627 593.048 931.855 593.249C933.465 593.775 935.07 594.304 936.67 594.833C938.414 594.743 940.165 594.648 941.903 594.559ZM947.213 596.711C945.671 596.082 944.125 595.452 942.574 594.828C940.879 594.916 939.166 595.008 937.467 595.095C939.041 595.617 940.615 596.138 942.177 596.665C943.854 596.68 945.541 596.693 947.213 596.711ZM952.443 598.876C950.95 598.257 949.46 597.638 947.96 597.022C946.345 597.004 944.711 596.991 943.091 596.976C944.601 597.487 946.104 597.998 947.609 598.512C949.227 598.63 950.832 598.753 952.443 598.876ZM957.668 601.039C956.236 600.438 954.788 599.845 953.341 599.249C951.815 599.133 950.29 599.018 948.759 598.902C950.22 599.398 951.687 599.891 953.136 600.389C954.652 600.605 956.155 600.821 957.665 601.037L957.668 601.039ZM962.578 603.125C961.308 602.585 960.048 602.043 958.776 601.504C957.399 601.306 956.024 601.108 954.644 600.913C955.95 601.368 957.245 601.828 958.551 602.282C959.89 602.565 961.244 602.842 962.578 603.125ZM967.268 605.126C966.2 604.669 965.127 604.211 964.055 603.757C962.951 603.523 961.848 603.287 960.742 603.053C961.805 603.425 962.872 603.795 963.929 604.17C965.051 604.486 966.151 604.81 967.27 605.128L967.268 605.126ZM970.634 606.562C970.27 606.405 969.899 606.248 969.531 606.092L968.558 605.812C969.252 606.061 969.94 606.312 970.634 606.562ZM916.093 579.561C914.442 578.829 912.801 578.091 911.137 577.362C909.109 578.233 907.074 579.109 905.044 579.982C906.726 580.603 908.388 581.233 910.062 581.859L916.093 579.561ZM921.438 581.944C919.792 581.207 918.144 580.47 916.487 579.735L910.492 582.021C912.169 582.648 913.843 583.277 915.509 583.907C917.486 583.252 919.465 582.597 921.438 581.944ZM926.784 584.351C925.148 583.606 923.499 582.866 921.848 582.127L915.96 584.074C917.632 584.705 919.301 585.337 920.957 585.974C922.9 585.432 924.843 584.89 926.781 584.351H926.784ZM932.08 586.794C930.455 586.046 928.839 585.294 927.209 584.549C925.286 585.083 923.356 585.622 921.431 586.159C923.084 586.796 924.723 587.438 926.372 588.078C928.279 587.649 930.181 587.22 932.083 586.794H932.08ZM937.41 589.252C935.797 588.499 934.162 587.752 932.533 587.004C930.649 587.428 928.763 587.852 926.876 588.276C928.527 588.915 930.186 589.552 931.822 590.197C933.685 589.881 935.552 589.565 937.41 589.252ZM942.674 591.743C941.079 590.988 939.502 590.23 937.899 589.478C936.061 589.786 934.218 590.099 932.372 590.41C933.995 591.052 935.593 591.702 937.208 592.35C939.033 592.147 940.853 591.946 942.674 591.743ZM947.95 594.255C946.373 593.498 944.783 592.745 943.193 591.99C941.399 592.188 939.604 592.386 937.805 592.586C939.417 593.231 941.03 593.875 942.63 594.523C944.407 594.433 946.178 594.343 947.95 594.253V594.255ZM953.205 596.788C951.652 596.033 950.092 595.283 948.528 594.53C946.788 594.618 945.049 594.702 943.301 594.792C944.885 595.434 946.46 596.077 948.032 596.721C949.765 596.742 951.48 596.765 953.205 596.788ZM958.374 599.326C956.864 598.584 955.356 597.839 953.84 597.099C952.151 597.078 950.477 597.05 948.782 597.032C950.333 597.672 951.879 598.311 953.423 598.953C955.072 599.079 956.733 599.2 958.374 599.328V599.326ZM963.589 601.887C962.109 601.15 960.604 600.418 959.106 599.685C957.522 599.562 955.914 599.447 954.322 599.323C955.84 599.953 957.363 600.579 958.868 601.211C960.44 601.437 962.022 601.658 963.589 601.887ZM968.622 604.432C967.224 603.728 965.839 603.019 964.439 602.316C962.951 602.1 961.444 601.889 959.948 601.674C961.354 602.272 962.752 602.871 964.155 603.469C965.65 603.787 967.132 604.111 968.622 604.435V604.432ZM973.555 606.929C972.275 606.276 970.982 605.624 969.694 604.974C968.343 604.681 966.991 604.389 965.634 604.096C966.973 604.666 968.315 605.234 969.643 605.804C970.949 606.176 972.257 606.551 973.557 606.926L973.555 606.929ZM978.086 609.251C977.057 608.719 976.03 608.188 974.996 607.658C973.947 607.353 972.882 607.052 971.829 606.749C972.871 607.204 973.898 607.661 974.94 608.113C975.987 608.493 977.044 608.868 978.086 609.248V609.251ZM981.076 610.81L980.17 610.337C979.804 610.204 979.445 610.068 979.077 609.932C979.742 610.224 980.413 610.515 981.076 610.81ZM922.552 577.102C920.914 576.26 919.285 575.412 917.637 574.572L911.523 577.197C913.193 577.93 914.836 578.672 916.498 579.409L922.552 577.102ZM927.818 579.838C926.187 578.988 924.554 578.138 922.91 577.29L916.887 579.584C918.551 580.321 920.212 581.063 921.863 581.806L927.815 579.841L927.818 579.838ZM933.097 582.599C931.474 581.741 929.833 580.889 928.194 580.033L922.278 581.988C923.937 582.733 925.591 583.478 927.237 584.228C929.193 583.683 931.143 583.141 933.097 582.599ZM938.314 585.402C936.701 584.539 935.101 583.668 933.481 582.807C931.543 583.347 929.605 583.883 927.659 584.425C929.303 585.178 930.931 585.936 932.567 586.688C934.484 586.259 936.399 585.828 938.311 585.402H938.314ZM943.567 588.222C941.965 587.351 940.339 586.485 938.721 585.62C936.824 586.044 934.924 586.47 933.022 586.896C934.666 587.652 936.317 588.404 937.943 589.167C939.822 588.851 941.696 588.535 943.567 588.222ZM948.759 591.078C947.172 590.205 945.597 589.326 944.002 588.456C942.146 588.766 940.29 589.08 938.429 589.393C940.047 590.153 941.637 590.924 943.247 591.687C945.088 591.484 946.926 591.281 948.761 591.081L948.759 591.078ZM953.966 593.965C952.389 593.087 950.804 592.208 949.217 591.332C947.402 591.53 945.584 591.731 943.764 591.931C945.377 592.694 946.987 593.459 948.587 594.227C950.384 594.137 952.174 594.053 953.966 593.963V593.965ZM959.155 596.873C957.601 595.994 956.034 595.119 954.468 594.245C952.701 594.333 950.937 594.417 949.166 594.505C950.755 595.267 952.335 596.035 953.912 596.803C955.663 596.827 957.412 596.85 959.157 596.873H959.155ZM964.275 599.801C962.749 598.928 961.231 598.054 959.698 597.184C957.985 597.158 956.265 597.135 954.544 597.114C956.096 597.872 957.642 598.632 959.186 599.393C960.893 599.526 962.575 599.665 964.275 599.801ZM969.441 602.755C967.941 601.884 966.412 601.021 964.894 600.155C963.236 600.022 961.592 599.886 959.928 599.757C961.467 600.513 963.01 601.268 964.533 602.028C966.18 602.267 967.803 602.513 969.441 602.755ZM974.433 605.691C973.002 604.851 971.586 604.006 970.153 603.166C968.563 602.93 966.986 602.691 965.388 602.457C966.866 603.199 968.327 603.947 969.799 604.689C971.343 605.023 972.897 605.354 974.433 605.691ZM979.445 608.647C978.06 607.823 976.66 607.001 975.262 606.181C973.808 605.863 972.329 605.55 970.867 605.231C972.285 605.945 973.706 606.659 975.109 607.378C976.56 607.8 977.999 608.223 979.445 608.647ZM984.292 611.547C983.037 610.792 981.785 610.034 980.521 609.282C979.192 608.891 977.876 608.496 976.542 608.108C977.802 608.76 979.046 609.415 980.303 610.068C981.642 610.558 982.96 611.057 984.292 611.55V611.547ZM988.705 614.229C987.694 613.612 986.677 612.996 985.664 612.382C984.599 611.986 983.536 611.591 982.466 611.195C983.513 611.74 984.565 612.284 985.605 612.832C986.644 613.296 987.671 613.764 988.705 614.231V614.229ZM991.785 616.099C991.475 615.909 991.16 615.719 990.848 615.529L990.054 615.171C990.635 615.48 991.206 615.79 991.787 616.101L991.785 616.099ZM929.006 574.647C927.385 573.691 925.767 572.736 924.134 571.785C922.089 572.661 920.051 573.535 918.003 574.413C919.657 575.256 921.287 576.108 922.933 576.956C924.958 576.185 926.983 575.415 929.006 574.647ZM934.192 577.734C932.577 576.771 930.964 575.805 929.339 574.845L923.294 577.144C924.943 577.994 926.584 578.849 928.225 579.704C930.217 579.047 932.206 578.392 934.195 577.734H934.192ZM939.405 580.845C937.797 579.871 936.164 578.908 934.538 577.94L928.599 579.9C930.245 580.758 931.891 581.615 933.522 582.481C935.483 581.937 937.446 581.389 939.405 580.845ZM944.54 584.007C942.942 583.026 941.363 582.039 939.755 581.061C937.81 581.6 935.856 582.145 933.906 582.687C935.536 583.555 937.147 584.428 938.767 585.296C940.695 584.865 942.617 584.436 944.54 584.007ZM949.714 587.192C948.124 586.203 946.516 585.219 944.911 584.235C943.001 584.662 941.091 585.088 939.177 585.517C940.807 586.39 942.446 587.261 944.059 588.137C945.945 587.821 947.829 587.505 949.711 587.192H949.714ZM954.841 590.413C953.264 589.419 951.695 588.422 950.108 587.433C948.239 587.744 946.37 588.057 944.496 588.371C946.107 589.249 947.689 590.138 949.289 591.019C951.142 590.816 952.995 590.613 954.841 590.413ZM959.961 593.67C958.397 592.668 956.828 591.669 955.251 590.672C953.42 590.87 951.585 591.07 949.747 591.273C951.352 592.159 952.955 593.046 954.547 593.934C956.349 593.847 958.162 593.755 959.959 593.67H959.961ZM965.086 596.952C963.538 595.948 961.968 594.952 960.404 593.952C958.628 594.037 956.836 594.127 955.051 594.214C956.636 595.101 958.215 595.989 959.79 596.881C961.554 596.906 963.33 596.927 965.086 596.955V596.952ZM970.135 600.269C968.609 599.267 967.093 598.262 965.56 597.263C963.824 597.235 962.073 597.214 960.33 597.189C961.892 598.075 963.44 598.966 964.992 599.858C966.707 599.994 968.425 600.132 970.132 600.271L970.135 600.269ZM975.227 603.613C973.719 602.609 972.185 601.612 970.662 600.613C968.985 600.477 967.296 600.343 965.611 600.207C967.165 601.093 968.724 601.979 970.26 602.873C971.916 603.12 973.575 603.364 975.224 603.613H975.227ZM980.206 606.967C978.744 605.981 977.298 604.992 975.828 604.008C974.21 603.764 972.582 603.525 970.956 603.284C972.439 604.152 973.906 605.026 975.383 605.894C977.001 606.248 978.598 606.61 980.206 606.967ZM985.18 610.337C983.759 609.366 982.325 608.398 980.892 607.43C979.335 607.083 977.792 606.734 976.228 606.389C977.707 607.258 979.189 608.126 980.654 608.999C982.167 609.444 983.677 609.89 985.182 610.337H985.18ZM990.057 613.684C988.713 612.754 987.366 611.825 986.009 610.897C984.588 610.474 983.157 610.055 981.729 609.634C983.099 610.456 984.445 611.283 985.807 612.105C987.223 612.631 988.649 613.155 990.057 613.682V613.684ZM994.711 616.934C993.492 616.081 992.271 615.225 991.047 614.375C989.767 613.895 988.467 613.417 987.182 612.939C988.457 613.712 989.734 614.486 991.001 615.259C992.235 615.819 993.484 616.374 994.713 616.934H994.711ZM999.183 620.057C998.164 619.335 997.127 618.619 996.096 617.899C995.115 617.45 994.125 617.005 993.141 616.559C994.176 617.193 995.195 617.833 996.221 618.47C997.204 618.999 998.203 619.525 999.183 620.057ZM1002.09 622.135C1001.79 621.924 1001.5 621.714 1001.21 621.503C1000.84 621.3 1000.48 621.097 1000.1 620.894C1000.76 621.308 1001.43 621.721 1002.09 622.132V622.135ZM935.465 572.189C933.862 571.123 932.252 570.057 930.631 568.999C928.586 569.874 926.538 570.753 924.487 571.631C926.126 572.584 927.746 573.545 929.372 574.506C931.402 573.732 933.435 572.962 935.462 572.191L935.465 572.189ZM940.567 575.631C938.967 574.554 937.38 573.473 935.772 572.397C933.752 573.162 931.73 573.933 929.707 574.701C931.34 575.664 932.958 576.635 934.581 577.601C936.578 576.943 938.575 576.283 940.567 575.628V575.631ZM945.707 579.096C944.115 578.007 942.494 576.928 940.884 575.846C938.9 576.499 936.914 577.156 934.927 577.811C936.558 578.782 938.196 579.753 939.812 580.732C941.78 580.185 943.744 579.643 945.707 579.098V579.096ZM950.766 582.615C949.186 581.518 947.627 580.413 946.037 579.319C944.079 579.861 942.123 580.403 940.162 580.948C941.778 581.931 943.367 582.923 944.973 583.909C946.905 583.478 948.838 583.046 950.766 582.617V582.615ZM955.853 586.164C954.278 585.057 952.691 583.953 951.104 582.851C949.189 583.277 947.264 583.706 945.344 584.135C946.959 585.127 948.577 586.116 950.177 587.11C952.069 586.794 953.966 586.475 955.853 586.162V586.164ZM960.919 589.753C959.355 588.638 957.785 587.523 956.208 586.411C954.332 586.722 952.45 587.038 950.569 587.351C952.166 588.348 953.746 589.352 955.33 590.354C957.196 590.151 959.058 589.951 960.919 589.75V589.753ZM965.949 593.385C964.398 592.262 962.849 591.137 961.287 590.017C959.442 590.215 957.593 590.415 955.74 590.616C957.332 591.623 958.914 592.63 960.494 593.639C962.316 593.552 964.134 593.467 965.952 593.385H965.949ZM971.023 597.05C969.479 595.917 967.905 594.795 966.343 593.67C964.541 593.752 962.744 593.834 960.934 593.922C962.514 594.931 964.096 595.943 965.66 596.958C967.457 596.986 969.234 597.019 971.023 597.05ZM975.974 600.744C974.459 599.616 972.961 598.486 971.438 597.361C969.669 597.33 967.91 597.297 966.133 597.268C967.687 598.28 969.226 599.3 970.772 600.315C972.508 600.456 974.244 600.6 975.974 600.744ZM980.981 604.478C979.479 603.346 977.956 602.216 976.435 601.088C974.727 600.944 973.017 600.803 971.302 600.662C972.853 601.679 974.418 602.693 975.951 603.716C977.63 603.97 979.307 604.222 980.981 604.478ZM985.917 608.236C984.448 607.111 982.983 605.986 981.501 604.864C979.852 604.612 978.204 604.36 976.547 604.109C978.05 605.115 979.527 606.133 981.025 607.142C982.658 607.507 984.294 607.869 985.917 608.234V608.236ZM990.817 612.012C989.378 610.897 987.934 609.785 986.485 608.676C984.901 608.318 983.301 607.964 981.708 607.61C983.193 608.611 984.681 609.613 986.15 610.62C987.707 611.082 989.266 611.545 990.814 612.012H990.817ZM995.724 615.826C994.324 614.727 992.911 613.63 991.498 612.536C989.995 612.084 988.49 611.632 986.979 611.182C988.395 612.156 989.796 613.132 991.201 614.105C992.719 614.676 994.214 615.254 995.724 615.826ZM1000.45 619.582C999.14 618.539 997.831 617.493 996.513 616.451C995.077 615.904 993.656 615.354 992.212 614.809C993.566 615.752 994.916 616.692 996.26 617.637C997.667 618.282 999.05 618.934 1000.45 619.582ZM1005.18 623.34C1003.95 622.353 1002.71 621.372 1001.46 620.388C1000.21 619.805 998.955 619.22 997.691 618.637C998.927 619.505 1000.16 620.375 1001.38 621.246C1002.65 621.94 1003.91 622.641 1005.18 623.337V623.34ZM1009.32 626.722C1008.38 625.96 1007.46 625.192 1006.52 624.429C1005.5 623.864 1004.47 623.298 1003.45 622.733C1004.36 623.394 1005.28 624.054 1006.2 624.714C1007.25 625.382 1008.28 626.055 1009.32 626.722ZM1011.86 628.8L1011.38 628.407L1010.93 628.122C1011.24 628.348 1011.55 628.574 1011.86 628.8ZM941.926 569.741C940.341 568.562 938.734 567.388 937.129 566.217C935.081 567.093 933.025 567.976 930.977 568.855C932.6 569.921 934.215 570.989 935.82 572.058C937.858 571.285 939.891 570.514 941.926 569.741ZM946.944 573.535C945.364 572.343 943.803 571.146 942.213 569.957C940.185 570.725 938.16 571.493 936.13 572.266C937.743 573.345 939.338 574.429 940.943 575.51C942.948 574.85 944.944 574.192 946.944 573.535ZM951.995 577.357C950.423 576.152 948.828 574.958 947.238 573.758C945.246 574.413 943.257 575.068 941.26 575.723C942.876 576.81 944.504 577.894 946.101 578.988C948.068 578.443 950.034 577.899 951.995 577.357ZM956.994 581.233C955.43 580.018 953.876 578.798 952.299 577.588C950.346 578.127 948.388 578.669 946.432 579.211C948.029 580.311 949.591 581.423 951.181 582.525C953.124 582.091 955.059 581.662 956.997 581.233H956.994ZM961.989 585.147C960.432 583.919 958.871 582.697 957.301 581.474C955.374 581.903 953.449 582.329 951.513 582.758C953.111 583.868 954.708 584.978 956.29 586.09C958.192 585.774 960.092 585.461 961.989 585.145V585.147ZM966.994 589.103C965.447 587.865 963.878 586.632 962.311 585.402C960.425 585.715 958.538 586.026 956.646 586.342C958.233 587.462 959.808 588.581 961.38 589.707C963.253 589.504 965.125 589.306 966.994 589.105V589.103ZM971.934 593.112C970.398 591.867 968.873 590.616 967.326 589.373C965.47 589.57 963.612 589.771 961.748 589.969C963.325 591.096 964.887 592.229 966.448 593.362C968.284 593.277 970.107 593.195 971.934 593.112ZM976.914 597.153C975.388 595.897 973.831 594.648 972.288 593.4C970.473 593.482 968.663 593.565 966.843 593.647C968.414 594.785 969.999 595.917 971.553 597.06C973.34 597.091 975.132 597.119 976.914 597.153ZM981.808 601.239C980.3 599.981 978.813 598.717 977.295 597.464C975.526 597.43 973.744 597.402 971.97 597.371C973.511 598.509 975.027 599.655 976.558 600.795C978.314 600.941 980.06 601.093 981.808 601.242V601.239ZM986.721 605.365C985.228 604.101 983.721 602.837 982.21 601.578C980.482 601.43 978.752 601.281 977.016 601.137C978.557 602.282 980.106 603.428 981.629 604.579C983.332 604.838 985.024 605.103 986.718 605.365H986.721ZM991.6 609.523C990.131 608.259 988.654 606.998 987.169 605.74C985.5 605.48 983.828 605.221 982.149 604.964C983.652 606.104 985.131 607.25 986.624 608.393C988.288 608.768 989.944 609.146 991.598 609.523H991.6ZM996.429 613.715C994.985 612.456 993.543 611.2 992.087 609.947C990.459 609.575 988.83 609.202 987.192 608.832C988.682 609.975 990.169 611.118 991.646 612.264C993.246 612.747 994.836 613.232 996.426 613.715H996.429ZM1001.29 617.948C999.872 616.695 998.428 615.451 996.992 614.203C995.44 613.73 993.889 613.258 992.327 612.785C993.784 613.918 995.23 615.051 996.674 616.186C998.215 616.772 999.759 617.357 1001.29 617.948ZM1005.96 622.135C1004.61 620.928 1003.27 619.718 1001.92 618.513C1000.44 617.943 998.948 617.378 997.46 616.813C998.855 617.917 1000.25 619.024 1001.63 620.131C1003.07 620.799 1004.52 621.467 1005.95 622.137L1005.96 622.135ZM1010.67 626.365C1009.37 625.184 1008.05 624.007 1006.73 622.828C1005.38 622.194 1004.01 621.565 1002.65 620.933C1004.01 622.012 1005.36 623.09 1006.7 624.174C1008.03 624.904 1009.36 625.631 1010.67 626.363V626.365ZM1015.13 630.455C1013.97 629.394 1012.84 628.328 1011.68 627.267C1010.46 626.589 1009.22 625.916 1008 625.238C1009.19 626.211 1010.38 627.187 1011.56 628.161C1012.75 628.926 1013.95 629.689 1015.13 630.455ZM1019.27 634.295C1018.32 633.411 1017.37 632.527 1016.41 631.644C1015.49 631.043 1014.55 630.447 1013.62 629.848C1014.71 630.737 1015.8 631.626 1016.88 632.517C1017.68 633.111 1018.48 633.701 1019.28 634.295H1019.27ZM1022.3 637.1C1021.98 636.796 1021.65 636.496 1021.33 636.195C1021.07 636.005 1020.82 635.818 1020.56 635.628C1021.14 636.118 1021.72 636.609 1022.3 637.1ZM948.377 567.29C946.816 565.998 945.216 564.719 943.626 563.438C941.568 564.319 939.517 565.189 937.456 566.073C939.067 567.249 940.677 568.426 942.264 569.61C944.302 568.837 946.342 568.064 948.377 567.29ZM953.31 571.439C951.751 570.131 950.218 568.816 948.649 567.514C946.619 568.282 944.583 569.055 942.551 569.826C944.146 571.02 945.712 572.22 947.297 573.417C949.301 572.756 951.308 572.096 953.31 571.439ZM958.274 575.62C956.72 574.3 955.151 572.985 953.582 571.67C951.588 572.325 949.588 572.982 947.591 573.64C949.186 574.842 950.791 576.044 952.368 577.254C954.34 576.707 956.308 576.165 958.277 575.623L958.274 575.62ZM963.213 579.851C961.669 578.518 960.115 577.187 958.556 575.857C956.597 576.399 954.636 576.938 952.673 577.483C954.255 578.7 955.814 579.925 957.383 581.145C959.329 580.714 961.275 580.28 963.215 579.851H963.213ZM968.117 584.135C966.579 582.789 965.048 581.441 963.497 580.097C961.564 580.526 959.628 580.955 957.691 581.387C959.268 582.615 960.839 583.845 962.401 585.078C964.311 584.762 966.215 584.449 968.117 584.135ZM973.063 588.458C971.533 587.097 969.963 585.748 968.412 584.395C966.517 584.705 964.623 585.019 962.724 585.335C964.295 586.573 965.87 587.813 967.426 589.059C969.308 588.859 971.187 588.659 973.063 588.461V588.458ZM977.902 592.843C976.386 591.474 974.891 590.097 973.363 588.733C971.499 588.931 969.628 589.129 967.757 589.329C969.316 590.58 970.852 591.838 972.398 593.094C974.231 593.012 976.076 592.925 977.902 592.845V592.843ZM982.789 597.268C981.281 595.887 979.747 594.51 978.219 593.13C976.404 593.21 974.571 593.297 972.749 593.38C974.305 594.641 975.874 595.897 977.41 597.163C979.207 597.197 980.997 597.232 982.786 597.268H982.789ZM987.617 601.735C986.127 600.348 984.637 598.961 983.132 597.579C981.355 597.543 979.579 597.507 977.794 597.474C979.325 598.74 980.823 600.017 982.341 601.288C984.097 601.44 985.868 601.584 987.617 601.738V601.735ZM992.43 606.251C990.953 604.856 989.468 603.461 987.975 602.069C986.242 601.918 984.486 601.774 982.745 601.625C984.271 602.901 985.799 604.178 987.31 605.457C989.015 605.722 990.735 605.984 992.43 606.251ZM997.271 610.831C995.804 609.423 994.311 608.023 992.824 606.621C991.145 606.356 989.445 606.097 987.758 605.835C989.26 607.111 990.75 608.393 992.24 609.675C993.922 610.06 995.596 610.445 997.271 610.833V610.831ZM1001.98 615.408C1000.55 614.018 999.132 612.626 997.691 611.239C996.042 610.856 994.388 610.476 992.729 610.096C994.211 611.375 995.684 612.654 997.153 613.936C998.761 614.427 1000.38 614.912 1001.98 615.405V615.408ZM1006.79 620.083C1005.37 618.678 1003.91 617.278 1002.46 615.878C1000.89 615.392 999.296 614.912 997.714 614.427C999.178 615.703 1000.64 616.977 1002.09 618.259C1003.67 618.865 1005.23 619.474 1006.79 620.083ZM1011.43 624.727C1010.07 623.36 1008.72 621.991 1007.35 620.627C1005.81 620.026 1004.27 619.422 1002.72 618.824C1004.13 620.075 1005.52 621.328 1006.91 622.582C1008.43 623.293 1009.92 624.013 1011.43 624.727H1011.43ZM1016.1 629.419C1014.77 628.066 1013.42 626.717 1012.07 625.366C1010.61 624.673 1009.16 623.977 1007.7 623.286C1009.09 624.531 1010.49 625.777 1011.87 627.028C1013.29 627.822 1014.69 628.623 1016.1 629.419ZM1020.64 634.066C1019.39 632.784 1018.15 631.5 1016.9 630.221C1015.55 629.458 1014.22 628.695 1012.86 627.935C1014.11 629.091 1015.35 630.252 1016.61 631.41C1017.96 632.294 1019.29 633.18 1020.64 634.066H1020.64ZM1024.99 638.587C1023.86 637.413 1022.74 636.242 1021.61 635.07C1020.39 634.269 1019.19 633.465 1017.97 632.666C1019.16 633.768 1020.36 634.867 1021.54 635.972C1022.7 636.843 1023.84 637.713 1024.99 638.584L1024.99 638.587ZM1029.1 642.876C1028.2 641.923 1027.29 640.976 1026.37 640.025C1025.46 639.334 1024.56 638.638 1023.64 637.947C1024.52 638.774 1025.37 639.604 1026.24 640.434C1027.2 641.248 1028.15 642.059 1029.1 642.876H1029.1ZM1031.5 645.453C1031.36 645.306 1031.23 645.16 1031.09 645.016C1030.9 644.852 1030.72 644.69 1030.53 644.528C1030.85 644.839 1031.18 645.144 1031.5 645.455V645.453ZM820.206 616.045L817.016 617.583L819.978 616.438L823.198 615.038L820.206 616.045ZM826.795 612.87L822.41 614.981L826.483 613.612L830.876 611.706L826.795 612.87ZM833.374 609.7L828.4 612.094C829.931 611.658 831.457 611.224 832.988 610.787L837.949 608.634C836.426 608.989 834.903 609.343 833.374 609.7ZM839.964 606.531L834.631 609.097C836.254 608.719 837.878 608.339 839.501 607.961C841.264 607.196 843.031 606.428 844.792 605.665C843.184 605.955 841.577 606.241 839.966 606.531H839.964ZM846.546 603.366L840.985 606.04C842.659 605.74 844.329 605.442 846 605.141C847.846 604.34 849.689 603.543 851.535 602.745C849.874 602.95 848.212 603.158 846.546 603.366ZM853.127 600.204L847.406 602.953C849.116 602.74 850.823 602.526 852.528 602.316L858.196 599.863C856.509 599.976 854.825 600.089 853.13 600.204H853.127ZM859.691 597.055L853.865 599.85C855.593 599.732 857.305 599.619 859.023 599.503C860.956 598.668 862.889 597.828 864.819 596.994C863.111 597.012 861.399 597.032 859.689 597.053L859.691 597.055ZM866.278 593.896C864.299 594.844 862.318 595.794 860.336 596.744C862.069 596.724 863.808 596.703 865.538 596.683L871.424 594.14C869.714 594.055 867.996 593.975 866.278 593.896ZM872.852 590.747C870.853 591.702 868.856 592.66 866.857 593.618C868.592 593.701 870.325 593.783 872.053 593.868C874.043 593.01 876.027 592.152 878.016 591.296C876.303 591.109 874.572 590.932 872.852 590.747ZM879.447 587.59C877.424 588.558 875.399 589.529 873.374 590.498C875.107 590.683 876.859 590.865 878.584 591.052C880.578 590.192 882.575 589.331 884.567 588.471C882.859 588.178 881.164 587.88 879.447 587.59ZM886.013 584.451C883.983 585.422 881.953 586.393 879.92 587.364C881.648 587.657 883.358 587.955 885.076 588.253C887.088 587.384 889.108 586.511 891.118 585.646C889.418 585.247 887.718 584.849 886.013 584.451ZM892.587 581.31C890.544 582.286 888.496 583.264 886.451 584.243C888.166 584.641 889.879 585.042 891.586 585.443C893.619 584.567 895.644 583.699 897.677 582.823C895.987 582.317 894.284 581.813 892.585 581.31H892.587ZM899.166 578.171C897.111 579.152 895.055 580.133 892.997 581.115C894.702 581.621 896.417 582.127 898.114 582.635C900.152 581.757 902.19 580.883 904.225 580.008C902.548 579.391 900.851 578.782 899.166 578.171ZM905.743 575.035C903.68 576.018 901.616 577.002 899.553 577.989C901.245 578.605 902.953 579.214 904.635 579.835C906.677 578.957 908.72 578.076 910.761 577.2C909.099 576.476 907.415 575.757 905.743 575.037V575.035ZM912.32 571.901L906.109 574.86C907.786 575.584 909.478 576.304 911.147 577.031L917.289 574.393C915.643 573.558 913.976 572.731 912.32 571.898V571.901ZM918.896 568.77L912.67 571.734C914.332 572.569 916.006 573.399 917.657 574.236C919.713 573.355 921.761 572.476 923.814 571.595C922.183 570.65 920.537 569.71 918.896 568.77ZM925.473 565.641C923.394 566.63 921.313 567.619 919.232 568.611C920.875 569.556 922.529 570.499 924.165 571.446C926.221 570.565 928.276 569.682 930.332 568.803C928.719 567.748 927.099 566.695 925.473 565.641ZM932.052 562.515C929.968 563.504 927.884 564.496 925.798 565.487C927.426 566.543 929.052 567.599 930.67 568.657C932.725 567.776 934.789 566.89 936.842 566.011C935.247 564.845 933.655 563.679 932.052 562.518V562.515ZM938.634 559.392C936.548 560.381 934.459 561.375 932.37 562.366C933.977 563.533 935.575 564.701 937.172 565.87C939.241 564.986 941.296 564.111 943.36 563.227C941.78 561.95 940.219 560.666 938.631 559.392H938.634ZM0.626953 756.999C111.495 855.658 236.654 902.54 368.77 837.133C499.745 772.292 649.712 698.052 799.949 625.469C668.672 682.661 536.251 741.538 414.267 795.774C400.189 802.031 386.253 808.229 372.472 814.355C236.298 874.884 110.471 827.676 0.626953 730.874V730.491C110.436 827.332 236.226 874.586 372.349 814.08C386.13 807.954 400.066 801.759 414.144 795.499C538.299 740.298 673.262 680.293 806.832 622.145L810.107 620.566C664.097 677.02 514.547 736.319 376.041 791.307C235.888 846.948 109.424 799.36 0.626953 704.358V703.973C109.391 799.013 235.819 846.647 375.928 791.027C515.545 735.6 666.38 675.793 813.493 618.934L817.884 616.818C673.095 665.565 522.734 717.835 379.609 768.259C235.499 819.03 108.395 771.054 0.626953 677.837V677.449C108.365 770.71 235.435 818.732 379.507 767.974C523.389 717.283 674.585 664.727 820.08 615.76C821.742 614.958 823.406 614.157 825.067 613.358C681.702 654.306 530.749 699.437 383.178 745.211C235.136 791.133 107.384 742.758 0.626953 651.306V650.916C107.353 742.412 235.077 790.832 383.088 744.921C531.238 698.967 682.8 653.659 826.675 612.582C828.454 611.727 830.231 610.869 832.01 610.014C690.145 643.123 538.69 681.069 386.747 722.161C234.795 763.248 106.388 714.468 0.626953 624.763V624.37C106.36 714.121 234.741 762.947 386.665 721.863C539.085 680.642 691.01 642.589 833.264 609.405C835.12 608.511 836.976 607.617 838.835 606.726C698.511 631.978 546.603 662.713 390.315 699.105C234.48 735.389 105.41 686.193 0.626953 598.214V597.821C105.382 685.846 234.429 735.091 390.244 698.81C546.931 662.326 699.225 631.526 839.856 606.233L845.588 603.477C706.831 620.861 554.491 644.374 393.881 676.052C234.191 707.551 104.45 657.928 0.626953 571.654V571.261C104.425 657.584 234.145 707.25 393.822 675.757C554.782 644.009 707.44 620.463 846.448 603.066L852.295 600.258C715.115 609.767 562.368 626.044 397.45 653.004C233.93 679.733 103.508 629.676 0.626953 545.088V544.695C103.483 629.33 233.886 679.432 397.401 652.704C562.634 625.695 715.653 609.402 853.038 599.901L858.964 597.058C723.374 598.684 570.24 607.717 401.021 629.951C233.694 651.938 102.587 601.435 0.626953 518.513V518.117C102.558 601.088 233.654 651.638 400.98 629.651C570.483 607.378 723.85 598.352 859.609 596.747C861.616 595.784 863.623 594.821 865.628 593.86C731.637 587.6 578.101 589.391 404.587 606.901C233.485 624.164 101.68 573.206 0.626953 491.926V491.53C101.655 572.857 233.446 623.861 404.559 606.595C578.334 589.059 732.073 587.287 866.209 593.58C868.231 592.612 870.251 591.643 872.271 590.675C739.883 576.525 585.968 571.066 408.158 583.842C233.305 596.413 100.797 544.99 0.626953 465.33V464.935C100.769 544.641 233.269 596.113 408.135 583.544C586.183 570.748 740.277 576.237 872.791 590.428C874.834 589.45 876.879 588.471 878.922 587.492C748.144 565.449 593.825 552.747 411.727 560.794C233.154 568.688 99.9319 516.784 0.626953 438.725V438.329C99.9037 516.435 233.118 568.385 411.714 560.491C594.035 552.434 748.508 565.176 879.396 587.266C881.444 586.288 883.486 585.309 885.532 584.333C756.365 554.394 601.687 534.43 415.296 537.744C233.034 540.983 99.0845 488.591 0.626953 412.109V411.716C99.0589 488.242 232.998 540.682 415.291 537.441C601.889 534.125 756.708 554.132 885.97 584.122C888.028 583.139 890.086 582.152 892.144 581.171C764.592 543.336 609.543 516.114 418.867 514.691C232.944 513.304 98.2602 460.409 0.626953 385.483V385.09C98.2321 460.062 232.906 513.001 418.869 514.388C609.741 515.811 764.92 543.084 892.554 580.976C894.622 579.987 896.691 579.001 898.757 578.014C772.823 532.281 617.4 497.797 422.438 491.638C232.883 485.65 97.4589 432.244 0.626953 358.847V358.454C97.4282 431.892 232.847 485.347 422.446 491.335C617.595 497.499 773.133 532.037 899.141 577.829C901.214 576.84 903.288 575.849 905.362 574.863C781.045 521.225 625.254 479.481 426.007 468.585C232.855 458.023 96.6756 404.09 0.626953 332.2V331.81C96.6423 403.741 232.819 457.72 426.025 468.287C625.449 479.193 781.348 520.994 905.73 574.693C907.812 573.702 909.888 572.713 911.966 571.721C789.273 510.183 633.113 461.172 429.578 445.539C232.86 430.423 95.9127 375.949 0.626953 305.541V305.151C95.8794 375.597 232.822 430.118 429.601 445.234C633.303 460.882 789.563 509.949 912.317 571.552C914.401 570.56 916.485 569.566 918.569 568.577C797.499 499.133 640.97 442.858 433.149 422.484C232.898 402.849 95.1754 347.82 0.626953 278.869V278.481C95.1396 347.468 232.857 402.541 433.177 422.181C641.157 442.57 797.775 498.907 918.901 568.415C920.99 567.421 923.077 566.427 925.163 565.436C805.716 488.085 648.824 424.544 436.718 399.428C232.96 375.301 94.4586 319.694 0.626953 252.168V251.793C94.4228 319.35 232.924 374.991 436.754 399.128C649.011 424.261 805.993 487.865 925.488 565.282C927.58 564.288 929.671 563.294 931.763 562.302C813.941 477.043 656.681 406.235 440.289 376.378C233.031 347.779 93.7649 291.565 0.626953 225.432V225.06C93.7265 291.221 232.996 347.468 440.33 376.077C656.865 405.955 814.21 476.827 932.078 562.153C934.172 561.159 936.268 560.163 938.36 559.171C822.167 466.003 664.535 387.926 443.86 353.325C233.136 320.282 93.0941 263.455 0.626953 198.685V198.315C93.0532 263.111 233.098 319.971 443.906 353.024C664.722 387.646 822.433 465.788 938.67 559.022C998.512 530.632 1057.46 503.065 1114.3 477.043C1172.39 450.443 1228.26 425.463 1280.63 402.862V403.191C1228.3 425.777 1172.47 450.738 1114.42 477.318C1057.64 503.32 998.73 530.868 938.931 559.235C940.523 560.512 942.087 561.799 943.669 563.081C1063.81 511.719 1179.25 463.846 1280.63 424.58V424.901C1179.33 464.141 1063.98 511.973 943.936 563.294C945.528 564.581 947.133 565.862 948.7 567.157C1006.08 545.414 1062.12 524.508 1115.87 504.912C1173.86 483.765 1229.18 464.144 1280.63 446.631V446.95C1229.21 464.454 1173.93 484.063 1115.98 505.195C1062.28 524.775 1006.29 545.658 948.966 567.378C950.54 568.685 952.079 570.005 953.643 571.315C1009.81 552.865 1064.43 535.26 1116.66 518.844C1174.63 500.625 1229.66 483.876 1280.63 469.062V469.378C1229.69 484.184 1174.69 500.923 1116.75 519.135C1064.58 535.532 1010.02 553.12 953.917 571.547C955.492 572.867 957.068 574.185 958.625 575.51C1031.19 555.48 1100.68 536.925 1165.47 520.375C1205.81 510.067 1244.32 500.541 1280.63 491.91V492.221C1244.34 500.846 1205.86 510.368 1165.54 520.668C1100.82 537.205 1031.4 555.74 958.907 575.746C960.471 577.079 962.027 578.418 963.576 579.756C1012.67 568.88 1060.11 558.719 1105.45 549.349C1168.25 536.375 1227.02 524.924 1280.63 515.207V515.515C1227.04 525.23 1168.28 536.675 1105.51 549.647C1060.24 559.002 1012.87 569.15 963.86 580.005C965.417 581.353 966.958 582.707 968.501 584.058C991.908 580.203 1014.88 576.512 1037.38 572.995C1126.8 559.012 1208.71 547.705 1280.63 539.005V539.311C1208.73 548.008 1126.83 559.315 1037.42 573.293C1015.01 576.799 992.115 580.472 968.796 584.315C970.352 585.676 971.927 587.033 973.463 588.402C975.682 588.168 977.899 587.934 980.109 587.703C1093.29 575.857 1194.65 568.2 1280.63 563.358V563.661C1194.66 568.503 1093.31 576.157 980.139 588.004C978.02 588.224 975.892 588.45 973.765 588.674C975.301 590.048 976.806 591.43 978.329 592.809C1093.72 587.724 1195.34 587.207 1280.63 588.33V588.633C1195.42 587.513 1093.91 588.027 978.649 593.1C980.185 594.487 981.732 595.874 983.25 597.266C1098.23 599.593 1197.75 606.693 1280.63 613.99V614.293C1197.84 607.003 1098.43 599.909 983.593 597.577C985.108 598.969 986.603 600.369 988.103 601.766C1102.8 611.796 1200.2 626.825 1280.63 640.423V640.732C1200.28 627.149 1103.01 612.133 988.462 602.105C989.97 603.51 991.47 604.918 992.962 606.328C1107.49 624.393 1202.69 647.705 1280.63 667.738V668.051C1202.78 648.044 1107.71 624.757 993.357 606.7C994.857 608.118 996.357 609.533 997.839 610.956C1112.31 637.446 1205.22 669.451 1280.63 696.046V696.367C1205.32 669.805 1112.54 637.839 998.261 611.365C999.726 612.775 1001.17 614.19 1002.62 615.603C1117.25 650.975 1207.79 692.18 1280.63 725.49V725.824C1207.9 692.566 1117.51 651.422 1003.1 616.073C1004.58 617.504 1006.07 618.929 1007.52 620.363C1119.24 663.903 1205.55 713.279 1274.75 752.876L1280.63 756.238V756.588L1274.6 753.138C1205.54 713.623 1119.44 664.368 1008.05 620.897C1009.46 622.299 1010.84 623.707 1012.24 625.109C1120.52 676.538 1202.34 733.75 1267.78 779.52C1272.13 782.566 1276.41 785.559 1280.62 788.5V788.87C1276.35 785.89 1272.02 782.857 1267.6 779.769C1202.33 734.118 1120.76 677.077 1012.88 625.751C1014.28 627.159 1015.69 628.564 1017.08 629.974C1122.38 689.445 1199.95 754.687 1261.76 806.683C1268.22 812.115 1274.5 817.399 1280.62 822.521V822.916C1274.43 817.743 1268.09 812.403 1261.56 806.914C1199.95 755.085 1122.67 690.092 1017.88 630.778C1019.19 632.129 1020.49 633.483 1021.8 634.837C1124.47 702.545 1197.99 776.055 1256.29 834.364C1264.71 842.779 1272.8 850.875 1280.62 858.594V859.02C1272.73 851.237 1264.57 843.069 1256.08 834.578C1198.01 776.497 1124.83 703.328 1022.76 635.841C1024.04 637.159 1025.32 638.479 1026.58 639.802C1126.79 715.919 1196.3 797.88 1251.12 862.547C1261.44 874.722 1271.24 886.278 1280.62 897.071V897.534C1271.17 886.663 1261.29 875.017 1250.88 862.742C1196.36 798.427 1127.31 717.003 1027.96 641.24C1029.08 642.424 1030.19 643.611 1031.3 644.795C1129.2 729.51 1194.7 820.122 1246.07 891.212C1258.31 908.147 1269.74 923.97 1280.62 938.343V938.847C1269.67 924.386 1258.15 908.45 1245.82 891.39C1194.84 820.849 1129.95 731.082 1033.29 646.935C1034.17 647.877 1035.05 648.823 1035.93 649.765C1131.6 743.272 1193.09 842.756 1241.03 920.332C1246.79 929.662 1252.36 938.672 1257.77 947.318H1257.41C1252.03 938.721 1246.5 929.762 1240.77 920.492C1193.62 844.182 1133.35 746.675 1040.32 654.517C1132.99 756.028 1190.24 863.505 1234.57 947.321H1234.23C1189.22 862.234 1130.88 752.791 1035.7 649.971C1032.51 646.858 1029.28 643.752 1026.02 640.654C1022.93 638.011 1019.82 635.371 1016.66 632.743C1013.14 630.141 1009.59 627.549 1006.01 624.963C1002.72 622.88 999.403 620.802 996.06 618.732C992.553 616.844 989.022 614.963 985.456 613.091C981.936 611.516 978.375 609.952 974.807 608.388C971.172 607.07 967.521 605.758 963.835 604.455C960.215 603.433 956.564 602.418 952.898 601.409C949.153 600.631 945.377 599.863 941.591 599.1C937.766 598.581 933.916 598.067 930.053 597.559C926.241 597.299 922.396 597.05 918.548 596.801C914.649 596.788 910.72 596.786 906.788 596.783C902.827 597.014 898.841 597.253 894.85 597.497C890.859 597.967 886.855 598.442 882.839 598.923C878.773 599.634 874.7 600.348 870.615 601.067C866.48 602.018 862.336 602.973 858.183 603.934C854.003 605.118 849.815 606.307 845.621 607.499C841.385 608.92 837.143 610.343 832.896 611.768C828.623 613.415 824.348 615.064 820.07 616.718C815.71 618.613 811.348 620.512 806.986 622.412C654.448 696.051 501.888 771.573 368.906 837.408C236.736 902.843 111.534 856.005 0.626953 757.384V757.001L0.626953 756.999Z" fill="white"/>
</mask>
<g mask="url(#mask0_750_392)">
<path d="M1280.63 198.315H0.626953V947.315H1280.63V198.315Z" fill="url(#paint2_linear_750_392)"/>
</g>
</g>
<g opacity="0.3">
<path d="M1047.47 1260.75C1047.47 1323.97 1000.63 1375.04 943.077 1375.04C885.521 1375.04 838.683 1323.97 838.683 1260.75C838.683 1197.52 885.521 1146.45 943.077 1146.45C1000.63 1146.45 1047.47 1197.52 1047.47 1260.75Z" stroke="white" stroke-width="2.39793"/>
<path d="M1060.67 1261.3C1060.67 1317.92 1009.14 1364.04 945.278 1364.04C881.415 1364.04 829.885 1317.92 829.885 1261.3C829.885 1204.68 881.415 1158.55 945.278 1158.55C1009.14 1158.55 1060.67 1204.68 1060.67 1261.3Z" stroke="white" stroke-width="2.39793"/>
<path d="M1035.97 1327.24C1003.71 1380.2 937.449 1394.54 887.985 1359.33C838.521 1324.13 824.52 1252.67 856.782 1199.71C889.044 1146.75 955.307 1132.41 1004.77 1167.61C1054.24 1202.82 1068.24 1274.28 1035.97 1327.24Z" stroke="white" stroke-width="2.39793"/>
<g filter="url(#filter2_f_750_392)">
<path d="M1048.57 1260.75C1048.57 1323.97 1001.73 1375.04 944.177 1375.04C886.621 1375.04 839.783 1323.97 839.783 1260.75C839.783 1197.52 886.621 1146.45 944.177 1146.45C1001.73 1146.45 1048.57 1197.52 1048.57 1260.75Z" stroke="white" stroke-width="2.39793"/>
</g>
<g filter="url(#filter3_f_750_392)">
<path d="M1061.77 1261.3C1061.77 1317.92 1010.24 1364.04 946.377 1364.04C882.514 1364.04 830.984 1317.92 830.984 1261.3C830.984 1204.68 882.514 1158.55 946.377 1158.55C1010.24 1158.55 1061.77 1204.68 1061.77 1261.3Z" stroke="white" stroke-width="2.39793"/>
</g>
<g filter="url(#filter4_f_750_392)">
<path d="M1037.07 1327.24C1004.81 1380.2 938.548 1394.54 889.084 1359.33C839.62 1324.13 825.62 1252.67 857.882 1199.71C890.143 1146.75 956.407 1132.41 1005.87 1167.61C1055.33 1202.82 1069.34 1274.28 1037.07 1327.24Z" stroke="white" stroke-width="2.39793"/>
</g>
<path d="M1035.27 1210.32C1067.71 1267.78 1051.35 1338.23 999.041 1367.76C946.733 1397.29 877.964 1374.91 845.524 1317.45C813.083 1259.99 829.447 1189.55 881.755 1160.02C934.063 1130.49 1002.83 1152.86 1035.27 1210.32Z" stroke="#F5F5F5" stroke-opacity="0.04" stroke-width="2.50259"/>
<path d="M1047.55 1204.05C1076.6 1255.51 1053.44 1323.87 995.397 1356.63C937.357 1389.4 866.859 1373.92 837.809 1322.47C808.758 1271.01 831.923 1202.65 889.962 1169.88C948.002 1137.12 1018.5 1152.6 1047.55 1204.05Z" stroke="#F5F5F5" stroke-opacity="0.04" stroke-width="2.50259"/>
<path d="M1058.94 1276.65C1056.79 1341.34 1003.93 1388.36 940.912 1381.75C877.896 1375.14 828.507 1317.38 830.653 1252.69C832.799 1188.01 885.664 1140.98 948.68 1147.59C1011.7 1154.21 1061.08 1211.97 1058.94 1276.65Z" stroke="#F5F5F5" stroke-opacity="0.04" stroke-width="2.50259"/>
<path opacity="0.0344828" d="M857.395 1200.32C858.413 1199.1 859.952 1198.35 861.991 1198.04C864.033 1197.73 866.557 1197.88 869.508 1198.47C875.409 1199.65 882.955 1202.58 891.638 1206.99C908.998 1215.82 930.84 1230.6 953.043 1249.23C975.246 1267.86 993.591 1286.81 1005.3 1302.37C1011.16 1310.15 1015.35 1317.08 1017.54 1322.68C1018.63 1325.49 1019.22 1327.95 1019.27 1330.01C1019.32 1332.07 1018.84 1333.72 1017.82 1334.93C1016.81 1336.15 1015.27 1336.9 1013.23 1337.21C1011.19 1337.52 1008.66 1337.37 1005.71 1336.78C999.81 1335.6 992.264 1332.67 983.581 1328.26C966.221 1319.43 944.378 1304.65 922.176 1286.02C899.973 1267.39 881.628 1248.44 869.916 1232.88C864.058 1225.1 859.87 1218.17 857.684 1212.57C856.59 1209.76 856.004 1207.3 855.951 1205.24C855.898 1203.18 856.377 1201.53 857.395 1200.32Z" stroke="white" stroke-opacity="0.06" stroke-width="0.609304"/>
<path opacity="0.0689655" d="M863.566 1192.74C864.686 1191.62 866.285 1191 868.343 1190.88C870.404 1190.75 872.905 1191.12 875.793 1191.96C881.569 1193.65 888.832 1197.22 897.097 1202.38C913.621 1212.69 934.093 1229.31 954.587 1249.81C975.082 1270.3 991.706 1290.77 1002.02 1307.3C1007.17 1315.56 1010.74 1322.83 1012.43 1328.6C1013.28 1331.49 1013.65 1333.99 1013.52 1336.05C1013.39 1338.11 1012.77 1339.71 1011.65 1340.83C1010.53 1341.95 1008.93 1342.57 1006.87 1342.7C1004.81 1342.82 1002.31 1342.45 999.425 1341.61C993.649 1339.92 986.386 1336.35 978.121 1331.19C961.596 1320.88 941.125 1304.26 920.631 1283.76C900.136 1263.27 883.512 1242.8 873.201 1226.27C868.044 1218.01 864.475 1210.75 862.786 1204.97C861.941 1202.08 861.571 1199.58 861.698 1197.52C861.825 1195.46 862.446 1193.86 863.566 1192.74Z" stroke="white" stroke-opacity="0.06" stroke-width="0.609304"/>
<path opacity="0.103448" d="M870.301 1185.73C871.514 1184.72 873.162 1184.24 875.223 1184.29C877.287 1184.34 879.746 1184.93 882.55 1186.02C888.157 1188.21 895.081 1192.4 902.865 1198.25C918.428 1209.97 937.372 1228.31 956.002 1250.51C974.633 1272.72 989.409 1294.56 998.241 1311.92C1002.66 1320.6 1005.58 1328.15 1006.76 1334.05C1007.35 1337 1007.5 1339.53 1007.19 1341.57C1006.89 1343.61 1006.13 1345.15 1004.92 1346.16C1003.7 1347.18 1002.06 1347.66 999.995 1347.61C997.932 1347.55 995.472 1346.97 992.669 1345.87C987.061 1343.69 980.137 1339.5 972.354 1333.64C956.791 1321.93 937.846 1303.58 919.216 1281.38C900.586 1259.18 885.809 1237.34 876.977 1219.98C872.56 1211.29 869.638 1203.75 868.459 1197.85C867.869 1194.9 867.718 1192.37 868.024 1190.33C868.33 1188.29 869.088 1186.75 870.301 1185.73Z" stroke="white" stroke-opacity="0.06" stroke-width="0.609304"/>
<path opacity="0.137931" d="M877.55 1179.33C878.847 1178.43 880.53 1178.09 882.578 1178.32C884.63 1178.56 887.029 1179.36 889.726 1180.69C895.122 1183.36 901.654 1188.13 908.898 1194.65C923.381 1207.67 940.654 1227.6 957.279 1251.34C973.903 1275.08 986.72 1298.13 994.005 1316.19C997.648 1325.23 999.902 1333 1000.56 1338.98C1000.89 1341.97 1000.82 1344.5 1000.34 1346.51C999.858 1348.51 998.968 1349.98 997.671 1350.89C996.374 1351.79 994.691 1352.13 992.642 1351.9C990.591 1351.66 988.192 1350.86 985.494 1349.53C980.099 1346.86 973.566 1342.09 966.323 1335.57C951.84 1322.55 934.566 1302.62 917.942 1278.88C901.318 1255.14 888.501 1232.09 881.216 1214.03C877.572 1204.99 875.319 1197.22 874.658 1191.24C874.328 1188.25 874.398 1185.72 874.881 1183.71C875.363 1181.71 876.252 1180.24 877.55 1179.33Z" stroke="white" stroke-opacity="0.06" stroke-width="0.609304"/>
<path opacity="0.172414" d="M885.253 1173.59C886.625 1172.8 888.33 1172.61 890.351 1173.02C892.374 1173.43 894.695 1174.44 897.266 1176C902.408 1179.13 908.5 1184.45 915.148 1191.57C928.441 1205.81 943.912 1227.17 958.404 1252.27C972.895 1277.37 983.655 1301.44 989.338 1320.07C992.18 1329.39 993.747 1337.33 993.884 1343.35C993.952 1346.35 993.663 1348.87 993.007 1350.82C992.351 1352.78 991.337 1354.16 989.966 1354.95C988.595 1355.75 986.889 1355.93 984.868 1355.52C982.845 1355.11 980.525 1354.11 977.954 1352.54C972.811 1349.42 966.72 1344.09 960.071 1336.97C946.779 1322.73 931.308 1301.38 916.816 1276.28C902.324 1251.18 891.565 1227.1 885.882 1208.47C883.04 1199.15 881.472 1191.21 881.335 1185.2C881.267 1182.19 881.557 1179.68 882.213 1177.72C882.868 1175.76 883.882 1174.38 885.253 1173.59Z" stroke="white" stroke-opacity="0.06" stroke-width="0.609304"/>
<path opacity="0.206897" d="M893.357 1168.53C894.792 1167.86 896.507 1167.83 898.484 1168.41C900.464 1169 902.688 1170.2 905.113 1171.98C909.963 1175.54 915.568 1181.38 921.57 1189.05C933.571 1204.39 947.122 1227.02 959.371 1253.29C971.62 1279.55 980.24 1304.48 984.278 1323.53C986.297 1333.06 987.166 1341.11 986.778 1347.11C986.584 1350.11 986.077 1352.59 985.253 1354.48C984.429 1356.38 983.299 1357.67 981.864 1358.33C980.428 1359 978.713 1359.04 976.736 1358.46C974.756 1357.87 972.532 1356.67 970.107 1354.89C965.257 1351.32 959.653 1345.49 953.65 1337.81C941.649 1322.47 928.098 1299.85 915.849 1273.58C903.6 1247.31 894.98 1222.39 890.942 1203.34C888.923 1193.81 888.054 1185.76 888.442 1179.75C888.636 1176.75 889.143 1174.27 889.968 1172.38C890.791 1170.49 891.921 1169.2 893.357 1168.53Z" stroke="white" stroke-opacity="0.06" stroke-width="0.609304"/>
<path opacity="0.241379" d="M901.795 1164.2C903.283 1163.65 904.995 1163.77 906.914 1164.52C908.835 1165.28 910.945 1166.67 913.206 1168.66C917.727 1172.63 922.801 1178.93 928.112 1187.1C938.731 1203.43 950.258 1227.15 960.171 1254.38C970.084 1281.62 976.499 1307.2 978.861 1326.53C980.042 1336.2 980.207 1344.29 979.297 1350.24C978.842 1353.21 978.12 1355.64 977.134 1357.45C976.149 1359.26 974.911 1360.45 973.423 1360.99C971.935 1361.53 970.223 1361.42 968.304 1360.67C966.382 1359.91 964.272 1358.52 962.011 1356.53C957.49 1352.56 952.416 1346.25 947.105 1338.09C936.487 1321.76 924.959 1298.04 915.046 1270.81C905.133 1243.57 898.718 1217.99 896.357 1198.66C895.176 1188.99 895.011 1180.9 895.921 1174.95C896.376 1171.97 897.097 1169.55 898.083 1167.74C899.068 1165.92 900.307 1164.74 901.795 1164.2Z" stroke="white" stroke-opacity="0.06" stroke-width="0.609304"/>
<path opacity="0.275862" d="M910.507 1160.61C912.037 1160.2 913.733 1160.46 915.578 1161.38C917.427 1162.3 919.408 1163.87 921.487 1166.05C925.644 1170.4 930.15 1177.12 934.728 1185.72C943.884 1202.91 953.3 1227.55 960.802 1255.54C968.303 1283.54 972.464 1309.58 973.132 1329.04C973.466 1338.78 972.925 1346.85 971.5 1352.7C970.787 1355.63 969.857 1357.98 968.717 1359.7C967.578 1361.42 966.24 1362.49 964.711 1362.9C963.181 1363.31 961.486 1363.05 959.64 1362.13C957.792 1361.21 955.811 1359.64 953.732 1357.46C949.574 1353.11 945.069 1346.39 940.49 1337.79C931.335 1320.6 921.918 1295.97 914.417 1267.97C906.915 1239.97 902.754 1213.93 902.086 1194.47C901.753 1184.73 902.293 1176.66 903.718 1170.81C904.431 1167.89 905.361 1165.54 906.501 1163.81C907.64 1162.1 908.978 1161.02 910.507 1160.61Z" stroke="white" stroke-opacity="0.06" stroke-width="0.609304"/>
<path opacity="0.310345" d="M919.425 1157.8C920.985 1157.52 922.651 1157.93 924.41 1159.01C926.171 1160.08 928.007 1161.82 929.888 1164.17C933.651 1168.87 937.554 1175.96 941.366 1184.92C948.988 1202.85 956.221 1228.21 961.254 1256.75C966.287 1285.29 968.163 1311.6 967.131 1331.05C966.615 1340.77 965.373 1348.77 963.444 1354.47C962.479 1357.32 961.348 1359.58 960.062 1361.2C958.777 1362.81 957.351 1363.76 955.792 1364.04C954.232 1364.31 952.566 1363.91 950.807 1362.83C949.046 1361.75 947.21 1360.01 945.328 1357.67C941.566 1352.97 937.663 1345.88 933.851 1336.91C926.229 1318.99 918.995 1293.63 913.962 1265.09C908.929 1236.54 907.054 1210.24 908.085 1190.79C908.601 1181.06 909.844 1173.07 911.773 1167.36C912.738 1164.51 913.869 1162.25 915.155 1160.64C916.44 1159.02 917.866 1158.07 919.425 1157.8Z" stroke="white" stroke-opacity="0.06" stroke-width="0.609304"/>
<path opacity="0.344828" d="M928.483 1155.77C930.06 1155.63 931.685 1156.18 933.343 1157.4C935.003 1158.63 936.681 1160.52 938.351 1163.03C941.69 1168.03 944.959 1175.44 947.975 1184.7C954.006 1203.22 959.002 1229.11 961.528 1257.99C964.055 1286.86 963.631 1313.23 960.908 1332.51C959.546 1342.16 957.611 1350.02 955.192 1355.53C953.983 1358.28 952.659 1360.44 951.237 1361.93C949.817 1363.43 948.313 1364.26 946.735 1364.39C945.158 1364.53 943.533 1363.98 941.875 1362.75C940.215 1361.53 938.537 1359.64 936.867 1357.13C933.529 1352.12 930.259 1344.72 927.243 1335.46C921.212 1316.94 916.216 1291.05 913.69 1262.17C911.164 1233.3 911.587 1206.93 914.311 1187.64C915.672 1178 917.607 1170.14 920.026 1164.63C921.235 1161.87 922.559 1159.72 923.981 1158.22C925.401 1156.73 926.905 1155.9 928.483 1155.77Z" stroke="white" stroke-opacity="0.06" stroke-width="0.609304"/>
<path opacity="0.37931" d="M937.608 1154.53C939.192 1154.53 940.762 1155.22 942.307 1156.58C943.854 1157.95 945.361 1159.98 946.806 1162.62C949.696 1167.9 952.308 1175.56 954.505 1185.05C958.899 1204.03 961.619 1230.26 961.619 1259.24C961.619 1288.22 958.899 1314.45 954.505 1333.43C952.308 1342.92 949.696 1350.58 946.806 1355.86C945.361 1358.5 943.854 1360.53 942.307 1361.9C940.762 1363.26 939.192 1363.95 937.608 1363.95C936.025 1363.95 934.455 1363.26 932.91 1361.9C931.363 1360.53 929.856 1358.5 928.411 1355.86C925.521 1350.58 922.909 1342.92 920.712 1333.43C916.318 1314.45 913.598 1288.22 913.598 1259.24C913.598 1230.26 916.318 1204.03 920.712 1185.05C922.909 1175.56 925.521 1167.9 928.411 1162.62C929.856 1159.98 931.363 1157.95 932.91 1156.58C934.455 1155.22 936.025 1154.53 937.608 1154.53Z" stroke="white" stroke-opacity="0.06" stroke-width="0.609304"/>
<path opacity="0.413793" d="M946.736 1154.09C948.314 1154.23 949.818 1155.05 951.238 1156.55C952.66 1158.04 953.984 1160.2 955.193 1162.95C957.612 1168.46 959.547 1176.32 960.909 1185.97C963.632 1205.25 964.056 1231.62 961.529 1260.49C959.003 1289.37 954.007 1315.26 947.977 1333.78C944.96 1343.04 941.691 1350.45 938.352 1355.45C936.682 1357.96 935.004 1359.85 933.344 1361.08C931.686 1362.3 930.061 1362.85 928.484 1362.72C926.906 1362.58 925.402 1361.75 923.982 1360.26C922.56 1358.76 921.236 1356.61 920.027 1353.85C917.608 1348.34 915.673 1340.48 914.312 1330.84C911.589 1311.55 911.165 1285.18 913.691 1256.31C916.217 1227.44 921.213 1201.54 927.244 1183.02C930.26 1173.76 933.53 1166.36 936.869 1161.35C938.538 1158.85 940.216 1156.95 941.876 1155.73C943.535 1154.5 945.159 1153.95 946.736 1154.09Z" stroke="white" stroke-opacity="0.06" stroke-width="0.609304"/>
<path opacity="0.448276" d="M955.793 1154.44C957.352 1154.72 958.778 1155.67 960.063 1157.28C961.349 1158.9 962.48 1161.16 963.445 1164.01C965.374 1169.71 966.617 1177.71 967.133 1187.43C968.164 1206.89 966.289 1233.19 961.256 1261.73C956.223 1290.28 948.989 1315.64 941.367 1333.56C937.555 1342.52 933.653 1349.61 929.89 1354.31C928.008 1356.66 926.172 1358.4 924.411 1359.47C922.652 1360.55 920.986 1360.96 919.427 1360.68C917.867 1360.41 916.441 1359.46 915.157 1357.84C913.871 1356.23 912.739 1353.97 911.775 1351.12C909.845 1345.42 908.603 1337.42 908.087 1327.69C907.055 1308.24 908.931 1281.94 913.964 1253.39C918.997 1224.85 926.231 1199.49 933.853 1181.57C937.665 1172.6 941.567 1165.51 945.33 1160.82C947.211 1158.47 949.048 1156.73 950.808 1155.65C952.567 1154.57 954.233 1154.17 955.793 1154.44Z" stroke="white" stroke-opacity="0.06" stroke-width="0.609304"/>
<path opacity="0.482759" d="M964.71 1155.58C966.24 1155.99 967.577 1157.06 968.716 1158.78C969.857 1160.5 970.787 1162.86 971.499 1165.78C972.924 1171.63 973.465 1179.7 973.131 1189.44C972.464 1208.9 968.303 1234.94 960.801 1262.94C953.3 1290.94 943.883 1315.57 934.728 1332.76C930.149 1341.36 925.644 1348.08 921.486 1352.43C919.407 1354.61 917.426 1356.18 915.578 1357.1C913.732 1358.02 912.037 1358.28 910.507 1357.87C908.978 1357.46 907.64 1356.39 906.501 1354.67C905.361 1352.95 904.431 1350.59 903.718 1347.67C902.293 1341.82 901.752 1333.75 902.086 1324.01C902.753 1304.55 906.915 1278.51 914.416 1250.51C921.918 1222.51 931.334 1197.88 940.489 1180.69C945.068 1172.09 949.574 1165.37 953.731 1161.02C955.81 1158.84 957.791 1157.27 959.639 1156.35C961.485 1155.43 963.181 1155.17 964.71 1155.58Z" stroke="white" stroke-opacity="0.06" stroke-width="0.609304"/>
<path opacity="0.517241" d="M973.423 1157.49C974.911 1158.03 976.149 1159.22 977.134 1161.03C978.12 1162.84 978.842 1165.27 979.297 1168.24C980.207 1174.19 980.042 1182.28 978.861 1191.95C976.499 1211.28 970.085 1236.86 960.172 1264.1C950.259 1291.33 938.731 1315.05 928.112 1331.38C922.801 1339.55 917.727 1345.85 913.206 1349.82C910.945 1351.81 908.835 1353.2 906.914 1353.96C904.995 1354.71 903.283 1354.83 901.795 1354.28C900.307 1353.74 899.068 1352.56 898.083 1350.74C897.097 1348.93 896.376 1346.51 895.921 1343.53C895.011 1337.58 895.176 1329.49 896.357 1319.82C898.718 1300.49 905.133 1274.91 915.046 1247.67C924.959 1220.44 936.487 1196.72 947.105 1180.39C952.416 1172.23 957.49 1165.92 962.011 1161.95C964.272 1159.96 966.382 1158.57 968.304 1157.81C970.223 1157.06 971.935 1156.95 973.423 1157.49Z" stroke="white" stroke-opacity="0.06" stroke-width="0.609304"/>
<path opacity="0.551724" d="M981.862 1160.15C983.297 1160.82 984.428 1162.11 985.251 1164C986.076 1165.89 986.583 1168.37 986.777 1171.37C987.165 1177.38 986.296 1185.42 984.276 1194.95C980.239 1214.01 971.619 1238.93 959.37 1265.2C947.121 1291.46 933.57 1314.09 921.569 1329.43C915.566 1337.1 909.962 1342.94 905.112 1346.5C902.687 1348.28 900.463 1349.49 898.483 1350.07C896.506 1350.66 894.791 1350.62 893.355 1349.95C891.92 1349.28 890.79 1347.99 889.966 1346.1C889.142 1344.21 888.635 1341.73 888.441 1338.73C888.053 1332.72 888.922 1324.68 890.941 1315.15C894.979 1296.09 903.599 1271.17 915.848 1244.9C928.097 1218.63 941.648 1196.01 953.649 1180.67C959.651 1173 965.256 1167.16 970.106 1163.6C972.531 1161.81 974.755 1160.61 976.735 1160.03C978.712 1159.44 980.427 1159.48 981.862 1160.15Z" stroke="white" stroke-opacity="0.06" stroke-width="0.609304"/>
<path opacity="0.586207" d="M989.966 1163.53C991.337 1164.32 992.351 1165.7 993.006 1167.66C993.662 1169.61 993.952 1172.13 993.884 1175.13C993.747 1181.15 992.179 1189.09 989.337 1198.41C983.654 1217.04 972.895 1241.11 958.403 1266.21C943.911 1291.32 928.44 1312.67 915.148 1326.91C908.499 1334.03 902.408 1339.36 897.265 1342.48C894.694 1344.05 892.374 1345.05 890.351 1345.46C888.33 1345.87 886.624 1345.69 885.253 1344.89C883.882 1344.1 882.868 1342.72 882.212 1340.76C881.556 1338.8 881.267 1336.29 881.335 1333.28C881.472 1327.27 883.039 1319.33 885.881 1310.01C891.564 1291.38 902.324 1267.3 916.815 1242.2C931.307 1217.1 946.778 1195.75 960.071 1181.51C966.719 1174.39 972.811 1169.06 977.953 1165.94C980.524 1164.37 982.845 1163.37 984.868 1162.96C986.889 1162.55 988.594 1162.73 989.966 1163.53Z" stroke="white" stroke-opacity="0.06" stroke-width="0.609304"/>
<path opacity="0.62069" d="M997.671 1167.6C998.968 1168.5 999.858 1169.97 1000.34 1171.98C1000.82 1173.98 1000.89 1176.51 1000.56 1179.5C999.902 1185.48 997.648 1193.26 994.005 1202.29C986.72 1220.35 973.903 1243.4 957.279 1267.14C940.655 1290.89 923.381 1310.81 908.898 1323.84C901.655 1330.35 895.122 1335.12 889.727 1337.79C887.029 1339.13 884.63 1339.92 882.579 1340.16C880.53 1340.39 878.847 1340.06 877.55 1339.15C876.253 1338.24 875.363 1336.77 874.881 1334.77C874.398 1332.76 874.328 1330.23 874.658 1327.24C875.319 1321.26 877.572 1313.49 881.216 1304.45C888.501 1286.39 901.318 1263.34 917.942 1239.6C934.566 1215.86 951.84 1195.93 966.323 1182.91C973.566 1176.39 980.099 1171.62 985.494 1168.95C988.192 1167.62 990.591 1166.82 992.642 1166.59C994.691 1166.35 996.374 1166.69 997.671 1167.6Z" stroke="white" stroke-opacity="0.06" stroke-width="0.609304"/>
<path opacity="0.655172" d="M1004.92 1172.32C1006.13 1173.34 1006.89 1174.88 1007.19 1176.91C1007.5 1178.96 1007.35 1181.48 1006.76 1184.43C1005.58 1190.33 1002.66 1197.88 998.241 1206.56C989.409 1223.92 974.633 1245.76 956.002 1267.97C937.372 1290.17 918.428 1308.51 902.864 1320.23C895.081 1326.08 888.157 1330.27 882.55 1332.46C879.746 1333.55 877.287 1334.14 875.223 1334.19C873.161 1334.24 871.514 1333.77 870.301 1332.75C869.088 1331.73 868.33 1330.19 868.024 1328.15C867.718 1326.11 867.869 1323.59 868.458 1320.63C869.638 1314.73 872.56 1307.19 876.977 1298.5C885.809 1281.14 900.585 1259.3 919.216 1237.1C937.846 1214.9 956.79 1196.55 972.354 1184.84C980.137 1178.98 987.061 1174.79 992.668 1172.61C995.472 1171.51 997.931 1170.93 999.995 1170.87C1002.06 1170.82 1003.7 1171.3 1004.92 1172.32Z" stroke="white" stroke-opacity="0.06" stroke-width="0.609304"/>
<path opacity="0.689655" d="M1011.65 1177.65C1012.77 1178.77 1013.39 1180.37 1013.52 1182.43C1013.65 1184.49 1013.28 1186.99 1012.43 1189.88C1010.74 1195.65 1007.17 1202.92 1002.02 1211.18C991.705 1227.71 975.081 1248.18 954.586 1268.67C934.092 1289.17 913.621 1305.79 897.096 1316.1C888.832 1321.26 881.569 1324.83 875.792 1326.52C872.904 1327.36 870.403 1327.73 868.342 1327.61C866.284 1327.48 864.685 1326.86 863.565 1325.74C862.446 1324.62 861.824 1323.02 861.697 1320.96C861.57 1318.9 861.941 1316.4 862.785 1313.51C864.475 1307.73 868.043 1300.47 873.2 1292.21C883.512 1275.68 900.136 1255.21 920.63 1234.72C941.125 1214.22 961.596 1197.6 978.12 1187.29C986.385 1182.13 993.648 1178.56 999.424 1176.87C1002.31 1176.03 1004.81 1175.66 1006.87 1175.78C1008.93 1175.91 1010.53 1176.53 1011.65 1177.65Z" stroke="white" stroke-opacity="0.06" stroke-width="0.609304"/>
<path opacity="0.724138" d="M1017.82 1183.55C1018.84 1184.76 1019.32 1186.41 1019.27 1188.47C1019.21 1190.53 1018.63 1192.99 1017.53 1195.8C1015.35 1201.4 1011.16 1208.33 1005.3 1216.11C993.59 1231.67 975.245 1250.62 953.043 1269.25C930.84 1287.88 908.998 1302.66 891.637 1311.49C882.955 1315.9 875.408 1318.83 869.507 1320.01C866.556 1320.6 864.032 1320.75 861.99 1320.44C859.951 1320.13 858.412 1319.38 857.394 1318.16C856.376 1316.95 855.897 1315.3 855.95 1313.24C856.003 1311.18 856.59 1308.72 857.683 1305.91C859.869 1300.31 864.058 1293.38 869.915 1285.6C881.627 1270.04 899.972 1251.09 922.175 1232.46C944.378 1213.83 966.22 1199.06 983.58 1190.22C992.263 1185.81 999.809 1182.88 1005.71 1181.7C1008.66 1181.11 1011.19 1180.96 1013.23 1181.27C1015.27 1181.58 1016.81 1182.33 1017.82 1183.55Z" stroke="white" stroke-opacity="0.06" stroke-width="0.609304"/>
<path opacity="0.758621" d="M1023.38 1189.96C1024.29 1191.25 1024.63 1192.94 1024.39 1194.99C1024.16 1197.04 1023.36 1199.44 1022.03 1202.13C1019.36 1207.53 1014.59 1214.06 1008.07 1221.3C995.049 1235.79 975.123 1253.06 951.381 1269.69C927.639 1286.31 904.592 1299.13 886.528 1306.41C877.493 1310.05 869.721 1312.31 863.739 1312.97C860.748 1313.3 858.22 1313.23 856.213 1312.75C854.208 1312.26 852.741 1311.37 851.833 1310.08C850.925 1308.78 850.591 1307.1 850.823 1305.05C851.056 1303 851.855 1300.6 853.188 1297.9C855.855 1292.51 860.631 1285.97 867.144 1278.73C880.168 1264.25 900.095 1246.97 923.837 1230.35C947.579 1213.72 970.625 1200.91 988.69 1193.62C997.724 1189.98 1005.5 1187.73 1011.48 1187.07C1014.47 1186.73 1017 1186.8 1019 1187.29C1021.01 1187.77 1022.48 1188.66 1023.38 1189.96Z" stroke="white" stroke-opacity="0.06" stroke-width="0.609304"/>
<path opacity="0.793103" d="M1028.29 1196.82C1029.08 1198.19 1029.27 1199.9 1028.86 1201.92C1028.45 1203.94 1027.45 1206.26 1025.88 1208.84C1022.75 1213.98 1017.43 1220.07 1010.31 1226.72C996.071 1240.01 974.715 1255.48 949.615 1269.97C924.514 1284.46 900.438 1295.22 881.807 1300.91C872.49 1303.75 864.551 1305.32 858.534 1305.45C855.526 1305.52 853.014 1305.23 851.056 1304.58C849.101 1303.92 847.717 1302.91 846.925 1301.54C846.134 1300.16 845.948 1298.46 846.358 1296.44C846.768 1294.41 847.773 1292.09 849.337 1289.52C852.464 1284.38 857.79 1278.29 864.911 1271.64C879.147 1258.35 900.503 1242.88 925.604 1228.39C950.704 1213.89 974.781 1203.13 993.411 1197.45C1002.73 1194.61 1010.67 1193.04 1016.68 1192.9C1019.69 1192.84 1022.2 1193.13 1024.16 1193.78C1026.12 1194.44 1027.5 1195.45 1028.29 1196.82Z" stroke="white" stroke-opacity="0.06" stroke-width="0.609304"/>
<path opacity="0.827586" d="M1032.51 1204.09C1033.18 1205.52 1033.22 1207.24 1032.63 1209.22C1032.05 1211.2 1030.84 1213.42 1029.06 1215.84C1025.5 1220.69 1019.66 1226.3 1011.99 1232.3C996.647 1244.3 974.024 1257.85 947.756 1270.1C921.488 1282.35 896.565 1290.97 877.511 1295.01C867.981 1297.03 859.935 1297.9 853.93 1297.51C850.927 1297.32 848.45 1296.81 846.557 1295.98C844.666 1295.16 843.376 1294.03 842.707 1292.59C842.037 1291.16 842.001 1289.44 842.585 1287.47C843.171 1285.49 844.374 1283.26 846.156 1280.84C849.719 1275.99 855.556 1270.38 863.229 1264.38C878.57 1252.38 901.193 1238.83 927.461 1226.58C953.729 1214.33 978.651 1205.71 997.706 1201.67C1007.24 1199.65 1015.28 1198.78 1021.29 1199.17C1024.29 1199.37 1026.77 1199.87 1028.66 1200.7C1030.55 1201.52 1031.84 1202.65 1032.51 1204.09Z" stroke="white" stroke-opacity="0.06" stroke-width="0.609304"/>
<path opacity="0.862069" d="M1036.01 1211.69C1036.55 1213.18 1036.44 1214.89 1035.68 1216.81C1034.93 1218.73 1033.53 1220.84 1031.55 1223.1C1027.57 1227.62 1021.27 1232.69 1013.1 1238.01C996.775 1248.62 973.058 1260.15 945.822 1270.06C918.586 1279.98 893.007 1286.39 873.673 1288.75C864.004 1289.93 855.913 1290.1 849.964 1289.19C846.989 1288.73 844.566 1288.01 842.752 1287.03C840.941 1286.04 839.754 1284.8 839.212 1283.32C838.67 1281.83 838.783 1280.12 839.538 1278.2C840.294 1276.28 841.686 1274.17 843.673 1271.9C847.645 1267.38 853.949 1262.31 862.115 1257C878.444 1246.38 902.162 1234.85 929.398 1224.94C956.633 1215.03 982.212 1208.61 1001.55 1206.25C1011.22 1205.07 1019.31 1204.9 1025.26 1205.81C1028.23 1206.27 1030.65 1206.99 1032.47 1207.98C1034.28 1208.96 1035.47 1210.2 1036.01 1211.69Z" stroke="white" stroke-opacity="0.06" stroke-width="0.609304"/>
<path opacity="0.896552" d="M1038.75 1219.56C1039.16 1221.09 1038.9 1222.79 1037.98 1224.63C1037.06 1226.48 1035.49 1228.46 1033.32 1230.54C1028.96 1234.7 1022.24 1239.2 1013.64 1243.78C996.452 1252.94 971.82 1262.35 943.824 1269.86C915.828 1277.36 889.787 1281.52 870.321 1282.19C860.585 1282.52 852.511 1281.98 846.664 1280.55C843.74 1279.84 841.389 1278.91 839.668 1277.77C837.949 1276.63 836.874 1275.29 836.465 1273.76C836.055 1272.24 836.316 1270.54 837.236 1268.69C838.156 1266.85 839.727 1264.86 841.903 1262.79C846.254 1258.63 852.976 1254.12 861.574 1249.54C878.766 1240.39 903.399 1230.97 931.395 1223.47C959.391 1215.97 985.431 1211.81 1004.9 1211.14C1014.63 1210.81 1022.71 1211.35 1028.55 1212.77C1031.48 1213.49 1033.83 1214.42 1035.55 1215.56C1037.27 1216.69 1038.34 1218.03 1038.75 1219.56Z" stroke="white" stroke-opacity="0.06" stroke-width="0.609304"/>
<path opacity="0.931035" d="M1040.73 1227.64C1041.01 1229.2 1040.6 1230.87 1039.52 1232.63C1038.44 1234.39 1036.71 1236.22 1034.36 1238.1C1029.66 1241.87 1022.57 1245.77 1013.61 1249.58C995.681 1257.2 970.322 1264.44 941.778 1269.47C913.235 1274.5 886.931 1276.38 867.48 1275.35C857.753 1274.83 849.756 1273.59 844.056 1271.66C841.205 1270.7 838.944 1269.56 837.329 1268.28C835.716 1266.99 834.762 1265.57 834.487 1264.01C834.212 1262.45 834.621 1260.78 835.697 1259.02C836.775 1257.26 838.513 1255.43 840.862 1253.54C845.559 1249.78 852.648 1245.88 861.612 1242.07C879.537 1234.45 904.896 1227.21 933.44 1222.18C961.983 1217.15 988.287 1215.27 1007.74 1216.3C1017.47 1216.82 1025.46 1218.06 1031.16 1219.99C1034.01 1220.95 1036.27 1222.09 1037.89 1223.37C1039.5 1224.66 1040.46 1226.08 1040.73 1227.64Z" stroke="white" stroke-opacity="0.06" stroke-width="0.609304"/>
<path opacity="0.965517" d="M1041.92 1235.86C1042.06 1237.44 1041.51 1239.06 1040.28 1240.72C1039.06 1242.38 1037.17 1244.06 1034.66 1245.73C1029.65 1249.07 1022.25 1252.34 1012.99 1255.35C994.469 1261.38 968.576 1266.38 939.703 1268.91C910.829 1271.43 884.462 1271.01 865.175 1268.29C855.529 1266.92 847.672 1264.99 842.161 1262.57C839.405 1261.36 837.251 1260.04 835.755 1258.61C834.26 1257.19 833.434 1255.69 833.296 1254.11C833.158 1252.54 833.71 1250.91 834.936 1249.25C836.163 1247.59 838.054 1245.91 840.558 1244.24C845.565 1240.91 852.967 1237.64 862.23 1234.62C880.751 1228.59 906.644 1223.59 935.517 1221.07C964.391 1218.54 990.758 1218.96 1010.04 1221.69C1019.69 1223.05 1027.55 1224.98 1033.06 1227.4C1035.81 1228.61 1037.97 1229.94 1039.47 1231.36C1040.96 1232.78 1041.79 1234.28 1041.92 1235.86Z" stroke="white" stroke-opacity="0.06" stroke-width="0.609304"/>
<path d="M1042.32 1244.15C1042.32 1245.73 1041.63 1247.3 1040.26 1248.85C1038.9 1250.39 1036.87 1251.9 1034.23 1253.35C1028.95 1256.24 1021.29 1258.85 1011.8 1261.05C992.823 1265.44 966.593 1268.16 937.609 1268.16C908.625 1268.16 882.395 1265.44 863.419 1261.05C853.929 1258.85 846.27 1256.24 840.991 1253.35C838.351 1251.9 836.321 1250.39 834.954 1248.85C833.588 1247.3 832.896 1245.73 832.896 1244.15C832.896 1242.57 833.588 1241 834.954 1239.45C836.321 1237.9 838.351 1236.4 840.991 1234.95C846.27 1232.06 853.929 1229.45 863.419 1227.25C882.395 1222.86 908.625 1220.14 937.609 1220.14C966.593 1220.14 992.823 1222.86 1011.8 1227.25C1021.29 1229.45 1028.95 1232.06 1034.23 1234.95C1036.87 1236.4 1038.9 1237.9 1040.26 1239.45C1041.63 1241 1042.32 1242.57 1042.32 1244.15Z" stroke="white" stroke-opacity="0.06" stroke-width="0.609304"/>
</g>
<defs>
<filter id="filter0_f_750_392" x="812.842" y="15.1265" width="892.158" height="941.221" filterUnits="userSpaceOnUse" color-interpolation-filters="sRGB">
<feFlood flood-opacity="0" result="BackgroundImageFix"/>
<feBlend mode="normal" in="SourceGraphic" in2="BackgroundImageFix" result="shape"/>
<feGaussianBlur stdDeviation="74" result="effect1_foregroundBlur_750_392"/>
</filter>
<filter id="filter1_f_750_392" x="-344.91" y="-329.882" width="991.395" height="832.73" filterUnits="userSpaceOnUse" color-interpolation-filters="sRGB">
<feFlood flood-opacity="0" result="BackgroundImageFix"/>
<feBlend mode="normal" in="SourceGraphic" in2="BackgroundImageFix" result="shape"/>
<feGaussianBlur stdDeviation="74" result="effect1_foregroundBlur_750_392"/>
</filter>
<filter id="filter2_f_750_392" x="822.598" y="1129.27" width="243.158" height="262.957" filterUnits="userSpaceOnUse" color-interpolation-filters="sRGB">
<feFlood flood-opacity="0" result="BackgroundImageFix"/>
<feBlend mode="normal" in="SourceGraphic" in2="BackgroundImageFix" result="shape"/>
<feGaussianBlur stdDeviation="7.99309" result="effect1_foregroundBlur_750_392"/>
</filter>
<filter id="filter3_f_750_392" x="813.799" y="1141.37" width="265.156" height="239.859" filterUnits="userSpaceOnUse" color-interpolation-filters="sRGB">
<feFlood flood-opacity="0" result="BackgroundImageFix"/>
<feBlend mode="normal" in="SourceGraphic" in2="BackgroundImageFix" result="shape"/>
<feGaussianBlur stdDeviation="7.99309" result="effect1_foregroundBlur_750_392"/>
</filter>
<filter id="filter4_f_750_392" x="823.375" y="1131.11" width="248.205" height="264.732" filterUnits="userSpaceOnUse" color-interpolation-filters="sRGB">
<feFlood flood-opacity="0" result="BackgroundImageFix"/>
<feBlend mode="normal" in="SourceGraphic" in2="BackgroundImageFix" result="shape"/>
<feGaussianBlur stdDeviation="7.99309" result="effect1_foregroundBlur_750_392"/>
</filter>
<linearGradient id="paint0_linear_750_392" x1="1370.65" y1="464.186" x2="796.982" y2="435.178" gradientUnits="userSpaceOnUse">
<stop stop-color="#FF914D"/>
<stop offset="1" stop-color="#0A1832"/>
</linearGradient>
<linearGradient id="paint1_linear_750_392" x1="262.52" y1="64.933" x2="-311.152" y2="35.9242" gradientUnits="userSpaceOnUse">
<stop stop-color="#FF914D"/>
<stop offset="1" stop-color="#0A1832"/>
</linearGradient>
<linearGradient id="paint2_linear_750_392" x1="24.033" y1="572.815" x2="1280.63" y2="572.815" gradientUnits="userSpaceOnUse">
<stop stop-color="#79747E"/>
<stop offset="0.32" stop-color="#CDD1D0"/>
<stop offset="0.68" stop-color="#C4C4C4"/>
<stop offset="1" stop-color="#938F99"/>
</linearGradient>
<clipPath id="clip0_750_392">
<rect width="1280" height="749" fill="white" transform="translate(0.626953 198.315)"/>
</clipPath>
</defs>
</svg>
