<svg width="1281" height="750" viewBox="0 0 1281 750" fill="none" xmlns="http://www.w3.org/2000/svg">
<g opacity="0.3" clip-path="url(#clip0_191_19847)">
<mask id="mask0_191_19847" style="mask-type:luminance" maskUnits="userSpaceOnUse" x="0" y="0" width="1281" height="750">
<path d="M836.111 412.204L833.08 413.067L829.837 414.474L832.798 413.48L836.111 412.204ZM843.648 409.301L839.582 410.247L835.195 412.152C836.546 411.767 837.9 411.382 839.252 410.997L843.65 409.301H843.648ZM848.873 408.089L845.775 408.808L842.478 410.077L845.524 409.211L848.873 408.089ZM852.16 407.326L851.986 407.367L851.806 407.429L852.162 407.329L852.16 407.326ZM850.642 406.612C849.124 406.882 847.6 407.157 846.08 407.429C844.431 408.143 842.78 408.86 841.131 409.576C842.652 409.222 844.17 408.87 845.688 408.518L850.642 406.612ZM856.299 405.605L852.213 406.332L847.815 408.025C849.177 407.709 850.542 407.393 851.901 407.077L856.299 405.605ZM861.504 404.68L858.345 405.24L855.006 406.358L858.122 405.639L861.504 404.68ZM864.775 404.103L864.463 404.156L864.146 404.246L864.775 404.103ZM857.397 404.015C855.8 404.213 854.2 404.411 852.597 404.609C850.828 405.374 849.062 406.137 847.293 406.905C848.906 406.615 850.519 406.327 852.129 406.039L857.397 404.015ZM863.191 403.301C861.678 403.486 860.16 403.674 858.644 403.861L853.703 405.759C855.227 405.487 856.747 405.217 858.265 404.948L863.191 403.301ZM868.795 402.618L864.701 403.116L860.308 404.585C861.673 404.344 863.035 404.102 864.397 403.861L868.797 402.618H868.795ZM873.94 401.994C872.878 402.122 871.818 402.251 870.755 402.379L867.369 403.335C868.428 403.147 869.488 402.959 870.546 402.772L873.94 401.991V401.994ZM877.271 401.593L876.795 401.65L876.301 401.763L877.273 401.59L877.271 401.593ZM864.03 401.47C862.387 401.58 860.738 401.691 859.092 401.801L853.591 404.182C855.252 403.977 856.911 403.771 858.57 403.568L864.03 401.472V401.47ZM869.852 401.079C868.262 401.185 866.657 401.295 865.057 401.4L859.817 403.412C861.424 403.214 863.029 403.016 864.632 402.821L869.852 401.077V401.079ZM875.566 400.709C874.06 400.807 872.56 400.902 871.05 401L866.14 402.638C867.66 402.453 869.179 402.269 870.697 402.084L875.566 400.709ZM881.083 400.36L877.002 400.619C875.553 401.028 874.102 401.439 872.65 401.85L876.738 401.357C878.187 401.023 879.634 400.694 881.08 400.363L881.083 400.36ZM886.185 400.036C885.112 400.103 884.037 400.173 882.959 400.242L879.605 401.01C880.676 400.882 881.74 400.756 882.808 400.627L886.182 400.039L886.185 400.036ZM889.546 399.823L888.944 399.862L888.353 399.965L889.546 399.823ZM870.635 398.937C868.961 398.952 867.284 398.968 865.602 398.986C863.71 399.803 861.816 400.625 859.924 401.444C861.614 401.331 863.306 401.215 864.99 401.102L870.635 398.937ZM876.405 398.893C874.77 398.906 873.136 398.917 871.498 398.929C869.67 399.631 867.842 400.332 866.014 401.033C867.676 400.92 869.34 400.807 870.991 400.699L876.405 398.893ZM882.153 398.852C880.568 398.863 878.976 398.875 877.386 398.888L872.189 400.622C873.781 400.519 875.361 400.422 876.951 400.319C878.686 399.828 880.419 399.343 882.153 398.852ZM887.792 398.824C886.295 398.832 884.802 398.837 883.299 398.845C881.661 399.307 880.028 399.767 878.389 400.227C879.9 400.131 881.408 400.034 882.913 399.939C884.541 399.566 886.167 399.194 887.792 398.821V398.824ZM893.248 398.806L889.175 398.819L884.789 399.821C886.164 399.733 887.542 399.643 888.909 399.559C890.357 399.307 891.801 399.055 893.248 398.806ZM898.304 398.791C897.223 398.791 896.135 398.798 895.05 398.801L891.666 399.389C892.723 399.325 893.772 399.263 894.83 399.199C895.989 399.063 897.147 398.924 898.304 398.791ZM901.803 398.783C901.532 398.783 901.263 398.783 900.989 398.783L900.126 398.883L901.806 398.783H901.803ZM877.168 396.433C875.479 396.348 873.794 396.261 872.102 396.176L866.317 398.675C868.029 398.657 869.732 398.644 871.437 398.629C873.346 397.897 875.259 397.162 877.166 396.43L877.168 396.433ZM882.923 396.723C881.262 396.636 879.588 396.553 877.916 396.471L872.302 398.624C873.981 398.611 875.655 398.598 877.332 398.588L882.923 396.726V396.723ZM888.622 397.031C886.999 396.944 885.383 396.851 883.758 396.764C881.945 397.368 880.128 397.974 878.315 398.577C879.964 398.565 881.618 398.549 883.256 398.542C885.045 398.038 886.837 397.532 888.622 397.031ZM894.274 397.345C892.702 397.257 891.131 397.167 889.556 397.083C887.841 397.565 886.121 398.051 884.403 398.534C885.985 398.526 887.554 398.524 889.136 398.516C890.852 398.125 892.564 397.732 894.274 397.345ZM899.881 397.655C898.386 397.568 896.875 397.488 895.37 397.404L890.519 398.511C892.021 398.506 893.522 398.5 895.022 398.495C896.642 398.215 898.263 397.933 899.881 397.653V397.655ZM905.239 397.979C903.89 397.899 902.546 397.815 901.199 397.735L896.824 398.49C898.209 398.485 899.594 398.48 900.966 398.477C902.389 398.31 903.815 398.143 905.239 397.979ZM910.228 398.282C909.143 398.215 908.055 398.148 906.967 398.084C905.833 398.215 904.696 398.349 903.562 398.48C904.632 398.48 905.705 398.482 906.78 398.482C907.929 398.416 909.084 398.346 910.231 398.28L910.228 398.282ZM913.677 398.49C913.395 398.472 913.111 398.457 912.827 398.439L911.941 398.488C912.517 398.488 913.098 398.488 913.674 398.488L913.677 398.49ZM883.694 393.931C882.002 393.743 880.32 393.548 878.625 393.361C876.661 394.208 874.701 395.053 872.734 395.901C874.447 395.986 876.157 396.073 877.87 396.16L883.694 393.931ZM889.38 394.573C887.705 394.383 886.029 394.193 884.349 394.005C882.439 394.737 880.53 395.467 878.617 396.199C880.32 396.284 882.027 396.366 883.717 396.456C885.609 395.827 887.493 395.2 889.382 394.57L889.38 394.573ZM895.058 395.223C893.412 395.03 891.755 394.843 890.099 394.655C888.248 395.269 886.402 395.883 884.549 396.499C886.213 396.589 887.864 396.684 889.523 396.777C891.371 396.258 893.212 395.739 895.058 395.223ZM900.667 395.891C899.059 395.701 897.456 395.508 895.846 395.318C894.052 395.821 892.257 396.325 890.46 396.831C892.091 396.921 893.724 397.011 895.349 397.103C897.126 396.7 898.898 396.297 900.669 395.893L900.667 395.891ZM906.265 396.556C904.706 396.368 903.134 396.181 901.565 395.996C899.858 396.384 898.153 396.772 896.443 397.16C898.027 397.25 899.612 397.337 901.186 397.429C902.881 397.137 904.576 396.844 906.265 396.553V396.556ZM911.751 397.229C910.274 397.047 908.802 396.862 907.32 396.682C905.717 396.957 904.11 397.234 902.505 397.512C903.992 397.601 905.477 397.691 906.964 397.781C908.562 397.596 910.156 397.411 911.751 397.229ZM917.104 397.899C915.745 397.727 914.383 397.558 913.019 397.388C911.58 397.553 910.136 397.72 908.695 397.887C910.077 397.969 911.46 398.051 912.834 398.138C914.263 398.056 915.681 397.979 917.104 397.899ZM922.096 398.524C920.996 398.382 919.887 398.246 918.779 398.107C917.657 398.169 916.539 398.233 915.415 398.295C916.475 398.362 917.522 398.434 918.579 398.503C919.756 398.508 920.921 398.516 922.099 398.521L922.096 398.524ZM925.401 398.952C925.109 398.914 924.82 398.875 924.531 398.839L923.589 398.834C924.193 398.875 924.8 398.914 925.401 398.952ZM890.201 391.442C888.512 391.147 886.807 390.856 885.109 390.566C883.138 391.416 881.164 392.269 879.191 393.119C880.906 393.309 882.603 393.505 884.313 393.697C886.277 392.945 888.24 392.192 890.204 391.442H890.201ZM895.826 392.431C894.151 392.133 892.472 391.837 890.788 391.542C888.85 392.282 886.909 393.027 884.969 393.769C886.671 393.959 888.373 394.152 890.068 394.344C891.988 393.707 893.911 393.065 895.826 392.431ZM901.424 393.435C899.768 393.137 898.112 392.839 896.45 392.541C894.564 393.168 892.674 393.797 890.788 394.424C892.472 394.617 894.151 394.809 895.826 395.005C897.692 394.481 899.561 393.957 901.424 393.433V393.435ZM907.033 394.442C905.403 394.144 903.749 393.851 902.105 393.556C900.277 394.07 898.442 394.586 896.612 395.1C898.263 395.295 899.904 395.49 901.552 395.688C903.38 395.272 905.211 394.856 907.033 394.442ZM912.558 395.475C910.965 395.177 909.383 394.879 907.789 394.583C906.012 394.987 904.23 395.392 902.451 395.796C904.074 395.988 905.702 396.178 907.315 396.374C909.066 396.073 910.809 395.775 912.558 395.475ZM918.064 396.505C916.521 396.212 914.967 395.924 913.413 395.634C911.731 395.922 910.052 396.209 908.367 396.499C909.924 396.692 911.467 396.89 913.021 397.083C914.703 396.89 916.382 396.697 918.062 396.507L918.064 396.505ZM923.504 397.537C922.032 397.255 920.555 396.972 919.076 396.692C917.481 396.875 915.888 397.054 914.291 397.239C915.794 397.427 917.296 397.612 918.791 397.802C920.361 397.714 921.94 397.625 923.504 397.537ZM928.742 398.554C927.401 398.292 926.059 398.033 924.715 397.771C923.305 397.848 921.881 397.93 920.466 398.01C921.833 398.182 923.195 398.357 924.554 398.534C925.949 398.539 927.347 398.547 928.74 398.554H928.742ZM933.655 399.51C932.556 399.294 931.448 399.081 930.342 398.865C929.218 398.857 928.087 398.855 926.96 398.847C928.002 398.983 929.044 399.119 930.086 399.258C931.282 399.34 932.462 399.428 933.652 399.51H933.655ZM936.87 400.147C936.599 400.093 936.333 400.036 936.061 399.985L935.119 399.918C935.703 399.995 936.289 400.07 936.87 400.147ZM896.701 388.956C895.014 388.552 893.314 388.154 891.612 387.756C889.618 388.614 887.616 389.48 885.619 390.343C887.334 390.638 889.054 390.928 890.757 391.226C892.741 390.468 894.72 389.713 896.699 388.956H896.701ZM902.238 390.299C900.564 389.893 898.898 389.485 897.218 389.081C895.26 389.829 893.301 390.576 891.341 391.326C893.04 391.624 894.732 391.925 896.425 392.225C898.365 391.581 900.298 390.941 902.236 390.296L902.238 390.299ZM907.799 391.647C906.14 391.239 904.466 390.836 902.797 390.432C900.882 391.067 898.972 391.701 897.054 392.338C898.736 392.639 900.418 392.942 902.095 393.245C904 392.711 905.899 392.182 907.801 391.647H907.799ZM913.31 393.019C911.675 392.611 910.044 392.2 908.4 391.794C906.526 392.318 904.655 392.842 902.776 393.368C904.448 393.669 906.125 393.967 907.783 394.27C909.629 393.851 911.47 393.435 913.31 393.019ZM918.807 394.401C917.194 393.993 915.581 393.587 913.961 393.181C912.153 393.589 910.346 393.998 908.533 394.409C910.167 394.712 911.787 395.017 913.418 395.323C915.215 395.015 917.012 394.707 918.807 394.401ZM924.298 395.791C922.718 395.385 921.124 394.984 919.534 394.583C917.783 394.881 916.029 395.182 914.276 395.482C915.883 395.783 917.493 396.081 919.091 396.384C920.829 396.186 922.567 395.988 924.301 395.791H924.298ZM929.692 397.196C928.164 396.797 926.643 396.399 925.112 396.004C923.443 396.191 921.771 396.381 920.099 396.574C921.651 396.869 923.192 397.167 924.738 397.465C926.392 397.375 928.043 397.285 929.692 397.198V397.196ZM935.055 398.593C933.598 398.208 932.129 397.83 930.662 397.45C929.09 397.535 927.526 397.614 925.952 397.702C927.429 397.987 928.906 398.274 930.378 398.562C931.94 398.572 933.501 398.583 935.058 398.595L935.055 398.593ZM940.231 399.972C938.905 399.618 937.589 399.261 936.258 398.909C934.83 398.896 933.409 398.883 931.975 398.873C933.355 399.143 934.732 399.41 936.102 399.682C937.479 399.78 938.859 399.875 940.231 399.975V399.972ZM945.019 401.262C943.936 400.969 942.848 400.676 941.762 400.386C940.654 400.306 939.535 400.229 938.421 400.149C939.497 400.368 940.574 400.584 941.65 400.802C942.776 400.956 943.895 401.11 945.016 401.264L945.019 401.262ZM948.239 402.13C947.94 402.048 947.637 401.968 947.335 401.886C947.021 401.842 946.703 401.801 946.391 401.757C947.008 401.881 947.627 402.004 948.242 402.13H948.239ZM903.163 386.485C901.486 385.973 899.812 385.46 898.125 384.954C896.107 385.822 894.098 386.685 892.078 387.556C893.79 387.956 895.498 388.36 897.198 388.765C899.187 388.005 901.176 387.245 903.163 386.487V386.485ZM908.643 388.172C906.974 387.658 905.308 387.142 903.634 386.628L897.715 388.889C899.41 389.297 901.089 389.708 902.776 390.117C904.732 389.467 906.69 388.819 908.641 388.172H908.643ZM914.142 389.87C912.486 389.351 910.812 388.84 909.143 388.326C907.21 388.966 905.272 389.611 903.334 390.253C905.024 390.661 906.716 391.067 908.393 391.48C910.31 390.944 912.23 390.404 914.142 389.87ZM919.575 391.601C917.936 391.082 916.311 390.556 914.667 390.037C912.78 390.563 910.884 391.095 908.994 391.624C910.658 392.035 912.304 392.454 913.963 392.87C915.835 392.446 917.708 392.022 919.575 391.601ZM925.033 393.34C923.412 392.819 921.779 392.3 920.146 391.784C918.305 392.2 916.459 392.616 914.613 393.034C916.262 393.445 917.906 393.862 919.547 394.275C921.377 393.962 923.205 393.651 925.033 393.34ZM930.439 395.097C928.847 394.578 927.26 394.057 925.66 393.54C923.868 393.846 922.071 394.152 920.274 394.457C921.899 394.868 923.522 395.282 925.135 395.696C926.904 395.495 928.673 395.295 930.439 395.097ZM935.833 396.872C934.269 396.356 932.702 395.839 931.131 395.323C929.408 395.516 927.68 395.711 925.954 395.906C927.539 396.317 929.116 396.731 930.695 397.142C932.413 397.049 934.123 396.962 935.833 396.872ZM941.207 398.649C939.691 398.141 938.158 397.637 936.629 397.134C934.976 397.221 933.325 397.306 931.666 397.396C933.214 397.799 934.768 398.2 936.307 398.606C937.945 398.619 939.576 398.637 941.209 398.652L941.207 398.649ZM946.398 400.414C944.972 399.931 943.552 399.443 942.123 398.96C940.58 398.945 939.038 398.929 937.49 398.917C938.936 399.302 940.37 399.695 941.813 400.08C943.342 400.191 944.873 400.301 946.396 400.411L946.398 400.414ZM951.511 402.153C950.197 401.701 948.871 401.254 947.548 400.807C946.148 400.702 944.752 400.599 943.347 400.496C944.701 400.858 946.055 401.223 947.399 401.588C948.766 401.775 950.146 401.963 951.511 402.153ZM956.277 403.802C955.205 403.43 954.142 403.055 953.067 402.682C951.951 402.525 950.837 402.366 949.716 402.209C950.809 402.507 951.89 402.811 952.978 403.111C954.081 403.34 955.179 403.571 956.277 403.799V403.802ZM959.426 404.906L958.469 404.57L957.465 404.362C958.118 404.544 958.773 404.724 959.426 404.906ZM909.629 384.019C907.963 383.397 906.309 382.77 904.635 382.154C902.61 383.025 900.587 383.895 898.56 384.766C900.257 385.277 901.936 385.794 903.623 386.31L909.629 384.019ZM915.046 386.053C913.387 385.426 911.726 384.802 910.059 384.178L904.097 386.454C905.784 386.97 907.463 387.489 909.143 388.008L915.046 386.053ZM920.466 388.108C918.82 387.476 917.158 386.849 915.497 386.225C913.546 386.87 911.595 387.517 909.642 388.164C911.324 388.683 913.008 389.2 914.677 389.724C916.61 389.184 918.538 388.647 920.466 388.108ZM925.834 390.194C924.201 389.559 922.578 388.922 920.937 388.29C919.024 388.822 917.117 389.354 915.202 389.891C916.864 390.414 918.507 390.944 920.161 391.47C922.055 391.041 923.945 390.617 925.834 390.194ZM931.233 392.292C929.615 391.655 927.974 391.023 926.341 390.391C924.472 390.813 922.606 391.231 920.734 391.653C922.388 392.179 924.044 392.701 925.685 393.23C927.539 392.916 929.385 392.603 931.233 392.29V392.292ZM936.565 394.416C934.968 393.779 933.386 393.14 931.783 392.505C929.961 392.814 928.141 393.122 926.313 393.433C927.938 393.959 929.546 394.491 931.164 395.02C932.969 394.817 934.766 394.617 936.565 394.416ZM941.903 396.559C940.329 395.922 938.744 395.287 937.159 394.655C935.393 394.853 933.627 395.048 931.855 395.249C933.465 395.775 935.07 396.304 936.67 396.833C938.414 396.743 940.165 396.648 941.903 396.559ZM947.213 398.711C945.671 398.082 944.125 397.452 942.574 396.828C940.879 396.916 939.166 397.008 937.467 397.095C939.041 397.617 940.615 398.138 942.177 398.665C943.854 398.68 945.541 398.693 947.213 398.711ZM952.443 400.876C950.95 400.257 949.46 399.638 947.96 399.022C946.345 399.004 944.711 398.991 943.091 398.976C944.601 399.487 946.104 399.998 947.609 400.512C949.227 400.63 950.832 400.753 952.443 400.876ZM957.668 403.039C956.236 402.438 954.788 401.845 953.341 401.249C951.815 401.133 950.29 401.018 948.759 400.902C950.22 401.398 951.687 401.891 953.136 402.389C954.652 402.605 956.155 402.821 957.665 403.037L957.668 403.039ZM962.578 405.125C961.308 404.585 960.048 404.043 958.776 403.504C957.399 403.306 956.024 403.108 954.644 402.913C955.95 403.368 957.245 403.828 958.551 404.282C959.89 404.565 961.244 404.842 962.578 405.125ZM967.268 407.126C966.2 406.669 965.127 406.211 964.055 405.757C962.951 405.523 961.848 405.287 960.742 405.053C961.805 405.425 962.872 405.795 963.929 406.17C965.051 406.486 966.151 406.81 967.27 407.128L967.268 407.126ZM970.634 408.562C970.27 408.405 969.899 408.248 969.531 408.092L968.558 407.812C969.252 408.061 969.94 408.312 970.634 408.562ZM916.093 381.561C914.442 380.829 912.801 380.091 911.137 379.362C909.109 380.233 907.074 381.109 905.044 381.982C906.726 382.603 908.388 383.233 910.062 383.859L916.093 381.561ZM921.438 383.944C919.792 383.207 918.144 382.47 916.487 381.735L910.492 384.021C912.169 384.648 913.843 385.277 915.509 385.907C917.486 385.252 919.465 384.597 921.438 383.944ZM926.784 386.351C925.148 385.606 923.499 384.866 921.848 384.127L915.96 386.074C917.632 386.705 919.301 387.337 920.957 387.974C922.9 387.432 924.843 386.89 926.781 386.351H926.784ZM932.08 388.794C930.455 388.046 928.839 387.294 927.209 386.549C925.286 387.083 923.356 387.622 921.431 388.159C923.084 388.796 924.723 389.438 926.372 390.078C928.279 389.649 930.181 389.22 932.083 388.794H932.08ZM937.41 391.252C935.797 390.499 934.162 389.752 932.533 389.004C930.649 389.428 928.763 389.852 926.876 390.276C928.527 390.915 930.186 391.552 931.822 392.197C933.685 391.881 935.552 391.565 937.41 391.252ZM942.674 393.743C941.079 392.988 939.502 392.23 937.899 391.478C936.061 391.786 934.218 392.099 932.372 392.41C933.995 393.052 935.593 393.702 937.208 394.35C939.033 394.147 940.853 393.946 942.674 393.743ZM947.95 396.255C946.373 395.498 944.783 394.745 943.193 393.99C941.399 394.188 939.604 394.386 937.805 394.586C939.417 395.231 941.03 395.875 942.63 396.523C944.407 396.433 946.178 396.343 947.95 396.253V396.255ZM953.205 398.788C951.652 398.033 950.092 397.283 948.528 396.53C946.788 396.618 945.049 396.702 943.301 396.792C944.885 397.434 946.46 398.077 948.032 398.721C949.765 398.742 951.48 398.765 953.205 398.788ZM958.374 401.326C956.864 400.584 955.356 399.839 953.84 399.099C952.151 399.078 950.477 399.05 948.782 399.032C950.333 399.672 951.879 400.311 953.423 400.953C955.072 401.079 956.733 401.2 958.374 401.328V401.326ZM963.589 403.887C962.109 403.15 960.604 402.418 959.106 401.685C957.522 401.562 955.914 401.447 954.322 401.323C955.84 401.953 957.363 402.579 958.868 403.211C960.44 403.437 962.022 403.658 963.589 403.887ZM968.622 406.432C967.224 405.728 965.839 405.019 964.439 404.316C962.951 404.1 961.444 403.889 959.948 403.674C961.354 404.272 962.752 404.871 964.155 405.469C965.65 405.787 967.132 406.111 968.622 406.435V406.432ZM973.555 408.929C972.275 408.276 970.982 407.624 969.694 406.974C968.343 406.681 966.991 406.389 965.634 406.096C966.973 406.666 968.315 407.234 969.643 407.804C970.949 408.176 972.257 408.551 973.557 408.926L973.555 408.929ZM978.086 411.251C977.057 410.719 976.03 410.188 974.996 409.658C973.947 409.353 972.882 409.052 971.829 408.749C972.871 409.204 973.898 409.661 974.94 410.113C975.987 410.493 977.044 410.868 978.086 411.248V411.251ZM981.076 412.81L980.17 412.337C979.804 412.204 979.445 412.068 979.077 411.932C979.742 412.224 980.413 412.515 981.076 412.81ZM922.552 379.102C920.914 378.26 919.285 377.412 917.637 376.572L911.523 379.197C913.193 379.93 914.836 380.672 916.498 381.409L922.552 379.102ZM927.818 381.838C926.187 380.988 924.554 380.138 922.91 379.29L916.887 381.584C918.551 382.321 920.212 383.063 921.863 383.806L927.815 381.841L927.818 381.838ZM933.097 384.599C931.474 383.741 929.833 382.889 928.194 382.033L922.278 383.988C923.937 384.733 925.591 385.478 927.237 386.228C929.193 385.683 931.143 385.141 933.097 384.599ZM938.314 387.402C936.701 386.539 935.101 385.668 933.481 384.807C931.543 385.347 929.605 385.883 927.659 386.425C929.303 387.178 930.931 387.936 932.567 388.688C934.484 388.259 936.399 387.828 938.311 387.402H938.314ZM943.567 390.222C941.965 389.351 940.339 388.485 938.721 387.62C936.824 388.044 934.924 388.47 933.022 388.896C934.666 389.652 936.317 390.404 937.943 391.167C939.822 390.851 941.696 390.535 943.567 390.222ZM948.759 393.078C947.172 392.205 945.597 391.326 944.002 390.456C942.146 390.766 940.29 391.08 938.429 391.393C940.047 392.153 941.637 392.924 943.247 393.687C945.088 393.484 946.926 393.281 948.761 393.081L948.759 393.078ZM953.966 395.965C952.389 395.087 950.804 394.208 949.217 393.332C947.402 393.53 945.584 393.731 943.764 393.931C945.377 394.694 946.987 395.459 948.587 396.227C950.384 396.137 952.174 396.053 953.966 395.963V395.965ZM959.155 398.873C957.601 397.994 956.034 397.119 954.468 396.245C952.701 396.333 950.937 396.417 949.166 396.505C950.755 397.267 952.335 398.035 953.912 398.803C955.663 398.827 957.412 398.85 959.157 398.873H959.155ZM964.275 401.801C962.749 400.928 961.231 400.054 959.698 399.184C957.985 399.158 956.265 399.135 954.544 399.114C956.096 399.872 957.642 400.632 959.186 401.393C960.893 401.526 962.575 401.665 964.275 401.801ZM969.441 404.755C967.941 403.884 966.412 403.021 964.894 402.155C963.236 402.022 961.592 401.886 959.928 401.757C961.467 402.513 963.01 403.268 964.533 404.028C966.18 404.267 967.803 404.513 969.441 404.755ZM974.433 407.691C973.002 406.851 971.586 406.006 970.153 405.166C968.563 404.93 966.986 404.691 965.388 404.457C966.866 405.199 968.327 405.947 969.799 406.689C971.343 407.023 972.897 407.354 974.433 407.691ZM979.445 410.647C978.06 409.823 976.66 409.001 975.262 408.181C973.808 407.863 972.329 407.55 970.867 407.231C972.285 407.945 973.706 408.659 975.109 409.378C976.56 409.8 977.999 410.223 979.445 410.647ZM984.292 413.547C983.037 412.792 981.785 412.034 980.521 411.282C979.192 410.891 977.876 410.496 976.542 410.108C977.802 410.76 979.046 411.415 980.303 412.068C981.642 412.558 982.96 413.057 984.292 413.55V413.547ZM988.705 416.229C987.694 415.612 986.677 414.996 985.664 414.382C984.599 413.986 983.536 413.591 982.466 413.195C983.513 413.74 984.565 414.284 985.605 414.832C986.644 415.296 987.671 415.764 988.705 416.231V416.229ZM991.785 418.099C991.475 417.909 991.16 417.719 990.848 417.529L990.054 417.171C990.635 417.48 991.206 417.79 991.787 418.101L991.785 418.099ZM929.006 376.647C927.385 375.691 925.767 374.736 924.134 373.785C922.089 374.661 920.051 375.535 918.003 376.413C919.657 377.256 921.287 378.108 922.933 378.956C924.958 378.185 926.983 377.415 929.006 376.647ZM934.192 379.734C932.577 378.771 930.964 377.805 929.339 376.845L923.294 379.144C924.943 379.994 926.584 380.849 928.225 381.704C930.217 381.047 932.206 380.392 934.195 379.734H934.192ZM939.405 382.845C937.797 381.871 936.164 380.908 934.538 379.94L928.599 381.9C930.245 382.758 931.891 383.615 933.522 384.481C935.483 383.937 937.446 383.389 939.405 382.845ZM944.54 386.007C942.942 385.026 941.363 384.039 939.755 383.061C937.81 383.6 935.856 384.145 933.906 384.687C935.536 385.555 937.147 386.428 938.767 387.296C940.695 386.865 942.617 386.436 944.54 386.007ZM949.714 389.192C948.124 388.203 946.516 387.219 944.911 386.235C943.001 386.662 941.091 387.088 939.177 387.517C940.807 388.39 942.446 389.261 944.059 390.137C945.945 389.821 947.829 389.505 949.711 389.192H949.714ZM954.841 392.413C953.264 391.419 951.695 390.422 950.108 389.433C948.239 389.744 946.37 390.057 944.496 390.371C946.107 391.249 947.689 392.138 949.289 393.019C951.142 392.816 952.995 392.613 954.841 392.413ZM959.961 395.67C958.397 394.668 956.828 393.669 955.251 392.672C953.42 392.87 951.585 393.07 949.747 393.273C951.352 394.159 952.955 395.046 954.547 395.934C956.349 395.847 958.162 395.755 959.959 395.67H959.961ZM965.086 398.952C963.538 397.948 961.968 396.952 960.404 395.952C958.628 396.037 956.836 396.127 955.051 396.214C956.636 397.101 958.215 397.989 959.79 398.881C961.554 398.906 963.33 398.927 965.086 398.955V398.952ZM970.135 402.269C968.609 401.267 967.093 400.262 965.56 399.263C963.824 399.235 962.073 399.214 960.33 399.189C961.892 400.075 963.44 400.966 964.992 401.858C966.707 401.994 968.425 402.132 970.132 402.271L970.135 402.269ZM975.227 405.613C973.719 404.609 972.185 403.612 970.662 402.613C968.985 402.477 967.296 402.343 965.611 402.207C967.165 403.093 968.724 403.979 970.26 404.873C971.916 405.12 973.575 405.364 975.224 405.613H975.227ZM980.206 408.967C978.744 407.981 977.298 406.992 975.828 406.008C974.21 405.764 972.582 405.525 970.956 405.284C972.439 406.152 973.906 407.026 975.383 407.894C977.001 408.248 978.598 408.61 980.206 408.967ZM985.18 412.337C983.759 411.366 982.325 410.398 980.892 409.43C979.335 409.083 977.792 408.734 976.228 408.389C977.707 409.258 979.189 410.126 980.654 410.999C982.167 411.444 983.677 411.89 985.182 412.337H985.18ZM990.057 415.684C988.713 414.754 987.366 413.825 986.009 412.897C984.588 412.474 983.157 412.055 981.729 411.634C983.099 412.456 984.445 413.283 985.807 414.105C987.223 414.631 988.649 415.155 990.057 415.682V415.684ZM994.711 418.934C993.492 418.081 992.271 417.225 991.047 416.375C989.767 415.895 988.467 415.417 987.182 414.939C988.457 415.712 989.734 416.486 991.001 417.259C992.235 417.819 993.484 418.374 994.713 418.934H994.711ZM999.183 422.057C998.164 421.335 997.127 420.619 996.096 419.899C995.115 419.45 994.125 419.005 993.141 418.559C994.176 419.193 995.195 419.833 996.221 420.47C997.204 420.999 998.203 421.525 999.183 422.057ZM1002.09 424.135C1001.79 423.924 1001.5 423.714 1001.21 423.503C1000.84 423.3 1000.48 423.097 1000.1 422.894C1000.76 423.308 1001.43 423.721 1002.09 424.132V424.135ZM935.465 374.189C933.862 373.123 932.252 372.057 930.631 370.999C928.586 371.874 926.538 372.753 924.487 373.631C926.126 374.584 927.746 375.545 929.372 376.506C931.402 375.732 933.435 374.962 935.462 374.191L935.465 374.189ZM940.567 377.631C938.967 376.554 937.38 375.473 935.772 374.397C933.752 375.162 931.73 375.933 929.707 376.701C931.34 377.664 932.958 378.635 934.581 379.601C936.578 378.943 938.575 378.283 940.567 377.628V377.631ZM945.707 381.096C944.115 380.007 942.494 378.928 940.884 377.846C938.9 378.499 936.914 379.156 934.927 379.811C936.558 380.782 938.196 381.753 939.812 382.732C941.78 382.185 943.744 381.643 945.707 381.098V381.096ZM950.766 384.615C949.186 383.518 947.627 382.413 946.037 381.319C944.079 381.861 942.123 382.403 940.162 382.948C941.778 383.931 943.367 384.923 944.973 385.909C946.905 385.478 948.838 385.046 950.766 384.617V384.615ZM955.853 388.164C954.278 387.057 952.691 385.953 951.104 384.851C949.189 385.277 947.264 385.706 945.344 386.135C946.959 387.127 948.577 388.116 950.177 389.11C952.069 388.794 953.966 388.475 955.853 388.162V388.164ZM960.919 391.753C959.355 390.638 957.785 389.523 956.208 388.411C954.332 388.722 952.45 389.038 950.569 389.351C952.166 390.348 953.746 391.352 955.33 392.354C957.196 392.151 959.058 391.951 960.919 391.75V391.753ZM965.949 395.385C964.398 394.262 962.849 393.137 961.287 392.017C959.442 392.215 957.593 392.415 955.74 392.616C957.332 393.623 958.914 394.63 960.494 395.639C962.316 395.552 964.134 395.467 965.952 395.385H965.949ZM971.023 399.05C969.479 397.917 967.905 396.795 966.343 395.67C964.541 395.752 962.744 395.834 960.934 395.922C962.514 396.931 964.096 397.943 965.66 398.958C967.457 398.986 969.234 399.019 971.023 399.05ZM975.974 402.744C974.459 401.616 972.961 400.486 971.438 399.361C969.669 399.33 967.91 399.297 966.133 399.268C967.687 400.28 969.226 401.3 970.772 402.315C972.508 402.456 974.244 402.6 975.974 402.744ZM980.981 406.478C979.479 405.346 977.956 404.216 976.435 403.088C974.727 402.944 973.017 402.803 971.302 402.662C972.853 403.679 974.418 404.693 975.951 405.716C977.63 405.97 979.307 406.222 980.981 406.478ZM985.917 410.236C984.448 409.111 982.983 407.986 981.501 406.864C979.852 406.612 978.204 406.36 976.547 406.109C978.05 407.115 979.527 408.133 981.025 409.142C982.658 409.507 984.294 409.869 985.917 410.234V410.236ZM990.817 414.012C989.378 412.897 987.934 411.785 986.485 410.676C984.901 410.318 983.301 409.964 981.708 409.61C983.193 410.611 984.681 411.613 986.15 412.62C987.707 413.082 989.266 413.545 990.814 414.012H990.817ZM995.724 417.826C994.324 416.727 992.911 415.63 991.498 414.536C989.995 414.084 988.49 413.632 986.979 413.182C988.395 414.156 989.796 415.132 991.201 416.105C992.719 416.676 994.214 417.254 995.724 417.826ZM1000.45 421.582C999.14 420.539 997.831 419.493 996.513 418.451C995.077 417.904 993.656 417.354 992.212 416.809C993.566 417.752 994.916 418.692 996.26 419.637C997.667 420.282 999.05 420.934 1000.45 421.582ZM1005.18 425.34C1003.95 424.353 1002.71 423.372 1001.46 422.388C1000.21 421.805 998.955 421.22 997.691 420.637C998.927 421.505 1000.16 422.375 1001.38 423.246C1002.65 423.94 1003.91 424.641 1005.18 425.337V425.34ZM1009.32 428.722C1008.38 427.96 1007.46 427.192 1006.52 426.429C1005.5 425.864 1004.47 425.298 1003.45 424.733C1004.36 425.394 1005.28 426.054 1006.2 426.714C1007.25 427.382 1008.28 428.055 1009.32 428.722ZM1011.86 430.8L1011.38 430.407L1010.93 430.122C1011.24 430.348 1011.55 430.574 1011.86 430.8ZM941.926 371.741C940.341 370.562 938.734 369.388 937.129 368.217C935.081 369.093 933.025 369.976 930.977 370.855C932.6 371.921 934.215 372.989 935.82 374.058C937.858 373.285 939.891 372.514 941.926 371.741ZM946.944 375.535C945.364 374.343 943.803 373.146 942.213 371.957C940.185 372.725 938.16 373.493 936.13 374.266C937.743 375.345 939.338 376.429 940.943 377.51C942.948 376.85 944.944 376.192 946.944 375.535ZM951.995 379.357C950.423 378.152 948.828 376.958 947.238 375.758C945.246 376.413 943.257 377.068 941.26 377.723C942.876 378.81 944.504 379.894 946.101 380.988C948.068 380.443 950.034 379.899 951.995 379.357ZM956.994 383.233C955.43 382.018 953.876 380.798 952.299 379.588C950.346 380.127 948.388 380.669 946.432 381.211C948.029 382.311 949.591 383.423 951.181 384.525C953.124 384.091 955.059 383.662 956.997 383.233H956.994ZM961.989 387.147C960.432 385.919 958.871 384.697 957.301 383.474C955.374 383.903 953.449 384.329 951.513 384.758C953.111 385.868 954.708 386.978 956.29 388.09C958.192 387.774 960.092 387.461 961.989 387.145V387.147ZM966.994 391.103C965.447 389.865 963.878 388.632 962.311 387.402C960.425 387.715 958.538 388.026 956.646 388.342C958.233 389.462 959.808 390.581 961.38 391.707C963.253 391.504 965.125 391.306 966.994 391.105V391.103ZM971.934 395.112C970.398 393.867 968.873 392.616 967.326 391.373C965.47 391.57 963.612 391.771 961.748 391.969C963.325 393.096 964.887 394.229 966.448 395.362C968.284 395.277 970.107 395.195 971.934 395.112ZM976.914 399.153C975.388 397.897 973.831 396.648 972.288 395.4C970.473 395.482 968.663 395.565 966.843 395.647C968.414 396.785 969.999 397.917 971.553 399.06C973.34 399.091 975.132 399.119 976.914 399.153ZM981.808 403.239C980.3 401.981 978.813 400.717 977.295 399.464C975.526 399.43 973.744 399.402 971.97 399.371C973.511 400.509 975.027 401.655 976.558 402.795C978.314 402.941 980.06 403.093 981.808 403.242V403.239ZM986.721 407.365C985.228 406.101 983.721 404.837 982.21 403.578C980.482 403.43 978.752 403.281 977.016 403.137C978.557 404.282 980.106 405.428 981.629 406.579C983.332 406.838 985.024 407.103 986.718 407.365H986.721ZM991.6 411.523C990.131 410.259 988.654 408.998 987.169 407.74C985.5 407.48 983.828 407.221 982.149 406.964C983.652 408.104 985.131 409.25 986.624 410.393C988.288 410.768 989.944 411.146 991.598 411.523H991.6ZM996.429 415.715C994.985 414.456 993.543 413.2 992.087 411.947C990.459 411.575 988.83 411.202 987.192 410.832C988.682 411.975 990.169 413.118 991.646 414.264C993.246 414.747 994.836 415.232 996.426 415.715H996.429ZM1001.29 419.948C999.872 418.695 998.428 417.451 996.992 416.203C995.44 415.73 993.889 415.258 992.327 414.785C993.784 415.918 995.23 417.051 996.674 418.186C998.215 418.772 999.759 419.357 1001.29 419.948ZM1005.96 424.135C1004.61 422.928 1003.27 421.718 1001.92 420.513C1000.44 419.943 998.948 419.378 997.46 418.813C998.855 419.917 1000.25 421.024 1001.63 422.131C1003.07 422.799 1004.52 423.467 1005.95 424.137L1005.96 424.135ZM1010.67 428.365C1009.37 427.184 1008.05 426.007 1006.73 424.828C1005.38 424.194 1004.01 423.565 1002.65 422.933C1004.01 424.012 1005.36 425.09 1006.7 426.174C1008.03 426.904 1009.36 427.631 1010.67 428.363V428.365ZM1015.13 432.455C1013.97 431.394 1012.84 430.328 1011.68 429.267C1010.46 428.589 1009.22 427.916 1008 427.238C1009.19 428.211 1010.38 429.187 1011.56 430.161C1012.75 430.926 1013.95 431.689 1015.13 432.455ZM1019.27 436.295C1018.32 435.411 1017.37 434.527 1016.41 433.644C1015.49 433.043 1014.55 432.447 1013.62 431.848C1014.71 432.737 1015.8 433.626 1016.88 434.517C1017.68 435.111 1018.48 435.701 1019.28 436.295H1019.27ZM1022.3 439.1C1021.98 438.796 1021.65 438.496 1021.33 438.195C1021.07 438.005 1020.82 437.818 1020.56 437.628C1021.14 438.118 1021.72 438.609 1022.3 439.1ZM948.377 369.29C946.816 367.998 945.216 366.719 943.626 365.438C941.568 366.319 939.517 367.189 937.456 368.073C939.067 369.249 940.677 370.426 942.264 371.61C944.302 370.837 946.342 370.064 948.377 369.29ZM953.31 373.439C951.751 372.131 950.218 370.816 948.649 369.514C946.619 370.282 944.583 371.055 942.551 371.826C944.146 373.02 945.712 374.22 947.297 375.417C949.301 374.756 951.308 374.096 953.31 373.439ZM958.274 377.62C956.72 376.3 955.151 374.985 953.582 373.67C951.588 374.325 949.588 374.982 947.591 375.64C949.186 376.842 950.791 378.044 952.368 379.254C954.34 378.707 956.308 378.165 958.277 377.623L958.274 377.62ZM963.213 381.851C961.669 380.518 960.115 379.187 958.556 377.857C956.597 378.399 954.636 378.938 952.673 379.483C954.255 380.7 955.814 381.925 957.383 383.145C959.329 382.714 961.275 382.28 963.215 381.851H963.213ZM968.117 386.135C966.579 384.789 965.048 383.441 963.497 382.097C961.564 382.526 959.628 382.955 957.691 383.387C959.268 384.615 960.839 385.845 962.401 387.078C964.311 386.762 966.215 386.449 968.117 386.135ZM973.063 390.458C971.533 389.097 969.963 387.748 968.412 386.395C966.517 386.705 964.623 387.019 962.724 387.335C964.295 388.573 965.87 389.813 967.426 391.059C969.308 390.859 971.187 390.659 973.063 390.461V390.458ZM977.902 394.843C976.386 393.474 974.891 392.097 973.363 390.733C971.499 390.931 969.628 391.129 967.757 391.329C969.316 392.58 970.852 393.838 972.398 395.094C974.231 395.012 976.076 394.925 977.902 394.845V394.843ZM982.789 399.268C981.281 397.887 979.747 396.51 978.219 395.13C976.404 395.21 974.571 395.297 972.749 395.38C974.305 396.641 975.874 397.897 977.41 399.163C979.207 399.197 980.997 399.232 982.786 399.268H982.789ZM987.617 403.735C986.127 402.348 984.637 400.961 983.132 399.579C981.355 399.543 979.579 399.507 977.794 399.474C979.325 400.74 980.823 402.017 982.341 403.288C984.097 403.44 985.868 403.584 987.617 403.738V403.735ZM992.43 408.251C990.953 406.856 989.468 405.461 987.975 404.069C986.242 403.918 984.486 403.774 982.745 403.625C984.271 404.901 985.799 406.178 987.31 407.457C989.015 407.722 990.735 407.984 992.43 408.251ZM997.271 412.831C995.804 411.423 994.311 410.023 992.824 408.621C991.145 408.356 989.445 408.097 987.758 407.835C989.26 409.111 990.75 410.393 992.24 411.675C993.922 412.06 995.596 412.445 997.271 412.833V412.831ZM1001.98 417.408C1000.55 416.018 999.132 414.626 997.691 413.239C996.042 412.856 994.388 412.476 992.729 412.096C994.211 413.375 995.684 414.654 997.153 415.936C998.761 416.427 1000.38 416.912 1001.98 417.405V417.408ZM1006.79 422.083C1005.37 420.678 1003.91 419.278 1002.46 417.878C1000.89 417.392 999.296 416.912 997.714 416.427C999.178 417.703 1000.64 418.977 1002.09 420.259C1003.67 420.865 1005.23 421.474 1006.79 422.083ZM1011.43 426.727C1010.07 425.36 1008.72 423.991 1007.35 422.627C1005.81 422.026 1004.27 421.422 1002.72 420.824C1004.13 422.075 1005.52 423.328 1006.91 424.582C1008.43 425.293 1009.92 426.013 1011.43 426.727H1011.43ZM1016.1 431.419C1014.77 430.066 1013.42 428.717 1012.07 427.366C1010.61 426.673 1009.16 425.977 1007.7 425.286C1009.09 426.531 1010.49 427.777 1011.87 429.028C1013.29 429.822 1014.69 430.623 1016.1 431.419ZM1020.64 436.066C1019.39 434.784 1018.15 433.5 1016.9 432.221C1015.55 431.458 1014.22 430.695 1012.86 429.935C1014.11 431.091 1015.35 432.252 1016.61 433.41C1017.96 434.294 1019.29 435.18 1020.64 436.066H1020.64ZM1024.99 440.587C1023.86 439.413 1022.74 438.242 1021.61 437.07C1020.39 436.269 1019.19 435.465 1017.97 434.666C1019.16 435.768 1020.36 436.867 1021.54 437.972C1022.7 438.843 1023.84 439.713 1024.99 440.584L1024.99 440.587ZM1029.1 444.876C1028.2 443.923 1027.29 442.976 1026.37 442.025C1025.46 441.334 1024.56 440.638 1023.64 439.947C1024.52 440.774 1025.37 441.604 1026.24 442.434C1027.2 443.248 1028.15 444.059 1029.1 444.876H1029.1ZM1031.5 447.453C1031.36 447.306 1031.23 447.16 1031.09 447.016C1030.9 446.852 1030.72 446.69 1030.53 446.528C1030.85 446.839 1031.18 447.144 1031.5 447.455V447.453ZM820.206 418.045L817.016 419.583L819.978 418.438L823.198 417.038L820.206 418.045ZM826.795 414.87L822.41 416.981L826.483 415.612L830.876 413.706L826.795 414.87ZM833.374 411.7L828.4 414.094C829.931 413.658 831.457 413.224 832.988 412.787L837.949 410.634C836.426 410.989 834.903 411.343 833.374 411.7ZM839.964 408.531L834.631 411.097C836.254 410.719 837.878 410.339 839.501 409.961C841.264 409.196 843.031 408.428 844.792 407.665C843.184 407.955 841.577 408.241 839.966 408.531H839.964ZM846.546 405.366L840.985 408.04C842.659 407.74 844.329 407.442 846 407.141C847.846 406.34 849.689 405.543 851.535 404.745C849.874 404.95 848.212 405.158 846.546 405.366ZM853.127 402.204L847.406 404.953C849.116 404.74 850.823 404.526 852.528 404.316L858.196 401.863C856.509 401.976 854.825 402.089 853.13 402.204H853.127ZM859.691 399.055L853.865 401.85C855.593 401.732 857.305 401.619 859.023 401.503C860.956 400.668 862.889 399.828 864.819 398.994C863.111 399.012 861.399 399.032 859.689 399.053L859.691 399.055ZM866.278 395.896C864.299 396.844 862.318 397.794 860.336 398.744C862.069 398.724 863.808 398.703 865.538 398.683L871.424 396.14C869.714 396.055 867.996 395.975 866.278 395.896ZM872.852 392.747C870.853 393.702 868.856 394.66 866.857 395.618C868.592 395.701 870.325 395.783 872.053 395.868C874.043 395.01 876.027 394.152 878.016 393.296C876.303 393.109 874.572 392.932 872.852 392.747ZM879.447 389.59C877.424 390.558 875.399 391.529 873.374 392.498C875.107 392.683 876.859 392.865 878.584 393.052C880.578 392.192 882.575 391.331 884.567 390.471C882.859 390.178 881.164 389.88 879.447 389.59ZM886.013 386.451C883.983 387.422 881.953 388.393 879.92 389.364C881.648 389.657 883.358 389.955 885.076 390.253C887.088 389.384 889.108 388.511 891.118 387.646C889.418 387.247 887.718 386.849 886.013 386.451ZM892.587 383.31C890.544 384.286 888.496 385.264 886.451 386.243C888.166 386.641 889.879 387.042 891.586 387.443C893.619 386.567 895.644 385.699 897.677 384.823C895.987 384.317 894.284 383.813 892.585 383.31H892.587ZM899.166 380.171C897.111 381.152 895.055 382.133 892.997 383.115C894.702 383.621 896.417 384.127 898.114 384.635C900.152 383.757 902.19 382.883 904.225 382.008C902.548 381.391 900.851 380.782 899.166 380.171ZM905.743 377.035C903.68 378.018 901.616 379.002 899.553 379.989C901.245 380.605 902.953 381.214 904.635 381.835C906.677 380.957 908.72 380.076 910.761 379.2C909.099 378.476 907.415 377.757 905.743 377.037V377.035ZM912.32 373.901L906.109 376.86C907.786 377.584 909.478 378.304 911.147 379.031L917.289 376.393C915.643 375.558 913.976 374.731 912.32 373.898V373.901ZM918.896 370.77L912.67 373.734C914.332 374.569 916.006 375.399 917.657 376.236C919.713 375.355 921.761 374.476 923.814 373.595C922.183 372.65 920.537 371.71 918.896 370.77ZM925.473 367.641C923.394 368.63 921.313 369.619 919.232 370.611C920.875 371.556 922.529 372.499 924.165 373.446C926.221 372.565 928.276 371.682 930.332 370.803C928.719 369.748 927.099 368.695 925.473 367.641ZM932.052 364.515C929.968 365.504 927.884 366.496 925.798 367.487C927.426 368.543 929.052 369.599 930.67 370.657C932.725 369.776 934.789 368.89 936.842 368.011C935.247 366.845 933.655 365.679 932.052 364.518V364.515ZM938.634 361.392C936.548 362.381 934.459 363.375 932.37 364.366C933.977 365.533 935.575 366.701 937.172 367.87C939.241 366.986 941.296 366.111 943.36 365.227C941.78 363.95 940.219 362.666 938.631 361.392H938.634ZM0.626953 558.999C111.495 657.658 236.654 704.54 368.77 639.133C499.745 574.292 649.712 500.052 799.949 427.469C668.672 484.661 536.251 543.538 414.267 597.774C400.189 604.031 386.253 610.229 372.472 616.355C236.298 676.884 110.471 629.676 0.626953 532.874V532.491C110.436 629.332 236.226 676.586 372.349 616.08C386.13 609.954 400.066 603.759 414.144 597.499C538.299 542.298 673.262 482.293 806.832 424.145L810.107 422.566C664.097 479.02 514.547 538.319 376.041 593.307C235.888 648.948 109.424 601.36 0.626953 506.358V505.973C109.391 601.013 235.819 648.647 375.928 593.027C515.545 537.6 666.38 477.793 813.493 420.934L817.884 418.818C673.095 467.565 522.734 519.835 379.609 570.259C235.499 621.03 108.395 573.054 0.626953 479.837V479.449C108.365 572.71 235.435 620.732 379.507 569.974C523.389 519.283 674.585 466.727 820.08 417.76C821.742 416.958 823.406 416.157 825.067 415.358C681.702 456.306 530.749 501.437 383.178 547.211C235.136 593.133 107.384 544.758 0.626953 453.306V452.916C107.353 544.412 235.077 592.832 383.088 546.921C531.238 500.967 682.8 455.659 826.675 414.582C828.454 413.727 830.231 412.869 832.01 412.014C690.145 445.123 538.69 483.069 386.747 524.161C234.795 565.248 106.388 516.468 0.626953 426.763V426.37C106.36 516.121 234.741 564.947 386.665 523.863C539.085 482.642 691.01 444.589 833.264 411.405C835.12 410.511 836.976 409.617 838.835 408.726C698.511 433.978 546.603 464.713 390.315 501.105C234.48 537.389 105.41 488.193 0.626953 400.214V399.821C105.382 487.846 234.429 537.091 390.244 500.81C546.931 464.326 699.225 433.526 839.856 408.233L845.588 405.477C706.831 422.861 554.491 446.374 393.881 478.052C234.191 509.551 104.45 459.928 0.626953 373.654V373.261C104.425 459.584 234.145 509.25 393.822 477.757C554.782 446.009 707.44 422.463 846.448 405.066L852.295 402.258C715.115 411.767 562.368 428.044 397.45 455.004C233.93 481.733 103.508 431.676 0.626953 347.088V346.695C103.483 431.33 233.886 481.432 397.401 454.704C562.634 427.695 715.653 411.402 853.038 401.901L858.964 399.058C723.374 400.684 570.24 409.717 401.021 431.951C233.694 453.938 102.587 403.435 0.626953 320.513V320.117C102.558 403.088 233.654 453.638 400.98 431.651C570.483 409.378 723.85 400.352 859.609 398.747C861.616 397.784 863.623 396.821 865.628 395.86C731.637 389.6 578.101 391.391 404.587 408.901C233.485 426.164 101.68 375.206 0.626953 293.926V293.53C101.655 374.857 233.446 425.861 404.559 408.595C578.334 391.059 732.073 389.287 866.209 395.58C868.231 394.612 870.251 393.643 872.271 392.675C739.883 378.525 585.968 373.066 408.158 385.842C233.305 398.413 100.797 346.99 0.626953 267.33V266.935C100.769 346.641 233.269 398.113 408.135 385.544C586.183 372.748 740.277 378.237 872.791 392.428C874.834 391.45 876.879 390.471 878.922 389.492C748.144 367.449 593.825 354.747 411.727 362.794C233.154 370.688 99.9319 318.784 0.626953 240.725V240.329C99.9037 318.435 233.118 370.385 411.714 362.491C594.035 354.434 748.508 367.176 879.396 389.266C881.444 388.288 883.486 387.309 885.532 386.333C756.365 356.394 601.687 336.43 415.296 339.744C233.034 342.983 99.0845 290.591 0.626953 214.109V213.716C99.0589 290.242 232.998 342.682 415.291 339.441C601.889 336.125 756.708 356.132 885.97 386.122C888.028 385.139 890.086 384.152 892.144 383.171C764.592 345.336 609.543 318.114 418.867 316.691C232.944 315.304 98.2602 262.409 0.626953 187.483V187.09C98.2321 262.062 232.906 315.001 418.869 316.388C609.741 317.811 764.92 345.084 892.554 382.976C894.622 381.987 896.691 381.001 898.757 380.014C772.823 334.281 617.4 299.797 422.438 293.638C232.883 287.65 97.4589 234.244 0.626953 160.847V160.454C97.4282 233.892 232.847 287.347 422.446 293.335C617.595 299.499 773.133 334.037 899.141 379.829C901.214 378.84 903.288 377.849 905.362 376.863C781.045 323.225 625.254 281.481 426.007 270.585C232.855 260.023 96.6756 206.09 0.626953 134.2V133.81C96.6423 205.741 232.819 259.72 426.025 270.287C625.449 281.193 781.348 322.994 905.73 376.693C907.812 375.702 909.888 374.713 911.966 373.721C789.273 312.183 633.113 263.172 429.578 247.539C232.86 232.423 95.9127 177.949 0.626953 107.541V107.151C95.8794 177.597 232.822 232.118 429.601 247.234C633.303 262.882 789.563 311.949 912.317 373.552C914.401 372.56 916.485 371.566 918.569 370.577C797.499 301.133 640.97 244.858 433.149 224.484C232.898 204.849 95.1754 149.82 0.626953 80.8689V80.481C95.1396 149.468 232.857 204.541 433.177 224.181C641.157 244.57 797.775 300.907 918.901 370.415C920.99 369.421 923.077 368.427 925.163 367.436C805.716 290.085 648.824 226.544 436.718 201.428C232.96 177.301 94.4586 121.694 0.626953 54.1684V53.7934C94.4228 121.35 232.924 176.991 436.754 201.128C649.011 226.261 805.993 289.865 925.488 367.282C927.58 366.288 929.671 365.294 931.763 364.302C813.941 279.043 656.681 208.235 440.289 178.378C233.031 149.779 93.7649 93.5654 0.626953 27.432V27.0596C93.7265 93.2212 232.996 149.468 440.33 178.077C656.865 207.955 814.21 278.827 932.078 364.153C934.172 363.159 936.268 362.163 938.36 361.171C822.167 268.003 664.535 189.926 443.86 155.325C233.136 122.282 93.0941 65.4548 0.626953 0.685306V0.31543C93.0532 65.1106 233.098 121.971 443.906 155.024C664.722 189.646 822.433 267.788 938.67 361.022C998.512 332.632 1057.46 305.065 1114.3 279.043C1172.39 252.443 1228.26 227.463 1280.63 204.862V205.191C1228.3 227.777 1172.47 252.738 1114.42 279.318C1057.64 305.32 998.73 332.868 938.931 361.235C940.523 362.512 942.087 363.799 943.669 365.081C1063.81 313.719 1179.25 265.846 1280.63 226.58V226.901C1179.33 266.141 1063.98 313.973 943.936 365.294C945.528 366.581 947.133 367.862 948.7 369.157C1006.08 347.414 1062.12 326.508 1115.87 306.912C1173.86 285.765 1229.18 266.144 1280.63 248.631V248.95C1229.21 266.454 1173.93 286.063 1115.98 307.195C1062.28 326.775 1006.29 347.658 948.966 369.378C950.54 370.685 952.079 372.005 953.643 373.315C1009.81 354.865 1064.43 337.26 1116.66 320.844C1174.63 302.625 1229.66 285.876 1280.63 271.062V271.378C1229.69 286.184 1174.69 302.923 1116.75 321.135C1064.58 337.532 1010.02 355.12 953.917 373.547C955.492 374.867 957.068 376.185 958.625 377.51C1031.19 357.48 1100.68 338.925 1165.47 322.375C1205.81 312.067 1244.32 302.541 1280.63 293.91V294.221C1244.34 302.846 1205.86 312.368 1165.54 322.668C1100.82 339.205 1031.4 357.74 958.907 377.746C960.471 379.079 962.027 380.418 963.576 381.756C1012.67 370.88 1060.11 360.719 1105.45 351.349C1168.25 338.375 1227.02 326.924 1280.63 317.207V317.515C1227.04 327.23 1168.28 338.675 1105.51 351.647C1060.24 361.002 1012.87 371.15 963.86 382.005C965.417 383.353 966.958 384.707 968.501 386.058C991.908 382.203 1014.88 378.512 1037.38 374.995C1126.8 361.012 1208.71 349.705 1280.63 341.005V341.311C1208.73 350.008 1126.83 361.315 1037.42 375.293C1015.01 378.799 992.115 382.472 968.796 386.315C970.352 387.676 971.927 389.033 973.463 390.402C975.682 390.168 977.899 389.934 980.109 389.703C1093.29 377.857 1194.65 370.2 1280.63 365.358V365.661C1194.66 370.503 1093.31 378.157 980.139 390.004C978.02 390.224 975.892 390.45 973.765 390.674C975.301 392.048 976.806 393.43 978.329 394.809C1093.72 389.724 1195.34 389.207 1280.63 390.33V390.633C1195.42 389.513 1093.91 390.027 978.649 395.1C980.185 396.487 981.732 397.874 983.25 399.266C1098.23 401.593 1197.75 408.693 1280.63 415.99V416.293C1197.84 409.003 1098.43 401.909 983.593 399.577C985.108 400.969 986.603 402.369 988.103 403.766C1102.8 413.796 1200.2 428.825 1280.63 442.423V442.732C1200.28 429.149 1103.01 414.133 988.462 404.105C989.97 405.51 991.47 406.918 992.962 408.328C1107.49 426.393 1202.69 449.705 1280.63 469.738V470.051C1202.78 450.044 1107.71 426.757 993.357 408.7C994.857 410.118 996.357 411.533 997.839 412.956C1112.31 439.446 1205.22 471.451 1280.63 498.046V498.367C1205.32 471.805 1112.54 439.839 998.261 413.365C999.726 414.775 1001.17 416.19 1002.62 417.603C1117.25 452.975 1207.79 494.18 1280.63 527.49V527.824C1207.9 494.566 1117.51 453.422 1003.1 418.073C1004.58 419.504 1006.07 420.929 1007.52 422.363C1119.24 465.903 1205.55 515.279 1274.75 554.876L1280.63 558.238V558.588L1274.6 555.138C1205.54 515.623 1119.44 466.368 1008.05 422.897C1009.46 424.299 1010.84 425.707 1012.24 427.109C1120.52 478.538 1202.34 535.75 1267.78 581.52C1272.13 584.566 1276.41 587.559 1280.62 590.5V590.87C1276.35 587.89 1272.02 584.857 1267.6 581.769C1202.33 536.118 1120.76 479.077 1012.88 427.751C1014.28 429.159 1015.69 430.564 1017.08 431.974C1122.38 491.445 1199.95 556.687 1261.76 608.683C1268.22 614.115 1274.5 619.399 1280.62 624.521V624.916C1274.43 619.743 1268.09 614.403 1261.56 608.914C1199.95 557.085 1122.67 492.092 1017.88 432.778C1019.19 434.129 1020.49 435.483 1021.8 436.837C1124.47 504.545 1197.99 578.055 1256.29 636.364C1264.71 644.779 1272.8 652.875 1280.62 660.594V661.02C1272.73 653.237 1264.57 645.069 1256.08 636.578C1198.01 578.497 1124.83 505.328 1022.76 437.841C1024.04 439.159 1025.32 440.479 1026.58 441.802C1126.79 517.919 1196.3 599.88 1251.12 664.547C1261.44 676.722 1271.24 688.278 1280.62 699.071V699.534C1271.17 688.663 1261.29 677.017 1250.88 664.742C1196.36 600.427 1127.31 519.003 1027.96 443.24C1029.08 444.424 1030.19 445.611 1031.3 446.795C1129.2 531.51 1194.7 622.122 1246.07 693.212C1258.31 710.147 1269.74 725.97 1280.62 740.343V740.847C1269.67 726.386 1258.15 710.45 1245.82 693.39C1194.84 622.849 1129.95 533.082 1033.29 448.935C1034.17 449.877 1035.05 450.823 1035.93 451.765C1131.6 545.272 1193.09 644.756 1241.03 722.332C1246.79 731.662 1252.36 740.672 1257.77 749.318H1257.41C1252.03 740.721 1246.5 731.762 1240.77 722.492C1193.62 646.182 1133.35 548.675 1040.32 456.517C1132.99 558.028 1190.24 665.505 1234.57 749.321H1234.23C1189.22 664.234 1130.88 554.791 1035.7 451.971C1032.51 448.858 1029.28 445.752 1026.02 442.654C1022.93 440.011 1019.82 437.371 1016.66 434.743C1013.14 432.141 1009.59 429.549 1006.01 426.963C1002.72 424.88 999.403 422.802 996.06 420.732C992.553 418.844 989.022 416.963 985.456 415.091C981.936 413.516 978.375 411.952 974.807 410.388C971.172 409.07 967.521 407.758 963.835 406.455C960.215 405.433 956.564 404.418 952.898 403.409C949.153 402.631 945.377 401.863 941.591 401.1C937.766 400.581 933.916 400.067 930.053 399.559C926.241 399.299 922.396 399.05 918.548 398.801C914.649 398.788 910.72 398.786 906.788 398.783C902.827 399.014 898.841 399.253 894.85 399.497C890.859 399.967 886.855 400.442 882.839 400.923C878.773 401.634 874.7 402.348 870.615 403.067C866.48 404.018 862.336 404.973 858.183 405.934C854.003 407.118 849.815 408.307 845.621 409.499C841.385 410.92 837.143 412.343 832.896 413.768C828.623 415.415 824.348 417.064 820.07 418.718C815.71 420.613 811.348 422.512 806.986 424.412C654.448 498.051 501.888 573.573 368.906 639.408C236.736 704.843 111.534 658.005 0.626953 559.384V559.001L0.626953 558.999Z" fill="white"/>
</mask>
<g mask="url(#mask0_191_19847)">
<path d="M1280.63 0.31543H0.626953V749.315H1280.63V0.31543Z" fill="url(#paint0_linear_191_19847)"/>
</g>
</g>
<defs>
<linearGradient id="paint0_linear_191_19847" x1="24.033" y1="374.815" x2="1280.63" y2="374.815" gradientUnits="userSpaceOnUse">
<stop stop-color="#79747E"/>
<stop offset="0.32" stop-color="#CDD1D0"/>
<stop offset="0.68" stop-color="#C4C4C4"/>
<stop offset="1" stop-color="#938F99"/>
</linearGradient>
<clipPath id="clip0_191_19847">
<rect width="1280" height="749" fill="white" transform="translate(0.626953 0.31543)"/>
</clipPath>
</defs>
</svg>
