<svg width="1041" height="443" viewBox="0 0 1041 443" fill="none" xmlns="http://www.w3.org/2000/svg">
<mask id="mask0_328_29813" style="mask-type:alpha" maskUnits="userSpaceOnUse" x="0" y="0" width="1041" height="443">
<rect x="0.296875" y="0.428711" width="1040" height="442.323" rx="24" fill="#FF914D"/>
</mask>
<g mask="url(#mask0_328_29813)">
<g opacity="0.45">
<mask id="mask1_328_29813" style="mask-type:luminance" maskUnits="userSpaceOnUse" x="-29" y="-161" width="1099" height="802">
<path d="M687.936 279.864L685.337 280.786L682.555 282.29L685.095 281.228L687.936 279.864ZM694.399 276.763L690.913 277.773L687.15 279.809C688.309 279.397 689.471 278.986 690.63 278.574L694.401 276.763H694.399ZM698.88 275.468L696.224 276.236L693.396 277.592L696.008 276.667L698.88 275.468ZM701.699 274.653L701.55 274.697L701.396 274.763L701.701 274.656L701.699 274.653ZM700.397 273.89C699.095 274.178 697.789 274.472 696.485 274.763C695.071 275.526 693.655 276.291 692.241 277.057C693.545 276.678 694.847 276.302 696.149 275.926L700.397 273.89ZM705.249 272.814L701.745 273.591L697.973 275.399C699.141 275.062 700.311 274.724 701.477 274.387L705.249 272.814ZM709.712 271.827L707.003 272.425L704.14 273.618L706.812 272.85L709.712 271.827ZM712.518 271.209L712.25 271.267L711.978 271.363L712.518 271.209ZM706.191 271.116C704.821 271.327 703.448 271.538 702.074 271.75C700.557 272.567 699.042 273.382 697.525 274.203C698.909 273.893 700.292 273.586 701.672 273.278L706.191 271.116ZM711.159 270.353C709.861 270.551 708.559 270.751 707.26 270.951L703.023 272.979C704.329 272.688 705.633 272.4 706.935 272.112L711.159 270.353ZM715.964 269.623L712.454 270.155L708.687 271.725C709.857 271.467 711.025 271.209 712.193 270.951L715.967 269.623H715.964ZM720.377 268.956C719.466 269.094 718.557 269.231 717.646 269.368L714.742 270.389C715.65 270.188 716.559 269.988 717.466 269.788L720.377 268.954V268.956ZM723.233 268.528L722.825 268.589L722.401 268.709L723.235 268.525L723.233 268.528ZM711.879 268.396C710.469 268.514 709.055 268.633 707.644 268.75L702.926 271.294C704.351 271.075 705.773 270.855 707.196 270.638L711.879 268.399V268.396ZM716.871 267.979C715.508 268.092 714.131 268.21 712.759 268.322L708.265 270.471C709.644 270.26 711.02 270.048 712.395 269.84L716.871 267.977V267.979ZM721.771 267.584C720.48 267.689 719.194 267.79 717.898 267.894L713.688 269.645C714.992 269.447 716.294 269.25 717.596 269.052L721.771 267.584ZM726.502 267.211L723.003 267.488C721.76 267.924 720.515 268.364 719.271 268.803L722.777 268.276C724.019 267.919 725.26 267.568 726.5 267.214L726.502 267.211ZM730.878 266.865C729.958 266.937 729.036 267.011 728.111 267.085L725.235 267.905C726.153 267.768 727.066 267.634 727.982 267.496L730.875 266.868L730.878 266.865ZM733.76 266.638L733.244 266.679L732.737 266.788L733.76 266.638ZM717.543 265.691C716.107 265.707 714.669 265.724 713.227 265.743C711.604 266.616 709.98 267.494 708.357 268.369C709.806 268.248 711.257 268.125 712.702 268.004L717.543 265.691ZM722.491 265.644C721.088 265.658 719.688 265.669 718.283 265.683C716.715 266.432 715.148 267.181 713.58 267.93C715.005 267.809 716.432 267.689 717.848 267.573L722.491 265.644ZM727.42 265.6C726.061 265.611 724.695 265.625 723.332 265.639L718.875 267.491C720.241 267.381 721.595 267.277 722.959 267.167C724.447 266.643 725.934 266.124 727.42 265.6ZM732.256 265.57C730.972 265.578 729.692 265.584 728.403 265.592C726.998 266.086 725.598 266.577 724.193 267.068C725.488 266.967 726.781 266.863 728.072 266.761C729.468 266.363 730.862 265.965 732.256 265.567V265.57ZM736.935 265.551L733.442 265.565L729.681 266.635C730.86 266.542 732.041 266.445 733.213 266.355C734.456 266.086 735.694 265.817 736.935 265.551ZM741.27 265.534C740.344 265.534 739.411 265.543 738.48 265.545L735.578 266.174C736.485 266.105 737.385 266.039 738.291 265.971C739.286 265.825 740.278 265.677 741.27 265.534ZM744.271 265.526C744.039 265.526 743.808 265.526 743.573 265.526L742.833 265.633L744.274 265.526H744.271ZM723.145 263.015C721.696 262.925 720.252 262.832 718.801 262.741L713.839 265.411C715.308 265.392 716.768 265.378 718.23 265.362C719.868 264.579 721.508 263.795 723.143 263.013L723.145 263.015ZM728.081 263.325C726.656 263.232 725.22 263.144 723.786 263.057L718.972 265.356C720.412 265.342 721.848 265.329 723.286 265.318L728.081 263.328V263.325ZM732.968 263.655C731.576 263.561 730.19 263.463 728.796 263.369C727.242 264.014 725.683 264.662 724.129 265.307C725.543 265.293 726.961 265.276 728.366 265.268C729.901 264.73 731.437 264.19 732.968 263.655ZM737.815 263.99C736.467 263.896 735.119 263.8 733.769 263.71C732.298 264.225 730.823 264.744 729.35 265.26C730.706 265.252 732.052 265.249 733.409 265.241C734.88 264.824 736.348 264.404 737.815 263.99ZM742.623 264.322C741.341 264.228 740.045 264.143 738.755 264.053L734.594 265.235C735.883 265.23 737.169 265.224 738.456 265.219C739.846 264.92 741.235 264.618 742.623 264.319V264.322ZM747.218 264.667C746.061 264.582 744.908 264.492 743.753 264.407L740.002 265.213C741.189 265.208 742.377 265.202 743.554 265.2C744.774 265.021 745.997 264.843 747.218 264.667ZM751.496 264.991C750.566 264.92 749.633 264.848 748.7 264.78C747.727 264.92 746.752 265.062 745.78 265.202C746.697 265.202 747.617 265.205 748.539 265.205C749.525 265.134 750.515 265.06 751.499 264.988L751.496 264.991ZM754.454 265.213C754.212 265.194 753.969 265.178 753.725 265.158L752.965 265.211C753.459 265.211 753.958 265.211 754.451 265.211L754.454 265.213ZM728.741 260.343C727.29 260.142 725.848 259.934 724.395 259.733C722.711 260.639 721.029 261.542 719.343 262.447C720.812 262.538 722.278 262.631 723.747 262.724L728.741 260.343ZM733.617 261.029C732.182 260.826 730.744 260.623 729.303 260.422C727.666 261.204 726.028 261.984 724.388 262.766C725.848 262.856 727.312 262.944 728.761 263.04C730.384 262.368 731.999 261.698 733.62 261.026L733.617 261.029ZM738.487 261.723C737.075 261.517 735.655 261.317 734.234 261.116C732.647 261.772 731.064 262.428 729.475 263.087C730.902 263.183 732.318 263.284 733.74 263.383C735.325 262.829 736.904 262.274 738.487 261.723ZM743.297 262.436C741.918 262.233 740.544 262.027 739.163 261.824C737.624 262.362 736.085 262.9 734.544 263.441C735.942 263.537 737.343 263.633 738.737 263.732C740.261 263.301 741.78 262.87 743.299 262.439L743.297 262.436ZM748.098 263.147C746.761 262.947 745.413 262.746 744.067 262.549C742.603 262.963 741.141 263.378 739.674 263.792C741.033 263.888 742.392 263.981 743.742 264.08C745.196 263.767 746.649 263.454 748.098 263.144V263.147ZM752.803 263.866C751.536 263.671 750.274 263.474 749.003 263.282C747.628 263.575 746.25 263.872 744.873 264.168C746.149 264.264 747.422 264.36 748.697 264.456C750.067 264.258 751.435 264.061 752.803 263.866ZM757.393 264.582C756.228 264.398 755.06 264.217 753.889 264.036C752.656 264.212 751.417 264.39 750.181 264.569C751.367 264.656 752.552 264.744 753.731 264.837C754.956 264.75 756.173 264.667 757.393 264.582ZM761.674 265.249C760.73 265.098 759.78 264.953 758.829 264.805C757.867 264.87 756.908 264.939 755.944 265.005C756.853 265.076 757.751 265.153 758.658 265.227C759.668 265.233 760.667 265.241 761.676 265.246L761.674 265.249ZM764.508 265.707C764.258 265.666 764.01 265.625 763.762 265.587L762.954 265.581C763.472 265.625 763.993 265.666 764.508 265.707ZM734.322 257.684C732.873 257.368 731.411 257.058 729.955 256.748C728.265 257.656 726.572 258.567 724.88 259.476C726.351 259.679 727.806 259.887 729.273 260.093C730.957 259.289 732.64 258.485 734.324 257.684H734.322ZM739.145 258.74C737.71 258.422 736.269 258.106 734.825 257.791C733.163 258.581 731.499 259.377 729.835 260.17C731.295 260.373 732.755 260.579 734.208 260.784C735.854 260.104 737.503 259.418 739.145 258.74ZM743.947 259.813C742.526 259.495 741.106 259.176 739.681 258.858C738.063 259.528 736.443 260.2 734.825 260.87C736.269 261.075 737.71 261.281 739.145 261.49C740.746 260.93 742.348 260.37 743.947 259.81V259.813ZM748.757 260.889C747.358 260.57 745.94 260.258 744.531 259.942C742.963 260.491 741.389 261.042 739.819 261.591C741.235 261.8 742.643 262.008 744.056 262.22C745.624 261.775 747.194 261.331 748.757 260.889ZM753.494 261.992C752.129 261.674 750.772 261.355 749.404 261.04C747.881 261.47 746.353 261.904 744.827 262.335C746.219 262.541 747.615 262.744 748.998 262.952C750.5 262.631 751.995 262.313 753.494 261.992ZM758.217 263.092C756.893 262.779 755.56 262.472 754.228 262.162C752.785 262.469 751.345 262.777 749.9 263.087C751.235 263.293 752.559 263.504 753.892 263.71C755.334 263.504 756.774 263.298 758.214 263.095L758.217 263.092ZM762.882 264.195C761.619 263.893 760.353 263.592 759.084 263.293C757.716 263.487 756.35 263.679 754.981 263.877C756.269 264.077 757.558 264.275 758.84 264.478C760.186 264.385 761.54 264.289 762.882 264.195ZM767.373 265.282C766.223 265.002 765.073 264.725 763.92 264.445C762.71 264.527 761.49 264.615 760.276 264.7C761.448 264.884 762.616 265.071 763.782 265.26C764.978 265.266 766.177 265.274 767.371 265.282H767.373ZM771.586 266.303C770.645 266.072 769.694 265.845 768.746 265.614C767.782 265.606 766.811 265.603 765.845 265.595C766.739 265.74 767.633 265.886 768.526 266.034C769.551 266.122 770.563 266.215 771.584 266.303H771.586ZM774.344 266.983C774.111 266.926 773.883 266.865 773.65 266.81L772.842 266.739C773.343 266.821 773.845 266.901 774.344 266.983ZM739.896 255.027C738.449 254.597 736.992 254.171 735.532 253.746C733.822 254.662 732.105 255.587 730.392 256.509C731.863 256.825 733.339 257.135 734.798 257.453C736.5 256.644 738.197 255.837 739.894 255.027H739.896ZM744.645 256.463C743.209 256.029 741.78 255.593 740.34 255.162C738.66 255.96 736.981 256.759 735.299 257.56C736.757 257.878 738.208 258.2 739.659 258.521C741.323 257.832 742.981 257.149 744.643 256.46L744.645 256.463ZM749.413 257.903C747.99 257.467 746.555 257.036 745.123 256.605C743.481 257.283 741.843 257.961 740.199 258.641C741.641 258.962 743.084 259.286 744.522 259.61C746.155 259.039 747.784 258.474 749.415 257.903H749.413ZM754.14 259.368C752.737 258.932 751.338 258.493 749.929 258.06C748.322 258.619 746.717 259.179 745.106 259.742C746.539 260.063 747.977 260.381 749.4 260.705C750.983 260.258 752.561 259.813 754.14 259.368ZM758.853 260.845C757.47 260.409 756.087 259.975 754.697 259.541C753.147 259.978 751.597 260.414 750.043 260.853C751.444 261.177 752.833 261.503 754.232 261.83C755.773 261.501 757.314 261.171 758.853 260.845ZM763.562 262.329C762.208 261.896 760.84 261.468 759.477 261.04C757.975 261.358 756.471 261.679 754.967 262C756.346 262.321 757.727 262.639 759.097 262.963C760.588 262.752 762.078 262.541 763.565 262.329H763.562ZM768.188 263.83C766.877 263.405 765.573 262.98 764.26 262.557C762.829 262.757 761.395 262.96 759.962 263.166C761.292 263.482 762.614 263.8 763.94 264.118C765.358 264.022 766.774 263.926 768.188 263.833V263.83ZM772.787 265.323C771.538 264.911 770.278 264.508 769.02 264.102C767.672 264.193 766.331 264.278 764.98 264.371C766.247 264.676 767.514 264.983 768.776 265.29C770.115 265.301 771.455 265.312 772.789 265.326L772.787 265.323ZM777.226 266.797C776.089 266.418 774.961 266.037 773.819 265.661C772.594 265.647 771.376 265.633 770.146 265.622C771.33 265.91 772.511 266.196 773.685 266.487C774.866 266.591 776.05 266.692 777.226 266.799V266.797ZM781.332 268.174C780.403 267.861 779.47 267.549 778.539 267.238C777.589 267.153 776.629 267.071 775.674 266.986C776.596 267.219 777.521 267.45 778.443 267.683C779.409 267.848 780.368 268.012 781.329 268.177L781.332 268.174ZM784.093 269.102C783.837 269.014 783.578 268.929 783.318 268.841C783.048 268.794 782.776 268.75 782.508 268.704C783.037 268.836 783.569 268.967 784.096 269.102H784.093ZM745.437 252.388C743.999 251.842 742.564 251.293 741.117 250.752C739.387 251.68 737.663 252.602 735.931 253.532C737.4 253.96 738.864 254.391 740.322 254.824C742.028 254.012 743.734 253.2 745.437 252.39V252.388ZM750.138 254.19C748.706 253.642 747.277 253.09 745.841 252.541L740.766 254.956C742.219 255.392 743.659 255.831 745.106 256.268C746.783 255.573 748.462 254.882 750.135 254.19H750.138ZM754.853 256.004C753.433 255.45 751.997 254.904 750.566 254.355C748.908 255.038 747.246 255.727 745.584 256.413C747.033 256.849 748.484 257.283 749.922 257.725C751.567 257.151 753.213 256.575 754.853 256.004ZM759.512 257.854C758.107 257.299 756.713 256.737 755.303 256.183C753.685 256.745 752.059 257.313 750.438 257.878C751.865 258.318 753.277 258.765 754.7 259.209C756.304 258.757 757.911 258.304 759.512 257.854ZM764.192 259.712C762.803 259.154 761.402 258.6 760.001 258.049C758.423 258.493 756.84 258.938 755.257 259.385C756.671 259.824 758.08 260.269 759.488 260.71C761.057 260.376 762.625 260.044 764.192 259.712ZM768.829 261.588C767.463 261.034 766.102 260.477 764.73 259.926C763.193 260.252 761.652 260.579 760.111 260.905C761.505 261.344 762.897 261.786 764.28 262.228C765.797 262.014 767.314 261.8 768.829 261.588ZM773.455 263.485C772.113 262.933 770.77 262.381 769.422 261.83C767.944 262.036 766.462 262.244 764.983 262.453C766.342 262.892 767.694 263.334 769.049 263.773C770.522 263.674 771.988 263.581 773.455 263.485ZM778.063 265.384C776.763 264.84 775.448 264.302 774.137 263.764C772.719 263.858 771.303 263.948 769.881 264.044C771.209 264.475 772.541 264.903 773.861 265.337C775.266 265.351 776.664 265.37 778.065 265.386L778.063 265.384ZM782.515 267.269C781.292 266.753 780.074 266.231 778.849 265.716C777.525 265.699 776.203 265.683 774.875 265.669C776.115 266.08 777.345 266.5 778.583 266.912C779.894 267.03 781.206 267.148 782.513 267.266L782.515 267.269ZM786.899 269.126C785.773 268.643 784.636 268.166 783.501 267.689C782.3 267.576 781.103 267.466 779.898 267.356C781.059 267.743 782.221 268.133 783.373 268.523C784.546 268.723 785.729 268.923 786.899 269.126ZM790.987 270.888C790.067 270.49 789.156 270.09 788.234 269.692C787.277 269.524 786.322 269.354 785.36 269.187C786.298 269.505 787.224 269.829 788.157 270.15C789.103 270.394 790.045 270.641 790.987 270.885V270.888ZM793.687 272.068L792.866 271.709L792.006 271.486C792.565 271.681 793.127 271.873 793.687 272.068ZM750.983 249.753C749.554 249.089 748.135 248.42 746.7 247.761C744.963 248.691 743.229 249.622 741.49 250.552C742.945 251.098 744.386 251.649 745.832 252.201L750.983 249.753ZM755.628 251.927C754.206 251.257 752.781 250.59 751.352 249.923L746.239 252.355C747.685 252.906 749.125 253.461 750.566 254.015L755.628 251.927ZM760.276 254.122C758.864 253.447 757.439 252.777 756.015 252.11C754.342 252.799 752.669 253.491 750.994 254.182C752.436 254.737 753.881 255.288 755.312 255.848C756.97 255.272 758.623 254.698 760.276 254.122ZM764.88 256.35C763.479 255.672 762.087 254.992 760.68 254.317C759.04 254.885 757.404 255.453 755.762 256.026C757.187 256.586 758.596 257.151 760.015 257.714C761.639 257.256 763.259 256.803 764.88 256.35ZM769.51 258.592C768.122 257.911 766.715 257.236 765.314 256.561C763.712 257.011 762.111 257.459 760.506 257.909C761.924 258.471 763.345 259.028 764.752 259.594C766.342 259.259 767.924 258.924 769.51 258.589V258.592ZM774.083 260.861C772.713 260.181 771.356 259.497 769.982 258.82C768.418 259.149 766.858 259.478 765.29 259.81C766.684 260.373 768.063 260.941 769.45 261.506C770.998 261.289 772.539 261.075 774.083 260.861ZM778.66 263.15C777.31 262.469 775.951 261.792 774.592 261.116C773.077 261.328 771.562 261.536 770.043 261.75C771.424 262.313 772.8 262.878 774.172 263.443C775.668 263.347 777.169 263.246 778.66 263.15ZM783.213 265.449C781.891 264.777 780.565 264.105 779.235 263.438C777.782 263.531 776.313 263.63 774.855 263.723C776.205 264.28 777.556 264.837 778.895 265.4C780.333 265.416 781.78 265.43 783.213 265.449ZM787.698 267.763C786.418 267.101 785.141 266.44 783.854 265.781C782.469 265.762 781.068 265.748 779.679 265.732C780.974 266.278 782.262 266.824 783.553 267.373C784.941 267.499 786.317 267.631 787.698 267.763ZM792.179 270.073C790.952 269.431 789.709 268.797 788.469 268.16C787.16 268.037 785.852 267.914 784.539 267.79C785.793 268.32 787.051 268.846 788.293 269.379C789.593 269.609 790.882 269.84 792.177 270.07L792.179 270.073ZM796.39 272.301C795.301 271.725 794.221 271.146 793.13 270.57C791.948 270.358 790.77 270.147 789.586 269.939C790.706 270.424 791.817 270.916 792.936 271.401C794.085 271.703 795.246 271.999 796.39 272.301ZM800.412 274.439C799.496 273.951 798.576 273.462 797.656 272.976C796.71 272.727 795.764 272.474 794.816 272.224C795.727 272.622 796.642 273.017 797.549 273.418C798.51 273.756 799.454 274.101 800.414 274.442L800.412 274.439ZM803.299 275.973C802.987 275.805 802.669 275.638 802.352 275.471L801.518 275.172C802.113 275.438 802.704 275.707 803.299 275.973ZM756.526 247.127C755.11 246.345 753.703 245.558 752.276 244.778C750.537 245.709 748.792 246.644 747.051 247.577C748.493 248.241 749.918 248.914 751.354 249.583L756.526 247.127ZM761.11 249.674C759.698 248.886 758.285 248.099 756.864 247.314L751.723 249.756C753.161 250.426 754.596 251.098 756.026 251.77C757.72 251.07 759.417 250.371 761.11 249.674ZM765.694 252.245C764.291 251.449 762.877 250.659 761.461 249.869L756.412 251.949C757.846 252.624 759.277 253.299 760.697 253.979C762.364 253.4 764.03 252.821 765.692 252.245H765.694ZM770.236 254.855C768.842 254.056 767.457 253.252 766.058 252.456C764.41 253.027 762.754 253.603 761.103 254.177C762.522 254.857 763.927 255.543 765.341 256.227C766.976 255.768 768.607 255.31 770.238 254.855H770.236ZM774.807 257.481C773.424 256.677 772.021 255.878 770.625 255.08C769.009 255.532 767.391 255.985 765.773 256.438C767.189 257.121 768.612 257.802 770.014 258.49C771.613 258.153 773.213 257.815 774.807 257.481ZM779.321 260.142C777.953 259.336 776.601 258.526 775.226 257.722C773.65 258.051 772.069 258.386 770.486 258.718C771.878 259.404 773.248 260.098 774.634 260.79C776.199 260.573 777.76 260.359 779.321 260.142ZM783.845 262.826C782.493 262.017 781.13 261.213 779.766 260.406C778.227 260.617 776.688 260.828 775.145 261.042C776.528 261.731 777.911 262.42 779.283 263.111C780.807 263.015 782.326 262.919 783.845 262.823V262.826ZM788.352 265.532C787.02 264.725 785.683 263.924 784.341 263.12C782.849 263.213 781.358 263.304 779.859 263.4C781.217 264.086 782.568 264.772 783.916 265.46C785.402 265.482 786.873 265.507 788.352 265.532ZM792.785 268.243C791.49 267.45 790.197 266.654 788.897 265.864C787.448 265.842 786.012 265.812 784.559 265.792C785.889 266.476 787.215 267.159 788.539 267.845C789.953 267.979 791.378 268.108 792.785 268.246V268.243ZM797.257 270.979C795.988 270.191 794.697 269.409 793.413 268.627C792.054 268.495 790.675 268.372 789.31 268.24C790.612 268.912 791.918 269.582 793.209 270.257C794.557 270.498 795.913 270.734 797.257 270.979ZM801.573 273.698C800.374 272.946 799.187 272.189 797.986 271.437C796.71 271.206 795.417 270.981 794.135 270.751C795.34 271.39 796.539 272.03 797.742 272.669C799.024 273.009 800.295 273.355 801.573 273.701V273.698ZM805.803 276.365C804.706 275.668 803.597 274.971 802.493 274.277C801.334 273.964 800.175 273.651 799.011 273.339C800.159 273.948 801.31 274.554 802.449 275.163C803.569 275.561 804.69 275.962 805.806 276.363L805.803 276.365ZM809.689 278.846C808.807 278.278 807.926 277.71 807.039 277.145C806.139 276.818 805.226 276.497 804.324 276.173C805.217 276.659 806.098 277.147 806.991 277.63C807.889 278.036 808.796 278.437 809.689 278.843V278.846ZM812.253 280.512L811.476 280.007C811.162 279.864 810.855 279.719 810.539 279.573C811.11 279.886 811.685 280.196 812.253 280.512ZM762.065 244.501C760.66 243.601 759.264 242.696 757.85 241.798L752.607 244.603C754.039 245.385 755.448 246.178 756.873 246.965L762.065 244.501ZM766.581 247.424C765.182 246.515 763.782 245.607 762.372 244.701L757.207 247.152C758.634 247.939 760.058 248.733 761.474 249.526L766.579 247.426L766.581 247.424ZM771.108 250.373C769.716 249.457 768.309 248.546 766.904 247.632L761.83 249.72C763.253 250.516 764.671 251.312 766.083 252.113C767.76 251.531 769.433 250.952 771.108 250.373ZM775.582 253.367C774.199 252.445 772.827 251.515 771.437 250.596C769.775 251.172 768.113 251.745 766.445 252.324C767.854 253.128 769.25 253.938 770.653 254.742C772.298 254.284 773.94 253.823 775.58 253.367H775.582ZM780.087 256.38C778.713 255.45 777.318 254.525 775.931 253.6C774.304 254.053 772.675 254.509 771.044 254.964C772.454 255.771 773.87 256.575 775.264 257.39C776.875 257.053 778.482 256.715 780.087 256.38ZM784.539 259.432C783.178 258.499 781.828 257.56 780.46 256.63C778.868 256.962 777.277 257.297 775.681 257.632C777.068 258.444 778.432 259.267 779.812 260.082C781.391 259.865 782.967 259.648 784.541 259.434L784.539 259.432ZM789.004 262.516C787.652 261.577 786.293 260.639 784.932 259.703C783.375 259.915 781.817 260.129 780.256 260.343C781.639 261.158 783.02 261.975 784.392 262.796C785.933 262.7 787.468 262.609 789.004 262.513V262.516ZM793.455 265.622C792.122 264.684 790.778 263.748 789.435 262.815C787.92 262.908 786.407 262.999 784.888 263.092C786.251 263.907 787.606 264.728 788.958 265.548C790.46 265.573 791.959 265.598 793.457 265.622H793.455ZM797.845 268.75C796.537 267.818 795.235 266.884 793.92 265.954C792.451 265.927 790.976 265.902 789.501 265.88C790.831 266.69 792.157 267.502 793.481 268.314C794.945 268.457 796.388 268.605 797.845 268.75ZM802.276 271.906C800.989 270.976 799.678 270.054 798.377 269.129C796.954 268.986 795.544 268.841 794.117 268.704C795.437 269.511 796.761 270.317 798.067 271.13C799.479 271.385 800.87 271.648 802.276 271.906ZM806.556 275.043C805.329 274.145 804.115 273.243 802.886 272.345C801.523 272.093 800.17 271.838 798.8 271.588C800.067 272.381 801.321 273.179 802.583 273.972C803.907 274.329 805.239 274.683 806.556 275.043ZM810.855 278.201C809.667 277.32 808.466 276.442 807.268 275.567C806.021 275.226 804.752 274.892 803.498 274.551C804.715 275.314 805.933 276.077 807.136 276.845C808.381 277.296 809.615 277.748 810.855 278.201ZM815.011 281.299C813.935 280.492 812.862 279.683 811.777 278.879C810.638 278.462 809.509 278.039 808.365 277.625C809.446 278.322 810.513 279.022 811.591 279.719C812.739 280.243 813.869 280.775 815.011 281.302V281.299ZM818.796 284.164C817.929 283.505 817.057 282.847 816.188 282.191C815.274 281.768 814.363 281.346 813.446 280.923C814.344 281.505 815.246 282.087 816.137 282.671C817.028 283.168 817.909 283.667 818.796 284.167V284.164ZM821.437 286.162C821.171 285.959 820.901 285.755 820.633 285.552L819.953 285.171C820.451 285.5 820.941 285.832 821.439 286.164L821.437 286.162ZM767.6 241.878C766.21 240.857 764.822 239.836 763.422 238.821C761.668 239.757 759.92 240.69 758.164 241.628C759.582 242.528 760.981 243.439 762.392 244.345C764.129 243.522 765.865 242.698 767.6 241.878ZM772.047 245.176C770.662 244.147 769.279 243.115 767.885 242.089L762.702 244.545C764.115 245.453 765.523 246.367 766.93 247.281C768.638 246.578 770.344 245.879 772.05 245.176H772.047ZM776.517 248.499C775.138 247.459 773.738 246.43 772.344 245.396L767.25 247.489C768.662 248.406 770.074 249.322 771.472 250.247C773.154 249.665 774.838 249.081 776.517 248.499ZM780.921 251.877C779.551 250.829 778.197 249.775 776.818 248.73C775.149 249.306 773.474 249.888 771.802 250.467C773.2 251.394 774.581 252.327 775.971 253.255C777.624 252.794 779.272 252.335 780.921 251.877ZM785.358 255.28C783.995 254.223 782.616 253.172 781.239 252.121C779.602 252.577 777.964 253.032 776.322 253.491C777.72 254.424 779.125 255.354 780.508 256.29C782.126 255.952 783.742 255.615 785.356 255.28H785.358ZM789.755 258.721C788.403 257.659 787.057 256.594 785.696 255.538C784.093 255.87 782.491 256.205 780.884 256.539C782.265 257.478 783.621 258.427 784.994 259.368C786.583 259.152 788.172 258.935 789.755 258.721ZM794.146 262.2C792.805 261.13 791.459 260.063 790.107 258.998C788.537 259.209 786.963 259.423 785.386 259.64C786.763 260.587 788.137 261.534 789.503 262.483C791.048 262.39 792.603 262.291 794.144 262.2H794.146ZM798.541 265.707C797.213 264.634 795.867 263.57 794.526 262.502C793.002 262.593 791.465 262.689 789.935 262.782C791.294 263.729 792.649 264.678 793.999 265.63C795.512 265.658 797.035 265.68 798.541 265.71V265.707ZM802.87 269.25C801.562 268.18 800.262 267.107 798.947 266.039C797.459 266.009 795.957 265.987 794.462 265.96C795.801 266.906 797.13 267.859 798.46 268.811C799.931 268.956 801.404 269.104 802.868 269.253L802.87 269.25ZM807.237 272.823C805.944 271.75 804.629 270.685 803.323 269.618C801.885 269.472 800.436 269.329 798.991 269.184C800.324 270.131 801.661 271.077 802.978 272.032C804.398 272.296 805.821 272.556 807.235 272.823H807.237ZM811.507 276.406C810.253 275.353 809.013 274.296 807.753 273.245C806.365 272.985 804.969 272.729 803.575 272.471C804.846 273.399 806.104 274.332 807.371 275.259C808.758 275.638 810.128 276.025 811.507 276.406ZM815.773 280.007C814.554 278.969 813.325 277.935 812.095 276.9C810.761 276.53 809.437 276.157 808.095 275.789C809.364 276.716 810.635 277.644 811.891 278.577C813.189 279.052 814.484 279.529 815.775 280.007H815.773ZM819.955 283.582C818.802 282.589 817.648 281.595 816.484 280.605C815.266 280.152 814.038 279.705 812.813 279.255C813.988 280.133 815.143 281.016 816.311 281.895C817.525 282.457 818.747 283.017 819.955 283.579V283.582ZM823.946 287.053C822.901 286.142 821.854 285.229 820.805 284.32C819.707 283.807 818.592 283.297 817.489 282.786C818.583 283.612 819.678 284.438 820.765 285.264C821.823 285.862 822.894 286.455 823.948 287.053H823.946ZM827.781 290.39C826.908 289.619 826.018 288.854 825.134 288.085C824.293 287.605 823.443 287.13 822.6 286.653C823.487 287.331 824.361 288.014 825.241 288.694C826.084 289.26 826.941 289.822 827.781 290.39ZM830.271 292.61C830.018 292.385 829.77 292.16 829.518 291.935C829.2 291.718 828.89 291.502 828.572 291.285C829.136 291.727 829.707 292.168 830.271 292.607V292.61ZM773.138 239.252C771.764 238.113 770.383 236.974 768.994 235.844C767.24 236.779 765.483 237.718 763.725 238.656C765.13 239.674 766.519 240.701 767.914 241.727C769.654 240.901 771.398 240.078 773.136 239.254L773.138 239.252ZM777.514 242.929C776.142 241.779 774.781 240.624 773.402 239.474C771.67 240.292 769.935 241.115 768.201 241.935C769.602 242.964 770.989 244.002 772.381 245.034C774.094 244.331 775.806 243.626 777.514 242.926V242.929ZM781.922 246.631C780.557 245.467 779.167 244.315 777.786 243.159C776.085 243.856 774.381 244.559 772.677 245.259C774.076 246.296 775.481 247.333 776.866 248.379C778.555 247.794 780.238 247.215 781.922 246.633V246.631ZM786.26 250.39C784.906 249.218 783.569 248.038 782.205 246.869C780.526 247.448 778.849 248.027 777.167 248.609C778.552 249.66 779.916 250.719 781.292 251.773C782.95 251.312 784.607 250.851 786.26 250.393V250.39ZM790.622 254.182C789.272 253 787.911 251.82 786.55 250.642C784.908 251.098 783.257 251.556 781.61 252.014C782.996 253.074 784.383 254.13 785.755 255.192C787.378 254.855 789.005 254.514 790.622 254.179V254.182ZM794.967 258.016C793.626 256.825 792.28 255.634 790.928 254.446C789.318 254.778 787.705 255.115 786.091 255.45C787.461 256.515 788.816 257.588 790.175 258.658C791.775 258.441 793.371 258.227 794.967 258.013V258.016ZM799.281 261.896C797.951 260.697 796.622 259.495 795.283 258.298C793.7 258.51 792.115 258.724 790.526 258.938C791.891 260.013 793.248 261.089 794.603 262.167C796.166 262.074 797.724 261.984 799.283 261.896H799.281ZM803.632 265.812C802.308 264.601 800.958 263.402 799.619 262.2C798.074 262.288 796.532 262.376 794.98 262.469C796.335 263.548 797.692 264.629 799.033 265.713C800.574 265.743 802.098 265.779 803.632 265.812ZM807.878 269.758C806.578 268.553 805.294 267.346 803.988 266.144C802.471 266.111 800.963 266.075 799.439 266.045C800.772 267.126 802.091 268.215 803.417 269.299C804.906 269.45 806.394 269.604 807.878 269.758ZM812.172 273.747C810.884 272.537 809.577 271.33 808.273 270.125C806.809 269.972 805.342 269.821 803.872 269.67C805.202 270.756 806.543 271.84 807.858 272.932C809.299 273.204 810.737 273.473 812.172 273.747ZM816.405 277.762C815.145 276.56 813.889 275.358 812.618 274.159C811.204 273.89 809.79 273.621 808.37 273.352C809.659 274.428 810.925 275.515 812.21 276.593C813.61 276.983 815.013 277.37 816.405 277.759V277.762ZM820.607 281.796C819.373 280.605 818.135 279.417 816.892 278.231C815.533 277.85 814.161 277.471 812.796 277.092C814.069 278.163 815.345 279.233 816.605 280.309C817.94 280.802 819.276 281.296 820.605 281.796H820.607ZM824.815 285.871C823.615 284.696 822.403 283.525 821.191 282.356C819.902 281.873 818.611 281.39 817.316 280.909C818.53 281.949 819.731 282.992 820.936 284.032C822.238 284.641 823.52 285.259 824.815 285.871ZM828.868 289.883C827.744 288.768 826.622 287.652 825.492 286.538C824.26 285.953 823.042 285.366 821.803 284.784C822.965 285.791 824.122 286.795 825.274 287.805C826.482 288.494 827.667 289.191 828.868 289.883ZM832.921 293.897C831.871 292.843 830.802 291.795 829.737 290.744C828.66 290.121 827.586 289.496 826.501 288.873C827.562 289.8 828.616 290.73 829.665 291.661C830.758 292.402 831.834 293.151 832.921 293.894V293.897ZM836.475 297.511C835.672 296.696 834.879 295.876 834.076 295.061C833.197 294.457 832.319 293.853 831.437 293.249C832.223 293.955 833.011 294.66 833.797 295.365C834.699 296.079 835.579 296.798 836.475 297.511ZM838.648 299.731L838.238 299.311L837.858 299.007C838.124 299.248 838.385 299.49 838.648 299.731ZM778.68 236.637C777.321 235.377 775.942 234.123 774.565 232.872C772.809 233.808 771.046 234.751 769.29 235.69C770.682 236.829 772.067 237.97 773.444 239.112C775.191 238.286 776.934 237.463 778.68 236.637ZM782.983 240.69C781.628 239.416 780.289 238.138 778.926 236.867C777.187 237.688 775.45 238.508 773.709 239.334C775.092 240.487 776.46 241.645 777.837 242.8C779.556 242.095 781.268 241.392 782.983 240.69ZM787.314 244.773C785.966 243.486 784.598 242.21 783.235 240.928C781.527 241.628 779.821 242.328 778.109 243.028C779.494 244.188 780.89 245.346 782.26 246.515C783.946 245.934 785.632 245.352 787.314 244.773ZM791.602 248.914C790.26 247.616 788.928 246.312 787.575 245.02C785.9 245.596 784.221 246.175 782.544 246.754C783.913 247.928 785.253 249.117 786.616 250.294C788.282 249.83 789.942 249.372 791.604 248.914H791.602ZM795.885 253.096C794.55 251.784 793.211 250.478 791.865 249.172C790.212 249.63 788.561 250.085 786.901 250.544C788.271 251.729 789.641 252.914 790.998 254.103C792.629 253.765 794.258 253.43 795.885 253.093V253.096ZM800.177 257.321C798.851 255.999 797.505 254.682 796.161 253.367C794.543 253.702 792.925 254.034 791.303 254.372C792.664 255.568 794.014 256.764 795.362 257.966C796.969 257.75 798.574 257.538 800.177 257.324V257.321ZM804.414 261.605C803.097 260.274 801.788 258.938 800.462 257.61C798.87 257.821 797.277 258.035 795.678 258.246C797.031 259.451 798.37 260.661 799.709 261.871C801.283 261.781 802.846 261.693 804.414 261.605ZM808.684 265.921C807.375 264.579 806.041 263.246 804.717 261.912C803.16 262 801.608 262.088 800.047 262.176C801.395 263.391 802.754 264.601 804.087 265.823C805.619 265.855 807.156 265.886 808.684 265.921ZM812.881 270.287C811.588 268.943 810.313 267.592 809.011 266.253C807.494 266.218 805.966 266.188 804.445 266.155C805.766 267.37 807.066 268.594 808.379 269.812C809.885 269.969 811.382 270.131 812.881 270.29V270.287ZM817.094 274.694C815.814 273.344 814.521 271.994 813.226 270.649C811.744 270.49 810.26 270.331 808.772 270.177C810.093 271.401 811.421 272.625 812.728 273.854C814.188 274.132 815.639 274.414 817.092 274.694H817.094ZM821.279 279.137C820.019 277.787 818.752 276.439 817.478 275.095C816.047 274.818 814.614 274.54 813.173 274.266C814.462 275.484 815.731 276.708 817.011 277.929C818.438 278.33 819.858 278.733 821.276 279.137H821.279ZM825.419 283.615C824.181 282.27 822.945 280.929 821.696 279.59C820.299 279.192 818.903 278.794 817.498 278.399C818.776 279.62 820.051 280.841 821.318 282.065C822.69 282.581 824.054 283.099 825.417 283.615H825.419ZM829.588 288.137C828.372 286.798 827.134 285.47 825.902 284.136C824.572 283.632 823.241 283.127 821.902 282.622C823.151 283.832 824.392 285.042 825.63 286.255C826.952 286.881 828.275 287.506 829.588 288.137ZM833.59 292.61C832.436 291.32 831.29 290.028 830.128 288.741C828.862 288.132 827.579 287.528 826.304 286.924C827.5 288.104 828.692 289.287 829.882 290.47C831.118 291.183 832.361 291.897 833.588 292.613L833.59 292.61ZM837.636 297.13C836.521 295.867 835.386 294.611 834.256 293.351C833.096 292.673 831.917 292.001 830.754 291.326C831.917 292.478 833.081 293.631 834.229 294.789C835.364 295.568 836.508 296.345 837.636 297.127V297.13ZM841.456 301.498C840.466 300.365 839.494 299.226 838.499 298.093C837.456 297.368 836.389 296.649 835.34 295.925C836.361 296.965 837.38 298.008 838.398 299.048C839.417 299.865 840.444 300.68 841.456 301.498ZM845.011 305.601C844.196 304.657 843.375 303.713 842.556 302.769C841.766 302.127 840.956 301.49 840.161 300.851C841.094 301.8 842.034 302.749 842.954 303.702C843.641 304.336 844.33 304.967 845.013 305.601H845.011ZM847.608 308.597C847.331 308.273 847.05 307.952 846.771 307.631C846.554 307.428 846.332 307.228 846.115 307.025C846.611 307.549 847.109 308.073 847.608 308.597ZM784.212 234.019C782.873 232.639 781.501 231.272 780.137 229.903C778.372 230.844 776.614 231.774 774.846 232.718C776.227 233.975 777.608 235.232 778.969 236.497C780.717 235.671 782.467 234.845 784.212 234.019ZM788.442 238.451C787.105 237.054 785.79 235.649 784.445 234.258C782.704 235.078 780.958 235.904 779.215 236.727C780.583 238.003 781.927 239.285 783.286 240.563C785.004 239.858 786.726 239.153 788.442 238.451ZM792.699 242.918C791.367 241.507 790.021 240.102 788.675 238.697C786.965 239.397 785.25 240.1 783.538 240.802C784.906 242.086 786.282 243.371 787.635 244.663C789.325 244.079 791.013 243.5 792.701 242.921L792.699 242.918ZM796.934 247.437C795.61 246.013 794.278 244.592 792.941 243.17C791.261 243.749 789.58 244.326 787.896 244.907C789.253 246.208 790.59 247.517 791.935 248.82C793.604 248.359 795.272 247.896 796.936 247.437H796.934ZM801.141 252.014C799.821 250.577 798.508 249.136 797.178 247.701C795.52 248.159 793.861 248.617 792.199 249.078C793.551 250.39 794.899 251.704 796.238 253.021C797.876 252.684 799.509 252.349 801.141 252.014ZM805.382 256.633C804.069 255.178 802.723 253.738 801.393 252.292C799.768 252.624 798.144 252.958 796.515 253.296C797.863 254.619 799.213 255.944 800.548 257.275C802.161 257.061 803.773 256.847 805.382 256.635V256.633ZM809.531 261.317C808.232 259.854 806.949 258.383 805.639 256.926C804.041 257.138 802.436 257.349 800.831 257.563C802.168 258.899 803.485 260.244 804.811 261.586C806.383 261.498 807.966 261.405 809.531 261.32V261.317ZM813.722 266.045C812.429 264.569 811.114 263.098 809.803 261.624C808.247 261.709 806.675 261.803 805.112 261.89C806.447 263.238 807.792 264.579 809.11 265.932C810.651 265.968 812.185 266.006 813.72 266.045H813.722ZM817.863 270.817C816.585 269.335 815.307 267.853 814.016 266.377C812.493 266.338 810.969 266.3 809.439 266.264C810.752 267.617 812.036 268.981 813.338 270.339C814.844 270.501 816.363 270.655 817.863 270.819V270.817ZM821.99 275.641C820.723 274.151 819.45 272.661 818.17 271.173C816.684 271.012 815.178 270.858 813.685 270.699C814.993 272.063 816.304 273.426 817.599 274.793C819.061 275.076 820.537 275.355 821.99 275.641ZM826.141 280.533C824.883 279.03 823.604 277.534 822.328 276.036C820.888 275.753 819.43 275.476 817.983 275.196C819.272 276.56 820.55 277.929 821.828 279.299C823.27 279.71 824.706 280.122 826.141 280.536V280.533ZM830.181 285.423C828.954 283.939 827.737 282.452 826.501 280.97C825.088 280.561 823.669 280.155 822.247 279.749C823.518 281.115 824.78 282.482 826.04 283.851C827.419 284.375 828.811 284.894 830.181 285.421V285.423ZM834.306 290.418C833.083 288.917 831.834 287.421 830.594 285.926C829.243 285.407 827.878 284.894 826.521 284.375C827.777 285.739 829.035 287.1 830.275 288.469C831.625 289.117 832.965 289.767 834.306 290.418ZM838.284 295.379C837.114 293.919 835.964 292.456 834.787 290.999C833.465 290.357 832.148 289.712 830.818 289.073C832.023 290.409 833.213 291.749 834.411 293.088C835.713 293.848 836.993 294.616 838.286 295.379H838.284ZM842.288 300.392C841.147 298.946 839.988 297.506 838.831 296.062C837.579 295.321 836.341 294.578 835.081 293.839C836.278 295.17 837.481 296.501 838.659 297.838C839.88 298.686 841.077 299.542 842.288 300.392ZM846.181 305.356C845.114 303.987 844.049 302.615 842.973 301.248C841.816 300.433 840.673 299.618 839.507 298.806C840.585 300.041 841.65 301.281 842.725 302.519C843.887 303.463 845.026 304.41 846.179 305.356H846.181ZM849.911 310.186C848.947 308.932 847.979 307.681 847.011 306.429C845.968 305.573 844.938 304.714 843.891 303.861C844.914 305.038 845.942 306.212 846.954 307.392C847.948 308.323 848.925 309.253 849.913 310.183L849.911 310.186ZM853.437 314.768C852.664 313.75 851.882 312.738 851.096 311.723C850.315 310.984 849.544 310.241 848.758 309.503C849.507 310.386 850.242 311.273 850.989 312.159C851.805 313.029 852.622 313.896 853.434 314.768H853.437ZM855.494 317.521C855.375 317.364 855.261 317.208 855.145 317.054C854.982 316.879 854.824 316.706 854.662 316.533C854.938 316.865 855.219 317.191 855.494 317.524V317.521ZM674.296 286.104L671.561 287.748L674.101 286.524L676.862 285.028L674.296 286.104ZM679.947 282.712L676.186 284.968L679.679 283.505L683.446 281.469L679.947 282.712ZM685.589 279.326L681.324 281.884C682.636 281.417 683.945 280.953 685.258 280.487L689.512 278.187C688.206 278.566 686.9 278.945 685.589 279.326ZM691.24 275.94L686.667 278.681C688.059 278.278 689.451 277.872 690.843 277.468C692.355 276.651 693.87 275.83 695.38 275.015C694.002 275.325 692.623 275.63 691.242 275.94H691.24ZM696.884 272.559L692.116 275.416C693.552 275.095 694.983 274.776 696.417 274.455C698 273.599 699.58 272.749 701.163 271.895C699.738 272.115 698.314 272.337 696.884 272.559ZM702.529 269.181L697.622 272.117C699.089 271.89 700.553 271.662 702.015 271.437L706.875 268.816C705.429 268.937 703.984 269.058 702.531 269.181H702.529ZM708.158 265.817L703.161 268.803C704.643 268.676 706.112 268.556 707.585 268.432C709.242 267.54 710.9 266.643 712.555 265.751C711.091 265.77 709.622 265.792 708.155 265.814L708.158 265.817ZM713.806 262.442C712.109 263.454 710.41 264.47 708.711 265.485C710.197 265.463 711.688 265.441 713.172 265.419L718.219 262.703C716.753 262.612 715.279 262.527 713.806 262.442ZM719.444 259.078C717.729 260.098 716.017 261.122 714.302 262.146C715.791 262.233 717.277 262.321 718.759 262.412C720.465 261.495 722.166 260.579 723.872 259.665C722.403 259.465 720.919 259.275 719.444 259.078ZM725.099 255.705C723.365 256.74 721.628 257.777 719.892 258.811C721.378 259.009 722.88 259.204 724.359 259.404C726.07 258.485 727.782 257.566 729.49 256.646C728.026 256.334 726.572 256.015 725.099 255.705ZM730.73 252.352C728.99 253.389 727.249 254.426 725.505 255.464C726.987 255.777 728.454 256.095 729.927 256.413C731.652 255.486 733.385 254.553 735.108 253.628C733.65 253.203 732.193 252.777 730.73 252.352ZM736.368 248.996C734.616 250.039 732.86 251.084 731.106 252.13C732.577 252.555 734.045 252.983 735.51 253.411C737.253 252.475 738.989 251.548 740.733 250.612C739.284 250.072 737.824 249.534 736.366 248.996H736.368ZM742.01 245.643C740.247 246.691 738.484 247.739 736.719 248.787C738.182 249.328 739.652 249.869 741.108 250.412C742.856 249.473 744.603 248.54 746.348 247.605C744.91 246.946 743.455 246.296 742.01 245.643ZM747.65 242.292C745.881 243.343 744.111 244.394 742.342 245.448C743.793 246.106 745.257 246.757 746.7 247.421C748.452 246.482 750.203 245.541 751.953 244.605C750.528 243.832 749.084 243.063 747.65 242.295V242.292ZM753.29 238.944L747.964 242.106C749.402 242.879 750.853 243.648 752.285 244.424L757.551 241.606C756.14 240.714 754.711 239.831 753.29 238.942V238.944ZM758.93 235.599L753.591 238.766C755.016 239.658 756.451 240.544 757.867 241.439C759.63 240.498 761.387 239.559 763.147 238.618C761.749 237.608 760.337 236.604 758.93 235.599ZM764.57 232.257C762.787 233.314 761.003 234.37 759.218 235.429C760.627 236.439 762.045 237.446 763.448 238.459C765.211 237.518 766.974 236.574 768.737 235.635C767.354 234.507 765.964 233.382 764.57 232.257ZM770.212 228.918C768.425 229.974 766.638 231.033 764.849 232.092C766.245 233.22 767.639 234.348 769.027 235.479C770.789 234.537 772.559 233.591 774.32 232.652C772.952 231.406 771.586 230.161 770.212 228.92V228.918ZM775.856 225.581C774.067 226.637 772.276 227.699 770.484 228.758C771.863 230.004 773.233 231.253 774.603 232.501C776.377 231.557 778.14 230.622 779.909 229.678C778.555 228.314 777.215 226.942 775.854 225.581H775.856ZM-28.5488 436.687C66.5285 542.087 173.86 592.172 287.159 522.297C399.479 453.026 528.086 373.714 656.924 296.172C544.345 357.271 430.785 420.171 326.176 478.112C314.103 484.796 302.152 491.418 290.334 497.962C173.555 562.626 65.6503 512.193 -28.5488 408.777V408.369C65.6196 511.825 173.494 562.308 290.228 497.669C302.046 491.124 313.998 484.505 326.07 477.818C432.541 418.845 548.282 354.741 662.827 292.621L665.635 290.934C540.422 351.245 412.173 414.595 293.394 473.34C173.204 532.782 64.7524 481.942 -28.5488 380.45V380.039C64.7239 481.572 173.145 532.461 293.298 473.041C413.029 413.827 542.38 349.934 668.54 289.191L672.305 286.93C548.139 339.007 419.194 394.849 296.454 448.717C172.87 502.957 63.8699 451.703 -28.5488 352.118V351.704C63.8435 451.335 172.815 502.638 296.367 448.413C419.756 394.259 549.417 338.112 674.189 285.799C675.613 284.943 677.04 284.087 678.465 283.234C555.52 326.98 426.067 375.193 299.515 424.095C172.559 473.153 63.0027 421.474 -28.5488 323.774V323.357C62.9764 421.104 172.508 472.832 299.438 423.785C426.487 374.691 556.462 326.288 679.844 282.405C681.37 281.491 682.893 280.575 684.419 279.661C562.76 315.032 432.877 355.57 302.575 399.47C172.267 443.364 62.1487 391.251 -28.5488 295.417V294.997C62.1245 390.881 172.22 443.043 302.505 399.151C433.215 355.115 563.502 314.461 685.495 279.011C687.086 278.056 688.678 277.101 690.272 276.148C569.935 303.125 439.663 335.961 305.636 374.839C171.996 413.602 61.3101 361.044 -28.5488 267.055V266.635C61.2859 360.674 171.953 413.283 305.574 374.523C439.944 335.547 570.547 302.642 691.148 275.622L696.063 272.677C577.07 291.249 446.427 316.368 308.694 350.211C171.748 383.861 60.4868 330.849 -28.5488 238.681V238.261C60.4649 330.481 171.709 383.54 308.643 349.895C446.677 315.979 577.592 290.824 696.801 272.238L701.815 269.239C584.174 279.397 453.182 296.787 311.754 325.588C171.524 354.143 59.6789 300.667 -28.5488 210.299V209.879C59.657 300.296 171.487 353.822 311.712 325.267C453.411 296.413 584.635 279.008 702.452 268.857L707.534 265.82C591.256 267.557 459.933 277.208 314.817 300.96C171.323 324.45 58.8886 270.496 -28.5488 181.909V181.486C58.8644 270.125 171.287 324.128 314.781 300.639C460.142 276.845 591.664 267.203 708.087 265.488C709.808 264.459 711.53 263.43 713.249 262.403C598.343 255.716 466.675 257.629 317.875 276.335C171.142 294.778 58.1114 240.338 -28.5488 153.505V153.083C58.0895 239.965 171.11 294.454 317.851 276.009C466.875 257.275 598.716 255.381 713.747 262.104C715.481 261.07 717.214 260.035 718.946 259.001C605.414 243.884 473.422 238.053 320.937 251.702C170.989 265.131 57.354 210.195 -28.5488 125.093V124.671C57.3299 209.822 170.958 264.81 320.918 251.383C473.606 237.712 605.752 243.576 719.391 258.737C721.143 257.692 722.897 256.646 724.649 255.601C612.499 232.051 480.159 218.482 323.998 227.079C170.859 235.512 56.612 180.062 -28.5488 96.6701V96.2475C56.5878 179.689 170.829 235.188 323.987 226.755C480.339 218.147 612.81 231.76 725.055 255.359C726.812 254.314 728.564 253.268 730.318 252.226C619.548 220.241 486.901 198.914 327.058 202.454C170.756 205.914 55.8853 149.943 -28.5488 68.2361V67.8162C55.8633 149.57 170.725 205.593 327.054 202.13C487.075 198.587 619.842 219.961 730.693 252.001C732.458 250.95 734.223 249.896 735.988 248.848C626.604 208.428 493.639 179.346 330.121 177.826C170.679 176.344 55.1784 119.835 -28.5488 39.7911V39.3712C55.1542 119.465 170.646 176.02 330.123 177.502C493.808 179.022 626.885 208.159 736.34 248.639C738.114 247.583 739.887 246.529 741.659 245.475C633.662 196.617 500.376 159.778 333.183 153.198C170.627 146.801 54.4912 89.7468 -28.5488 11.3351V10.9153C54.4649 89.3708 170.596 146.478 333.19 152.874C500.543 159.46 633.928 196.357 741.988 245.278C743.767 244.221 745.545 243.162 747.323 242.108C640.714 184.807 507.112 140.21 336.243 128.57C170.602 117.286 53.8195 59.6691 -28.5488 -17.1319V-17.549C53.7909 59.2959 170.572 116.962 336.259 128.252C507.279 139.903 640.973 184.56 747.639 241.927C749.424 240.868 751.204 239.812 752.987 238.752C647.769 173.01 513.852 120.65 339.306 103.95C170.607 87.8012 53.1652 29.6051 -28.5488 -45.6125V-46.0296C53.1367 29.2291 170.574 87.4747 339.326 103.624C514.014 120.34 648.018 172.76 753.288 238.571C755.075 237.512 756.862 236.45 758.649 235.394C654.823 161.205 520.589 101.085 342.369 79.3193C170.64 58.3437 52.533 -0.44519 -28.5488 -74.1069V-74.5213C52.5022 -0.821121 170.605 58.0144 342.393 78.9955C520.749 100.778 655.06 160.964 758.934 235.221C760.726 234.159 762.515 233.097 764.304 232.038C661.87 149.403 527.325 81.5201 345.429 54.6886C170.692 28.9136 51.9183 -30.4927 -28.5488 -102.631V-103.032C51.8875 -30.8604 170.662 28.5815 345.46 54.3675C527.485 81.2182 662.107 149.167 764.583 231.873C766.377 230.811 768.17 229.749 769.964 228.69C668.924 137.606 534.062 61.9604 348.491 30.0633C170.754 -0.489105 51.3233 -60.543 -28.5488 -131.194V-131.592C51.2904 -60.9107 170.723 -0.821121 348.527 29.7423C534.22 61.6613 669.155 137.376 770.234 228.531C772.03 227.469 773.828 226.404 775.621 225.345C675.978 125.812 540.798 42.4007 351.554 5.43533C170.844 -29.8643 50.7481 -90.5741 -28.5488 -159.768V-160.164C50.713 -90.9418 170.811 -30.1964 351.594 5.11429C540.958 42.1016 676.206 125.582 775.887 225.186C827.206 194.856 877.761 165.406 926.499 137.606C976.318 109.189 1024.23 82.5025 1069.14 58.3574V58.7086C1024.27 82.8372 976.389 109.504 926.608 137.9C877.908 165.678 827.393 195.108 776.111 225.413C777.477 226.777 778.818 228.152 780.175 229.521C883.201 174.651 982.202 123.507 1069.14 81.5585V81.9015C982.268 123.823 883.349 174.923 780.403 229.749C781.769 231.124 783.145 232.493 784.489 233.876C833.698 210.648 881.757 188.314 927.849 167.379C977.581 144.787 1025.02 123.825 1069.14 105.116V105.457C1025.04 124.157 977.638 145.106 927.939 167.681C881.889 188.599 833.876 210.908 784.717 234.112C786.067 235.509 787.386 236.919 788.728 238.319C836.897 218.608 883.733 199.8 928.525 182.263C978.239 162.799 1025.43 144.905 1069.14 129.08V129.418C1025.45 145.235 978.29 163.118 928.604 182.573C883.86 200.091 837.077 218.88 788.963 238.566C790.313 239.976 791.665 241.384 793 242.8C855.232 221.402 914.824 201.578 970.38 183.898C1004.98 172.887 1038 162.709 1069.14 153.489V153.821C1038.02 163.035 1005.02 173.208 970.446 184.211C914.942 201.878 855.412 221.679 793.242 243.052C794.583 244.476 795.918 245.906 797.246 247.336C839.344 235.717 880.027 224.862 918.914 214.852C972.764 200.991 1023.17 188.758 1069.14 178.377V178.707C1023.18 189.085 972.797 201.312 918.966 215.17C880.139 225.164 839.52 236.006 797.49 247.602C798.824 249.043 800.146 250.489 801.47 251.932C821.542 247.813 841.246 243.87 860.536 240.113C937.221 225.175 1007.47 213.095 1069.14 203.801V204.128C1007.48 213.419 937.247 225.499 860.576 240.432C841.353 244.177 821.72 248.101 801.722 252.207C803.057 253.661 804.407 255.11 805.724 256.572C807.628 256.323 809.529 256.073 811.424 255.826C908.486 243.17 995.411 234.99 1069.14 229.818V230.141C995.418 235.314 908.503 243.491 811.45 256.147C809.632 256.383 807.808 256.624 805.984 256.863C807.301 258.331 808.592 259.808 809.898 261.281C908.854 255.848 995.998 255.296 1069.14 256.495V256.819C996.066 255.623 909.017 256.172 810.172 261.591C811.49 263.073 812.816 264.555 814.117 266.042C912.725 268.528 998.07 276.113 1069.14 283.909V284.232C998.142 276.445 912.894 268.866 814.412 266.374C815.711 267.861 816.993 269.357 818.28 270.85C916.644 281.565 1000.16 297.621 1069.14 312.148V312.477C1000.24 297.967 916.821 281.925 818.587 271.212C819.88 272.713 821.167 274.217 822.447 275.723C920.663 295.022 1002.3 319.927 1069.14 341.328V341.663C1002.38 320.29 920.854 295.412 822.785 276.121C824.071 277.636 825.358 279.148 826.629 280.668C924.793 308.967 1004.48 343.159 1069.14 371.571V371.914C1004.56 343.537 924.995 309.387 826.991 281.104C828.247 282.611 829.487 284.123 830.732 285.632C929.032 323.421 1006.68 367.441 1069.14 403.026V403.383C1006.77 367.852 929.256 323.898 831.145 286.134C832.409 287.663 833.687 289.186 834.932 290.717C930.736 337.231 1004.75 389.981 1064.1 432.283L1069.14 435.875V436.248L1063.97 432.563C1004.75 390.348 930.907 337.728 835.386 291.287C836.594 292.786 837.781 294.289 838.98 295.788C931.84 350.729 1002 411.851 1058.12 460.747C1061.85 464.002 1065.52 467.199 1069.14 470.341V470.736C1065.47 467.553 1061.75 464.312 1057.97 461.013C1002 412.243 932.042 351.306 839.527 296.474C840.732 297.978 841.939 299.479 843.129 300.985C933.427 364.518 999.954 434.218 1052.96 489.766C1058.5 495.57 1063.88 501.214 1069.14 506.686V507.108C1063.83 501.582 1058.39 495.877 1052.79 490.013C999.954 434.643 933.677 365.21 843.812 301.844C844.943 303.287 846.051 304.733 847.173 306.18C935.227 378.513 998.274 457.046 1048.27 519.339C1055.49 528.328 1062.43 536.977 1069.14 545.223V545.679C1062.37 537.364 1055.37 528.638 1048.09 519.566C998.285 457.518 935.533 379.35 848.003 307.252C849.096 308.66 850.192 310.071 851.272 311.484C937.216 392.802 996.819 480.362 1043.83 549.447C1052.68 562.453 1061.09 574.799 1069.14 586.329V586.823C1061.02 575.211 1052.56 562.769 1043.63 549.655C996.876 480.946 937.662 393.959 852.46 313.021C853.423 314.286 854.37 315.553 855.325 316.818C939.276 407.32 995.447 504.123 1039.5 580.07C1050 598.162 1059.8 615.065 1069.14 630.421V630.959C1059.74 615.51 1049.86 598.486 1039.29 580.26C995.574 504.899 939.926 409 857.033 319.104C857.786 320.111 858.543 321.121 859.294 322.128C941.342 422.023 994.072 528.303 1035.18 611.18C1040.12 621.146 1044.9 630.772 1049.54 640.009H1049.23C1044.62 630.825 1039.87 621.253 1034.96 611.35C994.522 529.826 942.837 425.659 863.057 327.205C942.529 435.65 991.622 550.47 1029.64 640.012H1029.35C990.751 549.112 940.72 432.193 859.096 322.348C856.365 319.022 853.592 315.704 850.8 312.395C848.143 309.571 845.478 306.75 842.765 303.943C839.753 301.163 836.708 298.395 833.634 295.631C830.818 293.406 827.97 291.186 825.103 288.974C822.095 286.957 819.068 284.949 816.01 282.948C812.991 281.266 809.937 279.595 806.877 277.924C803.76 276.516 800.629 275.114 797.468 273.723C794.363 272.631 791.233 271.547 788.089 270.468C784.877 269.637 781.639 268.816 778.392 268.001C775.112 267.447 771.81 266.898 768.497 266.355C765.229 266.078 761.931 265.812 758.631 265.545C755.288 265.532 751.918 265.529 748.546 265.526C745.15 265.773 741.731 266.028 738.309 266.289C734.886 266.791 731.453 267.299 728.008 267.812C724.522 268.572 721.029 269.335 717.525 270.103C713.98 271.119 710.425 272.139 706.865 273.166C703.279 274.431 699.688 275.701 696.092 276.974C692.458 278.492 688.821 280.012 685.179 281.535C681.515 283.294 677.848 285.056 674.18 286.823C670.441 288.848 666.7 290.876 662.959 292.906C532.148 371.576 401.317 452.257 287.276 522.59C173.931 592.495 66.5614 542.457 -28.5488 437.099V436.69L-28.5488 436.687Z" fill="white"/>
</mask>
<g mask="url(#mask1_328_29813)">
<path d="M1069.14 -160.164H-28.5488V640.006H1069.14V-160.164Z" fill="url(#paint0_linear_328_29813)"/>
</g>
</g>
</g>
<defs>
<linearGradient id="paint0_linear_328_29813" x1="-8.47651" y1="239.921" x2="1069.14" y2="239.921" gradientUnits="userSpaceOnUse">
<stop stop-color="#151F27"/>
<stop offset="0.32" stop-color="#79747E"/>
<stop offset="0.68" stop-color="#1E1E1E"/>
<stop offset="1" stop-color="#151F27"/>
</linearGradient>
</defs>
</svg>
