<svg width="357" height="533" viewBox="0 0 357 533" fill="none" xmlns="http://www.w3.org/2000/svg">
<mask id="mask0_384_5362" style="mask-type:alpha" maskUnits="userSpaceOnUse" x="0" y="0" width="357" height="533">
<rect x="0.521484" y="0.064209" width="355.914" height="532.295" rx="28" fill="#FF914D"/>
</mask>
<g mask="url(#mask0_384_5362)">
<g opacity="0.3">
<mask id="mask1_384_5362" style="mask-type:luminance" maskUnits="userSpaceOnUse" x="-466" y="-225" width="996" height="978">
<path d="M164.094 342.184L161.731 342.391L159.088 343.078L161.433 342.731L164.094 342.184ZM170.149 340.942L167.029 341.016L163.454 341.947C164.507 341.854 165.563 341.762 166.617 341.669L170.151 340.943L170.149 340.942ZM174.157 340.849L171.781 340.905L169.132 341.447L171.507 341.24L174.157 340.849ZM176.679 340.79L176.546 340.794L176.403 340.817L176.681 340.793L176.679 340.79ZM175.766 339.794C174.621 339.741 173.471 339.693 172.323 339.643C170.98 339.99 169.635 340.34 168.291 340.69C169.458 340.662 170.623 340.635 171.787 340.608L175.766 339.794ZM180.035 339.987L176.952 339.847L173.419 340.571C174.464 340.547 175.511 340.523 176.554 340.498L180.035 339.987ZM183.961 340.166L181.578 340.056L178.936 340.444L181.325 340.392L183.961 340.166ZM186.428 340.281L186.193 340.269L185.946 340.29L186.428 340.281ZM181.192 338.685C180.008 338.548 178.821 338.409 177.633 338.271C176.192 338.643 174.753 339.014 173.312 339.388C174.529 339.44 175.746 339.495 176.961 339.549L181.192 338.685ZM185.488 339.187C184.367 339.054 183.241 338.923 182.117 338.793L178.149 339.602C179.298 339.653 180.445 339.706 181.591 339.758L185.488 339.187ZM189.642 339.68L186.608 339.319L183.132 339.829C184.161 339.877 185.188 339.925 186.215 339.972L189.644 339.68L189.642 339.68ZM193.455 340.135C192.668 340.041 191.883 339.947 191.095 339.852L188.457 340.076C189.256 340.113 190.056 340.15 190.853 340.187L193.456 340.133L193.455 340.135ZM195.923 340.433L195.57 340.39L195.191 340.397L195.925 340.431L195.923 340.433ZM186.519 337.601C185.322 337.37 184.121 337.138 182.922 336.906L178.441 338.065C179.673 338.208 180.904 338.351 182.133 338.496L186.518 337.603L186.519 337.601ZM190.758 338.419C189.601 338.194 188.431 337.971 187.267 337.745L183.058 338.601C184.251 338.741 185.441 338.88 186.629 339.021L190.759 338.417L190.758 338.419ZM194.917 339.235C193.821 339.021 192.73 338.804 191.631 338.588L187.746 339.155C188.873 339.289 189.998 339.423 191.123 339.557L194.917 339.235ZM198.929 340.031L195.961 339.443C194.832 339.539 193.701 339.636 192.57 339.733L195.599 340.097C196.71 340.074 197.818 340.055 198.927 340.033L198.929 340.031ZM202.641 340.766C201.861 340.61 201.078 340.457 200.294 340.302L197.724 340.352C198.516 340.448 199.305 340.546 200.096 340.641L202.638 340.768L202.641 340.766ZM205.086 341.25L204.648 341.164L204.202 341.142L205.086 341.25ZM191.822 336.523C190.626 336.194 189.428 335.865 188.225 335.538C186.684 335.934 185.141 336.335 183.599 336.734C184.83 336.972 186.063 337.208 187.29 337.445L191.822 336.523ZM195.943 337.664C194.775 337.341 193.609 337.016 192.439 336.692C190.971 336.991 189.503 337.289 188.035 337.588C189.246 337.82 190.458 338.053 191.66 338.288L195.943 337.664ZM200.048 338.803C198.916 338.488 197.779 338.173 196.643 337.86L192.532 338.459C193.69 338.687 194.838 338.917 195.995 339.144C197.348 339.029 198.697 338.918 200.048 338.803ZM204.072 339.932C203.003 339.632 201.939 339.331 200.866 339.03C199.59 339.138 198.318 339.245 197.042 339.351C198.141 339.569 199.238 339.784 200.333 340.002C201.581 339.978 202.827 339.953 204.073 339.929L204.072 339.932ZM207.963 341.033L205.058 340.21L201.698 340.273C202.698 340.471 203.7 340.667 204.694 340.866C205.786 340.921 206.874 340.975 207.963 341.033ZM211.569 342.054C210.799 341.833 210.022 341.617 209.248 341.397L206.698 341.268C207.467 341.423 208.229 341.579 208.997 341.734C209.856 341.841 210.713 341.945 211.569 342.054ZM214.064 342.764C213.87 342.709 213.679 342.654 213.484 342.597L212.846 342.517L214.066 342.765L214.064 342.764ZM197.068 335.457C195.884 335.03 194.705 334.6 193.519 334.172L188.807 335.386C190.032 335.72 191.248 336.056 192.466 336.391C193.999 336.08 195.535 335.766 197.067 335.454L197.068 335.457ZM201.099 336.916C199.936 336.491 198.763 336.069 197.591 335.648L193.083 336.564C194.283 336.896 195.479 337.226 196.676 337.56L201.099 336.918L201.099 336.916ZM205.086 338.38C203.951 337.963 202.822 337.544 201.684 337.126C200.25 337.334 198.812 337.544 197.379 337.752C198.556 338.078 199.738 338.402 200.907 338.73C202.301 338.614 203.697 338.495 205.086 338.38ZM209.039 339.84C207.94 339.434 206.842 339.025 205.74 338.621C204.404 338.733 203.064 338.846 201.726 338.958C202.855 339.275 203.974 339.594 205.102 339.911C206.417 339.888 207.73 339.862 209.039 339.84ZM212.96 341.287C211.916 340.897 210.858 340.511 209.806 340.121L206.089 340.19C207.16 340.493 208.23 340.795 209.3 341.098C210.521 341.161 211.742 341.222 212.961 341.285L212.96 341.287ZM216.701 342.697C215.759 342.344 214.821 341.987 213.881 341.634L210.585 341.462C211.573 341.741 212.561 342.02 213.54 342.299C214.593 342.431 215.648 342.563 216.701 342.697ZM220.184 344.011C219.427 343.724 218.667 343.437 217.907 343.152C217.068 343.045 216.227 342.941 215.388 342.834C216.151 343.053 216.914 343.276 217.68 343.496C218.515 343.668 219.354 343.838 220.187 344.009L220.184 344.011ZM222.592 344.917C222.395 344.842 222.197 344.769 221.998 344.694L221.356 344.559C221.766 344.677 222.18 344.796 222.591 344.914L222.592 344.917ZM202.307 334.393C201.146 333.866 199.994 333.334 198.831 332.806C197.232 333.218 195.635 333.627 194.034 334.038C195.235 334.47 196.432 334.905 197.632 335.34L202.307 334.393ZM206.206 336.175C205.059 335.649 203.909 335.123 202.757 334.599C201.223 334.91 199.69 335.219 198.155 335.53C199.348 335.96 200.545 336.389 201.728 336.822C203.224 336.606 204.714 336.39 206.209 336.173L206.206 336.175ZM210.098 337.963C208.971 337.441 207.835 336.921 206.7 336.401C205.236 336.611 203.776 336.823 202.31 337.035C203.474 337.462 204.628 337.892 205.788 338.321C207.228 338.201 208.661 338.08 210.098 337.963ZM213.937 339.754C212.836 339.242 211.74 338.729 210.638 338.216C209.24 338.331 207.843 338.447 206.443 338.564C207.584 338.985 208.726 339.406 209.862 339.828C211.223 339.805 212.581 339.781 213.938 339.757L213.937 339.754ZM217.768 341.541C216.702 341.041 215.626 340.539 214.552 340.04C213.244 340.062 211.938 340.085 210.628 340.107C211.736 340.518 212.844 340.927 213.944 341.338C215.22 341.404 216.497 341.471 217.769 341.538L217.768 341.541ZM221.518 343.312C220.509 342.834 219.504 342.354 218.49 341.878C217.284 341.813 216.073 341.75 214.864 341.687C215.902 342.079 216.939 342.469 217.977 342.86C219.159 343.01 220.339 343.16 221.518 343.312ZM225.173 345.053C224.246 344.609 223.315 344.167 222.383 343.724C221.319 343.587 220.251 343.451 219.185 343.316C220.151 343.679 221.116 344.041 222.075 344.407C223.112 344.621 224.141 344.837 225.173 345.053ZM228.583 346.675C227.832 346.314 227.074 345.956 226.317 345.596C225.504 345.425 224.691 345.257 223.876 345.086C224.616 345.368 225.345 345.651 226.081 345.935C226.919 346.181 227.747 346.427 228.585 346.673L228.583 346.675ZM230.836 347.765C230.637 347.668 230.44 347.572 230.242 347.478L229.572 347.28C229.993 347.443 230.416 347.604 230.836 347.765ZM207.531 333.337C206.397 332.707 205.251 332.079 204.11 331.452C202.505 331.864 200.898 332.279 199.291 332.69C200.468 333.225 201.631 333.76 202.804 334.295C204.38 333.975 205.957 333.655 207.533 333.338L207.531 333.337ZM211.305 335.44C210.182 334.81 209.055 334.182 207.925 333.553C206.37 333.866 204.811 334.184 203.254 334.499C204.422 335.03 205.589 335.564 206.751 336.097C208.269 335.879 209.791 335.656 211.305 335.44ZM215.056 337.552C213.946 336.926 212.837 336.3 211.723 335.674C210.231 335.889 208.737 336.106 207.245 336.321C208.399 336.851 209.55 337.38 210.697 337.911C212.15 337.79 213.605 337.67 215.057 337.549L215.056 337.552ZM218.815 339.668C217.723 339.048 216.614 338.428 215.513 337.807C214.089 337.926 212.66 338.045 211.234 338.163C212.365 338.689 213.488 339.213 214.616 339.741C216.016 339.716 217.418 339.692 218.815 339.668ZM222.507 341.792C221.443 341.18 220.386 340.569 219.319 339.959C217.958 339.982 216.593 340.006 215.23 340.029C216.341 340.546 217.456 341.063 218.559 341.581C219.878 341.651 221.19 341.723 222.507 341.792ZM226.187 343.91C225.156 343.313 224.117 342.718 223.078 342.121C221.812 342.052 220.548 341.984 219.279 341.917C220.343 342.421 221.396 342.928 222.457 343.431C223.701 343.591 224.943 343.75 226.184 343.912L226.187 343.91ZM229.818 346.017C228.836 345.444 227.851 344.87 226.863 344.298C225.683 344.146 224.507 343.992 223.325 343.842C224.351 344.33 225.378 344.816 226.398 345.305C227.537 345.543 228.683 345.78 229.818 346.017ZM233.31 348.067C232.416 347.541 231.522 347.017 230.626 346.49C229.603 346.274 228.569 346.062 227.542 345.848C228.475 346.293 229.404 346.74 230.331 347.189C231.324 347.48 232.318 347.774 233.308 348.067L233.31 348.067ZM236.584 349.992C235.853 349.56 235.113 349.128 234.376 348.694C233.578 348.456 232.772 348.222 231.971 347.983C232.682 348.328 233.392 348.672 234.101 349.019C234.934 349.343 235.754 349.668 236.582 349.991L236.584 349.992ZM238.725 351.263C238.544 351.155 238.368 351.047 238.187 350.942L237.531 350.684C237.929 350.878 238.329 351.07 238.725 351.263ZM212.749 332.282C211.642 331.549 210.525 330.818 209.406 330.087C207.783 330.502 206.152 330.923 204.526 331.342C205.678 331.977 206.835 332.609 207.978 333.244C209.57 332.923 211.158 332.603 212.747 332.282L212.749 332.282ZM216.376 334.707C215.279 333.974 214.189 333.24 213.087 332.509C211.516 332.825 209.944 333.141 208.37 333.46C209.511 334.094 210.645 334.73 211.78 335.365C213.314 335.144 214.842 334.926 216.375 334.704L216.376 334.707ZM220.019 337.142C218.934 336.41 217.836 335.679 216.743 334.95C215.229 335.166 213.718 335.384 212.202 335.603C213.329 336.236 214.456 336.872 215.579 337.507C217.062 337.384 218.54 337.265 220.021 337.142L220.019 337.142ZM223.622 339.589C222.553 338.861 221.489 338.132 220.414 337.406C218.955 337.525 217.498 337.644 216.035 337.765C217.155 338.396 218.279 339.026 219.39 339.657C220.803 339.633 222.213 339.611 223.622 339.589ZM227.212 342.042C226.159 341.32 225.106 340.599 224.048 339.877C222.663 339.899 221.279 339.921 219.891 339.944C220.983 340.57 222.066 341.195 223.155 341.823C224.508 341.896 225.861 341.968 227.212 342.042ZM230.796 344.502C229.767 343.789 228.725 343.077 227.687 342.367C226.369 342.294 225.049 342.223 223.729 342.152C224.803 342.77 225.88 343.386 226.946 344.005C228.231 344.171 229.517 344.338 230.798 344.503L230.796 344.502ZM234.307 346.957C233.312 346.262 232.323 345.568 231.326 344.874C230.092 344.712 228.857 344.552 227.62 344.394C228.656 344.996 229.683 345.598 230.715 346.201C231.914 346.454 233.112 346.706 234.307 346.96L234.307 346.957ZM237.798 349.399C236.852 348.73 235.894 348.066 234.938 347.4C233.799 347.16 232.666 346.915 231.523 346.676C232.508 347.253 233.493 347.832 234.474 348.41C235.584 348.74 236.694 349.07 237.8 349.402L237.798 349.399ZM241.161 351.784C240.3 351.172 239.446 350.559 238.581 349.949C237.566 349.643 236.557 349.34 235.538 349.036C236.458 349.578 237.376 350.117 238.287 350.659C239.245 351.035 240.206 351.409 241.16 351.787L241.161 351.784ZM244.267 354.004C243.564 353.5 242.858 352.996 242.154 352.495C241.383 352.191 240.604 351.888 239.829 351.583C240.544 352.013 241.261 352.441 241.975 352.872C242.741 353.25 243.502 353.628 244.264 354.006L244.267 354.004ZM246.356 355.497C246.162 355.357 245.966 355.219 245.77 355.078C245.556 354.971 245.34 354.867 245.127 354.761C245.538 355.006 245.95 355.251 246.358 355.498L246.356 355.497ZM217.935 331.234C216.861 330.399 215.79 329.563 214.707 328.731C213.065 329.151 211.43 329.568 209.785 329.99C210.911 330.726 212.032 331.463 213.147 332.201C214.744 331.879 216.34 331.557 217.935 331.236L217.935 331.234ZM221.442 333.978C220.374 333.143 219.308 332.305 218.237 331.469L213.487 332.426C214.598 333.165 215.697 333.904 216.802 334.642C218.349 334.419 219.897 334.199 221.44 333.978L221.442 333.978ZM224.959 336.736C223.901 335.898 222.829 335.064 221.761 334.228C220.233 334.446 218.7 334.668 217.168 334.887C218.275 335.626 219.385 336.362 220.482 337.103C221.975 336.981 223.47 336.857 224.959 336.736ZM228.42 339.512C227.375 338.677 226.341 337.839 225.293 337.004C223.825 337.122 222.348 337.244 220.877 337.365C221.965 338.1 223.039 338.84 224.123 339.58C225.556 339.556 226.991 339.533 228.42 339.512ZM231.898 342.3C230.867 341.467 229.825 340.634 228.784 339.804C227.374 339.826 225.961 339.847 224.547 339.871C225.625 340.603 226.697 341.34 227.769 342.073C229.147 342.148 230.522 342.224 231.898 342.3ZM235.335 345.096C234.323 344.271 233.316 343.445 232.298 342.621C230.949 342.547 229.596 342.472 228.244 342.397C229.305 343.125 230.364 343.855 231.415 344.583C232.723 344.753 234.03 344.923 235.335 345.096ZM238.759 347.906C237.767 347.089 236.772 346.272 235.774 345.454C234.501 345.286 233.224 345.119 231.949 344.953C232.981 345.673 234.007 346.393 235.035 347.111C236.281 347.375 237.519 347.641 238.759 347.906ZM242.168 350.714C241.208 349.915 240.234 349.117 239.264 348.32C238.066 348.065 236.869 347.808 235.666 347.554C236.674 348.259 237.687 348.962 238.687 349.667C239.851 350.016 241.009 350.367 242.169 350.717L242.168 350.714ZM245.45 353.473C244.548 352.717 243.651 351.957 242.747 351.2C241.651 350.869 240.557 350.538 239.456 350.208C240.396 350.875 241.325 351.546 242.262 352.212C243.325 352.631 244.39 353.051 245.449 353.47L245.45 353.473ZM248.682 356.19C247.853 355.487 247.013 354.786 246.176 354.086C245.203 353.697 244.234 353.313 243.257 352.926C244.136 353.551 245.015 354.179 245.886 354.805C246.816 355.265 247.754 355.728 248.682 356.19ZM251.688 358.751C251.012 358.173 250.344 357.596 249.666 357.018C248.907 356.638 248.152 356.257 247.39 355.877C248.098 356.387 248.796 356.899 249.501 357.411C250.233 357.857 250.961 358.304 251.689 358.748L251.688 358.751ZM253.671 360.457L253.068 359.938L252.402 359.532C252.824 359.841 253.249 360.148 253.671 360.457ZM223.124 330.192C222.084 329.253 221.053 328.313 220.006 327.377C218.358 327.798 216.712 328.22 215.062 328.64C216.15 329.479 217.225 330.319 218.305 331.161L223.124 330.192ZM226.503 333.256C225.469 332.314 224.433 331.374 223.393 330.433L218.608 331.396C219.688 332.238 220.762 333.08 221.836 333.923L226.503 333.256ZM229.879 336.34C228.856 335.396 227.82 334.453 226.784 333.513C225.242 333.733 223.699 333.954 222.155 334.175C223.231 335.018 224.309 335.859 225.374 336.705C226.879 336.583 228.379 336.463 229.879 336.34ZM233.212 339.443C232.198 338.499 231.192 337.555 230.172 336.612C228.684 336.73 227.2 336.85 225.709 336.973C226.769 337.816 227.815 338.661 228.869 339.506C230.319 339.482 231.766 339.463 233.212 339.443ZM236.563 342.565C235.56 341.622 234.541 340.679 233.526 339.737C232.095 339.758 230.667 339.778 229.234 339.799C230.288 340.643 231.345 341.483 232.389 342.328C233.784 342.407 235.173 342.485 236.563 342.563L236.563 342.565ZM239.86 345.698C238.873 344.759 237.896 343.82 236.905 342.883C235.533 342.805 234.164 342.728 232.788 342.651C233.822 343.49 234.842 344.33 235.87 345.17C237.203 345.345 238.531 345.521 239.86 345.698ZM243.157 348.849C242.186 347.915 241.207 346.981 240.227 346.049C238.922 345.877 237.617 345.702 236.308 345.531C237.331 346.367 238.35 347.204 239.365 348.04C240.628 348.311 241.898 348.579 243.157 348.849ZM246.432 352.004C245.483 351.084 244.529 350.163 243.572 349.245C242.344 348.982 241.102 348.72 239.87 348.455C240.869 349.278 241.867 350.102 242.855 350.928C244.046 351.286 245.245 351.644 246.432 352.004ZM249.647 355.156C248.73 354.255 247.814 353.355 246.891 352.456C245.744 352.108 244.584 351.76 243.433 351.413C244.388 352.214 245.338 353.013 246.29 353.815C247.414 354.26 248.529 354.707 249.647 355.156ZM252.859 358.303C251.981 357.433 251.089 356.566 250.199 355.697C249.139 355.274 248.08 354.85 247.016 354.425C247.941 355.201 248.869 355.975 249.784 356.751C250.813 357.268 251.832 357.784 252.858 358.3L252.859 358.303ZM255.865 361.313C255.087 360.534 254.318 359.756 253.539 358.977C252.604 358.505 251.671 358.033 250.735 357.563C251.557 358.267 252.372 358.974 253.195 359.678C254.082 360.224 254.981 360.768 255.865 361.313ZM258.734 364.195C258.081 363.538 257.425 362.879 256.768 362.222C256.037 361.772 255.307 361.319 254.574 360.867C255.243 361.443 255.916 362.017 256.581 362.594C257.305 363.127 258.013 363.663 258.735 364.198L258.734 364.195ZM260.793 366.264C260.571 366.039 260.343 365.813 260.118 365.587L259.491 365.118C259.926 365.5 260.358 365.883 260.793 366.264ZM228.31 329.157C227.306 328.115 226.311 327.071 225.298 326.03C223.648 326.45 221.991 326.874 220.339 327.296C221.39 328.238 222.425 329.183 223.47 330.128L228.31 329.157ZM231.555 332.541C230.556 331.496 229.556 330.45 228.549 329.405L223.738 330.371C224.785 331.317 225.829 332.264 226.868 333.21C228.431 332.986 229.995 332.763 231.555 332.541ZM234.795 335.948C233.806 334.898 232.806 333.849 231.804 332.8L227.15 333.463C228.191 334.412 229.231 335.361 230.261 336.312C231.773 336.19 233.285 336.068 234.793 335.948L234.795 335.948ZM237.992 339.379C237.011 338.329 236.037 337.275 235.051 336.225C233.556 336.344 232.053 336.466 230.555 336.587C231.583 337.538 232.598 338.49 233.622 339.442C235.082 339.421 236.538 339.4 237.994 339.38L237.992 339.379ZM241.209 342.832C240.238 341.779 239.249 340.726 238.265 339.675C236.823 339.695 235.379 339.715 233.934 339.736C234.96 340.688 235.991 341.64 237.005 342.594C238.407 342.673 239.811 342.752 241.209 342.832ZM244.371 346.304C243.413 345.252 242.468 344.201 241.504 343.15C240.122 343.069 238.735 342.992 237.346 342.912C238.351 343.861 239.336 344.813 240.334 345.765C241.682 345.945 243.026 346.126 244.371 346.304ZM247.537 349.798C246.592 348.747 245.637 347.698 244.683 346.647C243.358 346.469 242.033 346.291 240.703 346.115C241.7 347.064 242.697 348.014 243.684 348.964C244.971 349.241 246.254 349.518 247.537 349.795L247.537 349.798ZM250.683 353.307C249.755 352.263 248.821 351.223 247.884 350.18C246.623 349.907 245.365 349.632 244.098 349.36C245.075 350.301 246.045 351.241 247.013 352.182C248.243 352.557 249.459 352.931 250.683 353.307ZM253.767 356.803C252.866 355.781 251.967 354.756 251.062 353.735C249.863 353.369 248.677 352.999 247.474 352.634C248.428 353.566 249.379 354.498 250.327 355.431C251.472 355.889 252.627 356.346 253.766 356.806L253.767 356.803ZM256.877 360.331C255.997 359.32 255.097 358.309 254.203 357.299C253.103 356.855 251.985 356.415 250.88 355.97C251.813 356.885 252.75 357.799 253.674 358.715C254.74 359.254 255.815 359.791 256.877 360.331ZM259.862 363.807C259.032 362.845 258.213 361.88 257.382 360.917C256.373 360.405 255.348 359.894 254.334 359.38C255.194 360.243 256.049 361.104 256.907 361.966C257.897 362.579 258.876 363.193 259.861 363.81L259.862 363.807ZM262.787 367.216C262.029 366.327 261.262 365.435 260.498 364.547C259.604 363.989 258.711 363.431 257.813 362.872C258.632 363.694 259.454 364.514 260.266 365.334C261.108 365.959 261.952 366.587 262.79 367.214L262.787 367.216ZM265.467 370.374C264.86 369.653 264.254 368.932 263.642 368.212C262.966 367.703 262.278 367.196 261.6 366.689C262.235 367.34 262.859 367.989 263.494 368.637C264.151 369.216 264.815 369.793 265.468 370.372L265.467 370.374ZM267.23 372.484L266.695 371.845C266.466 371.641 266.243 371.437 266.012 371.231C266.418 371.649 266.827 372.065 267.23 372.484ZM233.492 328.121C232.523 326.976 231.563 325.828 230.587 324.684L225.612 325.951C226.628 326.996 227.624 328.046 228.634 329.094L233.492 328.121ZM236.597 331.827C235.636 330.676 234.673 329.525 233.703 328.374L228.87 329.342C229.881 330.391 230.89 331.444 231.891 332.495L236.595 331.829L236.597 331.827ZM239.706 335.56C238.753 334.404 237.785 333.249 236.819 332.091L232.143 332.755C233.149 333.811 234.152 334.865 235.147 335.923C236.669 335.801 238.187 335.68 239.706 335.56ZM242.762 339.321C241.817 338.161 240.882 336.997 239.931 335.839C238.423 335.959 236.915 336.078 235.401 336.199C236.395 337.259 237.376 338.32 238.364 339.378C239.831 339.359 241.297 339.338 242.76 339.32L242.762 339.321ZM245.839 343.106C244.902 341.941 243.949 340.777 243 339.614C241.549 339.632 240.095 339.652 238.639 339.671C239.632 340.733 240.63 341.794 241.609 342.86C243.022 342.942 244.431 343.023 245.839 343.106ZM248.863 346.913C247.938 345.749 247.024 344.582 246.093 343.419C244.698 343.337 243.302 343.258 241.902 343.177C242.875 344.239 243.826 345.305 244.793 346.367C246.152 346.55 247.509 346.732 248.864 346.915L248.863 346.913ZM251.891 350.752C250.975 349.585 250.054 348.417 249.13 347.251C247.79 347.068 246.448 346.888 245.104 346.707C246.072 347.771 247.039 348.836 247.998 349.901C249.299 350.183 250.594 350.469 251.892 350.75L251.891 350.752ZM254.902 354.608C254.002 353.446 253.093 352.284 252.183 351.124C250.904 350.846 249.627 350.565 248.344 350.286C249.297 351.345 250.241 352.406 251.183 353.466C252.425 353.848 253.665 354.228 254.904 354.608L254.902 354.608ZM257.858 358.469C256.978 357.318 256.102 356.168 255.215 355.018C254.001 354.642 252.781 354.267 251.56 353.895C252.487 354.94 253.409 355.987 254.329 357.034C255.514 357.512 256.679 357.99 257.858 358.469ZM260.842 362.365C259.978 361.221 259.093 360.079 258.216 358.936C257.066 358.468 255.927 358.001 254.772 357.536C255.69 358.577 256.611 359.618 257.517 360.661C258.633 361.227 259.731 361.797 260.842 362.365ZM263.705 366.207C262.884 365.107 262.075 364.005 261.252 362.905C260.175 362.352 259.108 361.8 258.025 361.248C258.902 362.263 259.767 363.281 260.64 364.295C261.661 364.932 262.69 365.569 263.705 366.207ZM266.578 370.073C265.786 368.998 264.983 367.921 264.18 366.848C263.219 366.244 262.239 365.64 261.273 365.034C262.115 366.011 262.959 366.988 263.788 367.966C264.723 368.668 265.648 369.37 266.578 370.073ZM269.346 373.851C268.631 372.869 267.918 371.885 267.195 370.903C266.34 370.256 265.496 369.606 264.637 368.96C265.381 369.845 266.112 370.729 266.854 371.613C267.692 372.359 268.514 373.107 269.346 373.854L269.346 373.851ZM271.858 377.331C271.283 376.532 270.704 375.731 270.127 374.934C269.461 374.336 268.798 373.738 268.129 373.139C268.746 373.877 269.367 374.615 269.979 375.354C270.609 376.013 271.23 376.673 271.857 377.333L271.858 377.331ZM273.61 379.758C273.434 379.512 273.255 379.265 273.077 379.018L272.596 378.513C272.937 378.928 273.271 379.343 273.611 379.761L273.61 379.758ZM238.669 327.086C237.74 325.836 236.813 324.587 235.874 323.339C234.21 323.761 232.552 324.182 230.885 324.606C231.865 325.754 232.825 326.907 233.798 328.058C235.422 327.733 237.047 327.409 238.669 327.086ZM241.635 331.114C240.712 329.858 239.791 328.6 238.859 327.344L234.011 328.312C234.985 329.467 235.952 330.624 236.919 331.782C238.493 331.559 240.065 331.338 241.637 331.114L241.635 331.114ZM244.614 335.169C243.699 333.905 242.763 332.645 241.833 331.382L237.139 332.046C238.109 333.207 239.08 334.368 240.037 335.534C241.563 335.413 243.091 335.29 244.614 335.169ZM247.527 339.258C246.62 337.988 245.728 336.717 244.813 335.448C243.3 335.567 241.78 335.689 240.262 335.81C241.219 336.978 242.16 338.147 243.11 339.312C244.585 339.293 246.056 339.275 247.527 339.258ZM250.461 343.377C249.562 342.101 248.648 340.827 247.737 339.553C246.276 339.571 244.815 339.589 243.349 339.608C244.305 340.781 245.267 341.953 246.209 343.125C247.628 343.208 249.044 343.291 250.459 343.376L250.461 343.377ZM253.354 347.521C252.465 346.243 251.582 344.964 250.685 343.689C249.28 343.605 247.875 343.522 246.465 343.439C247.405 344.613 248.323 345.79 249.255 346.964C250.623 347.15 251.991 347.335 253.354 347.521ZM256.232 351.698C255.355 350.415 254.472 349.134 253.584 347.854C252.233 347.668 250.878 347.484 249.521 347.303C250.455 348.483 251.388 349.662 252.313 350.842C253.617 351.127 254.93 351.41 256.231 351.697L256.232 351.698ZM259.109 355.9C258.243 354.618 257.36 353.34 256.481 352.06C255.196 351.777 253.898 351.496 252.606 351.214C253.526 352.39 254.441 353.567 255.352 354.745C256.603 355.132 257.864 355.516 259.108 355.903L259.109 355.9ZM261.923 360.119C261.072 358.845 260.23 357.57 259.373 356.296C258.143 355.913 256.9 355.534 255.664 355.152C256.568 356.323 257.461 357.497 258.356 358.67C259.546 359.153 260.737 359.638 261.92 360.121L261.923 360.119ZM264.761 364.374C263.924 363.101 263.067 361.83 262.217 360.558C261.055 360.083 259.883 359.609 258.715 359.133C259.612 360.302 260.514 361.473 261.397 362.646C262.519 363.222 263.643 363.797 264.759 364.374L264.761 364.374ZM267.516 368.616C266.708 367.369 265.911 366.123 265.096 364.878C264.001 364.312 262.898 363.748 261.796 363.183C262.648 364.321 263.486 365.46 264.334 366.597C265.403 367.269 266.455 367.944 267.516 368.616ZM270.265 372.872C269.482 371.648 268.689 370.425 267.896 369.201C266.869 368.549 265.852 367.897 264.819 367.246C265.668 368.383 266.519 369.52 267.356 370.659C268.329 371.396 269.3 372.135 270.266 372.872L270.265 372.872ZM272.949 377.085C272.211 375.917 271.471 374.748 270.723 373.579C269.811 372.881 268.891 372.186 267.972 371.489C268.754 372.559 269.518 373.629 270.294 374.697C271.179 375.493 272.071 376.288 272.95 377.083L272.949 377.085ZM275.498 381.159C274.831 380.091 274.163 379.019 273.492 377.952C272.693 377.228 271.88 376.503 271.077 375.781C271.803 376.784 272.53 377.789 273.25 378.791C273.997 379.581 274.756 380.37 275.5 381.16L275.498 381.159ZM277.947 385.075C277.391 384.173 276.822 383.273 276.257 382.371C275.664 381.738 275.063 381.108 274.468 380.477C275.055 381.299 275.63 382.122 276.211 382.944C276.787 383.653 277.374 384.364 277.947 385.075ZM279.524 387.666C279.364 387.403 279.208 387.142 279.048 386.879C278.831 386.608 278.622 386.339 278.406 386.068C278.777 386.6 279.153 387.134 279.525 387.663L279.524 387.666ZM243.851 326.05C242.961 324.697 242.065 323.344 241.16 321.995C239.496 322.417 237.83 322.841 236.162 323.264C237.104 324.515 238.032 325.769 238.963 327.025C240.592 326.699 242.222 326.376 243.848 326.051L243.851 326.05ZM246.673 330.4C245.787 329.039 244.912 327.675 244.021 326.312C242.401 326.633 240.778 326.958 239.156 327.281C240.092 328.541 241.016 329.805 241.944 331.065C243.522 330.843 245.1 330.619 246.674 330.398L246.673 330.4ZM249.518 334.781C248.64 333.409 247.74 332.041 246.848 330.673C245.281 330.892 243.711 331.117 242.141 331.338C243.073 332.605 244.011 333.873 244.931 335.144C246.463 335.022 247.99 334.904 249.517 334.784L249.518 334.781ZM252.291 339.197C251.424 337.82 250.574 336.44 249.7 335.064C248.177 335.183 246.656 335.302 245.13 335.423C246.049 336.699 246.947 337.977 247.858 339.253C249.337 339.235 250.816 339.216 252.29 339.2L252.291 339.197ZM255.077 343.649C254.217 342.263 253.346 340.877 252.476 339.493C251.011 339.51 249.538 339.528 248.069 339.546C248.986 340.829 249.905 342.11 250.81 343.393C252.233 343.477 253.659 343.56 255.078 343.646L255.077 343.649ZM257.839 348.133C256.988 346.742 256.133 345.35 255.272 343.958C253.862 343.872 252.447 343.79 251.032 343.705C251.935 344.989 252.823 346.277 253.716 347.564C255.093 347.752 256.467 347.941 257.84 348.13L257.839 348.133ZM260.566 352.651C259.725 351.256 258.888 349.858 258.039 348.462C256.678 348.274 255.314 348.087 253.946 347.9C254.843 349.193 255.732 350.484 256.619 351.777C257.938 352.067 259.253 352.358 260.568 352.652L260.566 352.651ZM263.315 357.211C262.483 355.807 261.626 354.406 260.779 353.006C259.476 352.715 258.176 352.426 256.866 352.139C257.753 353.432 258.641 354.728 259.516 356.023C260.79 356.418 262.048 356.815 263.315 357.211ZM265.971 361.773C265.157 360.379 264.357 358.987 263.537 357.595C262.284 357.202 261.039 356.81 259.78 356.418C260.648 357.709 261.504 359.003 262.366 360.294C263.569 360.786 264.772 361.28 265.971 361.773ZM268.657 366.385C267.853 364.99 267.035 363.592 266.218 362.198C265.035 361.709 263.85 361.223 262.662 360.736C263.527 362.031 264.402 363.326 265.253 364.622C266.389 365.21 267.524 365.795 268.657 366.385ZM271.286 371.005C270.505 369.624 269.727 368.243 268.936 366.862C267.821 366.282 266.706 365.702 265.585 365.121C266.418 366.396 267.23 367.676 268.059 368.952C269.136 369.637 270.216 370.32 271.287 371.003L271.286 371.005ZM273.885 375.635C273.124 374.27 272.358 372.906 271.587 371.544C270.542 370.876 269.486 370.208 268.436 369.541C269.257 370.807 270.08 372.074 270.889 373.342C271.889 374.105 272.891 374.869 273.884 375.635L273.885 375.635ZM276.481 380.304C275.743 378.961 274.995 377.619 274.247 376.278C273.283 375.536 272.317 374.793 271.347 374.052C272.126 375.277 272.893 376.501 273.665 377.724C274.612 378.583 275.541 379.444 276.481 380.304ZM278.962 384.879C278.274 383.609 277.589 382.337 276.896 381.065C276.002 380.245 275.119 379.426 274.219 378.607C274.961 379.79 275.701 380.969 276.435 382.153C277.286 383.06 278.117 383.97 278.962 384.879ZM281.442 389.456C280.803 388.258 280.146 387.06 279.494 385.861C278.736 385.043 277.982 384.224 277.219 383.405C277.895 384.492 278.565 385.58 279.231 386.667C279.975 387.595 280.704 388.525 281.442 389.453L281.442 389.456ZM283.596 393.554C283.108 392.629 282.631 391.702 282.144 390.778C281.548 390.025 280.951 389.273 280.352 388.519C280.849 389.341 281.348 390.163 281.845 390.985C282.437 391.842 283.009 392.698 283.596 393.554ZM284.911 396.069L284.663 395.593L284.414 395.228C284.582 395.509 284.745 395.789 284.911 396.069ZM249.032 325.024C248.181 323.567 247.313 322.11 246.446 320.656C244.78 321.078 243.107 321.505 241.441 321.928C242.345 323.284 243.244 324.642 244.135 325.997C245.769 325.672 247.4 325.349 249.032 325.024ZM251.711 329.695C250.867 328.227 250.037 326.757 249.185 325.29C247.56 325.611 245.936 325.934 244.307 326.26C245.201 327.626 246.082 328.994 246.97 330.362C248.554 330.139 250.132 329.917 251.711 329.695ZM254.407 334.401C253.572 332.922 252.718 331.448 251.868 329.97C250.295 330.191 248.723 330.412 247.146 330.631C248.04 332.006 248.944 333.38 249.824 334.759C251.353 334.639 252.882 334.519 254.407 334.401ZM257.054 339.147C256.227 337.66 255.408 336.17 254.57 334.685C253.051 334.802 251.528 334.921 250.006 335.041C250.885 336.424 251.735 337.812 252.608 339.196C254.094 339.177 255.574 339.162 257.056 339.148L257.054 339.147ZM259.689 343.93C258.87 342.432 258.046 340.938 257.216 339.442C255.742 339.459 254.269 339.473 252.789 339.489C253.666 340.882 254.542 342.275 255.406 343.667C256.836 343.753 258.263 343.842 259.689 343.927L259.689 343.93ZM262.321 348.754C261.511 347.248 260.684 345.743 259.858 344.24C258.44 344.154 257.023 344.066 255.6 343.981C256.467 345.382 257.324 346.78 258.178 348.183C259.561 348.372 260.941 348.566 262.32 348.757L262.321 348.754ZM264.894 353.617C264.094 352.106 263.302 350.592 262.494 349.081C261.125 348.891 259.754 348.702 258.379 348.51C259.237 349.916 260.082 351.324 260.927 352.732C262.255 353.026 263.572 353.321 264.894 353.617ZM267.488 358.517C266.697 356.998 265.883 355.481 265.078 353.966C263.765 353.672 262.457 353.38 261.14 353.086C261.992 354.501 262.853 355.913 263.69 357.33C264.956 357.725 266.226 358.12 267.488 358.517ZM270.01 363.445C269.233 361.927 268.472 360.409 267.686 358.894C266.434 358.499 265.171 358.107 263.914 357.714C264.744 359.122 265.553 360.533 266.374 361.942C267.591 362.442 268.799 362.946 270.01 363.447L270.01 363.445ZM272.536 368.413C271.771 366.893 270.996 365.371 270.217 363.853C269.021 363.355 267.823 362.858 266.62 362.364C267.448 363.78 268.281 365.197 269.094 366.614C270.246 367.212 271.389 367.813 272.535 368.412L272.536 368.413ZM275.031 373.406C274.282 371.891 273.528 370.378 272.767 368.865C271.639 368.273 270.51 367.682 269.374 367.091C270.175 368.494 270.959 369.897 271.752 371.301C272.849 372.002 273.94 372.704 275.029 373.406L275.031 373.406ZM277.481 378.421C276.75 376.917 276.019 375.415 275.278 373.913C274.205 373.221 273.133 372.53 272.054 371.839C272.845 373.242 273.635 374.644 274.417 376.047C275.443 376.839 276.461 377.631 277.479 378.421L277.481 378.421ZM279.946 383.482C279.231 381.988 278.496 380.498 277.767 379.005C276.774 378.233 275.78 377.461 274.779 376.688C275.549 378.074 276.312 379.458 277.073 380.844C278.033 381.722 278.994 382.601 279.946 383.482ZM282.282 388.459C281.608 387.024 280.941 385.588 280.261 384.154C279.343 383.304 278.411 382.455 277.485 381.607C278.218 382.954 278.947 384.301 279.675 385.649C280.544 386.586 281.418 387.524 282.28 388.461L282.282 388.459ZM284.645 393.488C283.997 392.087 283.332 390.686 282.671 389.284C281.858 388.398 281.027 387.512 280.21 386.627C280.921 387.941 281.633 389.255 282.331 390.57C283.102 391.542 283.881 392.513 284.645 393.486L284.645 393.488ZM286.853 398.328C286.281 397.073 285.725 395.817 285.149 394.56C284.443 393.66 283.715 392.759 283.003 391.857C283.622 393.036 284.237 394.216 284.854 395.395C285.52 396.373 286.193 397.351 286.853 398.328ZM288.899 402.865C288.431 401.822 287.958 400.777 287.486 399.733C286.971 398.967 286.439 398.201 285.92 397.436C286.485 398.513 287.056 399.591 287.61 400.667C288.041 401.401 288.474 402.133 288.901 402.866L288.899 402.865ZM290.395 406.179C290.237 405.822 290.074 405.466 289.914 405.111C289.778 404.877 289.638 404.643 289.502 404.409C289.799 404.999 290.097 405.589 290.395 406.179ZM254.206 323.993C253.399 322.433 252.561 320.876 251.731 319.32C250.057 319.744 248.39 320.159 246.713 320.585C247.583 322.045 248.452 323.505 249.304 324.967C250.938 324.643 252.574 324.318 254.206 323.993ZM256.742 328.988C255.94 327.413 255.158 325.836 254.347 324.263C252.719 324.585 251.087 324.91 249.457 325.233C250.311 326.707 251.144 328.18 251.991 329.654C253.575 329.431 255.16 329.209 256.742 328.988ZM259.291 334.021C258.496 332.434 257.688 330.85 256.881 329.265C255.305 329.485 253.726 329.707 252.148 329.929C253 331.41 253.86 332.894 254.698 334.378C256.231 334.257 257.762 334.14 259.292 334.024L259.291 334.021ZM261.811 339.095C261.026 337.499 260.233 335.902 259.436 334.305C257.913 334.424 256.388 334.54 254.861 334.66C255.701 336.154 256.522 337.65 257.352 339.143C258.84 339.128 260.329 339.11 261.813 339.096L261.811 339.095ZM264.294 344.215C263.515 342.607 262.743 340.998 261.955 339.39C260.477 339.406 258.997 339.421 257.514 339.438C258.348 340.94 259.177 342.444 259.999 343.948C261.434 344.036 262.865 344.125 264.294 344.215ZM266.797 349.379C266.028 347.758 265.228 346.142 264.442 344.524C263.019 344.434 261.596 344.347 260.168 344.261C260.995 345.772 261.824 347.286 262.639 348.801C264.027 348.994 265.413 349.187 266.796 349.382L266.797 349.379ZM269.209 354.581C268.453 352.956 267.712 351.328 266.946 349.705C265.571 349.512 264.191 349.319 262.811 349.128C263.626 350.648 264.423 352.172 265.228 353.695C266.554 353.991 267.889 354.286 269.209 354.584L269.209 354.581ZM271.646 359.833C270.898 358.197 270.131 356.56 269.367 354.923C268.055 354.627 266.729 354.335 265.411 354.04C266.222 355.57 267.044 357.098 267.839 358.629C269.112 359.029 270.378 359.431 271.644 359.832L271.646 359.833ZM274.032 365.112C273.297 363.474 272.563 361.837 271.817 360.201C270.56 359.803 269.303 359.404 268.039 359.006C268.831 360.536 269.597 362.069 270.378 363.601C271.594 364.106 272.822 364.608 274.031 365.114L274.032 365.112ZM276.394 370.434C275.671 368.792 274.943 367.148 274.208 365.506C273.009 365.005 271.792 364.507 270.587 364.007C271.373 365.545 272.16 367.084 272.934 368.622C274.086 369.226 275.25 369.83 276.394 370.434ZM278.762 375.824C278.049 374.172 277.317 372.522 276.588 370.87C275.454 370.272 274.304 369.674 273.164 369.077C273.933 370.611 274.692 372.147 275.451 373.683C276.559 374.398 277.66 375.111 278.762 375.826L278.762 375.824ZM281.038 381.185C280.346 379.557 279.664 377.93 278.965 376.302C277.881 375.597 276.792 374.893 275.7 374.188C276.454 375.72 277.201 377.25 277.945 378.782C278.975 379.582 280.017 380.381 281.038 381.182L281.038 381.185ZM283.361 386.66C282.677 385.018 281.97 383.375 281.27 381.735C280.263 380.946 279.242 380.158 278.229 379.368C278.971 380.894 279.715 382.418 280.443 383.945C281.422 384.85 282.39 385.754 283.361 386.66ZM285.57 392.07C284.92 390.478 284.288 388.888 283.632 387.297C282.676 386.404 281.724 385.51 280.76 384.617C281.466 386.106 282.159 387.594 282.859 389.085C283.772 390.079 284.666 391.076 285.572 392.07L285.57 392.07ZM287.789 397.533C287.16 395.96 286.515 394.388 285.873 392.815C284.997 391.849 284.133 390.885 283.249 389.92C283.949 391.403 284.654 392.886 285.338 394.369C286.165 395.423 286.97 396.479 287.789 397.533ZM289.926 402.925C289.342 401.439 288.76 399.952 288.169 398.466C287.387 397.457 286.617 396.451 285.828 395.443C286.451 396.81 287.061 398.179 287.682 399.549C288.438 400.675 289.175 401.798 289.924 402.925L289.926 402.925ZM291.957 408.158C291.433 406.8 290.906 405.444 290.378 404.088C289.701 403.069 289.035 402.051 288.354 401.034C288.944 402.336 289.538 403.638 290.118 404.94C290.738 406.014 291.344 407.083 291.96 408.156L291.957 408.158ZM293.874 413.119C293.457 412.02 293.031 410.923 292.602 409.822C292.116 408.972 291.64 408.119 291.151 407.268C291.577 408.241 291.992 409.214 292.417 410.189C292.903 411.166 293.39 412.14 293.872 413.119L293.874 413.119ZM294.974 416.085C294.911 415.916 294.85 415.748 294.788 415.582C294.691 415.385 294.598 415.192 294.501 414.998C294.658 415.363 294.819 415.723 294.974 416.087L294.974 416.085ZM151.384 344.532L148.748 345.355L151.129 344.863L153.754 344.179L151.384 344.532ZM156.828 342.834L153.205 343.963L156.43 343.483L160.01 342.554L156.828 342.834ZM162.263 341.14L158.155 342.419C159.348 342.313 160.538 342.209 161.732 342.104L165.774 341.054C164.605 341.082 163.437 341.11 162.263 341.14ZM167.706 339.447L163.301 340.818C164.547 340.788 165.793 340.756 167.038 340.726C168.476 340.352 169.915 339.977 171.35 339.606C170.136 339.555 168.924 339.499 167.708 339.448L167.706 339.447ZM173.142 337.758L168.55 339.185C169.813 339.24 171.073 339.296 172.335 339.35C173.839 338.959 175.34 338.572 176.844 338.184C175.612 338.04 174.379 337.9 173.142 337.758ZM178.578 336.071L173.853 337.537C175.121 337.683 176.388 337.828 177.653 337.975L182.27 336.782C181.041 336.545 179.814 336.308 178.58 336.071L178.578 336.071ZM183.997 334.393L179.187 335.882C180.446 336.122 181.693 336.365 182.944 336.606C184.518 336.201 186.093 335.791 187.665 335.385C186.444 335.052 185.219 334.721 183.996 334.39L183.997 334.393ZM189.436 332.709C187.802 333.214 186.166 333.72 184.53 334.227C185.77 334.562 187.013 334.899 188.251 335.234L193.044 333.999C191.846 333.567 190.641 333.138 189.436 332.709ZM194.863 331.033C193.213 331.541 191.564 332.052 189.914 332.562C191.131 332.996 192.346 333.431 193.557 333.866C195.177 333.45 196.793 333.033 198.412 332.62C197.236 332.089 196.045 331.564 194.863 331.033ZM200.306 329.354C198.637 329.869 196.965 330.386 195.294 330.901C196.485 331.434 197.689 331.968 198.874 332.502C200.498 332.084 202.124 331.668 203.746 331.25C202.598 330.618 201.461 329.985 200.306 329.354ZM205.725 327.686C204.05 328.202 202.374 328.719 200.697 329.234C201.859 329.87 203.007 330.506 204.16 331.144C205.799 330.723 207.444 330.299 209.08 329.88C207.963 329.149 206.846 328.418 205.725 327.686ZM211.15 326.018C209.465 326.536 207.774 327.056 206.086 327.576C207.214 328.31 208.34 329.046 209.462 329.781C211.117 329.357 212.764 328.938 214.419 328.514C213.335 327.681 212.241 326.849 211.149 326.017L211.15 326.018ZM216.579 324.352C214.882 324.873 213.186 325.394 211.488 325.914C212.583 326.75 213.686 327.587 214.775 328.423C216.434 327.998 218.092 327.577 219.749 327.153C218.7 326.217 217.634 325.285 216.579 324.352ZM222.004 322.689C220.302 323.211 218.6 323.732 216.897 324.257C217.957 325.195 219.03 326.13 220.081 327.072C221.744 326.647 223.408 326.22 225.068 325.797C224.055 324.761 223.025 323.725 222.004 322.692L222.004 322.689ZM227.429 321.028L222.306 322.597C223.33 323.636 224.366 324.673 225.383 325.713L230.381 324.44C229.406 323.301 228.414 322.165 227.43 321.026L227.429 321.028ZM232.854 319.37L227.719 320.94C228.705 322.082 229.702 323.222 230.681 324.365C232.353 323.94 234.02 323.516 235.691 323.091C234.752 321.849 233.801 320.609 232.854 319.37ZM238.278 317.714C236.563 318.238 234.847 318.761 233.13 319.286C234.078 320.531 235.034 321.775 235.976 323.02C237.648 322.596 239.321 322.169 240.993 321.747C240.093 320.402 239.187 319.059 238.278 317.714ZM243.703 316.062C241.985 316.584 240.266 317.109 238.546 317.633C239.457 318.981 240.366 320.327 241.268 321.675C242.941 321.251 244.62 320.823 246.29 320.4C245.429 318.954 244.57 317.507 243.702 316.064L243.703 316.062ZM249.129 314.412C247.409 314.934 245.687 315.46 243.964 315.984C244.834 317.433 245.697 318.883 246.559 320.332C248.241 319.908 249.912 319.488 251.591 319.063C250.767 317.513 249.958 315.96 249.128 314.411L249.129 314.412ZM-465.785 311.861C-410.087 429.323 -331.986 499.997 -222.422 464.277C-113.806 428.866 10.5608 388.324 134.728 349.428C27.7012 377.433 -80.5383 406.82 -180.246 433.891C-191.752 437.013 -203.145 440.107 -214.408 443.164C-325.711 473.368 -404.211 402.244 -459.618 286.776L-459.528 286.408C-404.155 401.906 -325.692 473.068 -214.431 442.875C-203.167 439.818 -191.776 436.726 -180.269 433.601C-78.7863 406.049 31.5303 376.1 140.416 347.648L143.122 346.802C25.7734 371.079 -94.7687 397.359 -206.425 421.765C-319.409 446.46 -398.273 374.84 -453.359 261.315L-453.268 260.945C-398.215 374.501 -319.387 446.157 -206.44 421.473C-93.8876 396.873 27.6901 370.368 145.92 345.931L149.547 344.798C34.8883 361.923 -84.573 381.289 -198.443 400.366C-313.096 419.573 -392.325 347.45 -447.099 235.85L-447.007 235.478C-392.265 347.113 -313.071 419.274 -198.448 400.071C-83.9758 380.894 36.1475 361.425 151.362 344.233C152.735 343.804 154.11 343.375 155.482 342.949C43.6776 352.878 -74.5196 365.266 -190.46 378.967C-306.77 392.712 -386.366 320.073 -440.836 210.375L-440.744 210C-386.306 319.734 -306.741 392.411 -190.455 378.67C-74.0603 364.915 44.6128 352.481 156.81 342.534C158.28 342.077 159.748 341.617 161.217 341.161C52.3325 343.87 -64.5263 349.257 -182.476 357.565C-300.43 365.867 -380.397 292.704 -434.571 184.888L-434.478 184.51C-380.336 292.366 -300.398 365.567 -182.464 357.262C-64.1448 348.928 53.075 343.534 162.255 340.833C163.788 340.356 165.321 339.878 166.856 339.403C60.9235 334.883 -54.5561 333.254 -174.491 336.159C-294.079 339.052 -374.42 265.354 -428.304 159.395L-428.211 159.018C-374.358 265.015 -294.045 338.756 -174.473 335.86C-54.2311 332.949 61.5391 334.596 167.7 339.139L172.434 337.668C69.4751 325.914 -44.6078 317.262 -166.509 314.754C-287.713 312.262 -368.432 238.017 -422.035 133.893L-421.942 133.515C-368.369 237.682 -287.675 311.964 -166.481 314.458C-44.3138 316.971 70.0032 325.657 173.144 337.449L177.972 335.952C77.9957 316.96 -34.6692 301.276 -158.526 293.355C-281.333 285.498 -362.434 210.697 -415.763 108.383L-415.671 108.006C-362.371 210.358 -281.293 285.2 -158.49 293.056C-34.3971 300.995 78.4648 316.72 178.585 335.761L183.479 334.246C86.4956 308.011 -24.7349 285.292 -150.54 271.951C-274.94 258.761 -356.424 183.39 -409.491 82.866L-409.397 82.4862C-356.363 183.051 -274.898 258.464 -150.499 271.654C-24.4816 285.017 86.913 307.791 184.012 334.08C185.669 333.567 187.326 333.053 188.981 332.542C94.9992 299.063 -14.8079 269.307 -142.559 250.549C-268.533 232.049 -350.407 156.099 -403.215 57.3367L-403.121 56.9569C-350.343 155.758 -268.489 231.75 -142.507 250.25C-14.5637 269.036 95.3832 298.851 189.461 332.392C191.131 331.877 192.798 331.361 194.466 330.845C103.488 290.118 -4.87779 253.324 -134.572 229.141C-262.111 205.366 -344.376 128.825 -396.937 31.7999L-396.843 31.42C-344.313 128.483 -262.065 205.07 -134.518 228.85C-4.64942 253.062 103.837 289.923 194.894 330.715C196.581 330.194 198.269 329.674 199.955 329.153C111.988 281.177 5.04378 237.345 -126.589 207.741C-255.674 178.713 -338.334 101.564 -390.657 6.25317L-390.563 5.87334C-338.272 101.223 -255.628 178.414 -126.526 207.448C5.26732 237.087 112.311 280.99 200.346 329.033C202.036 328.513 203.723 327.992 205.41 327.474C120.454 272.247 14.9684 221.369 -118.605 186.34C-249.22 152.086 -332.283 74.3193 -384.374 -19.3034L-384.281 -19.6807C-332.219 73.9786 -249.174 151.79 -118.537 186.048C15.1846 221.117 120.76 272.065 205.772 327.362C207.47 326.839 209.17 326.314 210.868 325.794C128.926 263.316 24.8894 205.392 -110.619 164.936C-242.75 125.49 -326.218 47.0893 -378.089 -44.8698L-377.996 -45.2471C-326.156 46.7506 -242.706 125.191 -110.546 164.646C25.1013 205.141 129.219 263.141 211.205 325.69C212.913 325.165 214.619 324.642 216.324 324.118C137.399 254.388 34.8103 189.415 -102.634 143.533C-236.266 98.9243 -320.14 19.8813 -371.802 -70.4461L-371.709 -70.8234C-320.079 19.5371 -236.22 98.6259 -102.556 143.243C35.0193 189.168 137.677 254.217 216.641 324.019C218.352 323.495 220.063 322.968 221.773 322.446C145.867 245.458 44.7295 173.437 -94.6494 122.128C-229.765 72.3902 -314.053 -7.31322 -365.512 -96.0322L-365.419 -96.4071C-313.994 -7.65548 -229.719 72.0918 -94.5663 121.846C44.936 173.201 146.137 245.298 222.076 322.359C223.793 321.833 225.505 321.309 227.22 320.783C154.335 236.542 54.6504 157.468 -86.6653 100.732C-223.246 45.8901 -307.953 -34.4912 -359.219 -121.631L-359.127 -122.006C-307.894 -34.8359 -223.201 45.5887 -86.5768 100.444C54.8539 157.228 154.597 236.377 227.51 320.693C229.229 320.168 230.948 319.64 232.666 319.118C162.804 227.618 64.5708 141.493 -78.6788 79.3262C-216.71 19.4215 -301.839 -61.6516 -352.923 -147.241L-352.831 -147.614C-301.781 -61.9968 -216.666 19.1171 -78.5872 79.041C64.7718 141.255 163.054 227.457 232.941 319.031C234.664 318.505 236.385 317.978 238.106 317.454C171.266 218.694 74.4893 125.518 -70.6941 57.9197C-210.163 -7.0178 -295.711 -88.8053 -346.62 -172.879L-346.532 -173.239C-295.655 -89.1431 -210.116 -7.32357 -70.5977 57.6385C74.6892 125.285 171.515 218.539 238.374 317.372C240.098 316.847 241.823 316.321 243.547 315.798C179.732 209.778 84.4085 109.548 -62.7088 36.5186C-203.616 -33.4303 -289.565 -115.957 -340.309 -198.552L-340.221 -198.909C-289.511 -116.295 -203.568 -33.736 -62.6087 36.2384C84.6059 109.317 179.975 209.626 243.807 315.719C245.533 315.194 247.262 314.667 248.986 314.143C188.198 200.863 94.3258 93.5782 -54.7229 15.115C-197.05 -59.8113 -283.407 -143.086 -333.996 -224.234L-333.908 -224.589C-283.355 -143.425 -197.004 -60.1175 -54.6191 14.8359C94.5251 93.3477 188.439 200.711 249.242 314.064C298.578 299.071 347.084 284.687 393.716 271.351C441.383 257.719 487.084 245.187 529.726 234.22L529.648 234.536C487.038 245.496 441.372 258.019 393.742 271.641C347.146 284.966 298.677 299.343 249.378 314.322C250.211 315.874 251.022 317.431 251.846 318.986C349.561 294.297 443.107 271.995 524.6 255.073L524.524 255.382C443.092 272.294 349.623 294.576 251.986 319.245C252.816 320.807 253.657 322.367 254.468 323.931C300.481 314.817 345.342 306.232 388.259 298.434C434.566 290.017 478.607 282.516 519.394 276.247L519.319 276.553C478.555 282.821 434.543 290.316 388.267 298.727C345.388 306.519 300.572 315.094 254.605 324.198C255.418 325.776 256.203 327.359 257.008 328.938C301.38 322.736 344.445 317.028 385.532 311.973C431.133 306.363 474.29 301.561 514.099 297.786L514.025 298.089C474.238 301.863 431.105 306.662 385.529 312.271C344.487 317.32 301.469 323.024 257.149 329.216C257.959 330.806 258.771 332.395 259.567 333.986C315.995 329.63 369.881 326.059 419.942 323.448C451.117 321.821 480.803 320.569 508.708 319.725L508.635 320.023C480.748 320.867 451.081 322.12 419.928 323.745C369.914 326.356 316.084 329.922 259.712 334.271C260.512 335.872 261.305 337.476 262.092 339.078C299.633 338.699 335.829 338.668 370.347 338.966C418.146 339.381 462.72 340.435 503.207 342.094L503.134 342.39C462.661 340.732 418.102 339.678 370.32 339.265C335.855 338.966 299.715 339 262.236 339.376C263.026 340.99 263.805 342.605 264.586 344.219C282.171 345.316 299.411 346.481 316.267 347.716C383.275 352.621 444.303 358.557 497.591 364.946L497.519 365.239C444.24 358.85 383.225 352.918 316.23 348.012C299.433 346.783 282.255 345.617 264.735 344.526C265.522 346.152 266.324 347.777 267.095 349.407C268.731 349.638 270.366 349.868 271.995 350.098C355.426 361.926 429.448 375.354 491.843 388.33L491.771 388.621C429.382 375.646 355.37 362.219 271.945 350.393C270.383 350.171 268.814 349.952 267.246 349.73C268.016 351.365 268.762 353 269.522 354.637C352.931 373.409 425.449 393.745 485.948 412.308L485.877 412.599C425.433 394.055 352.995 373.739 269.681 354.981C270.448 356.628 271.222 358.277 271.975 359.925C353.345 385.731 422.571 412.95 479.891 436.947L479.82 437.238C422.558 413.266 353.411 386.075 272.146 360.293C272.897 361.941 273.632 363.592 274.371 365.241C353.72 398.386 419.558 432.782 473.652 462.328L473.579 462.624C419.544 433.111 353.788 398.752 274.546 365.64C275.289 367.298 276.025 368.957 276.756 370.617C354.086 411.442 416.402 453.342 467.204 488.556L467.13 488.856C416.388 453.686 354.159 411.838 276.949 371.056C277.683 372.725 278.417 374.391 279.137 376.061C354.435 424.963 413.079 474.742 460.522 515.737L460.446 516.046C413.066 475.103 354.511 425.389 279.342 376.54C280.052 378.194 280.749 379.85 281.449 381.504C354.764 438.967 409.545 497.094 453.572 544.009L453.493 544.33C409.532 497.487 354.844 439.45 281.681 382.054C282.394 383.73 283.119 385.404 283.815 387.078C353.128 451.787 402.963 516.892 442.92 569.101L446.312 573.534L446.229 573.869L442.749 569.321C402.876 517.221 353.16 452.275 284.066 387.7C284.738 389.335 285.393 390.97 286.058 392.604C351.063 464.184 395.847 535.892 431.661 593.255C434.044 597.072 436.387 600.823 438.695 604.511L438.607 604.866C436.269 601.13 433.893 597.327 431.478 593.458C395.755 536.243 351.103 464.75 286.36 393.351C287.029 394.991 287.701 396.628 288.356 398.267C349.334 476.956 389.202 555.505 420.963 618.103C424.28 624.643 427.509 631.004 430.664 637.178L430.571 637.558C427.382 631.322 424.121 624.893 420.766 618.284C389.108 555.888 349.39 477.638 288.734 399.202C289.354 400.77 289.956 402.334 290.568 403.902C347.738 489.965 382.763 575.622 410.533 643.562C414.541 653.367 418.397 662.801 422.149 671.816L422.048 672.225C418.264 663.135 414.375 653.618 410.329 643.723C382.667 576.049 347.806 490.79 291.02 405.065C291.618 406.592 292.216 408.121 292.801 409.65C346.233 503.283 376.402 596.231 400.194 669.563C404.672 683.369 408.926 696.474 413.067 708.762L412.957 709.206C408.784 696.829 404.499 683.622 399.982 669.702C376.32 596.77 346.347 504.43 293.448 411.315C293.969 412.682 294.475 414.048 294.989 415.413C344.736 516.825 370.012 617.259 389.83 696.052C394.552 714.822 398.964 732.359 403.324 748.392L403.205 748.875C398.811 732.743 394.369 715.081 389.613 696.172C369.946 617.987 344.905 518.49 295.903 417.876C296.306 418.961 296.712 420.05 297.113 421.134C343.203 530.534 363.527 638.664 379.366 722.98C381.272 733.12 383.11 742.913 384.923 752.324L384.667 752.25C382.867 742.893 381.036 733.155 379.145 723.08C363.564 640.14 343.642 534.159 299.118 426.597C341.179 543.066 356.594 658.002 368.396 747.571L368.15 747.5C356.17 656.572 340.44 539.525 296.901 421.284C295.367 417.642 293.796 413.998 292.208 410.356C290.625 407.183 289.034 404.01 287.4 400.838C285.512 397.62 283.594 394.403 281.651 391.185C279.803 388.512 277.928 385.836 276.035 383.162C273.982 380.631 271.91 378.101 269.812 375.572C267.676 373.339 265.508 371.107 263.335 368.873C261.056 366.863 258.765 364.854 256.446 362.848C254.108 361.124 251.747 359.402 249.374 357.681C246.889 356.166 244.38 354.654 241.863 353.146C239.261 351.863 236.639 350.581 234.007 349.3C231.352 348.27 228.672 347.242 225.989 346.214C223.215 345.403 220.416 344.595 217.615 343.786C214.739 343.196 211.843 342.608 208.942 342.025C205.987 341.658 203.023 341.293 200.048 340.931C196.984 340.781 193.913 340.632 190.833 340.485C187.663 340.55 184.485 340.617 181.299 340.689C178.042 340.969 174.777 341.252 171.508 341.537C168.155 342.032 164.797 342.529 161.434 343.027C158.002 343.732 154.567 344.439 151.129 345.15C147.575 346.077 144.019 347.005 140.463 347.936C14.4072 387.374 -112.109 428.615 -222.391 464.569C-331.999 500.305 -410.141 429.664 -465.876 312.231L-465.786 311.864L-465.785 311.861Z" fill="white"/>
</mask>
<g mask="url(#mask1_384_5362)">
<path d="M578.009 37.8133L-333.908 -224.589L-510.709 494.605L401.208 757.007L578.009 37.8133Z" fill="url(#paint0_linear_384_5362)"/>
</g>
</g>
</g>
<defs>
<linearGradient id="paint0_linear_384_5362" x1="-405.633" y1="139.806" x2="498.308" y2="362.024" gradientUnits="userSpaceOnUse">
<stop stop-color="#151F27"/>
<stop offset="0.32" stop-color="#79747E"/>
<stop offset="0.68" stop-color="#1E1E1E"/>
<stop offset="1" stop-color="#151F27"/>
</linearGradient>
</defs>
</svg>
