<svg width="61" height="61" viewBox="0 0 61 61" fill="none" xmlns="http://www.w3.org/2000/svg">
<g clip-path="url(#clip0_400_19109)">
<path d="M30.2682 58.2951C45.7136 58.2951 58.2346 45.7742 58.2346 30.3287C58.2346 14.8833 45.7136 2.3623 30.2682 2.3623C14.8228 2.3623 2.30176 14.8833 2.30176 30.3287C2.30176 45.7742 14.8228 58.2951 30.2682 58.2951Z" fill="#25313D"/>
<path d="M30.2677 53.367C42.9914 53.367 53.306 43.0525 53.306 30.3288C53.306 17.6051 42.9914 7.29053 30.2677 7.29053C17.5441 7.29053 7.22949 17.6051 7.22949 30.3288C7.22949 43.0525 17.5441 53.367 30.2677 53.367Z" stroke="url(#paint0_linear_400_19109)" stroke-width="1.5" stroke-miterlimit="10"/>
<path d="M50.2852 50.3468C61.3407 39.2912 61.3407 21.3665 50.2852 10.311C39.2296 -0.744623 21.3049 -0.744626 10.2493 10.311C-0.806233 21.3665 -0.806233 39.2912 10.2493 50.3468C21.3049 61.4023 39.2296 61.4023 50.2852 50.3468Z" stroke="url(#paint1_linear_400_19109)" stroke-width="1.5" stroke-miterlimit="10"/>
<path d="M19.1997 27.1209H17.2956C17.2608 26.8745 17.1898 26.6557 17.0825 26.4644C16.9753 26.2702 16.8376 26.105 16.6695 25.9688C16.5014 25.8326 16.3073 25.7283 16.087 25.6558C15.8696 25.5834 15.6334 25.5471 15.3784 25.5471C14.9175 25.5471 14.5161 25.6616 14.1741 25.8906C13.8322 26.1166 13.567 26.447 13.3786 26.8818C13.1902 27.3136 13.096 27.8382 13.096 28.4555C13.096 29.0902 13.1902 29.6235 13.3786 30.0554C13.5699 30.4872 13.8365 30.8132 14.1785 31.0335C14.5205 31.2538 14.9161 31.3639 15.3653 31.3639C15.6175 31.3639 15.8508 31.3306 16.0653 31.2639C16.2826 31.1973 16.4754 31.1002 16.6435 30.9726C16.8116 30.8422 16.9507 30.6843 17.0608 30.4988C17.1738 30.3133 17.2521 30.1017 17.2956 29.8641L19.1997 29.8728C19.1504 30.2814 19.0273 30.6756 18.8302 31.0552C18.636 31.432 18.3737 31.7697 18.0433 32.0682C17.7158 32.3638 17.3245 32.5986 16.8695 32.7725C16.4174 32.9435 15.9059 33.029 15.3349 33.029C14.5408 33.029 13.8307 32.8493 13.2047 32.4899C12.5816 32.1305 12.0889 31.6103 11.7266 30.9292C11.3672 30.2481 11.1875 29.4235 11.1875 28.4555C11.1875 27.4846 11.3701 26.6586 11.7353 25.9775C12.1004 25.2964 12.596 24.7776 13.2221 24.4212C13.8481 24.0618 14.5524 23.8821 15.3349 23.8821C15.8508 23.8821 16.329 23.9545 16.7695 24.0994C17.213 24.2444 17.6057 24.4559 17.9477 24.7342C18.2897 25.0095 18.5679 25.3471 18.7824 25.7471C18.9997 26.1471 19.1388 26.605 19.1997 27.1209Z" fill="white"/>
<path d="M20.5496 32.9072V24.0038H26.549V25.5558H22.432V27.6773H26.2403V29.2294H22.432V31.3552H26.5663V32.9072H20.5496Z" fill="white"/>
<path d="M28.0455 32.9072V24.0038H29.9279V31.3552H33.7449V32.9072H28.0455Z" fill="white"/>
<path d="M33.5406 25.5558V24.0038H40.8529V25.5558H38.1271V32.9072H36.2664V25.5558H33.5406Z" fill="white"/>
<path d="M42.5038 32.9072H40.4866L43.5602 24.0038H45.9861L49.0553 32.9072H47.0381L44.8079 26.0384H44.7384L42.5038 32.9072ZM42.3777 29.4076H47.1425V30.877H42.3777V29.4076Z" fill="white"/>
<path d="M20.6192 37.4462H20.0262C20.0034 37.3195 19.9609 37.208 19.8988 37.1117C19.8367 37.0154 19.7607 36.9337 19.6707 36.8665C19.5808 36.7994 19.4801 36.7487 19.3685 36.7145C19.2583 36.6803 19.1411 36.6632 19.0169 36.6632C18.7927 36.6632 18.5918 36.7196 18.4144 36.8323C18.2383 36.9451 18.0989 37.1105 17.9963 37.3284C17.8949 37.5463 17.8442 37.8124 17.8442 38.1267C17.8442 38.4434 17.8949 38.7108 17.9963 38.9287C18.0989 39.1467 18.2389 39.3114 18.4163 39.4229C18.5937 39.5344 18.7933 39.5902 19.015 39.5902C19.1379 39.5902 19.2545 39.5737 19.3647 39.5407C19.4763 39.5065 19.577 39.4565 19.6669 39.3906C19.7569 39.3247 19.8329 39.2442 19.895 39.1492C19.9584 39.0529 20.0021 38.9427 20.0262 38.8185L20.6192 38.8204C20.5875 39.0117 20.526 39.1879 20.4348 39.3488C20.3448 39.5084 20.2289 39.6465 20.087 39.7631C19.9463 39.8784 19.7854 39.9678 19.6042 40.0311C19.423 40.0945 19.2254 40.1261 19.0112 40.1261C18.6742 40.1261 18.3739 40.0463 18.1103 39.8867C17.8468 39.7257 17.639 39.4958 17.4869 39.1967C17.3361 38.8977 17.2607 38.541 17.2607 38.1267C17.2607 37.7111 17.3368 37.3544 17.4888 37.0566C17.6409 36.7576 17.8487 36.5282 18.1122 36.3686C18.3758 36.2077 18.6754 36.1272 19.0112 36.1272C19.2178 36.1272 19.4104 36.157 19.589 36.2165C19.7689 36.2748 19.9305 36.361 20.0737 36.475C20.2169 36.5878 20.3353 36.7259 20.4291 36.8894C20.5229 37.0515 20.5862 37.2372 20.6192 37.4462Z" fill="white"/>
<path d="M21.3219 40.0729V36.1804H23.7623V36.686H21.9092V37.872H23.635V38.3757H21.9092V39.5673H23.7852V40.0729H21.3219Z" fill="white"/>
<path d="M24.5468 40.0729V36.1804H25.9343C26.2359 36.1804 26.4861 36.2324 26.685 36.3363C26.8852 36.4402 27.0348 36.584 27.1336 36.7677C27.2324 36.9502 27.2818 37.1611 27.2818 37.4006C27.2818 37.6388 27.2318 37.8485 27.1317 38.0297C27.0329 38.2097 26.8833 38.3497 26.6831 38.4498C26.4842 38.5499 26.234 38.5999 25.9324 38.5999H24.8813V38.0944H25.8792C26.0692 38.0944 26.2238 38.0671 26.3429 38.0126C26.4633 37.9581 26.5514 37.879 26.6071 37.775C26.6629 37.6711 26.6908 37.5463 26.6908 37.4006C26.6908 37.2536 26.6622 37.1263 26.6052 37.0186C26.5495 36.9109 26.4614 36.8285 26.341 36.7715C26.2219 36.7132 26.0654 36.6841 25.8716 36.6841H25.1341V40.0729H24.5468ZM26.4684 38.3167L27.4301 40.0729H26.7611L25.8184 38.3167H26.4684Z" fill="white"/>
<path d="M27.8045 36.686V36.1804H30.817V36.686H29.6025V40.0729H29.0171V36.686H27.8045Z" fill="white"/>
<path d="M32.07 36.1804V40.0729H31.4827V36.1804H32.07Z" fill="white"/>
<path d="M32.9253 40.0729V36.1804H35.3391V36.686H33.5126V37.872H35.1662V38.3757H33.5126V40.0729H32.9253Z" fill="white"/>
<path d="M36.6487 36.1804V40.0729H36.0614V36.1804H36.6487Z" fill="white"/>
<path d="M37.5039 40.0729V36.1804H39.9444V36.686H38.0912V37.872H39.817V38.3757H38.0912V39.5673H39.9672V40.0729H37.5039Z" fill="white"/>
<path d="M41.989 40.0729H40.7289V36.1804H42.0289C42.4103 36.1804 42.7378 36.2583 43.0115 36.4142C43.2852 36.5688 43.4949 36.7912 43.6406 37.0813C43.7876 37.3702 43.8611 37.7168 43.8611 38.121C43.8611 38.5264 43.787 38.8749 43.6387 39.1663C43.4917 39.4577 43.2789 39.682 43.0001 39.8391C42.7214 39.995 42.3843 40.0729 41.989 40.0729ZM41.3161 39.5597H41.9567C42.2532 39.5597 42.4996 39.504 42.696 39.3925C42.8924 39.2797 43.0394 39.1169 43.137 38.904C43.2345 38.6899 43.2833 38.4289 43.2833 38.121C43.2833 37.8156 43.2345 37.5565 43.137 37.3436C43.0407 37.1307 42.8968 36.9692 42.7055 36.8589C42.5142 36.7487 42.2766 36.6936 41.9928 36.6936H41.3161V39.5597Z" fill="white"/>
<path d="M12.4453 38.1266C12.4453 37.6187 12.8574 37.2114 13.3605 37.2114C13.8636 37.2114 14.2757 37.6235 14.2757 38.1266C14.2757 38.6297 13.8636 39.0418 13.3605 39.0418C12.8574 39.0418 12.4453 38.6297 12.4453 38.1266Z" fill="white"/>
<path d="M46.335 38.1266C46.335 37.6187 46.747 37.2114 47.2502 37.2114C47.7533 37.2114 48.1654 37.6235 48.1654 38.1266C48.1654 38.6297 47.7533 39.0418 47.2502 39.0418C46.747 39.0418 46.335 38.6297 46.335 38.1266Z" fill="white"/>
</g>
<defs>
<linearGradient id="paint0_linear_400_19109" x1="6.63789" y1="30.3288" x2="53.8927" y2="30.3288" gradientUnits="userSpaceOnUse">
<stop stop-color="#EEC880"/>
<stop offset="0.02" stop-color="#ECC57B"/>
<stop offset="0.14" stop-color="#DDAE55"/>
<stop offset="0.26" stop-color="#D29B37"/>
<stop offset="0.38" stop-color="#CA8E22"/>
<stop offset="0.49" stop-color="#C58615"/>
<stop offset="0.6" stop-color="#C48411"/>
<stop offset="0.91" stop-color="#E7B96C"/>
<stop offset="1" stop-color="#F1C986"/>
</linearGradient>
<linearGradient id="paint1_linear_400_19109" x1="1.69873" y1="33.8678" x2="58.8388" y2="26.7811" gradientUnits="userSpaceOnUse">
<stop stop-color="#EEC880"/>
<stop offset="0.02" stop-color="#ECC57B"/>
<stop offset="0.14" stop-color="#DDAE55"/>
<stop offset="0.26" stop-color="#D29B37"/>
<stop offset="0.38" stop-color="#CA8E22"/>
<stop offset="0.49" stop-color="#C58615"/>
<stop offset="0.6" stop-color="#C48411"/>
<stop offset="0.91" stop-color="#E7B96C"/>
<stop offset="1" stop-color="#F1C986"/>
</linearGradient>
<clipPath id="clip0_400_19109">
<rect width="60" height="60" fill="white" transform="translate(0.265625 0.32666)"/>
</clipPath>
</defs>
</svg>
