<svg width="61" height="61" viewBox="0 0 61 61" fill="none" xmlns="http://www.w3.org/2000/svg">
<g clip-path="url(#clip0_384_1923)">
<path d="M30.6637 58.2951C46.1091 58.2951 58.6301 45.7742 58.6301 30.3287C58.6301 14.8833 46.1091 2.3623 30.6637 2.3623C15.2183 2.3623 2.69727 14.8833 2.69727 30.3287C2.69727 45.7742 15.2183 58.2951 30.6637 58.2951Z" fill="#25313D"/>
<path d="M30.6652 53.367C43.3889 53.367 53.7035 43.0525 53.7035 30.3288C53.7035 17.6051 43.3889 7.29053 30.6652 7.29053C17.9415 7.29053 7.62695 17.6051 7.62695 30.3288C7.62695 43.0525 17.9415 53.367 30.6652 53.367Z" stroke="url(#paint0_linear_384_1923)" stroke-width="1.5" stroke-miterlimit="10"/>
<path d="M50.8272 50.4911C61.9626 39.3557 61.9626 21.3016 50.8272 10.1662C39.6918 -0.969259 21.6377 -0.969264 10.5023 10.1662C-0.633114 21.3016 -0.633114 39.3557 10.5023 50.4911C21.6377 61.6265 39.6918 61.6265 50.8272 50.4911Z" stroke="url(#paint1_linear_384_1923)" stroke-width="1.5" stroke-miterlimit="10"/>
<path d="M15.8105 32.9563H12.7168V24.229H15.8361C16.714 24.229 17.4696 24.4037 18.1032 24.7532C18.7367 25.0997 19.2239 25.5983 19.5648 26.2489C19.9086 26.8995 20.0804 27.6779 20.0804 28.5841C20.0804 29.4932 19.9086 30.2745 19.5648 30.9279C19.2239 31.5813 18.7338 32.0827 18.0946 32.4321C17.4583 32.7816 16.6969 32.9563 15.8105 32.9563ZM14.562 31.3753H15.7338C16.2793 31.3753 16.7381 31.2787 17.1103 31.0855C17.4853 30.8895 17.7665 30.587 17.954 30.1779C18.1444 29.7659 18.2395 29.2347 18.2395 28.5841C18.2395 27.9392 18.1444 27.4122 17.954 27.0032C17.7665 26.5941 17.4867 26.2929 17.1145 26.0997C16.7424 25.9066 16.2836 25.81 15.7381 25.81H14.562V31.3753Z" fill="white"/>
<path d="M21.4473 32.9563V24.229H27.3279V25.7503H23.2924V27.8299H27.0254V29.3512H23.2924V31.435H27.345V32.9563H21.4473Z" fill="white"/>
<path d="M28.7949 32.9563V24.229H30.6401V31.435H34.3816V32.9563H28.7949Z" fill="white"/>
<path d="M34.1813 25.7503V24.229H41.3489V25.7503H38.677V32.9563H36.8532V25.7503H34.1813Z" fill="white"/>
<path d="M42.9672 32.9563H40.9899L44.0027 24.229H46.3805L49.389 32.9563H47.4118L45.2257 26.2233H45.1575L42.9672 32.9563ZM42.8436 29.5259H47.514V30.9662H42.8436V29.5259Z" fill="white"/>
<path d="M21.0166 37.446H20.4236C20.4008 37.3193 20.3584 37.2078 20.2963 37.1115C20.2342 37.0152 20.1582 36.9335 20.0682 36.8663C19.9782 36.7991 19.8775 36.7485 19.766 36.7142C19.6558 36.68 19.5386 36.6629 19.4144 36.6629C19.1901 36.6629 18.9893 36.7193 18.8119 36.8321C18.6358 36.9449 18.4964 37.1102 18.3937 37.3282C18.2924 37.5461 18.2417 37.8122 18.2417 38.1264C18.2417 38.4432 18.2924 38.7106 18.3937 38.9285C18.4964 39.1464 18.6364 39.3112 18.8138 39.4227C18.9912 39.5342 19.1907 39.5899 19.4125 39.5899C19.5354 39.5899 19.652 39.5734 19.7622 39.5405C19.8737 39.5063 19.9744 39.4562 20.0644 39.3903C20.1544 39.3245 20.2304 39.244 20.2925 39.149C20.3558 39.0527 20.3996 38.9424 20.4236 38.8183L21.0166 38.8202C20.985 39.0115 20.9235 39.1876 20.8323 39.3485C20.7423 39.5082 20.6264 39.6463 20.4844 39.7629C20.3438 39.8782 20.1829 39.9675 20.0017 40.0309C19.8205 40.0942 19.6228 40.1259 19.4087 40.1259C19.0716 40.1259 18.7713 40.0461 18.5078 39.8864C18.2442 39.7255 18.0364 39.4955 17.8844 39.1965C17.7336 38.8974 17.6582 38.5408 17.6582 38.1264C17.6582 37.7108 17.7342 37.3541 17.8863 37.0564C18.0383 36.7573 18.2461 36.528 18.5097 36.3683C18.7732 36.2074 19.0729 36.127 19.4087 36.127C19.6152 36.127 19.8078 36.1567 19.9865 36.2163C20.1664 36.2746 20.328 36.3607 20.4711 36.4748C20.6143 36.5875 20.7328 36.7257 20.8266 36.8891C20.9203 37.0513 20.9837 37.2369 21.0166 37.446Z" fill="white"/>
<path d="M21.7194 40.0727V36.1802H24.1598V36.6857H22.3067V37.8717H24.0325V38.3754H22.3067V39.5671H24.1826V40.0727H21.7194Z" fill="white"/>
<path d="M24.9443 40.0727V36.1802H26.3318C26.6333 36.1802 26.8836 36.2321 27.0825 36.336C27.2827 36.4399 27.4322 36.5837 27.5311 36.7675C27.6299 36.9499 27.6793 37.1609 27.6793 37.4004C27.6793 37.6386 27.6293 37.8483 27.5292 38.0295C27.4303 38.2094 27.2808 38.3494 27.0806 38.4495C26.8817 38.5496 26.6314 38.5997 26.3299 38.5997H25.2788V38.0941H26.2766C26.4667 38.0941 26.6213 38.0669 26.7404 38.0124C26.8608 37.9579 26.9488 37.8787 27.0046 37.7748C27.0603 37.6709 27.0882 37.5461 27.0882 37.4004C27.0882 37.2534 27.0597 37.1261 27.0027 37.0184C26.9469 36.9106 26.8589 36.8283 26.7385 36.7713C26.6194 36.713 26.4629 36.6838 26.269 36.6838H25.5316V40.0727H24.9443ZM26.8658 38.3165L27.8276 40.0727H27.1585L26.2158 38.3165H26.8658Z" fill="white"/>
<path d="M28.202 36.6857V36.1802H31.2145V36.6857H30V40.0727H29.4146V36.6857H28.202Z" fill="white"/>
<path d="M32.4675 36.1802V40.0727H31.8802V36.1802H32.4675Z" fill="white"/>
<path d="M33.3228 40.0727V36.1802H35.7366V36.6857H33.9101V37.8717H35.5636V38.3754H33.9101V40.0727H33.3228Z" fill="white"/>
<path d="M37.0461 36.1802V40.0727H36.4588V36.1802H37.0461Z" fill="white"/>
<path d="M37.9014 40.0727V36.1802H40.3418V36.6857H38.4887V37.8717H40.2145V38.3754H38.4887V39.5671H40.3646V40.0727H37.9014Z" fill="white"/>
<path d="M42.3864 40.0727H41.1263V36.1802H42.4263C42.8077 36.1802 43.1353 36.2581 43.409 36.4139C43.6827 36.5685 43.8924 36.7909 44.0381 37.0811C44.1851 37.37 44.2586 37.7165 44.2586 38.1207C44.2586 38.5262 44.1844 38.8746 44.0362 39.1661C43.8892 39.4575 43.6763 39.6818 43.3976 39.8389C43.1188 39.9947 42.7818 40.0727 42.3864 40.0727ZM41.7136 39.5595H42.3541C42.6506 39.5595 42.8971 39.5038 43.0935 39.3922C43.2899 39.2795 43.4369 39.1167 43.5344 38.9038C43.632 38.6896 43.6808 38.4286 43.6808 38.1207C43.6808 37.8154 43.632 37.5562 43.5344 37.3434C43.4381 37.1305 43.2943 36.9689 43.103 36.8587C42.9116 36.7485 42.6741 36.6933 42.3902 36.6933H41.7136V39.5595Z" fill="white"/>
<path d="M12.8418 38.1266C12.8418 37.6187 13.2539 37.2114 13.757 37.2114C14.2601 37.2114 14.6722 37.6235 14.6722 38.1266C14.6722 38.6297 14.2601 39.0418 13.757 39.0418C13.2539 39.0418 12.8418 38.6297 12.8418 38.1266Z" fill="white"/>
<path d="M46.7324 38.1266C46.7324 37.6187 47.1445 37.2114 47.6476 37.2114C48.1507 37.2114 48.5628 37.6235 48.5628 38.1266C48.5628 38.6297 48.1507 39.0418 47.6476 39.0418C47.1445 39.0418 46.7324 38.6297 46.7324 38.1266Z" fill="white"/>
</g>
<defs>
<linearGradient id="paint0_linear_384_1923" x1="7.03535" y1="30.3288" x2="54.2902" y2="30.3288" gradientUnits="userSpaceOnUse">
<stop stop-color="#EEC880"/>
<stop offset="0.02" stop-color="#ECC57B"/>
<stop offset="0.14" stop-color="#DDAE55"/>
<stop offset="0.26" stop-color="#D29B37"/>
<stop offset="0.38" stop-color="#CA8E22"/>
<stop offset="0.49" stop-color="#C58615"/>
<stop offset="0.6" stop-color="#C48411"/>
<stop offset="0.91" stop-color="#E7B96C"/>
<stop offset="1" stop-color="#F1C986"/>
</linearGradient>
<linearGradient id="paint1_linear_384_1923" x1="1.88994" y1="33.8932" x2="59.4426" y2="26.7552" gradientUnits="userSpaceOnUse">
<stop stop-color="#EEC880"/>
<stop offset="0.02" stop-color="#ECC57B"/>
<stop offset="0.14" stop-color="#DDAE55"/>
<stop offset="0.26" stop-color="#D29B37"/>
<stop offset="0.38" stop-color="#CA8E22"/>
<stop offset="0.49" stop-color="#C58615"/>
<stop offset="0.6" stop-color="#C48411"/>
<stop offset="0.91" stop-color="#E7B96C"/>
<stop offset="1" stop-color="#F1C986"/>
</linearGradient>
<clipPath id="clip0_384_1923">
<rect width="60" height="60" fill="white" transform="translate(0.662109 0.32666)"/>
</clipPath>
</defs>
</svg>
