<svg width="420" height="417" viewBox="0 0 420 417" fill="none" xmlns="http://www.w3.org/2000/svg">
<path opacity="0.04" d="M289.626 185.151C446.25 242.88 209.56 416.316 185.897 301.983C174.122 245.095 63.8025 280.287 67.1202 221.592C70.4009 162.913 120.122 167.968 169.431 139.212C230.848 103.07 248.152 169.862 289.626 185.151Z" stroke="#B9C1BE" stroke-width="1.37" stroke-miterlimit="10"/>
<path opacity="0.07" d="M290.841 182.212C437.779 242.782 217.341 413.284 185.948 304.548C170.473 250.952 61.9338 273.893 68.5692 217.154C75.1348 160.455 123.466 160.965 171.719 137.223C231.894 107.612 250.818 165.712 290.845 182.212H290.841Z" stroke="#B9C1BE" stroke-width="1.37" stroke-miterlimit="10"/>
<path opacity="0.11" d="M292.051 179.27C429.27 242.387 225.244 410.366 185.995 307.104C166.894 256.854 60.0608 267.486 70.0099 212.707C79.8562 157.985 126.728 153.863 173.994 135.225C232.838 112.03 253.43 161.503 292.051 179.266V179.27Z" stroke="#B9C1BE" stroke-width="1.37" stroke-miterlimit="10"/>
<path opacity="0.15" d="M293.264 176.331C420.751 241.672 233.323 407.55 186.044 309.664C163.408 262.796 58.1901 261.086 71.4569 208.263C84.5839 155.523 129.967 146.761 176.276 133.232C233.754 116.443 256.012 157.233 293.264 176.326V176.331Z" stroke="#B9C1BE" stroke-width="1.37" stroke-miterlimit="10"/>
<path opacity="0.19" d="M294.478 173.389C412.259 240.595 241.599 404.784 186.094 312.224C160.025 268.755 56.3206 254.684 72.9051 203.825C89.3129 153.062 133.187 139.651 178.558 131.247C234.639 120.858 258.57 152.905 294.478 173.393V173.389Z" stroke="#B9C1BE" stroke-width="1.37" stroke-miterlimit="10"/>
<path opacity="0.23" d="M295.69 170.45C403.827 239.153 250.089 402.006 186.14 314.785C156.749 274.698 54.4459 248.285 74.344 199.383C94.0366 150.596 136.37 132.521 180.836 129.254C235.49 125.234 261.111 148.483 295.686 170.454L295.69 170.45Z" stroke="#B9C1BE" stroke-width="1.37" stroke-miterlimit="10"/>
<path opacity="0.26" d="M296.904 167.507C395.502 237.315 258.797 399.149 186.189 317.34C153.58 280.599 52.5718 241.877 75.7918 194.935C98.7651 148.129 139.544 125.357 183.118 127.256C236.321 129.57 263.657 143.97 296.9 167.507H296.904Z" stroke="#B9C1BE" stroke-width="1.37" stroke-miterlimit="10"/>
<path opacity="0.3" d="M298.115 164.569C387.328 235.097 267.688 396.162 186.237 319.902C150.495 286.44 50.6998 235.479 77.2375 190.493C103.492 145.664 142.704 118.162 185.399 125.263C237.142 133.865 266.225 139.356 298.111 164.565L298.115 164.569Z" stroke="#B9C1BE" stroke-width="1.37" stroke-miterlimit="10"/>
<path opacity="0.34" d="M299.328 161.626C379.361 232.503 276.729 392.981 186.287 322.461C147.473 292.197 48.8294 229.075 78.6807 186.05C108.216 143.202 145.87 110.928 187.681 123.27C237.969 138.114 268.848 134.633 299.328 161.626Z" stroke="#B9C1BE" stroke-width="1.37" stroke-miterlimit="10"/>
<path opacity="0.38" d="M300.542 158.688C371.649 229.577 285.861 389.59 186.337 325.022C144.489 297.873 46.9598 222.677 80.1288 181.612C112.948 140.74 149.057 103.662 189.963 121.281C238.821 142.323 271.558 129.792 300.542 158.688Z" stroke="#B9C1BE" stroke-width="1.37" stroke-miterlimit="10"/>
<path opacity="0.41" d="M301.755 155.746C364.241 226.359 295.025 385.978 186.387 327.579C141.509 303.454 45.0897 216.27 81.5765 177.166C117.677 138.275 152.272 96.3636 192.246 119.284C239.705 146.499 274.395 124.828 301.755 155.746Z" stroke="#B9C1BE" stroke-width="1.37" stroke-miterlimit="10"/>
<path opacity="0.45" d="M302.968 152.807C357.183 222.935 304.177 382.168 186.437 330.143C138.517 308.969 43.2194 209.875 83.0239 172.727C122.405 135.813 155.521 89.056 194.532 117.294C240.63 150.665 277.417 119.748 302.972 152.807H302.968Z" stroke="#B9C1BE" stroke-width="1.37" stroke-miterlimit="10"/>
<path opacity="0.49" d="M304.18 149.869C350.509 219.402 313.278 378.182 186.485 332.704C135.498 314.415 41.3476 203.472 84.4657 168.285C127.128 133.352 158.796 81.7453 196.808 115.302C241.583 154.825 280.66 114.566 304.18 149.865V149.869Z" stroke="#B9C1BE" stroke-width="1.37" stroke-miterlimit="10"/>
<path opacity="0.53" d="M305.394 146.926C344.249 215.863 322.303 374.048 186.536 335.26C132.441 319.807 39.4744 197.069 85.9143 163.838C131.861 130.881 162.103 74.438 199.091 113.304C242.571 158.992 284.189 109.301 305.394 146.922V146.926Z" stroke="#B9C1BE" stroke-width="1.37" stroke-miterlimit="10"/>
<path opacity="0.56" d="M306.605 143.987C338.401 212.464 331.239 369.81 186.583 337.824C129.339 325.166 37.6019 190.67 87.3596 159.403C136.587 128.423 165.423 67.1467 201.375 111.322C243.585 163.184 288.047 104.015 306.609 143.991L306.605 143.987Z" stroke="#B9C1BE" stroke-width="1.37" stroke-miterlimit="10"/>
<path opacity="0.6" d="M307.819 141.045C332.951 209.332 340.083 365.495 186.633 340.38C126.199 330.488 35.7323 184.263 88.8036 154.956C141.312 125.958 168.758 59.8604 203.654 109.325C244.609 167.376 292.25 98.7387 307.819 141.049V141.045Z" stroke="#B9C1BE" stroke-width="1.37" stroke-miterlimit="10"/>
<path d="M220.834 343.785C105.045 579.121 -40.3598 158.958 112.831 163.811C189.541 166.244 163.425 -12.7102 238.47 1.84173C313.515 16.3937 286.55 90.5589 313.999 173.828C348.279 277.819 250.755 282.974 220.834 343.785Z" stroke="#FF914D" stroke-width="1.37" stroke-miterlimit="10"/>
<g style="mix-blend-mode:hard-light" opacity="0.94">
<path d="M224.115 346.303C107.107 566.829 -38.7776 171.213 109.647 163.272C183.388 159.327 171.885 -13.9713 243.544 5.06892C315.191 24.0497 294.521 97.1364 315.798 177.718C342.703 278.163 255.005 288.091 224.115 346.307V346.303Z" stroke="#FF914D" stroke-width="1.37" stroke-miterlimit="10"/>
</g>
<g style="mix-blend-mode:hard-light" opacity="0.88">
<path d="M227.404 348.821C109.465 554.518 -37.4554 183.595 106.466 162.733C177.123 152.491 180.347 -15.2282 248.621 8.29607C316.866 31.7057 302.211 103.765 317.605 181.607C336.779 278.579 259.317 293.165 227.404 348.825V348.821Z" stroke="#FF914D" stroke-width="1.37" stroke-miterlimit="10"/>
</g>
<g style="mix-blend-mode:hard-light" opacity="0.81">
<path d="M230.693 351.339C112.164 542.209 -36.3668 196.185 103.286 162.19C170.757 145.769 188.814 -16.4932 253.699 11.5194C318.545 39.3579 310.049 110.334 319.407 185.489C331.037 278.911 263.689 298.193 230.689 351.339H230.693Z" stroke="#FF914D" stroke-width="1.37" stroke-miterlimit="10"/>
</g>
<g style="mix-blend-mode:hard-light" opacity="0.75">
<path d="M233.976 353.857C115.239 529.937 -35.4494 209.047 100.104 161.65C164.322 139.196 197.276 -17.7546 258.775 14.7463C320.222 47.0136 317.899 116.877 321.208 189.378C325.311 279.225 268.137 303.199 233.972 353.857H233.976Z" stroke="#FF914D" stroke-width="1.37" stroke-miterlimit="10"/>
</g>
<g style="mix-blend-mode:hard-light" opacity="0.69">
<path d="M237.262 356.375C118.721 517.733 -34.6141 222.235 96.9214 161.11C157.855 132.792 205.736 -19.0118 263.853 17.9689C321.899 54.6651 325.773 123.399 323.016 193.263C319.613 279.501 272.672 308.176 237.262 356.375Z" stroke="#FF914D" stroke-width="1.37" stroke-miterlimit="10"/>
</g>
<g style="mix-blend-mode:hard-light" opacity="0.62">
<path d="M240.546 358.893C122.654 505.648 -33.752 235.76 93.7397 160.567C151.411 126.555 214.201 -20.2726 268.929 21.1964C323.576 62.3257 333.665 129.901 324.817 197.153C313.947 279.76 277.301 313.144 240.546 358.893Z" stroke="#FF914D" stroke-width="1.37" stroke-miterlimit="10"/>
</g>
<g style="mix-blend-mode:hard-light" opacity="0.56">
<path d="M243.834 361.411C127.055 493.737 -32.766 249.599 90.5586 160.028C145.027 120.465 222.663 -21.5339 274.006 24.4234C325.255 69.9816 341.6 136.393 326.622 201.038C308.332 279.998 282.047 318.112 243.834 361.411Z" stroke="#FF914D" stroke-width="1.37" stroke-miterlimit="10"/>
</g>
<g style="mix-blend-mode:hard-light" opacity="0.5">
<path d="M247.121 363.93C131.943 482.061 -31.5737 263.705 87.38 159.489C138.735 114.496 231.128 -22.7946 279.085 27.651C326.931 77.6381 349.572 142.882 328.427 204.928C302.762 280.24 286.909 323.119 247.121 363.93Z" stroke="#FF914D" stroke-width="1.37" stroke-miterlimit="10"/>
</g>
<g style="mix-blend-mode:hard-light" opacity="0.44">
<path d="M250.404 366.448C137.308 470.693 -30.1249 277.998 84.1945 158.95C132.542 108.597 239.585 -24.0559 284.157 30.878C328.605 85.2939 357.583 149.379 330.228 208.818C297.24 280.495 291.909 328.193 250.404 366.452V366.448Z" stroke="#FF914D" stroke-width="1.37" stroke-miterlimit="10"/>
</g>
<g style="mix-blend-mode:hard-light" opacity="0.38">
<path d="M253.693 368.965C143.133 459.699 -28.3947 292.405 81.0186 158.406C126.469 102.737 248.052 -25.3174 289.239 34.1006C330.289 92.9453 365.638 155.896 332.035 212.703C291.766 280.77 297.059 333.377 253.693 368.965Z" stroke="#FF914D" stroke-width="1.37" stroke-miterlimit="10"/>
</g>
<g style="mix-blend-mode:hard-light" opacity="0.31">
<path d="M256.981 371.483C149.352 449.164 -26.4026 306.859 77.837 157.866C120.497 96.89 256.514 -26.5786 294.319 37.3277C331.971 100.601 373.722 162.452 333.84 216.588C286.329 281.089 302.355 338.736 256.981 371.483Z" stroke="#FF914D" stroke-width="1.37" stroke-miterlimit="10"/>
</g>
<g style="mix-blend-mode:hard-light" opacity="0.25">
<path d="M260.264 373.998C155.867 439.148 -24.1774 321.306 74.6547 157.323C114.613 91.0265 264.975 -27.8391 299.39 40.5512C333.639 108.254 381.813 169.039 335.64 220.474C280.899 281.45 307.796 344.337 260.264 373.998Z" stroke="#FF914D" stroke-width="1.37" stroke-miterlimit="10"/>
</g>
<g style="mix-blend-mode:hard-light" opacity="0.19">
<path d="M263.552 376.515C162.558 429.725 -21.7477 335.705 71.4732 156.784C108.802 85.1368 273.436 -29.1004 304.47 43.7782C335.322 115.914 389.918 175.671 337.445 224.363C275.484 281.858 313.365 350.274 263.552 376.52V376.515Z" stroke="#FF914D" stroke-width="1.37" stroke-miterlimit="10"/>
</g>
<g style="mix-blend-mode:hard-light" opacity="0.12">
<path d="M266.836 379.033C169.24 420.935 -19.1603 350.035 68.2922 156.244C103.056 79.2044 281.903 -30.3619 309.547 47.0007C337 123.565 398.014 182.333 339.251 228.248C270.064 282.307 319.024 356.634 266.84 379.033H266.836Z" stroke="#FF914D" stroke-width="1.37" stroke-miterlimit="10"/>
</g>
<g style="mix-blend-mode:hard-light" opacity="0.06">
<path d="M270.123 381.551C175.683 412.783 -16.4418 364.282 65.1105 155.701C97.3551 73.2344 290.364 -31.6229 314.623 50.2281C338.673 131.221 406.098 189.03 341.052 232.134C264.618 282.787 324.69 363.505 270.123 381.551Z" stroke="#FF914D" stroke-width="1.37" stroke-miterlimit="10"/>
</g>
<path opacity="0.03" d="M100.218 290.62C-146.54 261.329 146.847 -54.6002 216.309 95.7677C250.856 170.557 401.469 86.3851 414.505 168.556C427.587 250.685 353.339 259.731 289.99 315.348C211.187 385.078 165.495 298.371 100.222 290.62H100.218Z" stroke="white" stroke-width="1.37" stroke-miterlimit="10"/>
<path opacity="0.05" d="M99.3393 295.07C-134.246 258.702 136.369 -47.9474 215.456 92.2406C254.393 161.264 406.153 94.6242 413.742 175.151C421.422 255.603 350.594 270.468 287.258 318.828C208.294 379.122 162.832 304.949 99.3393 295.065V295.07Z" stroke="white" stroke-width="1.37" stroke-miterlimit="10"/>
<path opacity="0.07" d="M98.4599 299.525C-121.813 256.459 125.647 -41.4284 214.601 88.7236C257.801 151.932 410.836 102.869 412.978 181.76C415.256 260.536 347.984 281.332 284.524 322.322C205.565 373.324 160.235 311.604 98.4557 299.525H98.4599Z" stroke="white" stroke-width="1.37" stroke-miterlimit="10"/>
<path opacity="0.1" d="M97.5851 303.976C-109.253 254.647 114.642 -34.9883 213.755 85.2016C261.071 142.578 415.532 111.11 412.222 188.361C409.098 265.46 345.416 292.185 281.799 325.807C202.881 367.517 157.719 318.315 97.5851 303.976Z" stroke="white" stroke-width="1.37" stroke-miterlimit="10"/>
<path opacity="0.12" d="M96.7061 308.431C-96.6102 253.323 103.317 -28.5363 212.901 81.6793C264.167 133.244 420.215 119.349 411.463 194.965C402.936 270.391 342.876 303.051 279.07 329.296C200.242 361.722 155.258 325.121 96.7061 308.431Z" stroke="white" stroke-width="1.37" stroke-miterlimit="10"/>
<path opacity="0.15" d="M95.8301 312.886C-83.9192 252.53 91.6819 -21.9809 212.049 78.1615C267.114 123.973 424.906 127.594 410.702 201.569C396.773 275.319 340.376 313.934 276.34 332.786C197.648 355.952 152.84 332.025 95.8301 312.882V312.886Z" stroke="white" stroke-width="1.37" stroke-miterlimit="10"/>
<path opacity="0.18" d="M94.9513 317.337C-71.2393 252.304 79.7687 -15.2289 211.199 74.6392C269.932 114.8 429.594 135.834 409.942 208.173C390.611 280.246 337.91 324.85 273.611 336.275C195.096 350.227 150.461 339.061 94.9513 317.337Z" stroke="white" stroke-width="1.37" stroke-miterlimit="10"/>
<path opacity="0.2" d="M94.0756 321.792C-58.6344 252.67 67.6489 -8.19698 210.344 71.1172C272.649 105.75 434.276 144.074 409.182 214.774C384.449 285.17 335.468 335.81 270.881 339.76C192.571 344.552 148.08 346.233 94.0715 321.788L94.0756 321.792Z" stroke="white" stroke-width="1.37" stroke-miterlimit="10"/>
<path opacity="0.23" d="M93.1948 326.243C-46.1786 253.627 55.4048 -0.848854 209.492 67.5992C275.32 96.8401 438.966 152.318 408.42 221.382C378.285 290.106 333.029 346.828 268.155 343.253C190.058 338.95 145.674 353.589 93.1989 326.247L93.1948 326.243Z" stroke="white" stroke-width="1.37" stroke-miterlimit="10"/>
<path opacity="0.25" d="M92.3186 330.698C-33.9565 255.164 43.116 6.82813 208.641 64.0771C277.976 88.0575 443.652 160.558 407.659 227.982C372.122 295.029 330.574 357.892 265.424 346.738C187.521 333.402 143.19 361.126 92.3186 330.698Z" stroke="white" stroke-width="1.37" stroke-miterlimit="10"/>
<path opacity="0.28" d="M91.4386 335.153C-22.0548 257.224 30.8603 14.8137 207.789 60.5553C280.656 79.3944 448.339 168.798 406.898 234.587C365.959 299.957 328.095 369.005 262.694 350.228C184.956 327.912 140.576 368.886 91.4386 335.149V335.153Z" stroke="white" stroke-width="1.37" stroke-miterlimit="10"/>
<path opacity="0.3" d="M90.5626 339.604C-10.5767 259.727 18.6991 23.0661 206.938 57.0333C283.381 70.8297 453.03 177.038 406.141 241.192C359.8 304.885 325.583 380.147 259.968 353.717C182.349 322.454 137.755 376.875 90.5668 339.604H90.5626Z" stroke="white" stroke-width="1.37" stroke-miterlimit="10"/>
<path opacity="0.33" d="M89.684 344.059C0.389064 262.546 6.67096 31.532 206.084 53.5151C286.162 62.3428 457.713 185.282 405.378 247.796C353.635 309.812 323.023 391.304 257.235 357.206C179.686 317.012 134.644 385.099 89.684 344.059Z" stroke="white" stroke-width="1.37" stroke-miterlimit="10"/>
<path opacity="0.35" d="M88.8075 348.509C10.7607 265.529 -5.21126 40.1623 205.232 49.9929C289.014 53.9053 462.403 193.522 404.617 254.4C347.467 314.744 320.428 402.466 254.505 360.695C176.98 311.575 131.153 393.536 88.8034 348.513L88.8075 348.509Z" stroke="white" stroke-width="1.37" stroke-miterlimit="10"/>
<path opacity="0.38" d="M87.9284 352.964C20.4721 268.48 -16.9438 48.9035 204.382 46.4705C291.938 45.5088 467.091 201.762 403.857 261C341.305 319.667 317.801 413.616 251.776 364.179C174.239 306.125 127.194 402.145 87.9284 352.964Z" stroke="white" stroke-width="1.37" stroke-miterlimit="10"/>
<path opacity="0.4" d="M87.0522 357.419C29.4874 271.172 -28.5297 57.7151 203.53 42.9528C294.926 37.1375 471.777 210.006 403.1 267.609C335.146 324.599 315.153 424.766 249.049 367.673C171.467 300.668 122.713 410.854 87.0522 357.419Z" stroke="white" stroke-width="1.37" stroke-miterlimit="10"/>
</svg>
